<?xml version="1.0" encoding="utf-8"?>
<!-- Generator: Adobe Illustrator 17.0.0, SVG Export Plug-In . SVG Version: 6.00 Build 0)  -->
<!DOCTYPE svg PUBLIC "-//W3C//DTD SVG 1.1//EN" "http://www.w3.org/Graphics/SVG/1.1/DTD/svg11.dtd">
<svg version="1.1" id="Layer_1" xmlns="http://www.w3.org/2000/svg" xmlns:xlink="http://www.w3.org/1999/xlink" x="0px" y="0px"
	 width="55px" height="55px" viewBox="0 0 55 55" enable-background="new 0 0 55 55" xml:space="preserve">
<g>
	<g>
		<g>
			<path fill="#06141E" d="M40.276,51H14.199c-0.5,0-0.906-0.408-0.906-0.906s0.405-0.906,0.906-0.906h12.394V45.4H4.461
				c-2.231,0-4.047-1.818-4.047-4.049V8.049C0.414,5.816,2.23,4,4.461,4h46.078c2.231,0,4.047,1.816,4.047,4.049V41.35
				c0,2.231-1.816,4.049-4.047,4.049H28.405v3.789h11.871c0.5,0,0.906,0.408,0.906,0.906S40.774,51,40.276,51z M27.866,43.586
				h22.673c1.232,0,2.233-1.001,2.233-2.235v-1.832H2.223v1.832c0,1.234,1.003,2.235,2.235,2.235H27.866z M2.223,37.704h50.549
				V8.049c0-1.232-1.001-2.237-2.233-2.237H4.461c-1.232,0-2.235,1.003-2.235,2.237v29.655H2.223z"/>
		</g>
	</g>
	<g>
		<g>
			<g>
				<path fill="#00C551" d="M15.75,34.418c-6.3,0-11.423-5.125-11.423-11.423c0-4.337,2.518-8.361,6.422-10.27
					c0.014-0.011,0.032-0.02,0.048-0.029c0.027-0.014,0.057-0.027,0.088-0.038c1.526-0.722,3.164-1.087,4.862-1.087
					c3.137,0,6.06,1.25,8.239,3.519c0.02,0.018,0.043,0.036,0.059,0.054c0.029,0.029,0.059,0.063,0.086,0.1
					c1.698,1.837,2.729,4.11,2.98,6.583l-0.301,0.032l0,0l0.301-0.032c0.041,0.383,0.059,0.772,0.059,1.166
					C27.17,29.294,22.048,34.418,15.75,34.418z M10.276,15.103c-2.575,1.816-4.14,4.756-4.14,7.89c0,5.299,4.312,9.611,9.613,9.611
					c5.123,0,9.321-4.027,9.597-9.079l-9.672,0.992c-0.104,0-0.437-0.034-0.534-0.068c-0.179-0.079-0.288-0.145-0.374-0.217
					c-0.048-0.036-0.088-0.077-0.127-0.12c-0.048-0.052-0.138-0.188-0.172-0.251L10.276,15.103z M23.361,17.135l-5.485,5.335
					l7.399-0.761C25.051,20.034,24.396,18.471,23.361,17.135z M11.855,14.207l3.789,7.91l6.484-6.307
					C19.315,13.323,15.225,12.705,11.855,14.207z"/>
			</g>
		</g>
		<g>
			<g>
				<path fill="#145DA1" d="M34.327,32.412H30.52c-0.5,0-0.906-0.408-0.906-0.906V21.8c0-0.5,0.405-0.906,0.906-0.906h3.807
					c0.5,0,0.906,0.405,0.906,0.906v9.704C35.233,32.004,34.825,32.412,34.327,32.412z M31.426,30.598h1.993v-7.892h-1.993V30.598z"
					/>
			</g>
			<g>
				<path fill="#145DA1" d="M42.047,32.412H38.24c-0.5,0-0.906-0.408-0.906-0.906V11.507c0-0.5,0.408-0.906,0.906-0.906h3.807
					c0.5,0,0.906,0.405,0.906,0.906v19.999C42.953,32.004,42.547,32.412,42.047,32.412z M39.148,30.598h1.993V12.413h-1.993V30.598z
					"/>
			</g>
			<g>
				<path fill="#145DA1" d="M49.767,32.412H45.96c-0.5,0-0.906-0.408-0.906-0.906V16.652c0-0.5,0.408-0.906,0.906-0.906h3.807
					c0.5,0,0.906,0.405,0.906,0.906v14.851C50.673,32.004,50.267,32.412,49.767,32.412z M46.868,30.598h1.993v-13.04h-1.993V30.598z
					"/>
			</g>
		</g>
	</g>
</g>
</svg>
