<?xml version="1.0" encoding="utf-8"?>
<!-- Generator: Adobe Illustrator 17.0.0, SVG Export Plug-In . SVG Version: 6.00 Build 0)  -->
<!DOCTYPE svg PUBLIC "-//W3C//DTD SVG 1.1//EN" "http://www.w3.org/Graphics/SVG/1.1/DTD/svg11.dtd">
<svg version="1.1" id="Layer_1" xmlns="http://www.w3.org/2000/svg" xmlns:xlink="http://www.w3.org/1999/xlink" x="0px" y="0px"
	 width="55px" height="55px" viewBox="0 0 55 55" enable-background="new 0 0 55 55" xml:space="preserve">
<g>
	<path fill="#145DA1" d="M11.214,12c-5.841,0-10.67,4.83-10.67,10.67s4.83,10.67,10.67,10.67s10.67-4.717,10.67-10.67
		S17.054,12,11.214,12z"/>
	<path fill="#00C551" d="M43.786,12.225c-5.841,0-10.67,4.83-10.67,10.67s4.83,10.67,10.67,10.67s10.67-4.83,10.67-10.67
		S49.627,12.225,43.786,12.225z"/>
	<path fill="#06141E" d="M44.348,38.62H10.54c-0.674,0-1.123,0.449-1.123,1.123s0.449,1.123,1.123,1.123h33.808
		c0.674,0,1.123-0.449,1.123-1.123S45.022,38.62,44.348,38.62z"/>
	<path fill="#06141E" d="M53.333,38.62h-1.011v-1.011c0-0.674-0.449-1.123-1.123-1.123c-0.674,0-1.123,0.449-1.123,1.123v1.011
		h-1.011c-0.674,0-1.123,0.449-1.123,1.123s0.449,1.123,1.123,1.123h1.011v1.011c0,0.674,0.449,1.123,1.123,1.123
		c0.674,0,1.123-0.449,1.123-1.123v-1.011h1.011c0.674,0,1.123-0.449,1.123-1.123S54.007,38.62,53.333,38.62z"/>
	<path fill="#06141E" d="M1.667,40.866h4.268c0.674,0,1.123-0.449,1.123-1.123S6.609,38.62,5.935,38.62H1.667
		c-0.674,0-1.123,0.449-1.123,1.123S0.993,40.866,1.667,40.866z"/>
	<path fill="#FFFFFF" d="M9.641,19.975c0-0.674-0.449-1.123-1.123-1.123H7.395c-0.674,0-1.123,0.449-1.123,1.123
		s0.449,1.123,1.123,1.123H8.63C9.192,21.098,9.641,20.649,9.641,19.975z"/>
	<path fill="#FFFFFF" d="M15.257,18.851h-1.236c-0.674,0-1.123,0.449-1.123,1.123s0.449,1.123,1.123,1.123h1.236
		c0.674,0,1.123-0.449,1.123-1.123S15.931,18.851,15.257,18.851z"/>
	<path fill="#FFFFFF" d="M11.326,24.467c-1.348,0-2.471,0.449-3.37,1.46c-0.449,0.449-0.449,1.123,0,1.572
		c0.449,0.449,1.123,0.449,1.572,0c1.011-1.011,2.696-1.011,3.707,0c0.225,0.225,0.562,0.337,0.786,0.337
		c0.225,0,0.562-0.112,0.786-0.337c0.449-0.449,0.449-1.123,0-1.572C13.797,24.917,12.562,24.467,11.326,24.467z"/>
	<path fill="#FFFFFF" d="M42.101,20.536c0-0.674-0.449-1.123-1.123-1.123h-1.123c-0.674,0-1.123,0.449-1.123,1.123
		s0.449,1.123,1.123,1.123h1.123C41.652,21.659,42.101,21.21,42.101,20.536z"/>
	<path fill="#FFFFFF" d="M47.717,19.413h-1.123c-0.674,0-1.123,0.449-1.123,1.123s0.449,1.123,1.123,1.123h1.123
		c0.674,0,1.123-0.449,1.123-1.123S48.391,19.413,47.717,19.413z"/>
	<path fill="#FFFFFF" d="M45.696,25.591c-1.011,1.011-2.583,1.011-3.594,0c-0.449-0.449-1.123-0.449-1.572,0
		c-0.449,0.449-0.449,1.123,0,1.572c0.899,0.899,2.134,1.46,3.37,1.46c1.236,0,2.471-0.449,3.37-1.46
		c0.449-0.449,0.449-1.123,0-1.572C46.819,25.141,46.145,25.141,45.696,25.591z"/>
</g>
</svg>
