<?xml version="1.0" encoding="utf-8"?>
<!-- Generator: Adobe Illustrator 17.0.0, SVG Export Plug-In . SVG Version: 6.00 Build 0)  -->
<!DOCTYPE svg PUBLIC "-//W3C//DTD SVG 1.1//EN" "http://www.w3.org/Graphics/SVG/1.1/DTD/svg11.dtd">
<svg version="1.1" id="Layer_1" xmlns="http://www.w3.org/2000/svg" xmlns:xlink="http://www.w3.org/1999/xlink" x="0px" y="0px"
	 width="25px" height="25px" viewBox="0 0 25 25" enable-background="new 0 0 25 25" xml:space="preserve">
<g>
	<g>
		<path fill="#7A7A7A" d="M22.119,12.664c-0.258-0.319-0.454-0.562-0.651-0.804c-0.198,0.241-0.396,0.481-0.662,0.807h-0.924
			c-0.279-0.333-0.475-0.57-0.672-0.806c-0.195,0.244-0.389,0.486-0.643,0.804h-0.937c-0.277-0.335-0.471-0.569-0.666-0.804
			c-0.194,0.243-0.386,0.484-0.549,0.686c-0.647,0.22-1.3,0.443-1.943,0.661c-0.715-0.319-1.508-0.641-2.269-1.026
			c-0.597-0.301-0.879-0.056-1.153,0.454c-0.337,0.63-0.74,1.225-1.115,1.834c-0.488,0.864-0.616,0.878-1.104,0.118
			c-0.484-0.636-1.011-1.243-1.438-1.914c-0.29-0.453-0.548-0.587-1.072-0.392c-3.151,1.169-5.469,4.375-5.589,7.726
			c-0.022,0.612,0.166,0.815,0.782,0.81c2.972-0.024,5.943-0.01,8.915-0.01h0.729c0.039,0.109,0.063,0.151,0.071,0.195
			c0.209,1.194,0.879,2.011,2.073,2.251c1.128,0.227,1.958-0.315,2.604-1.229c0.124-0.176,0.454-0.289,0.69-0.29
			c2.02-0.01,4.039,0.008,6.057,0.026c1.129,0.01,1.682-0.514,1.687-1.634c0.007-1.579-0.006-3.157,0.004-4.736
			C24.357,13.094,24.194,12.897,22.119,12.664z M11.505,19.712c-0.077,0.127-0.284,0.249-0.432,0.249
			c-3.129,0.014-6.258,0.011-9.38,0.011c-0.325-2.137,1.706-5.334,3.45-6.051v1.677c-1.182,0.234-1.104,1.376-1.391,2.257
			c-0.063,0.194,0.216,0.644,0.442,0.747c0.212,0.096,0.669-0.022,0.822-0.209c0.151-0.181,0.078-0.569,0.057-0.863
			c-0.017-0.243-0.223-0.606-0.13-0.697c0.199-0.195,0.538-0.34,0.818-0.34c0.527,0.001,0.746,0.495,0.421,0.913
			c-0.286,0.367-0.39,0.742-0.01,1.031c0.21,0.159,0.623,0.244,0.853,0.146C7.461,18.4,7.565,18,7.339,17.534
			c-0.098-0.201-0.072-0.459-0.159-0.668c-0.13-0.314-0.272-0.636-0.477-0.902c-0.17-0.22-0.604-0.344-0.631-0.548
			c-0.082-0.638-0.049-1.295-0.01-1.942c0.008-0.117,0.249-0.297,0.393-0.305c0.134-0.008,0.322,0.141,0.413,0.272
			c0.644,0.935,1.267,1.886,1.901,2.829c0.537,0.799,0.735,0.786,1.225-0.072c0.606-1.063,1.214-2.127,1.822-3.192
			c0.095-0.031,0.191-0.06,0.287-0.091c0.13,0.258,0.319,0.505,0.374,0.779c0.061,0.311,0.015,0.647-0.008,0.97
			c-0.028,0.381-0.152,0.658-0.552,0.864c-0.87,0.447-1.086,1.383-0.57,2.113c0.524,0.74,1.451,0.885,2.126,0.33
			c0.74-0.608,0.744-1.521,0.061-2.251c-0.164-0.177-0.241-0.489-0.252-0.744c-0.018-0.411,0.052-0.827,0.088-1.289
			c0.617,0.203,0.977,0.498,0.939,1.227c-0.059,1.13-0.015,2.266-0.015,3.429C13.041,18.213,12.132,18.672,11.505,19.712z
			 M14.286,22.381c-0.644,0.201-1.259,0.11-1.741-0.379c-0.499-0.507-0.613-1.139-0.354-1.802c0.226-0.576,0.605-0.984,1.293-0.951
			c0.159-0.032,0.319-0.066,0.478-0.099c0.985,0.315,1.415,0.806,1.429,1.636C15.405,21.539,14.984,22.165,14.286,22.381z
			 M23.504,19.462c0,1.399,0,1.412-1.391,1.422c-1.922,0.011-3.846,0.003-5.797,0.003c-0.117-0.417-0.227-0.807-0.337-1.199
			c-0.778-0.643-0.956-1.482-0.853-2.449c0.061-0.571,0.011-1.155,0.011-1.79h8.367V19.462z M14.989,14.521
			c0.217-0.385,0.311-0.797,0.532-0.885c0.351-0.139,0.833-0.343,1.139,0.224c0.05,0.093,0.524,0.105,0.645-0.011
			c0.429-0.41,1.186-0.467,1.544-0.021c0.248,0.309,0.464,0.344,0.723,0.025c0.371-0.453,1.16-0.461,1.532-0.01
			c0.256,0.312,0.503,0.333,0.715-0.011c0.353-0.571,0.879-0.298,1.289-0.206c0.212,0.049,0.335,0.491,0.583,0.895H14.989z"/>
		<path fill="#7A7A7A" d="M9.365,1.692c-2.682-0.02-4.954,2.198-4.983,4.86c-0.029,2.712,2.204,5.011,4.889,5.034
			c2.678,0.024,4.998-2.268,5.005-4.941C14.284,3.996,12.018,1.711,9.365,1.692z M9.326,10.752
			c-2.321,0.003-4.099-1.769-4.109-4.094c-0.01-2.34,1.738-4.12,4.059-4.13c2.36-0.011,4.17,1.778,4.165,4.115
			C13.434,8.947,11.63,10.748,9.326,10.752z"/>
		<path fill="#7A7A7A" d="M10.663,12.841c-0.254,0.538-0.486,1.086-0.728,1.629c-0.488,0.864-0.616,0.878-1.104,0.118
			c-0.284-0.578-0.578-1.151-0.849-1.737c-0.252-0.546-0.113-0.786,0.471-0.811c0.576-0.024,1.153-0.032,1.727-0.018
			C10.722,12.037,10.892,12.356,10.663,12.841z"/>
		<path fill="#7A7A7A" d="M15.993,19.695c-0.006-0.006-0.011-0.01-0.017-0.015l0.018,0.022
			C15.994,19.699,15.993,19.698,15.993,19.695z"/>
		<path fill="#7A7A7A" d="M14.909,21.483c-0.236,0.036-0.518,0.173-0.701,0.089c-0.956-0.429-1.178-1.201-0.723-2.323
			c0.159-0.032,0.319-0.066,0.478-0.099c0.063,0.286,0.188,0.576,0.174,0.857c-0.02,0.421,0.12,0.669,0.482,0.885
			C14.778,20.986,14.817,21.28,14.909,21.483z"/>
		<path fill="#7A7A7A" d="M22.954,19.2c0.003,0.492-0.474,0.995-0.959,1.011c-0.505,0.017-1.03-0.514-1.016-1.027
			c0.013-0.493,0.507-0.973,0.998-0.969C22.478,18.22,22.949,18.694,22.954,19.2z"/>
		<path fill="#7A7A7A" d="M20.435,19.211c-0.003,0.493-0.486,0.99-0.973,0.999c-0.509,0.01-1.02-0.521-1.001-1.038
			c0.02-0.5,0.512-0.969,1.006-0.958C19.965,18.227,20.438,18.712,20.435,19.211z"/>
		<path fill="#7A7A7A" d="M17.915,16.677c-0.035,0.492-0.544,0.946-1.036,0.925c-0.502-0.022-0.952-0.507-0.939-1.012
			c0.014-0.503,0.491-0.966,0.991-0.96C17.455,15.636,17.951,16.164,17.915,16.677z"/>
		<path fill="#7A7A7A" d="M20.432,16.633c-0.01,0.499-0.486,0.969-0.985,0.969c-0.53,0.001-1.015-0.509-0.985-1.036
			c0.028-0.5,0.521-0.955,1.017-0.935C19.976,15.649,20.442,16.138,20.432,16.633z"/>
		<path fill="#7A7A7A" d="M22.952,16.609c0.003,0.505-0.456,0.98-0.959,0.992c-0.527,0.014-1.03-0.488-1.015-1.012
			c0.015-0.495,0.503-0.965,0.999-0.959C22.477,15.635,22.948,16.109,22.952,16.609z"/>
		<path fill="#7A7A7A" d="M15.976,19.68c0.006,0.006,0.011,0.01,0.017,0.015c0,0.003,0.001,0.004,0.001,0.007L15.976,19.68z"/>
		<path fill="#7A7A7A" d="M17.671,19.848c-0.381,0.452-0.87,0.509-1.341,0.149c-0.12-0.093-0.226-0.201-0.337-0.302
			c-0.038-0.149-0.059-0.295-0.059-0.435c0-0.049,0.003-0.098,0.008-0.145c0.006-0.047,0.014-0.093,0.025-0.138
			c0.003-0.014,0.007-0.028,0.011-0.04c0-0.003,0.001-0.006,0.003-0.008c0.006-0.017,0.011-0.033,0.017-0.049
			c0.006-0.014,0.011-0.029,0.017-0.043c0.007-0.018,0.015-0.033,0.024-0.05c0.021-0.04,0.045-0.078,0.071-0.114
			c0.028-0.038,0.059-0.071,0.092-0.103c0.031-0.028,0.063-0.054,0.098-0.078c0.017-0.013,0.035-0.024,0.054-0.035
			c0.018-0.011,0.038-0.022,0.059-0.032c0.036-0.02,0.077-0.038,0.118-0.053c0.283-0.106,0.736-0.018,1.002,0.153
			C18.024,18.839,18.038,19.412,17.671,19.848z"/>
	</g>
</g>
</svg>
