<?xml version="1.0" encoding="utf-8"?>
<!-- Generator: Adobe Illustrator 17.0.0, SVG Export Plug-In . SVG Version: 6.00 Build 0)  -->
<!DOCTYPE svg PUBLIC "-//W3C//DTD SVG 1.1//EN" "http://www.w3.org/Graphics/SVG/1.1/DTD/svg11.dtd">
<svg version="1.1" id="Layer_1" xmlns="http://www.w3.org/2000/svg" xmlns:xlink="http://www.w3.org/1999/xlink" x="0px" y="0px"
	 width="25px" height="25px" viewBox="0 0 25 25" enable-background="new 0 0 25 25" xml:space="preserve">
<g>
	<g>
		<path fill="#8C8C8C" d="M21.71,10.15c0-0.223-0.063-0.399-0.222-0.557C20,8.11,18.515,6.625,17.031,5.137
			c-0.151-0.152-0.32-0.221-0.536-0.219c-0.883,0.006-1.767,0.003-2.65,0.003h-0.245c0-0.326,0.012-0.615-0.002-0.904
			c-0.055-1.091-0.547-1.935-1.457-2.538C11.743,1.217,11.293,1.104,10.839,1h-0.713c-0.42,0.153-0.876,0.248-1.255,0.471
			C7.93,2.026,7.443,2.891,7.374,3.98C7.355,4.282,7.371,4.587,7.371,4.921c-0.326,0-0.635-0.007-0.944,0.001
			C5.69,4.941,5.116,5.255,4.802,5.929c-0.127,0.272-0.189,0.599-0.19,0.902c-0.011,5.026-0.009,10.052-0.007,15.078
			c0,0.991,0.543,1.665,1.498,1.872c0.02,0.004,0.038,0.019,0.058,0.03H20.15c0.012-0.008,0.023-0.022,0.037-0.024
			c0.9-0.144,1.528-0.899,1.525-1.923C21.7,17.96,21.706,14.055,21.71,10.15z M17.079,6.554c0.991,0.992,2,2.002,2.997,3
			c-0.423,0-0.894,0.001-1.366,0c-0.222,0-0.445,0.007-0.667-0.003c-0.514-0.025-0.942-0.408-0.958-0.907
			C17.062,7.933,17.079,7.222,17.079,6.554z M9.524,2.118c1.137-0.592,2.677,0.04,3.049,1.268c0.082,0.272,0.13,0.566,0.133,0.85
			c0.013,1.306,0.012,2.613,0.004,3.92c-0.006,0.993-0.91,1.635-1.824,1.309c-0.522-0.187-0.88-0.684-0.885-1.294
			C9.99,6.834,9.995,5.498,9.999,4.161c0.001-0.34,0.199-0.547,0.489-0.541c0.288,0.007,0.462,0.208,0.463,0.565
			c0.004,1.247,0.001,2.495,0.002,3.742c0.001,0.104,0.002,0.209,0.021,0.31c0.036,0.2,0.207,0.336,0.409,0.342
			c0.213,0.006,0.391-0.128,0.437-0.336c0.016-0.072,0.024-0.147,0.024-0.221c0.001-1.284,0.006-2.569-0.002-3.853
			c-0.004-0.678-0.359-1.186-0.929-1.375c-0.901-0.299-1.776,0.345-1.804,1.332C9.101,4.38,9.107,4.632,9.107,4.91H8.289
			C8.142,3.753,8.379,2.713,9.524,2.118z M20.816,10.7c0,3.726,0,7.453-0.001,11.179c0,0.693-0.347,1.04-1.039,1.04
			c-4.417,0.001-8.833,0.001-13.25,0c-0.68,0-1.032-0.349-1.032-1.025c-0.001-5.018-0.001-10.036,0-15.054
			c0-0.678,0.351-1.028,1.029-1.029c0.78-0.001,1.559,0,2.338,0h0.244c0,0.112-0.001,0.205,0.001,0.3
			C9.118,6.92,9.063,7.736,9.158,8.534c0.115,0.966,0.727,1.593,1.672,1.835c0.887,0.227,1.638-0.056,2.238-0.735
			c0.368-0.417,0.534-0.917,0.535-1.471c0.001-0.771,0.001-1.543,0.001-2.351h2.579v0.255c0,0.787-0.001,1.574,0.001,2.361
			c0.002,1.217,0.806,2.016,2.028,2.017c0.78,0.001,1.559,0,2.338,0h0.267V10.7z"/>
		<path fill="#8C8C8C" d="M18.241,12.316c0,0.2-0.096,0.345-0.285,0.406c-0.103,0.033-0.218,0.038-0.328,0.038
			c-2.188,0.002-4.376,0.002-6.564,0.002H11.02c-0.361-0.002-0.576-0.169-0.575-0.446c0-0.277,0.215-0.444,0.576-0.445
			c1.105-0.001,2.21,0,3.315,0c1.105,0,2.21-0.001,3.315,0.001c0.102,0.001,0.21,0.006,0.306,0.038
			C18.144,11.973,18.241,12.117,18.241,12.316z"/>
		<path fill="#8C8C8C" d="M18.241,15.522c0.001,0.213-0.13,0.382-0.346,0.429c-0.086,0.018-0.177,0.018-0.266,0.018
			c-1.09,0.001-2.18,0.001-3.27,0.001c-1.098,0-2.195,0.001-3.293,0c-0.074,0-0.149,0.003-0.222-0.008
			c-0.233-0.034-0.399-0.218-0.4-0.435c-0.002-0.217,0.164-0.404,0.396-0.439c0.073-0.011,0.148-0.008,0.222-0.008
			c2.187-0.001,4.375-0.001,6.563,0c0.089,0,0.179-0.001,0.266,0.017C18.109,15.142,18.241,15.308,18.241,15.522z"/>
		<path fill="#8C8C8C" d="M18.241,18.732c0,0.214-0.131,0.381-0.348,0.427c-0.086,0.018-0.177,0.017-0.265,0.018
			c-1.09,0.001-2.181,0.001-3.27,0.001c-1.098,0-2.196,0-3.293-0.001c-0.074,0-0.149,0.003-0.222-0.008
			c-0.233-0.035-0.398-0.219-0.398-0.437c0-0.218,0.165-0.403,0.398-0.438c0.073-0.011,0.148-0.008,0.222-0.008
			c2.188,0,4.376-0.001,6.564,0.001c0.089,0,0.179-0.001,0.265,0.017C18.11,18.351,18.241,18.518,18.241,18.732z"/>
		<path fill="#8C8C8C" d="M9.39,12.306c0.006,0.236-0.194,0.445-0.429,0.452c-0.237,0.007-0.44-0.191-0.445-0.432
			c-0.004-0.243,0.187-0.445,0.425-0.452C9.173,11.868,9.384,12.07,9.39,12.306z"/>
		<path fill="#8C8C8C" d="M9.39,15.534c-0.006,0.236-0.216,0.439-0.449,0.432c-0.239-0.006-0.43-0.209-0.426-0.452
			c0.004-0.241,0.208-0.439,0.445-0.432C9.196,15.088,9.395,15.298,9.39,15.534z"/>
		<path fill="#8C8C8C" d="M9.39,18.739c-0.004,0.236-0.213,0.44-0.446,0.435c-0.238-0.004-0.432-0.207-0.429-0.449
			c0.003-0.241,0.205-0.44,0.442-0.435C9.192,18.294,9.393,18.503,9.39,18.739z"/>
	</g>
</g>
</svg>
