<?xml version="1.0" encoding="utf-8"?>
<!-- Generator: Adobe Illustrator 17.0.0, SVG Export Plug-In . SVG Version: 6.00 Build 0)  -->
<!DOCTYPE svg PUBLIC "-//W3C//DTD SVG 1.1//EN" "http://www.w3.org/Graphics/SVG/1.1/DTD/svg11.dtd">
<svg version="1.1" id="Layer_1" xmlns="http://www.w3.org/2000/svg" xmlns:xlink="http://www.w3.org/1999/xlink" x="0px" y="0px"
	 width="25px" height="25px" viewBox="0 0 25 25" enable-background="new 0 0 25 25" xml:space="preserve">
<g>
	<path fill="#848484" d="M22.61,23.977V1.022c0-0.484-0.093-0.576-0.576-0.576H5.26c-0.486,0-0.578,0.091-0.578,0.574
		c0,7.652,0,15.304,0.001,22.956c0,0.093-0.007,0.188,0.011,0.278c0.055,0.272,0.344,0.379,0.567,0.212
		c0.067-0.05,0.124-0.114,0.183-0.174c0.435-0.435,0.868-0.871,1.318-1.322c0.452,0.453,0.885,0.889,1.319,1.324
		c0.345,0.345,0.458,0.345,0.808-0.005c0.435-0.435,0.868-0.87,1.313-1.316c0.419,0.419,0.818,0.818,1.217,1.217
		c0.485,0.486,0.524,0.487,1.005,0.005c0.404-0.404,0.806-0.81,1.22-1.226c0.489,0.49,0.952,0.957,1.419,1.42
		c0.22,0.217,0.387,0.215,0.61-0.001c0.194-0.188,0.385-0.38,0.574-0.572c0.276-0.28,0.551-0.562,0.836-0.854
		c0.473,0.475,0.913,0.918,1.354,1.36c0.308,0.308,0.441,0.307,0.754-0.007c0.441-0.441,0.881-0.883,1.358-1.362
		c0.104,0.12,0.177,0.214,0.26,0.297c0.387,0.39,0.766,0.787,1.17,1.158c0.091,0.084,0.293,0.137,0.398,0.094
		c0.107-0.044,0.165-0.222,0.229-0.348C22.629,24.105,22.61,24.037,22.61,23.977z M21.879,23.318
		c-0.287-0.287-0.545-0.544-0.803-0.802c-0.545-0.545-0.545-0.545-1.097,0.007c-0.37,0.37-0.741,0.74-1.112,1.109
		c-0.011,0.011-0.028,0.016-0.101,0.055c-0.126-0.139-0.262-0.297-0.407-0.445c-0.301-0.307-0.608-0.611-0.913-0.914
		c-0.289-0.287-0.427-0.285-0.721,0.008c-0.389,0.387-0.776,0.776-1.165,1.164c-0.058,0.058-0.12,0.112-0.201,0.187
		c-0.438-0.439-0.865-0.868-1.293-1.297c-0.367-0.368-0.467-0.369-0.828-0.007c-0.428,0.43-0.855,0.861-1.345,1.355
		c-0.186-0.214-0.349-0.416-0.528-0.603c-0.262-0.275-0.535-0.54-0.804-0.808c-0.283-0.28-0.424-0.282-0.702-0.006
		c-0.395,0.393-0.788,0.788-1.183,1.182c-0.058,0.058-0.12,0.112-0.199,0.185c-0.445-0.445-0.878-0.881-1.313-1.316
		c-0.341-0.342-0.455-0.343-0.791-0.007c-0.307,0.309-0.614,0.619-0.972,0.98V1.176h16.479V23.318z"/>
	<path fill="#848484" d="M13.646,3.486c-2.505-0.007-4.553,2.041-4.561,4.562c-0.007,2.496,2.039,4.553,4.535,4.557
		c2.52,0.004,4.575-2.015,4.585-4.506C18.216,5.547,16.186,3.493,13.646,3.486z M13.646,11.895c-2.14-0.001-3.855-1.725-3.851-3.872
		c0.003-2.089,1.738-3.824,3.825-3.827c2.14-0.004,3.878,1.724,3.875,3.854C17.494,10.178,15.773,11.897,13.646,11.895z"/>
	<path fill="#848484" d="M19.582,15.144c-0.084,0.03-0.182,0.033-0.273,0.033c-2.617,0.002-5.233,0.001-7.85,0.001
		c-0.025,0-0.051,0.001-0.076,0c-0.253-0.01-0.412-0.143-0.417-0.349c-0.005-0.214,0.16-0.359,0.427-0.36
		c1.342-0.002,2.684-0.001,4.026-0.001c1.308,0,2.617-0.004,3.925,0.005c0.13,0.001,0.291,0.051,0.382,0.137
		C19.899,14.775,19.812,15.062,19.582,15.144z"/>
	<path fill="#848484" d="M19.813,17.136c-0.005,0.205-0.164,0.34-0.42,0.341c-1.341,0.003-2.683,0.001-4.026,0.001
		c-1.283,0-2.566,0.001-3.848-0.001c-0.093,0-0.211,0.028-0.273-0.018c-0.111-0.081-0.247-0.201-0.262-0.318
		c-0.013-0.103,0.108-0.25,0.209-0.328c0.074-0.057,0.209-0.043,0.318-0.043c2.583-0.002,5.166-0.002,7.748-0.002
		c0.051,0,0.101-0.002,0.151,0.001C19.66,16.786,19.818,16.932,19.813,17.136z"/>
	<path fill="#848484" d="M19.797,19.441c-0.009,0.11-0.114,0.234-0.209,0.308c-0.069,0.053-0.193,0.043-0.293,0.043
		c-2.6,0.002-5.2,0.001-7.8,0.001c-0.051,0-0.101,0.003-0.152-0.001c-0.228-0.017-0.38-0.165-0.377-0.362
		c0.004-0.197,0.159-0.342,0.39-0.344c0.608-0.004,1.216-0.002,1.823-0.002h2.229c1.308,0,2.617-0.001,3.925,0.002
		c0.098,0.001,0.223-0.003,0.289,0.052C19.71,19.21,19.805,19.342,19.797,19.441z"/>
	<path fill="#848484" d="M9.95,14.817c0.002,0.205-0.141,0.356-0.374,0.36c-0.574,0.007-1.147,0.007-1.72-0.001
		c-0.229-0.003-0.38-0.162-0.376-0.361c0.004-0.197,0.158-0.339,0.391-0.343c0.201-0.004,0.401-0.003,0.602-0.002
		c0.086,0.001,0.172,0.001,0.258,0.001c0.166,0,0.333-0.002,0.499-0.002c0.112,0,0.224,0.001,0.336,0.003
		C9.807,14.477,9.947,14.608,9.95,14.817z"/>
	<path fill="#848484" d="M9.949,19.437c-0.001,0.212-0.152,0.349-0.405,0.354c-0.278,0.006-0.557,0.001-0.835,0.001
		c-0.27,0-0.54,0.004-0.81-0.001c-0.264-0.005-0.429-0.156-0.419-0.37c0.009-0.205,0.168-0.335,0.423-0.337
		c0.548-0.003,1.096-0.003,1.645,0C9.805,19.087,9.95,19.22,9.949,19.437z"/>
	<path fill="#848484" d="M9.95,17.131c-0.001,0.209-0.138,0.339-0.382,0.345c-0.287,0.007-0.573,0.002-0.86,0.002
		c-0.278,0-0.557,0.005-0.835-0.001c-0.236-0.005-0.389-0.142-0.394-0.339c-0.005-0.196,0.145-0.36,0.374-0.363
		c0.573-0.009,1.147-0.009,1.72-0.001C9.81,16.777,9.951,16.927,9.95,17.131z"/>
	<g>
		<g>
			<path fill="#848484" d="M15.143,7.058c0,0.088,0.001,0.176,0,0.264c-0.001,0.084-0.033,0.116-0.118,0.116
				c-0.148,0-0.297,0.001-0.445-0.001c-0.027,0-0.038,0.007-0.043,0.034c-0.048,0.263-0.169,0.485-0.372,0.66
				c-0.183,0.158-0.397,0.251-0.632,0.302c-0.064,0.014-0.128,0.024-0.199,0.037c0.014,0.015,0.024,0.028,0.036,0.041
				c0.462,0.5,0.895,1.026,1.327,1.552c0.027,0.033,0.042,0.067,0.021,0.109c-0.02,0.043-0.055,0.057-0.1,0.057
				c-0.187-0.001-0.374-0.001-0.56,0c-0.043,0.001-0.072-0.018-0.098-0.049c-0.268-0.316-0.535-0.634-0.806-0.947
				c-0.208-0.239-0.422-0.474-0.637-0.708c-0.045-0.049-0.068-0.097-0.065-0.164c0.005-0.101,0.001-0.203,0.001-0.305
				c0-0.078,0.037-0.116,0.116-0.117c0.17-0.003,0.341,0.001,0.51-0.01c0.193-0.012,0.376-0.061,0.535-0.179
				c0.097-0.072,0.166-0.166,0.203-0.282c0.003-0.009,0.003-0.018,0.006-0.031h-1.241c-0.099,0-0.128-0.029-0.128-0.126
				c-0.001-0.085-0.001-0.17,0-0.255c0-0.082,0.032-0.114,0.115-0.114c0.386-0.001,0.772,0,1.158,0h0.058
				c-0.011-0.02-0.018-0.034-0.027-0.049c-0.067-0.105-0.166-0.17-0.28-0.214c-0.165-0.064-0.339-0.076-0.514-0.076
				c-0.126-0.001-0.252,0-0.378,0c-0.101,0-0.132-0.032-0.132-0.134c0-0.111,0.002-0.222-0.001-0.334
				c-0.001-0.057,0.017-0.098,0.068-0.123h2.546c0.053,0.023,0.072,0.065,0.071,0.122c-0.002,0.083,0,0.167-0.001,0.251
				c0,0.093-0.031,0.124-0.123,0.124h-0.669c0.026,0.041,0.053,0.073,0.069,0.11c0.04,0.094,0.076,0.19,0.111,0.287
				c0.009,0.026,0.018,0.036,0.047,0.036c0.151-0.002,0.302-0.001,0.453-0.001C15.112,6.942,15.143,6.973,15.143,7.058z"/>
		</g>
	</g>
</g>
</svg>
