<?xml version="1.0" encoding="utf-8"?>
<!-- Generator: Adobe Illustrator 17.0.0, SVG Export Plug-In . SVG Version: 6.00 Build 0)  -->
<!DOCTYPE svg PUBLIC "-//W3C//DTD SVG 1.1//EN" "http://www.w3.org/Graphics/SVG/1.1/DTD/svg11.dtd">
<svg version="1.1" id="Layer_1" xmlns="http://www.w3.org/2000/svg" xmlns:xlink="http://www.w3.org/1999/xlink" x="0px" y="0px"
	 width="350px" height="100px" viewBox="0 0 350 100" enable-background="new 0 0 350 100" xml:space="preserve">
<g>
	<path fill="#145DA0" d="M87.786,33.074c-3.791-3.791-8.413-5.713-13.738-5.713c-5.34,0-9.97,1.922-13.761,5.713
		c-3.775,3.775-5.69,8.397-5.69,13.737c0,5.356,1.914,9.985,5.69,13.761c3.775,3.775,8.405,5.69,13.761,5.69
		c5.34,0,9.962-1.914,13.738-5.69c3.791-3.791,5.713-8.42,5.713-13.761c0-2.689-0.48-5.201-1.426-7.466
		C91.127,37.083,89.685,34.973,87.786,33.074z M74.049,59.482c-3.539,0-6.471-1.212-8.965-3.706
		c-2.494-2.493-3.706-5.426-3.706-8.965c0-1.78,0.307-3.419,0.911-4.87c0.605-1.453,1.545-2.822,2.795-4.072
		c1.25-1.25,2.624-2.194,4.086-2.807c1.459-0.612,3.1-0.922,4.879-0.922c3.523,0,6.455,1.22,8.965,3.729
		c2.494,2.494,3.706,5.419,3.706,8.942c0,3.539-1.212,6.471-3.706,8.965C80.52,58.27,77.587,59.482,74.049,59.482z"/>
	<path fill="#145DA0" d="M127.058,57.038c-0.301-0.29-0.651-0.526-1.044-0.702c-0.414-0.184-0.861-0.278-1.33-0.278l-0.026,0
		c-0.738,0.021-1.391,0.224-1.942,0.606l-0.057,0.043c-2.27,1.842-4.937,2.776-7.926,2.776c-3.554,0-6.494-1.212-8.988-3.706
		c-2.478-2.478-3.683-5.41-3.683-8.965c0-3.539,1.205-6.463,3.683-8.942c2.51-2.509,5.449-3.729,8.988-3.729
		c1.476,0,2.886,0.231,4.192,0.688c1.3,0.455,2.506,1.116,3.587,1.965c0.693,0.604,1.463,0.91,2.289,0.91
		c0.461,0,0.904-0.086,1.315-0.255c0.415-0.17,0.783-0.414,1.094-0.725c0.309-0.309,0.552-0.67,0.722-1.074
		c0.172-0.408,0.258-0.857,0.258-1.335c0-0.97-0.314-1.766-0.935-2.364l-0.058-0.051c-3.688-3.012-7.882-4.539-12.464-4.539
		c-5.34,0-9.97,1.922-13.761,5.713c-3.775,3.775-5.69,8.397-5.69,13.737c0,5.356,1.914,9.985,5.69,13.761
		c3.775,3.775,8.405,5.69,13.761,5.69c4.517,0,8.63-1.455,12.225-4.324l0.088-0.08c0.682-0.703,1.028-1.514,1.028-2.411
		c0-0.466-0.092-0.915-0.275-1.335C127.618,57.7,127.369,57.338,127.058,57.038z"/>
	<path fill="#145DA0" d="M9.023,73.471c-3.516,0-5.95-0.34-6.219-0.379C1.194,72.856,0,71.475,0,69.848v-5.62
		c0-1.811,1.468-3.278,3.278-3.278s3.278,1.468,3.278,3.278v2.613c4.92,0.248,15.188,0,21.595-5.554
		c3.857-3.343,5.731-8.06,5.731-14.419c0-6.364-1.878-11.093-5.741-14.455c-6.404-5.574-16.658-5.869-21.585-5.641v2.6
		c0,1.811-1.468,3.278-3.278,3.278S0,31.183,0,29.372v-5.62c0-1.632,1.201-3.016,2.817-3.246c0.758-0.108,18.696-2.529,29.605,6.941
		c5.319,4.617,8.016,11.151,8.016,19.421s-2.697,14.794-8.016,19.393C25.383,72.348,15.415,73.47,9.023,73.471z"/>
	<path fill="#145DA0" d="M57.227,50.147H37.156c-1.811,0-3.278-1.468-3.278-3.278c0-1.811,1.468-3.278,3.278-3.278h20.071
		c1.811,0,3.278,1.468,3.278,3.278C60.506,48.679,59.038,50.147,57.227,50.147z"/>
	<g>
		<path fill="#008839" d="M204.102,47.705c0.232,3.852,1.401,6.886,3.501,9.104c2.1,2.219,4.901,3.326,8.403,3.326
			c2.334,0,4.434-0.569,6.303-1.706c1.867-1.138,3.589-2.933,5.164-5.383l4.814,3.676c-2.276,3.326-4.726,5.748-7.353,7.265
			c-2.626,1.517-5.689,2.276-9.19,2.276c-2.744,0-5.267-0.496-7.572-1.488c-2.306-0.992-4.289-2.363-5.952-4.114
			c-1.664-1.75-2.963-3.836-3.895-6.258c-0.934-2.421-1.401-5.091-1.401-8.009c0-2.859,0.451-5.5,1.356-7.922
			c0.904-2.42,2.173-4.507,3.808-6.258c1.633-1.751,3.574-3.121,5.821-4.114c2.245-0.992,4.711-1.488,7.396-1.488
			c2.683,0,5.121,0.468,7.309,1.401c2.188,0.934,4.04,2.262,5.558,3.983c1.517,1.722,2.699,3.794,3.545,6.215
			c0.846,2.422,1.269,5.151,1.269,8.184v1.312H204.102z M225.898,41.665c-0.468-2.858-1.635-5.12-3.501-6.784
			c-1.868-1.663-4.202-2.494-7.003-2.494c-2.801,0-5.15,0.818-7.046,2.451c-1.897,1.634-3.166,3.91-3.808,6.827H225.898z"/>
		<path fill="#008839" d="M266.116,65.474v-5.952c-3.453,4.494-8.076,6.74-13.868,6.74c-2.516,0-4.843-0.481-6.98-1.445
			c-2.136-0.963-3.978-2.319-5.529-4.07c-1.551-1.75-2.766-3.821-3.643-6.214c-0.878-2.392-1.316-5.018-1.316-7.878
			c0-2.918,0.467-5.602,1.404-8.053c0.936-2.451,2.224-4.58,3.862-6.39c1.639-1.808,3.584-3.209,5.837-4.202
			c2.253-0.992,4.726-1.488,7.417-1.488c5.383,0,9.655,2.043,12.815,6.127V0h6.915v65.474H266.116z M266.204,46.174
			c0-3.897-1.128-7.037-3.382-9.422c-2.255-2.386-5.227-3.578-8.916-3.578c-3.574,0-6.458,1.237-8.655,3.708
			c-2.196,2.473-3.293,5.744-3.293,9.814c0,3.898,1.083,7.024,3.25,9.38s5.007,3.533,8.522,3.533c3.748,0,6.765-1.236,9.049-3.708
			C265.062,53.43,266.204,50.187,266.204,46.174z"/>
		<path fill="#008839" d="M306.611,65.474v-6.04c-3.151,4.552-7.616,6.828-13.392,6.828c-2.626,0-5.033-0.481-7.222-1.445
			c-2.188-0.963-4.085-2.304-5.69-4.026c-1.606-1.721-2.845-3.778-3.72-6.171c-0.875-2.392-1.313-5.018-1.313-7.878
			c0-2.858,0.466-5.528,1.401-8.009c0.932-2.48,2.217-4.609,3.851-6.39c1.633-1.779,3.574-3.18,5.821-4.201
			c2.246-1.021,4.683-1.532,7.309-1.532c5.719,0,10.036,2.043,12.955,6.127V27.31h6.915v38.164H306.611z M307.049,46.48
			c0-2.042-0.293-3.895-0.876-5.558c-0.584-1.664-1.43-3.092-2.538-4.289c-1.109-1.195-2.422-2.13-3.939-2.801
			c-1.518-0.67-3.181-1.007-4.989-1.007c-1.751,0-3.371,0.35-4.859,1.05c-1.488,0.7-2.772,1.664-3.851,2.889
			c-1.08,1.226-1.925,2.685-2.538,4.377c-0.613,1.693-0.919,3.532-0.919,5.515c0,3.969,1.123,7.164,3.37,9.585
			c2.245,2.422,5.208,3.632,8.885,3.632c3.793,0,6.784-1.195,8.972-3.589C305.955,53.891,307.049,50.623,307.049,46.48z"/>
	</g>
	<g>
		<g>
			<polygon fill="#008839" points="158.07,65.812 155.026,73.471 154.305,73.471 133.83,21.058 140.967,21.058 154.882,57.754 			
				"/>
		</g>
	</g>
	<g>
		<path fill="#008839" d="M162.6,21.75c-1.469-0.06-2.599-1.287-2.541-2.757c0.058-1.473,1.295-2.611,2.769-2.548
			c1.458,0.062,2.601,1.308,2.537,2.768C165.302,20.677,164.066,21.811,162.6,21.75z"/>
		<path fill="#008839" d="M175.507,20.85c0.049-1.353,1.18-2.403,2.533-2.353c1.348,0.05,2.404,1.19,2.351,2.539
			c-0.053,1.348-1.191,2.397-2.544,2.344C176.504,23.328,175.458,22.196,175.507,20.85z"/>
		<path fill="#008839" d="M157.082,30.476c0.031-0.828,0.716-1.462,1.544-1.43c0.823,0.032,1.463,0.726,1.43,1.549
			c-0.033,0.812-0.728,1.455-1.54,1.426C157.691,31.99,157.05,31.3,157.082,30.476z"/>
		<path fill="#008839" d="M164.351,29.263c-0.023,0.583-0.515,1.04-1.097,1.02c-0.586-0.02-1.053-0.525-1.026-1.11
			c0.027-0.583,0.519-1.039,1.1-1.018C163.918,28.175,164.375,28.67,164.351,29.263z"/>
		<path fill="#008839" d="M170.69,24.604c0.472,0.018,0.841,0.416,0.82,0.884c-0.02,0.462-0.411,0.826-0.876,0.815
			c-0.468-0.012-0.843-0.409-0.828-0.878C169.821,24.955,170.218,24.586,170.69,24.604z"/>
		<path fill="#008839" d="M188.985,28.503c0.013-0.677,0.019-1.355,0.01-2.032c-0.008-0.595-0.025-1.191-0.064-1.784
			c-0.046-0.705-0.098-1.41-0.167-2.114c-0.103-1.051-0.242-2.096-0.414-3.137c-0.169-1.021-0.312-2.033-0.559-3.039
			c-0.197-0.829-0.455-1.584-0.521-1.714l0,0l0,0c-0.299-0.49-0.619-0.965-0.957-1.429c-0.036-0.049-0.169-0.24-0.169-0.24
			c-0.006,0.027,0.327,1.544,0.352,2.264c0.046,1.313-0.144,2.595-0.547,3.845c-0.621,1.926-1.677,3.594-3.027,5.085
			c-1.352,1.494-2.921,2.726-4.618,3.801c-2.256,1.43-4.669,2.539-7.163,3.478c-1.159,0.436-2.343,0.805-3.483,1.293
			c-3.162,1.353-5.997,3.18-8.322,5.744c-1.53,1.687-2.706,3.591-3.479,5.739c-0.437,1.212-0.732,2.456-0.886,3.735
			c-0.021,0.178,0,0.365-0.077,0.535l-0.075,2.037c0.037,0.019,0.028,0.054,0.029,0.085c-0.002,0.582,0.043,1.162,0.105,1.739
			c0.141,1.309,0.396,2.596,0.745,3.865c0.705,2.56,1.757,4.975,3.019,7.305c0.061,0.112,0.123,0.222,0.208,0.375
			c0.048-0.316,0.083-0.587,0.131-0.856c0.175-0.983,0.363-1.964,0.584-2.938c0.416-1.832,0.933-3.634,1.567-5.401
			c0.979-2.728,2.214-5.331,3.818-7.751c1.521-2.293,3.322-4.333,5.489-6.039c2.595-2.042,5.509-3.425,8.712-4.208
			c0.188-0.046,0.377-0.083,0.566-0.125c-0.016,0.039-0.039,0.052-0.063,0.062c-0.876,0.367-1.703,0.824-2.501,1.336
			c-2.608,1.673-4.783,3.806-6.636,6.277c-2.151,2.87-3.733,6.038-4.914,9.415c-0.574,1.641-1.042,3.312-1.423,5.009
			c-0.204,0.912-0.386,1.828-0.543,2.749c-0.123,0.721-0.228,1.445-0.32,2.171c-0.08,0.625-0.15,1.251-0.216,1.877
			c0.457-0.191,0.894-0.425,1.334-0.649c0.757-0.385,1.507-0.785,2.246-1.205c0.992-0.563,1.969-1.149,2.926-1.769
			c0.686-0.443,1.358-0.907,2.026-1.376c0.576-0.404,1.134-0.832,1.687-1.267c0.676-0.532,1.335-1.083,1.985-1.648
			c0.574-0.499,1.13-1.016,1.678-1.543c0.6-0.577,1.178-1.178,1.737-1.796c0.861-0.952,1.68-1.94,2.45-2.968
			c0.826-1.103,1.587-2.249,2.292-3.433c0.705-1.185,1.336-2.409,1.907-3.664c0.702-1.544,1.294-3.127,1.783-4.751
			c0.361-1.197,0.667-2.406,0.913-3.632c0.139-0.693,0.263-1.389,0.367-2.088c0.089-0.599,0.171-1.199,0.23-1.802
			c0.038-0.385,0.066-0.771,0.11-1.154c0.047-0.408,0.026-0.819,0.077-1.224C188.968,29.201,188.978,28.852,188.985,28.503z"/>
		<path fill="#08652D" d="M192.527,31.688c-0.102,1.138-0.326,2.254-0.567,3.37c-0.239,1.106-0.517,2.2-0.85,3.28
			c-1.665,5.395-4.336,10.235-8.07,14.471c-4.79,5.433-10.594,9.419-17.343,12.037c-0.803,0.311-2.055,0.583-2.52,0.672l0,0
			c0.457-0.191,0.894-0.425,1.334-0.649c0.757-0.385,1.507-0.785,2.246-1.205c0.992-0.563,1.969-1.149,2.926-1.769
			c0.686-0.443,1.358-0.907,2.026-1.376c0.576-0.404,1.134-0.832,1.687-1.267c0.676-0.532,1.335-1.083,1.985-1.648
			c0.574-0.499,1.13-1.016,1.678-1.543c0.6-0.577,1.178-1.178,1.737-1.796c0.861-0.952,1.68-1.94,2.45-2.968
			c0.826-1.103,1.587-2.249,2.292-3.433c0.705-1.185,1.336-2.409,1.907-3.664c0.702-1.544,1.294-3.127,1.783-4.751
			c0.361-1.197,0.667-2.406,0.913-3.632c0.139-0.693,0.263-1.389,0.367-2.088c0.089-0.599,0.171-1.199,0.23-1.802
			c0.038-0.385,0.066-0.771,0.11-1.154c0.047-0.408,0.026-0.819,0.077-1.224c0.043-0.349,0.054-0.698,0.061-1.047
			c0.013-0.677,0.019-1.355,0.01-2.032c-0.008-0.595-0.025-1.191-0.064-1.784c-0.046-0.705-0.098-1.41-0.167-2.114
			c-0.103-1.051-0.242-2.096-0.414-3.137c-0.169-1.021-0.312-2.033-0.559-3.039c-0.197-0.829-0.455-1.584-0.521-1.714l0.048,0.064
			l0.032,0.042l0.002,0.003c1.449,1.944,2.55,4.079,3.496,6.303c0.661,1.553,1.145,3.154,1.428,4.817
			c0.136,0.8,0.231,1.605,0.284,2.416C192.633,29.45,192.628,30.57,192.527,31.688z"/>
	</g>
	<path fill="#008839" d="M313.526,84.191h-1.568c-0.722,0-1.306-0.585-1.306-1.306s0.585-1.306,1.306-1.306h1.568
		c0.722,0,1.306,0.585,1.306,1.306S314.247,84.191,313.526,84.191z M304.12,84.191h-1.568c-0.722,0-1.306-0.585-1.306-1.306
		s0.585-1.306,1.306-1.306h1.568c0.722,0,1.306,0.585,1.306,1.306S304.841,84.191,304.12,84.191z M294.714,84.191h-1.568
		c-0.722,0-1.306-0.585-1.306-1.306s0.585-1.306,1.306-1.306h1.568c0.722,0,1.306,0.585,1.306,1.306S295.436,84.191,294.714,84.191z
		 M285.308,84.191h-1.568c-0.722,0-1.306-0.585-1.306-1.306s0.585-1.306,1.306-1.306h1.568c0.722,0,1.306,0.585,1.306,1.306
		S286.03,84.191,285.308,84.191z M275.903,84.191h-1.568c-0.722,0-1.306-0.585-1.306-1.306s0.585-1.306,1.306-1.306h1.568
		c0.722,0,1.306,0.585,1.306,1.306S276.624,84.191,275.903,84.191z M266.497,84.191h-1.568c-0.722,0-1.306-0.585-1.306-1.306
		s0.585-1.306,1.306-1.306h1.568c0.722,0,1.306,0.585,1.306,1.306S267.218,84.191,266.497,84.191z M257.091,84.191h-1.568
		c-0.722,0-1.306-0.585-1.306-1.306s0.585-1.306,1.306-1.306h1.568c0.722,0,1.306,0.585,1.306,1.306S257.813,84.191,257.091,84.191z
		 M247.685,84.191h-1.568c-0.722,0-1.306-0.585-1.306-1.306s0.585-1.306,1.306-1.306h1.568c0.722,0,1.306,0.585,1.306,1.306
		S248.407,84.191,247.685,84.191z M238.28,84.191h-1.568c-0.722,0-1.306-0.585-1.306-1.306s0.585-1.306,1.306-1.306h1.568
		c0.722,0,1.306,0.585,1.306,1.306S239.001,84.191,238.28,84.191z M228.874,84.191h-1.568c-0.722,0-1.306-0.585-1.306-1.306
		s0.585-1.306,1.306-1.306h1.568c0.722,0,1.306,0.585,1.306,1.306S229.595,84.191,228.874,84.191z M219.468,84.191H217.9
		c-0.722,0-1.306-0.585-1.306-1.306s0.585-1.306,1.306-1.306h1.568c0.722,0,1.306,0.585,1.306,1.306S220.19,84.191,219.468,84.191z
		 M210.062,84.191h-1.568c-0.722,0-1.306-0.585-1.306-1.306s0.585-1.306,1.306-1.306h1.568c0.722,0,1.306,0.585,1.306,1.306
		S210.784,84.191,210.062,84.191z M200.656,84.191h-1.568c-0.722,0-1.306-0.585-1.306-1.306s0.585-1.306,1.306-1.306h1.568
		c0.722,0,1.306,0.585,1.306,1.306S201.378,84.191,200.656,84.191z"/>
	<path fill="#008839" d="M178.039,100c-0.617,0-1.154-0.434-1.279-1.044l-4.126-20.122l-3.955,12.515
		c-0.173,0.549-0.692,0.923-1.263,0.913c-0.576-0.008-1.08-0.392-1.238-0.946l-2.063-7.192h-9.822c-0.722,0-1.306-0.585-1.306-1.306
		s0.585-1.306,1.306-1.306h10.806c0.583,0,1.095,0.386,1.256,0.946l1.139,3.971l4.163-13.177c0.179-0.567,0.715-0.947,1.313-0.911
		c0.594,0.031,1.092,0.459,1.212,1.042l3.485,16.996l3.062-26.986c0.074-0.652,0.621-1.149,1.277-1.159l0.021,0
		c0.648,0,1.199,0.475,1.293,1.118l2.653,18.226h2.619c0.722,0,1.306,0.585,1.306,1.306s-0.585,1.306-1.306,1.306h-3.749
		c-0.649,0-1.199-0.476-1.293-1.118l-1.362-9.359l-2.851,25.127c-0.072,0.638-0.598,1.129-1.24,1.158
		C178.078,99.999,178.059,100,178.039,100z"/>
</g>
<g>
	<path d="M328.523,1.566h-4.321V0h10.425v1.566h-4.321v11.037h-1.782V1.566z"/>
	<path d="M348.271,12.604l-0.019-9.183l-4.555,7.652h-0.828l-4.556-7.599v9.129h-1.729V0h1.477l5.258,8.858L348.506,0h1.476
		L350,12.604H348.271z"/>
</g>
</svg>
