<?xml version="1.0" encoding="utf-8"?>
<!-- Generator: Adobe Illustrator 17.0.0, SVG Export Plug-In . SVG Version: 6.00 Build 0)  -->
<!DOCTYPE svg PUBLIC "-//W3C//DTD SVG 1.1//EN" "http://www.w3.org/Graphics/SVG/1.1/DTD/svg11.dtd">
<svg version="1.1" id="Layer_1" xmlns="http://www.w3.org/2000/svg" xmlns:xlink="http://www.w3.org/1999/xlink" x="0px" y="0px"
	 width="362px" height="50px" viewBox="0 0 362 50" enable-background="new 0 0 362 50" xml:space="preserve">
<g>
	<g>
		<path fill="#145DA0" d="M6.673,33.191c-1.698,0-2.873-0.164-3.003-0.183c-0.778-0.114-1.354-0.78-1.354-1.566v-2.713
			c0-0.874,0.709-1.583,1.583-1.583s1.583,0.709,1.583,1.583v1.262c2.375,0.12,7.333,0,10.427-2.682
			c1.862-1.614,2.767-3.892,2.767-6.962c0-3.073-0.907-5.356-2.772-6.979c-3.092-2.691-8.043-2.834-10.422-2.724v1.256
			c0,0.874-0.709,1.583-1.583,1.583s-1.583-0.709-1.583-1.583V9.185c0-0.788,0.58-1.456,1.36-1.567
			c0.366-0.052,9.027-1.221,14.295,3.351c2.568,2.229,3.871,5.384,3.871,9.377s-1.302,7.143-3.871,9.364
			C14.572,32.649,9.759,33.191,6.673,33.191z"/>
		<path fill="#145DA0" d="M29.948,21.929h-9.691c-0.874,0-1.583-0.709-1.583-1.583s0.709-1.583,1.583-1.583h9.691
			c0.874,0,1.583,0.709,1.583,1.583S30.822,21.929,29.948,21.929z"/>
		<g>
			<g>
				<polygon fill="#008839" points="36.806,29.493 35.336,33.191 34.988,33.191 25.102,7.884 28.548,7.884 35.267,25.602 				"/>
			</g>
		</g>
		<g>
			<path fill="#008839" d="M38.993,8.218c-0.709-0.029-1.255-0.621-1.227-1.331c0.028-0.711,0.625-1.26,1.337-1.23
				c0.704,0.03,1.256,0.632,1.225,1.337C40.298,7.7,39.701,8.247,38.993,8.218z"/>
			<path fill="#008839" d="M45.225,7.784c0.024-0.653,0.57-1.16,1.223-1.136c0.651,0.024,1.16,0.575,1.135,1.226
				c-0.026,0.651-0.575,1.157-1.229,1.132C45.707,8.98,45.202,8.433,45.225,7.784z"/>
			<path fill="#008839" d="M36.329,12.431c0.015-0.4,0.346-0.706,0.745-0.691c0.397,0.015,0.707,0.35,0.69,0.748
				c-0.016,0.392-0.351,0.702-0.743,0.688C36.623,13.162,36.314,12.829,36.329,12.431z"/>
			<path fill="#008839" d="M39.839,11.846c-0.011,0.281-0.248,0.502-0.53,0.492c-0.283-0.01-0.508-0.254-0.495-0.536
				c0.013-0.282,0.25-0.501,0.531-0.492C39.63,11.321,39.85,11.559,39.839,11.846z"/>
			<path fill="#008839" d="M42.899,9.596c0.228,0.008,0.406,0.201,0.396,0.427c-0.01,0.223-0.199,0.399-0.423,0.393
				c-0.226-0.006-0.407-0.197-0.4-0.424C42.48,9.766,42.672,9.588,42.899,9.596z"/>
			<path fill="#008839" d="M51.733,11.479c0.006-0.327,0.009-0.654,0.005-0.981c-0.004-0.287-0.012-0.575-0.031-0.862
				c-0.022-0.34-0.047-0.681-0.081-1.021c-0.05-0.507-0.117-1.012-0.2-1.515c-0.081-0.493-0.151-0.982-0.27-1.467
				c-0.095-0.4-0.22-0.765-0.252-0.827l0,0l0,0c-0.144-0.237-0.299-0.466-0.462-0.69C50.425,4.092,50.361,4,50.361,4
				c-0.003,0.013,0.158,0.746,0.17,1.093c0.022,0.634-0.07,1.253-0.264,1.857c-0.3,0.93-0.81,1.735-1.462,2.455
				c-0.653,0.721-1.41,1.316-2.23,1.835c-1.089,0.69-2.254,1.226-3.459,1.679c-0.56,0.211-1.131,0.389-1.682,0.624
				c-1.527,0.653-2.896,1.535-4.018,2.773c-0.739,0.815-1.306,1.734-1.68,2.771c-0.211,0.585-0.353,1.186-0.428,1.804
				c-0.01,0.086,0,0.176-0.037,0.258l-0.036,0.984c0.018,0.009,0.014,0.026,0.014,0.041c-0.001,0.281,0.021,0.561,0.051,0.84
				c0.068,0.632,0.191,1.253,0.36,1.866c0.341,1.236,0.849,2.402,1.457,3.527c0.029,0.054,0.06,0.107,0.1,0.181
				c0.023-0.153,0.04-0.283,0.063-0.413c0.084-0.475,0.175-0.948,0.282-1.418c0.201-0.884,0.45-1.755,0.757-2.608
				c0.472-1.317,1.069-2.574,1.844-3.742c0.734-1.107,1.604-2.092,2.65-2.916c1.253-0.986,2.66-1.654,4.206-2.032
				c0.091-0.022,0.182-0.04,0.273-0.06c-0.008,0.019-0.019,0.025-0.03,0.03c-0.423,0.177-0.822,0.398-1.207,0.645
				c-1.259,0.808-2.309,1.838-3.204,3.031c-1.039,1.386-1.803,2.915-2.372,4.546c-0.277,0.792-0.503,1.599-0.687,2.419
				c-0.099,0.44-0.186,0.883-0.262,1.327c-0.059,0.348-0.11,0.698-0.155,1.048c-0.039,0.302-0.072,0.604-0.104,0.906
				c0.221-0.092,0.431-0.205,0.644-0.313c0.366-0.186,0.728-0.379,1.084-0.582c0.479-0.272,0.951-0.555,1.413-0.854
				c0.331-0.214,0.656-0.438,0.978-0.664c0.278-0.195,0.548-0.402,0.814-0.612c0.326-0.257,0.645-0.523,0.958-0.796
				c0.277-0.241,0.546-0.491,0.81-0.745c0.29-0.279,0.569-0.569,0.839-0.867c0.416-0.46,0.811-0.937,1.183-1.433
				c0.399-0.533,0.766-1.086,1.107-1.658c0.341-0.572,0.645-1.163,0.921-1.769c0.339-0.745,0.625-1.51,0.861-2.294
				c0.174-0.578,0.322-1.162,0.441-1.753c0.067-0.335,0.127-0.67,0.177-1.008c0.043-0.289,0.082-0.579,0.111-0.87
				c0.018-0.186,0.032-0.372,0.053-0.557c0.022-0.197,0.013-0.395,0.037-0.591C51.725,11.816,51.73,11.647,51.733,11.479z"/>
			<path fill="#08652D" d="M53.443,13.017c-0.049,0.549-0.157,1.088-0.274,1.627c-0.115,0.534-0.25,1.062-0.411,1.584
				c-0.804,2.605-2.093,4.942-3.896,6.987c-2.313,2.623-5.115,4.548-8.374,5.812c-0.388,0.15-0.992,0.281-1.217,0.325l0,0
				c0.221-0.092,0.431-0.205,0.644-0.313c0.366-0.186,0.728-0.379,1.084-0.582c0.479-0.272,0.951-0.555,1.413-0.854
				c0.331-0.214,0.656-0.438,0.978-0.664c0.278-0.195,0.548-0.402,0.814-0.612c0.326-0.257,0.645-0.523,0.958-0.796
				c0.277-0.241,0.546-0.491,0.81-0.745c0.29-0.279,0.569-0.569,0.839-0.867c0.416-0.46,0.811-0.937,1.183-1.433
				c0.399-0.533,0.766-1.086,1.107-1.658c0.341-0.572,0.645-1.163,0.921-1.769c0.339-0.745,0.625-1.51,0.861-2.294
				c0.174-0.578,0.322-1.162,0.441-1.753c0.067-0.335,0.127-0.67,0.177-1.008c0.043-0.289,0.082-0.579,0.111-0.87
				c0.018-0.186,0.032-0.372,0.053-0.557c0.022-0.197,0.013-0.395,0.037-0.591c0.021-0.169,0.026-0.337,0.029-0.506
				c0.006-0.327,0.009-0.654,0.005-0.981c-0.004-0.287-0.012-0.575-0.031-0.862c-0.022-0.34-0.047-0.681-0.081-1.021
				c-0.05-0.507-0.117-1.012-0.2-1.515c-0.081-0.493-0.151-0.982-0.27-1.467c-0.095-0.4-0.22-0.765-0.252-0.827l0.023,0.031
				l0.015,0.02l0.001,0.001c0.7,0.938,1.231,1.969,1.688,3.043c0.319,0.75,0.553,1.523,0.689,2.326
				c0.066,0.386,0.112,0.775,0.137,1.166C53.495,11.936,53.492,12.477,53.443,13.017z"/>
		</g>
		<path fill="#008839" d="M46.448,46c-0.298,0-0.557-0.21-0.618-0.504l-1.992-9.715l-1.909,6.043
			c-0.084,0.265-0.334,0.446-0.61,0.441c-0.278-0.004-0.521-0.189-0.598-0.457l-0.996-3.472h-4.742
			c-0.348,0-0.631-0.282-0.631-0.631c0-0.348,0.282-0.631,0.631-0.631H40.2c0.281,0,0.529,0.186,0.606,0.457l0.55,1.918l2.01-6.362
			c0.086-0.274,0.345-0.457,0.634-0.44c0.287,0.015,0.527,0.222,0.585,0.503l1.683,8.206l1.478-13.03
			c0.036-0.315,0.3-0.555,0.617-0.56l0.01,0c0.313,0,0.579,0.23,0.624,0.54l1.281,8.8h1.264c0.348,0,0.631,0.282,0.631,0.631
			c0,0.348-0.282,0.631-0.631,0.631h-1.81c-0.313,0-0.579-0.23-0.624-0.54l-0.658-4.519L47.075,45.44
			c-0.035,0.308-0.289,0.545-0.599,0.559C46.467,46,46.457,46,46.448,46z"/>
	</g>
	<g>
		<path fill="#333333" d="M69.411,26.554v0.736h-7.73V16.086h7.49v0.736h-6.674v4.418h5.97v0.72h-5.97v4.594H69.411z"/>
		<path fill="#333333" d="M81.508,16.086v11.205h-0.672l-7.635-9.732v9.732h-0.816V16.086h0.688l7.619,9.732v-9.732H81.508z"/>
		<path fill="#333333" d="M87.553,16.822H83.52v-0.736h8.883v0.736h-4.033v10.468h-0.816V16.822z"/>
		<path fill="#333333" d="M102.146,26.554v0.736h-7.73V16.086h7.49v0.736h-6.674v4.418h5.97v0.72h-5.97v4.594H102.146z"/>
		<path fill="#333333" d="M112.899,27.291l-2.674-3.745c-0.352,0.048-0.704,0.08-1.088,0.08h-3.201v3.665h-0.816V16.086h4.018
			c2.816,0,4.514,1.409,4.514,3.778c0,1.776-0.961,3.009-2.625,3.506l2.801,3.921H112.899z M109.138,22.905
			c2.4,0,3.682-1.121,3.682-3.041c0-1.937-1.281-3.042-3.682-3.042h-3.201v6.083H109.138z"/>
		<path fill="#333333" d="M125.171,19.864c0,2.353-1.697,3.762-4.514,3.762h-3.201v3.665h-0.816V16.086h4.018
			C123.474,16.086,125.171,17.495,125.171,19.864z M124.339,19.864c0-1.937-1.281-3.042-3.682-3.042h-3.201v6.066h3.201
			C123.058,22.889,124.339,21.784,124.339,19.864z"/>
		<path fill="#333333" d="M135.698,27.291l-2.673-3.745c-0.352,0.048-0.704,0.08-1.088,0.08h-3.201v3.665h-0.816V16.086h4.018
			c2.816,0,4.514,1.409,4.514,3.778c0,1.776-0.961,3.009-2.625,3.506l2.801,3.921H135.698z M131.938,22.905
			c2.4,0,3.682-1.121,3.682-3.041c0-1.937-1.281-3.042-3.682-3.042h-3.201v6.083H131.938z"/>
		<path fill="#333333" d="M139.439,16.086h0.816v11.205h-0.816V16.086z"/>
		<path fill="#333333" d="M143.022,25.85l0.368-0.608c0.769,0.801,2.192,1.409,3.697,1.409c2.241,0,3.233-0.977,3.233-2.193
			c0-3.361-6.995-1.345-6.995-5.474c0-1.585,1.217-2.978,3.97-2.978c1.232,0,2.514,0.384,3.378,1.008l-0.305,0.656
			c-0.928-0.64-2.064-0.944-3.073-0.944c-2.177,0-3.153,1.009-3.153,2.241c0,3.361,6.995,1.376,6.995,5.442
			c0,1.585-1.265,2.961-4.033,2.961C145.439,27.371,143.839,26.747,143.022,25.85z"/>
		<path fill="#333333" d="M161.634,26.554v0.736h-7.73V16.086h7.49v0.736h-6.674v4.418h5.97v0.72h-5.97v4.594H161.634z"/>
		<path fill="#333333" d="M177.843,16.086v11.205h-0.816v-5.33h-7.49v5.33h-0.816V16.086h0.816v5.154h7.49v-5.154H177.843z"/>
		<path fill="#333333" d="M189.474,26.554v0.736h-7.73V16.086h7.49v0.736h-6.674v4.418h5.97v0.72h-5.97v4.594H189.474z"/>
		<path fill="#333333" d="M199.378,24.137h-6.499l-1.425,3.153h-0.88l5.154-11.205h0.816l5.153,11.205h-0.88L199.378,24.137z
			 M199.073,23.449l-2.945-6.466l-2.929,6.466H199.073z"/>
		<path fill="#333333" d="M203.727,16.086h0.816v10.468h6.45v0.736h-7.267V16.086z"/>
		<path fill="#333333" d="M214.191,16.822h-4.033v-0.736h8.883v0.736h-4.033v10.468h-0.816V16.822z"/>
		<path fill="#333333" d="M230.178,16.086v11.205h-0.816v-5.33h-7.49v5.33h-0.816V16.086h0.816v5.154h7.49v-5.154H230.178z"/>
		<path fill="#333333" d="M233.006,21.689c0-3.266,2.481-5.683,5.811-5.683c1.585,0,3.01,0.512,3.986,1.553l-0.513,0.528
			c-0.96-0.944-2.129-1.329-3.441-1.329c-2.865,0-5.026,2.113-5.026,4.93c0,2.817,2.161,4.93,5.026,4.93
			c1.313,0,2.481-0.4,3.441-1.345l0.513,0.528c-0.977,1.04-2.401,1.568-3.986,1.568C235.487,27.371,233.006,24.954,233.006,21.689z"
			/>
		<path fill="#333333" d="M252.161,24.137h-6.499l-1.425,3.153h-0.88l5.154-11.205h0.816l5.153,11.205h-0.88L252.161,24.137z
			 M251.856,23.449l-2.945-6.466l-2.929,6.466H251.856z"/>
		<path fill="#333333" d="M264.29,27.291l-2.674-3.745c-0.352,0.048-0.704,0.08-1.088,0.08h-3.201v3.665h-0.816V16.086h4.018
			c2.816,0,4.514,1.409,4.514,3.778c0,1.776-0.961,3.009-2.625,3.506l2.801,3.921H264.29z M260.528,22.905
			c2.4,0,3.682-1.121,3.682-3.041c0-1.937-1.281-3.042-3.682-3.042h-3.201v6.083H260.528z"/>
		<path fill="#333333" d="M275.761,26.554v0.736h-7.73V16.086h7.49v0.736h-6.674v4.418h5.97v0.72h-5.97v4.594H275.761z"/>
		<path fill="#333333" d="M281.709,25.85l0.368-0.608c0.769,0.801,2.192,1.409,3.697,1.409c2.241,0,3.233-0.977,3.233-2.193
			c0-3.361-6.995-1.345-6.995-5.474c0-1.585,1.217-2.978,3.97-2.978c1.232,0,2.514,0.384,3.378,1.008l-0.305,0.656
			c-0.928-0.64-2.064-0.944-3.073-0.944c-2.177,0-3.153,1.009-3.153,2.241c0,3.361,6.995,1.376,6.995,5.442
			c0,1.585-1.265,2.961-4.033,2.961C284.126,27.371,282.525,26.747,281.709,25.85z"/>
		<path fill="#333333" d="M295.807,23.433v3.857h-0.816v-3.857l-4.514-7.347h0.896l4.05,6.595l4.049-6.595h0.849L295.807,23.433z"/>
		<path fill="#333333" d="M300.973,25.85l0.368-0.608c0.769,0.801,2.192,1.409,3.697,1.409c2.241,0,3.233-0.977,3.233-2.193
			c0-3.361-6.995-1.345-6.995-5.474c0-1.585,1.217-2.978,3.97-2.978c1.232,0,2.514,0.384,3.378,1.008l-0.305,0.656
			c-0.928-0.64-2.064-0.944-3.073-0.944c-2.177,0-3.153,1.009-3.153,2.241c0,3.361,6.995,1.376,6.995,5.442
			c0,1.585-1.265,2.961-4.033,2.961C303.39,27.371,301.789,26.747,300.973,25.85z"/>
		<path fill="#333333" d="M313.838,16.822h-4.033v-0.736h8.883v0.736h-4.033v10.468h-0.816V16.822z"/>
		<path fill="#333333" d="M328.432,26.554v0.736h-7.73V16.086h7.49v0.736h-6.674v4.418h5.97v0.72h-5.97v4.594H328.432z"/>
		<path fill="#333333" d="M342.001,27.291l-0.016-9.588l-4.69,8.1h-0.399l-4.69-8.067v9.556h-0.8V16.086h0.688l5.011,8.66l5.01-8.66
			h0.672l0.017,11.205H342.001z"/>
		<path fill="#333333" d="M345.564,25.85l0.368-0.608c0.769,0.801,2.192,1.409,3.697,1.409c2.241,0,3.233-0.977,3.233-2.193
			c0-3.361-6.995-1.345-6.995-5.474c0-1.585,1.217-2.978,3.97-2.978c1.232,0,2.514,0.384,3.378,1.008l-0.305,0.656
			c-0.928-0.64-2.064-0.944-3.073-0.944c-2.177,0-3.153,1.009-3.153,2.241c0,3.361,6.995,1.376,6.995,5.442
			c0,1.585-1.265,2.961-4.033,2.961C347.981,27.371,346.381,26.747,345.564,25.85z"/>
	</g>
	
		<line fill="none" stroke="#008839" stroke-width="2" stroke-linecap="round" stroke-linejoin="round" stroke-miterlimit="10" stroke-dasharray="2,6,2,6,2,6" x1="56.808" y1="37.684" x2="359.684" y2="37.684"/>
</g>
</svg>
