<?xml version="1.0" encoding="iso-8859-1"?>
<!-- Generator: Adobe Illustrator 17.0.0, SVG Export Plug-In . SVG Version: 6.00 Build 0)  -->
<!DOCTYPE svg PUBLIC "-//W3C//DTD SVG 1.1//EN" "http://www.w3.org/Graphics/SVG/1.1/DTD/svg11.dtd">
<svg version="1.1" id="Capa_1" xmlns="http://www.w3.org/2000/svg" xmlns:xlink="http://www.w3.org/1999/xlink" x="0px" y="0px"
	 width="512px" height="512px" viewBox="-49 141 512 512" style="enable-background:new -49 141 512 512;" xml:space="preserve">
<g>
	<rect x="37.588" y="613.784" style="fill:#038A42;" width="331.294" height="37.647"/>
	<path style="fill:#038A42;" d="M262.843,348.373H146.765c-10.397,0-18.824-8.427-18.824-18.824
		c0-10.397,8.427-18.824,18.824-18.824h116.078c10.397,0,18.824,8.427,18.824,18.824
		C281.667,339.946,273.24,348.373,262.843,348.373z"/>
	<path style="fill:#038A42;" d="M350.686,436.216H146.765c-10.397,0-18.824-8.427-18.824-18.824s8.427-18.824,18.824-18.824h203.922
		c10.397,0,18.824,8.427,18.824,18.824S361.083,436.216,350.686,436.216z"/>
	<path style="fill:#038A42;" d="M373.275,651.431c-49.475,0-89.725-40.251-89.725-89.726v-26.98H-11.353v26.98
		c0,28.712,23.36,52.078,52.078,52.078v37.647C-8.749,651.431-49,611.18-49,561.706v-45.804c0-10.397,8.427-18.824,18.824-18.824h64
		V162.02c0-7.404,4.342-14.118,11.093-17.161c6.758-3.031,14.664-1.832,20.204,3.062l52.712,46.632l52.775-47.191
		c7.147-6.394,17.945-6.394,25.092,0l52.712,47.134l52.706-47.134c7.147-6.394,17.951-6.394,25.098,0l52.775,47.191l52.712-46.632
		c5.547-4.9,13.446-6.099,20.204-3.062c6.751,3.043,11.093,9.757,11.093,17.161v399.686C463,611.18,422.749,651.431,373.275,651.431
		z M71.471,497.078h230.902c10.397,0,18.824,8.427,18.824,18.824v45.804c0,28.712,23.366,52.078,52.078,52.078
		s52.078-23.366,52.078-52.078V203.802l-33.958,30.042c-7.147,6.318-17.901,6.293-25.016-0.069l-52.706-47.134l-52.712,47.134
		c-7.147,6.394-17.951,6.394-25.098,0l-52.706-47.128l-52.706,47.134c-7.109,6.362-17.864,6.394-25.016,0.069l-33.964-30.049
		V497.078z"/>
</g>
</svg>
