<?xml version="1.0" encoding="iso-8859-1"?>
<!-- Generator: Adobe Illustrator 17.0.0, SVG Export Plug-In . SVG Version: 6.00 Build 0)  -->
<!DOCTYPE svg PUBLIC "-//W3C//DTD SVG 1.1//EN" "http://www.w3.org/Graphics/SVG/1.1/DTD/svg11.dtd">
<svg version="1.1" id="Capa_1" xmlns="http://www.w3.org/2000/svg" xmlns:xlink="http://www.w3.org/1999/xlink" x="0px" y="0px"
	 width="512px" height="512px" viewBox="-49 141 512 512" style="enable-background:new -49 141 512 512;" xml:space="preserve">
<g>
	<rect x="133" y="320" style="fill:#FFFFFF;" width="16" height="16"/>
	<rect x="133" y="352" style="fill:#FFFFFF;" width="16" height="16"/>
	<rect x="133" y="384" style="fill:#FFFFFF;" width="16" height="16"/>
	<rect x="133" y="416" style="fill:#FFFFFF;" width="16" height="16"/>
	<rect x="165" y="320" style="fill:#FFFFFF;" width="16" height="16"/>
	<rect x="165" y="352" style="fill:#FFFFFF;" width="16" height="16"/>
	<rect x="165" y="384" style="fill:#FFFFFF;" width="16" height="16"/>
	<rect x="165" y="416" style="fill:#FFFFFF;" width="16" height="16"/>
	<rect x="197" y="320" style="fill:#FFFFFF;" width="16" height="16"/>
	<rect x="197" y="352" style="fill:#FFFFFF;" width="16" height="16"/>
	<rect x="197" y="384" style="fill:#FFFFFF;" width="16" height="16"/>
	<rect x="197" y="416" style="fill:#FFFFFF;" width="16" height="16"/>
	<rect x="229" y="320" style="fill:#FFFFFF;" width="16" height="16"/>
	<rect x="165" y="288" style="fill:#FFFFFF;" width="16" height="16"/>
	<rect x="197" y="288" style="fill:#FFFFFF;" width="16" height="16"/>
	<rect x="229" y="288" style="fill:#FFFFFF;" width="16" height="16"/>
	<rect x="229" y="352" style="fill:#FFFFFF;" width="16" height="16"/>
	<rect x="229" y="384" style="fill:#FFFFFF;" width="16" height="16"/>
	<rect x="229" y="416" style="fill:#FFFFFF;" width="16" height="16"/>
	<rect x="261" y="320" style="fill:#FFFFFF;" width="16" height="16"/>
	<rect x="261" y="352" style="fill:#FFFFFF;" width="16" height="16"/>
	<rect x="261" y="384" style="fill:#FFFFFF;" width="16" height="16"/>
	<rect x="261" y="416" style="fill:#FFFFFF;" width="16" height="16"/>
	<path style="fill:#FFFFFF;" d="M437,280H317V168c0.003-4.416-3.575-7.997-7.991-8c-0.003,0-0.006,0-0.009,0H101
		c-4.416-0.003-7.997,3.575-8,7.991c0,0.003,0,0.006,0,0.009v112H-27c-4.416-0.003-7.997,3.575-8,7.991c0,0.003,0,0.006,0,0.009v288
		c-0.003,4.416,3.575,7.997,7.991,8c0.003,0,0.006,0,0.009,0h16.723c-0.464,2.642-0.706,5.318-0.723,8v40
		c-0.003,4.416,3.575,7.997,7.991,8c0.003,0,0.006,0,0.009,0h416c4.416,0.003,7.997-3.575,8-7.991c0-0.003,0-0.006,0-0.009v-40
		c-0.017-2.682-0.258-5.358-0.723-8H437c4.416,0.003,7.997-3.575,8-7.991c0-0.003,0-0.006,0-0.009V288
		c0.003-4.416-3.575-7.997-7.991-8C437.006,280,437.003,280,437,280z M309,504c0,8.837-7.163,16-16,16s-16-7.163-16-16
		s7.163-16,16-16C301.832,488.011,308.989,495.168,309,504z M117,488c8.837,0,16,7.163,16,16s-7.163,16-16,16s-16-7.163-16-16
		C101.011,495.168,108.168,488.011,117,488z M69,624H5v-32c0-17.673,14.327-32,32-32s32,14.327,32,32V624z M21,528
		c0-8.837,7.163-16,16-16s16,7.163,16,16s-7.163,16-16,16C28.168,543.989,21.011,536.832,21,528z M70.212,557.425
		c-3.017-2.91-6.4-5.414-10.064-7.449c12.202-12.784,11.731-33.04-1.053-45.243c-12.784-12.202-33.04-11.731-45.243,1.053
		c-11.803,12.365-11.803,31.824,0,44.189C6.216,554.214-0.128,560.443-4.506,568H-19V296H93v187.056
		c-10.986,12.327-10.615,31.039,0.852,42.92C81.852,532.613,73.253,544.053,70.212,557.425z M149,624H85v-56
		c0-17.673,14.327-32,32-32s32,14.327,32,32V624z M245,624h-80v-56c0-22.091,17.909-40,40-40s40,17.909,40,40V624z M181,488
		c0-13.255,10.745-24,24-24c13.255,0,24,10.745,24,24s-10.745,24-24,24C191.751,511.986,181.014,501.249,181,488z M253.722,540.495
		c-5.357-9.444-13.327-17.139-22.953-22.16c16.897-14.232,19.057-39.467,4.826-56.364c-14.232-16.897-39.467-19.057-56.364-4.826
		s-19.057,39.467-4.826,56.364c1.468,1.743,3.082,3.357,4.826,4.825c-9.626,5.021-17.597,12.716-22.953,22.16
		c-4.206-6-9.722-10.965-16.13-14.519c12.265-12.547,12.037-32.662-0.511-44.927c-8.079-7.897-19.744-10.91-30.637-7.913V176h192
		v297.136c-2.607-0.719-5.296-1.101-8-1.136c-17.626-0.047-31.953,14.204-32,31.831c-0.022,8.248,3.151,16.185,8.852,22.145
		C263.444,529.53,257.928,534.495,253.722,540.495z M325,592v32h-64v-56c0-17.673,14.327-32,32-32s32,14.327,32,32V592z M405,624
		h-64v-32c0-17.673,14.327-32,32-32s32,14.327,32,32V624z M357,528c0-8.837,7.163-16,16-16s16,7.163,16,16s-7.163,16-16,16
		C364.168,543.989,357.011,536.832,357,528z M429,568h-14.494c-4.377-7.557-10.722-13.786-18.358-18.024
		c12.202-12.784,11.731-33.04-1.053-45.243c-12.784-12.202-33.04-11.731-45.243,1.053c-11.803,12.365-11.803,31.824,0,44.189
		c-3.664,2.035-7.048,4.539-10.064,7.449c-3.04-13.372-11.64-24.812-23.64-31.449c11.467-11.881,11.839-30.593,0.853-42.92V296h112
		V568z"/>
	<rect x="341" y="344" style="fill:#FFFFFF;" width="16" height="128"/>
	<rect x="389" y="344" style="fill:#FFFFFF;" width="16" height="128"/>
	<rect x="5" y="344" style="fill:#FFFFFF;" width="16" height="128"/>
	<rect x="53" y="344" style="fill:#FFFFFF;" width="16" height="128"/>
	<path style="fill:#FFFFFF;" d="M157,272h96c4.416,0.003,7.997-3.575,8-7.991c0-0.003,0-0.006,0-0.009v-64
		c0.003-4.416-3.575-7.997-7.991-8c-0.003,0-0.006,0-0.009,0h-96c-4.416-0.003-7.997,3.575-8,7.991c0,0.003,0,0.006,0,0.009v64
		c-0.003,4.416,3.575,7.997,7.991,8C156.994,272,156.997,272,157,272z M165,208h80v48h-80V208z"/>
</g>
<g>
	<rect x="133" y="320" style="fill:#FFFFFF;" width="16" height="16"/>
	<rect x="133" y="352" style="fill:#FFFFFF;" width="16" height="16"/>
	<rect x="133" y="384" style="fill:#FFFFFF;" width="16" height="16"/>
	<rect x="133" y="416" style="fill:#FFFFFF;" width="16" height="16"/>
	<rect x="165" y="320" style="fill:#FFFFFF;" width="16" height="16"/>
	<rect x="165" y="352" style="fill:#FFFFFF;" width="16" height="16"/>
	<rect x="165" y="384" style="fill:#FFFFFF;" width="16" height="16"/>
	<rect x="165" y="416" style="fill:#FFFFFF;" width="16" height="16"/>
	<rect x="197" y="320" style="fill:#FFFFFF;" width="16" height="16"/>
	<rect x="197" y="352" style="fill:#FFFFFF;" width="16" height="16"/>
	<rect x="197" y="384" style="fill:#FFFFFF;" width="16" height="16"/>
	<rect x="197" y="416" style="fill:#FFFFFF;" width="16" height="16"/>
	<rect x="229" y="320" style="fill:#FFFFFF;" width="16" height="16"/>
	<rect x="165" y="288" style="fill:#FFFFFF;" width="16" height="16"/>
	<rect x="197" y="288" style="fill:#FFFFFF;" width="16" height="16"/>
	<rect x="229" y="288" style="fill:#FFFFFF;" width="16" height="16"/>
	<rect x="229" y="352" style="fill:#FFFFFF;" width="16" height="16"/>
	<rect x="229" y="384" style="fill:#FFFFFF;" width="16" height="16"/>
	<rect x="229" y="416" style="fill:#FFFFFF;" width="16" height="16"/>
	<rect x="261" y="320" style="fill:#FFFFFF;" width="16" height="16"/>
	<rect x="261" y="352" style="fill:#FFFFFF;" width="16" height="16"/>
	<rect x="261" y="384" style="fill:#FFFFFF;" width="16" height="16"/>
	<rect x="261" y="416" style="fill:#FFFFFF;" width="16" height="16"/>
	<path style="fill:#FFFFFF;" d="M437,280H317V168c0.003-4.416-3.575-7.997-7.991-8c-0.003,0-0.006,0-0.009,0H101
		c-4.416-0.003-7.997,3.575-8,7.991c0,0.003,0,0.006,0,0.009v112H-27c-4.416-0.003-7.997,3.575-8,7.991c0,0.003,0,0.006,0,0.009v288
		c-0.003,4.416,3.575,7.997,7.991,8c0.003,0,0.006,0,0.009,0h16.723c-0.464,2.642-0.706,5.318-0.723,8v40
		c-0.003,4.416,3.575,7.997,7.991,8c0.003,0,0.006,0,0.009,0h416c4.416,0.003,7.997-3.575,8-7.991c0-0.003,0-0.006,0-0.009v-40
		c-0.017-2.682-0.258-5.358-0.723-8H437c4.416,0.003,7.997-3.575,8-7.991c0-0.003,0-0.006,0-0.009V288
		c0.003-4.416-3.575-7.997-7.991-8C437.006,280,437.003,280,437,280z M309,504c0,8.837-7.163,16-16,16s-16-7.163-16-16
		s7.163-16,16-16C301.832,488.011,308.989,495.168,309,504z M117,488c8.837,0,16,7.163,16,16s-7.163,16-16,16s-16-7.163-16-16
		C101.011,495.168,108.168,488.011,117,488z M69,624H5v-32c0-17.673,14.327-32,32-32s32,14.327,32,32V624z M21,528
		c0-8.837,7.163-16,16-16s16,7.163,16,16s-7.163,16-16,16C28.168,543.989,21.011,536.832,21,528z M70.212,557.425
		c-3.017-2.91-6.4-5.414-10.064-7.449c12.202-12.784,11.731-33.04-1.053-45.243c-12.784-12.202-33.04-11.731-45.243,1.053
		c-11.803,12.365-11.803,31.824,0,44.189C6.216,554.214-0.128,560.443-4.506,568H-19V296H93v187.056
		c-10.986,12.327-10.615,31.039,0.852,42.92C81.852,532.613,73.253,544.053,70.212,557.425z M149,624H85v-56
		c0-17.673,14.327-32,32-32s32,14.327,32,32V624z M245,624h-80v-56c0-22.091,17.909-40,40-40s40,17.909,40,40V624z M181,488
		c0-13.255,10.745-24,24-24c13.255,0,24,10.745,24,24s-10.745,24-24,24C191.751,511.986,181.014,501.249,181,488z M253.722,540.495
		c-5.357-9.444-13.327-17.139-22.953-22.16c16.897-14.232,19.057-39.467,4.826-56.364c-14.232-16.897-39.467-19.057-56.364-4.826
		s-19.057,39.467-4.826,56.364c1.468,1.743,3.082,3.357,4.826,4.825c-9.626,5.021-17.597,12.716-22.953,22.16
		c-4.206-6-9.722-10.965-16.13-14.519c12.265-12.547,12.037-32.662-0.511-44.927c-8.079-7.897-19.744-10.91-30.637-7.913V176h192
		v297.136c-2.607-0.719-5.296-1.101-8-1.136c-17.626-0.047-31.953,14.204-32,31.831c-0.022,8.248,3.151,16.185,8.852,22.145
		C263.444,529.53,257.928,534.495,253.722,540.495z M325,592v32h-64v-56c0-17.673,14.327-32,32-32s32,14.327,32,32V592z M405,624
		h-64v-32c0-17.673,14.327-32,32-32s32,14.327,32,32V624z M357,528c0-8.837,7.163-16,16-16s16,7.163,16,16s-7.163,16-16,16
		C364.168,543.989,357.011,536.832,357,528z M429,568h-14.494c-4.377-7.557-10.722-13.786-18.358-18.024
		c12.202-12.784,11.731-33.04-1.053-45.243c-12.784-12.202-33.04-11.731-45.243,1.053c-11.803,12.365-11.803,31.824,0,44.189
		c-3.664,2.035-7.048,4.539-10.064,7.449c-3.04-13.372-11.64-24.812-23.64-31.449c11.467-11.881,11.839-30.593,0.853-42.92V296h112
		V568z"/>
	<rect x="341" y="344" style="fill:#FFFFFF;" width="16" height="128"/>
	<rect x="389" y="344" style="fill:#FFFFFF;" width="16" height="128"/>
	<rect x="5" y="344" style="fill:#FFFFFF;" width="16" height="128"/>
	<rect x="53" y="344" style="fill:#FFFFFF;" width="16" height="128"/>
	<path style="fill:#FFFFFF;" d="M157,272h96c4.416,0.003,7.997-3.575,8-7.991c0-0.003,0-0.006,0-0.009v-64
		c0.003-4.416-3.575-7.997-7.991-8c-0.003,0-0.006,0-0.009,0h-96c-4.416-0.003-7.997,3.575-8,7.991c0,0.003,0,0.006,0,0.009v64
		c-0.003,4.416,3.575,7.997,7.991,8C156.994,272,156.997,272,157,272z M165,208h80v48h-80V208z"/>
</g>
</svg>
