<?xml version="1.0" encoding="iso-8859-1"?>
<!-- Generator: Adobe Illustrator 17.0.0, SVG Export Plug-In . SVG Version: 6.00 Build 0)  -->
<!DOCTYPE svg PUBLIC "-//W3C//DTD SVG 1.1//EN" "http://www.w3.org/Graphics/SVG/1.1/DTD/svg11.dtd">
<svg version="1.1" id="Capa_1" xmlns="http://www.w3.org/2000/svg" xmlns:xlink="http://www.w3.org/1999/xlink" x="0px" y="0px"
	 width="512px" height="512px" viewBox="-49 141 512 512" style="enable-background:new -49 141 512 512;" xml:space="preserve">
<g>
	<path style="fill:#FFFFFF;" d="M97.637,258.363H81.036v-16.596c0-8.09-6.561-14.651-14.646-14.651
		c-8.09,0-14.651,6.561-14.651,14.651v16.596H35.138c-8.085,0-14.644,6.561-14.644,14.651c0,8.085,6.56,14.646,14.644,14.646h16.601
		v16.601c0,8.085,6.561,14.646,14.651,14.646c8.085,0,14.646-6.561,14.646-14.646v-16.601h16.601
		c8.085,0,14.646-6.561,14.646-14.646C112.283,264.924,105.722,258.363,97.637,258.363L97.637,258.363z M97.637,258.363"/>
	<path style="fill:#FFFFFF;" d="M269.494,357.964h109.368c8.085,0,14.644-6.556,14.644-14.646s-6.56-14.646-14.644-14.646H269.494
		c-8.091,0-14.646,6.556-14.646,14.646S261.403,357.964,269.494,357.964L269.494,357.964z M269.494,357.964"/>
	<path style="fill:#FFFFFF;" d="M269.494,420.457h109.368c8.085,0,14.644-6.554,14.644-14.646c0-8.09-6.56-14.646-14.644-14.646
		H269.494c-8.091,0-14.646,6.556-14.646,14.646C254.848,413.902,261.403,420.457,269.494,420.457L269.494,420.457z M269.494,420.457
		"/>
	<path style="fill:#FFFFFF;" d="M441.354,180.247H158.742l-17.938-25.113c-2.751-3.849-7.189-6.134-11.92-6.134H-27.354
		C-35.439,149-42,155.561-42,163.646v468.709C-42,640.439-35.439,647-27.354,647h468.709c8.085,0,14.646-6.561,14.646-14.646
		c0-42.919,0-387.431,0-437.462C456,186.806,449.439,180.247,441.354,180.247L441.354,180.247z M240.708,617.704H49.789v-30.735
		c0-85.107,103.274-127.179,162.976-67.509c18.02,18.02,27.944,41.991,27.944,67.509V617.704z M104.841,421.809
		c0-22.284,18.125-40.411,40.411-40.411c22.279,0,40.405,18.126,40.405,40.411c0,22.225-18.076,40.402-40.411,40.402
		C122.977,462.211,104.841,444.095,104.841,421.809L104.841,421.809z M426.704,617.704H270v-30.735
		c0-51.997-31.697-96.283-76.364-115.063c45.005-43.48,13.957-119.799-48.384-119.799c-62.236,0-93.487,76.324-48.335,119.849
		c-44.859,18.921-76.424,63.35-76.424,115.012v30.735h-33.197V178.296h134.049l73.735,103.229c2.751,3.849,7.189,6.134,11.92,6.134
		h219.704V617.704z M426.704,258.363H214.537l-34.873-48.82h247.039V258.363z M426.704,258.363"/>
</g>
</svg>
