<?xml version="1.0" encoding="iso-8859-1"?>
<!-- Generator: Adobe Illustrator 17.0.0, SVG Export Plug-In . SVG Version: 6.00 Build 0)  -->
<!DOCTYPE svg PUBLIC "-//W3C//DTD SVG 1.1//EN" "http://www.w3.org/Graphics/SVG/1.1/DTD/svg11.dtd">
<svg version="1.1" id="Capa_1" xmlns="http://www.w3.org/2000/svg" xmlns:xlink="http://www.w3.org/1999/xlink" x="0px" y="0px"
	 width="512px" height="512px" viewBox="-49 141 512 512" style="enable-background:new -49 141 512 512;" xml:space="preserve">
<g>
	<path style="fill:#FFFFFF;" d="M144.25,355.833c-56.75,0-102.917-46.167-102.917-102.917S87.5,150,144.25,150
		s102.917,46.167,102.917,102.917S201,355.833,144.25,355.833L144.25,355.833z M144.25,170.583
		c-45.408,0-82.333,36.925-82.333,82.333c0,45.408,36.925,82.333,82.333,82.333s82.333-36.925,82.333-82.333
		C226.583,207.509,189.658,170.583,144.25,170.583L144.25,170.583z M144.25,170.583"/>
	<path style="fill:#FFFFFF;" d="M92.792,582.25h-123.5c-5.678,0-10.292-4.613-10.292-10.292v-82.333
		C-41,438.559,0.559,397,51.625,397h185.25c25.257,0,49.563,10.392,66.75,28.529c3.915,4.115,3.749,10.643-0.387,14.552
		c-4.121,3.93-10.644,3.744-14.554-0.391c-13.296-14.037-32.196-22.107-51.81-22.107H51.625c-39.725,0-72.042,32.317-72.042,72.042
		v72.042H92.792c5.678,0,10.292,4.613,10.292,10.292C103.083,577.637,98.47,582.25,92.792,582.25L92.792,582.25z M92.792,582.25"/>
	<path style="fill:#FFFFFF;" d="M257.458,644c-3.889,0-7.452-2.181-9.201-5.678l-38.327-76.655h-55.388
		c-5.678,0-10.292-4.613-10.292-10.292s4.613-10.292,10.292-10.292h61.75c3.889,0,7.452,2.201,9.201,5.678l31.247,62.494
		l53.002-123.685c1.582-3.684,5.146-6.111,9.161-6.237c3.97,0.145,7.719,2.101,9.507,5.678l58.911,117.822h55.388
		c5.678,0,10.292,4.613,10.292,10.292s-4.613,10.292-10.292,10.292h-61.75c-3.889,0-7.452-2.201-9.201-5.678l-51.83-103.66
		l-53.002,123.685c-1.582,3.684-5.146,6.111-9.161,6.237C257.664,644,257.559,644,257.458,644L257.458,644z M257.458,644"/>
</g>
<g>
	<path style="fill:#FFFFFF;" d="M144.25,355.833c-56.75,0-102.917-46.167-102.917-102.917S87.5,150,144.25,150
		s102.917,46.167,102.917,102.917S201,355.833,144.25,355.833L144.25,355.833z M144.25,170.583
		c-45.408,0-82.333,36.925-82.333,82.333c0,45.408,36.925,82.333,82.333,82.333s82.333-36.925,82.333-82.333
		C226.583,207.509,189.658,170.583,144.25,170.583L144.25,170.583z M144.25,170.583"/>
	<path style="fill:#FFFFFF;" d="M92.792,582.25h-123.5c-5.678,0-10.292-4.613-10.292-10.292v-82.333
		C-41,438.559,0.559,397,51.625,397h185.25c25.257,0,49.563,10.392,66.75,28.529c3.915,4.115,3.749,10.643-0.387,14.552
		c-4.121,3.93-10.644,3.744-14.554-0.391c-13.296-14.037-32.196-22.107-51.81-22.107H51.625c-39.725,0-72.042,32.317-72.042,72.042
		v72.042H92.792c5.678,0,10.292,4.613,10.292,10.292C103.083,577.637,98.47,582.25,92.792,582.25L92.792,582.25z M92.792,582.25"/>
	<path style="fill:#FFFFFF;" d="M257.458,644c-3.889,0-7.452-2.181-9.201-5.678l-38.327-76.655h-55.388
		c-5.678,0-10.292-4.613-10.292-10.292s4.613-10.292,10.292-10.292h61.75c3.889,0,7.452,2.201,9.201,5.678l31.247,62.494
		l53.002-123.685c1.582-3.684,5.146-6.111,9.161-6.237c3.97,0.145,7.719,2.101,9.507,5.678l58.911,117.822h55.388
		c5.678,0,10.292,4.613,10.292,10.292s-4.613,10.292-10.292,10.292h-61.75c-3.889,0-7.452-2.201-9.201-5.678l-51.83-103.66
		l-53.002,123.685c-1.582,3.684-5.146,6.111-9.161,6.237C257.664,644,257.559,644,257.458,644L257.458,644z M257.458,644"/>
</g>
</svg>
