<?xml version="1.0" encoding="iso-8859-1"?>
<!-- Generator: Adobe Illustrator 17.0.0, SVG Export Plug-In . SVG Version: 6.00 Build 0)  -->
<!DOCTYPE svg PUBLIC "-//W3C//DTD SVG 1.1//EN" "http://www.w3.org/Graphics/SVG/1.1/DTD/svg11.dtd">
<svg version="1.1" id="Capa_1" xmlns="http://www.w3.org/2000/svg" xmlns:xlink="http://www.w3.org/1999/xlink" x="0px" y="0px"
	 width="512px" height="512px" viewBox="-49 141 512 512" style="enable-background:new -49 141 512 512;" xml:space="preserve">
<g>
	<path style="fill:#FFFFFF;" d="M419.323,304.188h-32.912c-4.017,0-7.266,3.25-7.266,7.266c0,4.012,3.249,7.266,7.266,7.266h32.912
		c12.019,0,21.797,9.779,21.797,21.797v290.969c0,0.267-0.217,0.484-0.484,0.484h-80.87v-29.063h37.115
		c8.24,0,14.976-6.705,15.016-14.95l0.161-35.774c0.076-8.209-6.832-15.125-15.016-15.085h-37.276v-28.639h37.115
		c8.24,0,14.976-6.705,15.016-14.95l0.161-35.774c0.076-8.214-6.832-15.127-15.016-15.085h-37.276v-29.063h37.115
		c8.24,0,14.976-6.706,15.016-14.946l0.161-35.778c0.076-8.209-6.832-15.122-15.016-15.087h-37.276v-75.214
		c0-20.031-16.298-36.328-36.328-36.328h-23.069c-3.719-47.898-43.881-85.734-92.717-85.734s-88.998,37.837-92.717,85.734H91.401
		c-20.031,0-36.328,16.297-36.328,36.328v31.625H-4.021c-20.031,0-36.328,16.293-36.328,36.328v290.969
		c0,8.28,6.736,15.016,15.016,15.016h465.969c8.28,0,15.016-6.736,15.016-15.016V340.516
		C455.651,320.481,439.354,304.188,419.323,304.188L419.323,304.188z M359.765,362.313h37.276c0.05,0,0.202,0,0.344,0.142
		c0.141,0.141,0.141,0.292,0.141,0.342l-0.161,35.774c0,0.267-0.217,0.484-0.484,0.484h-37.115V362.313z M359.765,457.18h37.276
		c0.05,0,0.202,0,0.344,0.141c0.141,0.146,0.141,0.298,0.141,0.349l-0.161,35.773c0,0.267-0.217,0.484-0.484,0.484h-37.115V457.18z
		 M359.765,551.628h37.276c0.05,0,0.202,0,0.344,0.146c0.141,0.141,0.141,0.293,0.141,0.344l-0.161,35.773
		c0,0.267-0.217,0.484-0.484,0.484h-37.115V551.628z M55.073,588.375H18.427c-0.273,0-0.484-0.212-0.484-0.479l-0.167-35.773
		c0-0.056,0-0.208,0.141-0.349c0.142-0.146,0.293-0.146,0.344-0.146h36.812V588.375z M55.073,493.922H18.427
		c-0.273,0-0.484-0.212-0.484-0.479l-0.167-35.773c0-0.05,0-0.203,0.141-0.349c0.147-0.146,0.293-0.146,0.344-0.146h36.812V493.922z
		 M55.073,399.05H18.427c-0.273,0-0.484-0.207-0.484-0.479l-0.167-35.774c0-0.05,0-0.202,0.141-0.347
		c0.147-0.142,0.293-0.142,0.344-0.142h36.812V399.05z M55.073,347.776H18.26c-8.214-0.045-15.087,6.887-15.016,15.087l0.167,35.778
		c0.035,8.24,6.771,14.941,15.016,14.941h36.646v29.063H18.26c-8.214-0.045-15.087,6.892-15.016,15.091l0.167,35.774
		c0.035,8.245,6.771,14.945,15.016,14.945h36.646v28.649H18.26c-8.219-0.045-15.087,6.882-15.016,15.085l0.167,35.779
		c0.035,8.234,6.771,14.939,15.016,14.939h36.646v29.063h-80.406c-0.267,0-0.484-0.217-0.484-0.484V340.516
		c0-12.018,9.778-21.797,21.797-21.797h59.094V347.776z M207.651,165.031c43.266,0,78.469,35.203,78.469,78.469
		c0,43.266-35.203,78.469-78.469,78.469s-78.469-35.203-78.469-78.469C129.182,200.234,164.385,165.031,207.651,165.031
		L207.651,165.031z M272.583,631.969h-57.666V504.023h57.666V631.969z M128.187,489.491V474.96h158.927v14.531H128.187z
		 M345.234,631.969h-58.12V504.023c7.583,0.439,14.577-5.106,14.531-13.078v-17.438c0-7.21-5.868-13.078-13.078-13.078H126.734
		c-7.21,0-13.078,5.868-13.078,13.078v17.438c-0.05,7.634,6.823,13.871,14.531,13.078v51.45c0,4.012,3.255,7.266,7.266,7.266
		c4.017,0,7.266-3.254,7.266-7.266v-51.45h57.666v127.946h-57.666v-42.59c0-4.016-3.249-7.266-7.266-7.266
		c-4.011,0-7.266,3.25-7.266,7.266v42.59H69.604V272.563c0-12.019,9.778-21.797,21.797-21.797h23.533
		c3.719,47.898,43.88,85.734,92.717,85.734s88.998-37.837,92.717-85.734h23.069c12.018,0,21.797,9.778,21.797,21.797V631.969z
		 M185.854,265.297v29.062c0,7.21,5.868,13.078,13.078,13.078h17.437c7.21,0,13.078-5.868,13.078-13.078v-29.062h29.062
		c7.21,0,13.078-5.868,13.078-13.078v-17.438c0-7.21-5.868-13.078-13.078-13.078h-29.062v-29.063c0-7.21-5.868-13.078-13.078-13.078
		h-17.437c-7.21,0-13.078,5.868-13.078,13.078v29.063h-29.063c-7.21,0-13.078,5.868-13.078,13.078v17.438
		c0,7.21,5.868,13.078,13.078,13.078H185.854z M158.244,236.234h31.969c5.611,0,10.172-4.561,10.172-10.172v-31.969h14.531v31.969
		c0,5.611,4.561,10.172,10.172,10.172h31.969v14.531h-31.969c-5.611,0-10.172,4.561-10.172,10.172v31.969h-14.531v-31.969
		c0-5.611-4.561-10.172-10.172-10.172h-31.969V236.234z M178.588,582.698c4.011,0,7.266-3.254,7.266-7.266v-14.874
		c0-4.012-3.255-7.266-7.266-7.266c-4.011,0-7.266,3.254-7.266,7.266v14.874C171.323,579.444,174.578,582.698,178.588,582.698
		L178.588,582.698z M178.104,365.562h-64.226c-8.243,0-14.979,6.705-15.016,14.95l-0.161,35.774
		c-0.085,8.168,6.812,15.131,15.016,15.085h64.387c8.28,0,15.016-6.736,15.016-15.016v-35.778
		C193.119,372.299,186.383,365.562,178.104,365.562L178.104,365.562z M178.588,416.356c0,0.267-0.217,0.484-0.484,0.484h-64.387
		c-0.191,0.026-0.509-0.297-0.484-0.49l0.161-35.778c0-0.262,0.217-0.479,0.484-0.479h64.226c0.267,0,0.484,0.217,0.484,0.484
		V416.356z M236.713,582.698c4.011,0,7.266-3.254,7.266-7.266v-14.874c0-4.012-3.255-7.266-7.266-7.266s-7.266,3.254-7.266,7.266
		v14.874C229.448,579.444,232.703,582.698,236.713,582.698L236.713,582.698z M301.352,365.562h-64.155
		c-8.28,0-15.016,6.736-15.016,15.016v35.778c0,8.28,6.736,15.016,15.016,15.016h63.993c8.24,0,14.976-6.705,15.016-14.95
		l0.161-35.778C316.444,372.434,309.536,365.522,301.352,365.562L301.352,365.562z M301.675,416.356
		c0,0.267-0.222,0.484-0.484,0.484h-63.993c-0.267,0-0.484-0.217-0.484-0.484v-35.778c0-0.267,0.217-0.484,0.484-0.484h64.155
		c0.05,0,0.202,0,0.344,0.141c0.141,0.142,0.141,0.293,0.141,0.344L301.675,416.356z M301.675,416.356"/>
</g>
<g>
	<path style="fill:#FFFFFF;" d="M419.323,304.188h-32.912c-4.017,0-7.266,3.25-7.266,7.266c0,4.012,3.249,7.266,7.266,7.266h32.912
		c12.019,0,21.797,9.779,21.797,21.797v290.969c0,0.267-0.217,0.484-0.484,0.484h-80.87v-29.063h37.115
		c8.24,0,14.976-6.705,15.016-14.95l0.161-35.774c0.076-8.209-6.832-15.125-15.016-15.085h-37.276v-28.639h37.115
		c8.24,0,14.976-6.705,15.016-14.95l0.161-35.774c0.076-8.214-6.832-15.127-15.016-15.085h-37.276v-29.063h37.115
		c8.24,0,14.976-6.706,15.016-14.946l0.161-35.778c0.076-8.209-6.832-15.122-15.016-15.087h-37.276v-75.214
		c0-20.031-16.298-36.328-36.328-36.328h-23.069c-3.719-47.898-43.881-85.734-92.717-85.734s-88.998,37.837-92.717,85.734H91.401
		c-20.031,0-36.328,16.297-36.328,36.328v31.625H-4.021c-20.031,0-36.328,16.293-36.328,36.328v290.969
		c0,8.28,6.736,15.016,15.016,15.016h465.969c8.28,0,15.016-6.736,15.016-15.016V340.516
		C455.651,320.481,439.354,304.188,419.323,304.188L419.323,304.188z M359.765,362.313h37.276c0.05,0,0.202,0,0.344,0.142
		c0.141,0.141,0.141,0.292,0.141,0.342l-0.161,35.774c0,0.267-0.217,0.484-0.484,0.484h-37.115V362.313z M359.765,457.18h37.276
		c0.05,0,0.202,0,0.344,0.141c0.141,0.146,0.141,0.298,0.141,0.349l-0.161,35.773c0,0.267-0.217,0.484-0.484,0.484h-37.115V457.18z
		 M359.765,551.628h37.276c0.05,0,0.202,0,0.344,0.146c0.141,0.141,0.141,0.293,0.141,0.344l-0.161,35.773
		c0,0.267-0.217,0.484-0.484,0.484h-37.115V551.628z M55.073,588.375H18.427c-0.273,0-0.484-0.212-0.484-0.479l-0.167-35.773
		c0-0.056,0-0.208,0.141-0.349c0.142-0.146,0.293-0.146,0.344-0.146h36.812V588.375z M55.073,493.922H18.427
		c-0.273,0-0.484-0.212-0.484-0.479l-0.167-35.773c0-0.05,0-0.203,0.141-0.349c0.147-0.146,0.293-0.146,0.344-0.146h36.812V493.922z
		 M55.073,399.05H18.427c-0.273,0-0.484-0.207-0.484-0.479l-0.167-35.774c0-0.05,0-0.202,0.141-0.347
		c0.147-0.142,0.293-0.142,0.344-0.142h36.812V399.05z M55.073,347.776H18.26c-8.214-0.045-15.087,6.887-15.016,15.087l0.167,35.778
		c0.035,8.24,6.771,14.941,15.016,14.941h36.646v29.063H18.26c-8.214-0.045-15.087,6.892-15.016,15.091l0.167,35.774
		c0.035,8.245,6.771,14.945,15.016,14.945h36.646v28.649H18.26c-8.219-0.045-15.087,6.882-15.016,15.085l0.167,35.779
		c0.035,8.234,6.771,14.939,15.016,14.939h36.646v29.063h-80.406c-0.267,0-0.484-0.217-0.484-0.484V340.516
		c0-12.018,9.778-21.797,21.797-21.797h59.094V347.776z M207.651,165.031c43.266,0,78.469,35.203,78.469,78.469
		c0,43.266-35.203,78.469-78.469,78.469s-78.469-35.203-78.469-78.469C129.182,200.234,164.385,165.031,207.651,165.031
		L207.651,165.031z M272.583,631.969h-57.666V504.023h57.666V631.969z M128.187,489.491V474.96h158.927v14.531H128.187z
		 M345.234,631.969h-58.12V504.023c7.583,0.439,14.577-5.106,14.531-13.078v-17.438c0-7.21-5.868-13.078-13.078-13.078H126.734
		c-7.21,0-13.078,5.868-13.078,13.078v17.438c-0.05,7.634,6.823,13.871,14.531,13.078v51.45c0,4.012,3.255,7.266,7.266,7.266
		c4.017,0,7.266-3.254,7.266-7.266v-51.45h57.666v127.946h-57.666v-42.59c0-4.016-3.249-7.266-7.266-7.266
		c-4.011,0-7.266,3.25-7.266,7.266v42.59H69.604V272.563c0-12.019,9.778-21.797,21.797-21.797h23.533
		c3.719,47.898,43.88,85.734,92.717,85.734s88.998-37.837,92.717-85.734h23.069c12.018,0,21.797,9.778,21.797,21.797V631.969z
		 M185.854,265.297v29.062c0,7.21,5.868,13.078,13.078,13.078h17.437c7.21,0,13.078-5.868,13.078-13.078v-29.062h29.062
		c7.21,0,13.078-5.868,13.078-13.078v-17.438c0-7.21-5.868-13.078-13.078-13.078h-29.062v-29.063c0-7.21-5.868-13.078-13.078-13.078
		h-17.437c-7.21,0-13.078,5.868-13.078,13.078v29.063h-29.063c-7.21,0-13.078,5.868-13.078,13.078v17.438
		c0,7.21,5.868,13.078,13.078,13.078H185.854z M158.244,236.234h31.969c5.611,0,10.172-4.561,10.172-10.172v-31.969h14.531v31.969
		c0,5.611,4.561,10.172,10.172,10.172h31.969v14.531h-31.969c-5.611,0-10.172,4.561-10.172,10.172v31.969h-14.531v-31.969
		c0-5.611-4.561-10.172-10.172-10.172h-31.969V236.234z M178.588,582.698c4.011,0,7.266-3.254,7.266-7.266v-14.874
		c0-4.012-3.255-7.266-7.266-7.266c-4.011,0-7.266,3.254-7.266,7.266v14.874C171.323,579.444,174.578,582.698,178.588,582.698
		L178.588,582.698z M178.104,365.562h-64.226c-8.243,0-14.979,6.705-15.016,14.95l-0.161,35.774
		c-0.085,8.168,6.812,15.131,15.016,15.085h64.387c8.28,0,15.016-6.736,15.016-15.016v-35.778
		C193.119,372.299,186.383,365.562,178.104,365.562L178.104,365.562z M178.588,416.356c0,0.267-0.217,0.484-0.484,0.484h-64.387
		c-0.191,0.026-0.509-0.297-0.484-0.49l0.161-35.778c0-0.262,0.217-0.479,0.484-0.479h64.226c0.267,0,0.484,0.217,0.484,0.484
		V416.356z M236.713,582.698c4.011,0,7.266-3.254,7.266-7.266v-14.874c0-4.012-3.255-7.266-7.266-7.266s-7.266,3.254-7.266,7.266
		v14.874C229.448,579.444,232.703,582.698,236.713,582.698L236.713,582.698z M301.352,365.562h-64.155
		c-8.28,0-15.016,6.736-15.016,15.016v35.778c0,8.28,6.736,15.016,15.016,15.016h63.993c8.24,0,14.976-6.705,15.016-14.95
		l0.161-35.778C316.444,372.434,309.536,365.522,301.352,365.562L301.352,365.562z M301.675,416.356
		c0,0.267-0.222,0.484-0.484,0.484h-63.993c-0.267,0-0.484-0.217-0.484-0.484v-35.778c0-0.267,0.217-0.484,0.484-0.484h64.155
		c0.05,0,0.202,0,0.344,0.141c0.141,0.142,0.141,0.293,0.141,0.344L301.675,416.356z M301.675,416.356"/>
</g>
</svg>
