<?xml version="1.0" encoding="iso-8859-1"?>
<!-- Generator: Adobe Illustrator 17.0.0, SVG Export Plug-In . SVG Version: 6.00 Build 0)  -->
<!DOCTYPE svg PUBLIC "-//W3C//DTD SVG 1.1//EN" "http://www.w3.org/Graphics/SVG/1.1/DTD/svg11.dtd">
<svg version="1.1" id="Capa_1" xmlns="http://www.w3.org/2000/svg" xmlns:xlink="http://www.w3.org/1999/xlink" x="0px" y="0px"
	 width="512px" height="512px" viewBox="-49 141 512 512" style="enable-background:new -49 141 512 512;" xml:space="preserve">
<path style="fill:#FFFFFF;" d="M79.645,344.473c-32.471,0-58.889,26.417-58.889,58.889s26.418,58.889,58.889,58.889
	s58.889-26.417,58.889-58.889S112.118,344.473,79.645,344.473z M79.645,432.808c-16.237,0-29.447-13.209-29.447-29.447
	c0-16.237,13.209-29.447,29.447-29.447c16.237,0,29.447,13.209,29.447,29.447S95.883,432.808,79.645,432.808z"/>
<rect x="218.052" y="359.508" style="fill:#FFFFFF;" width="58.881" height="29.446"/>
<rect x="306.379" y="359.508" style="fill:#FFFFFF;" width="58.881" height="29.446"/>
<rect x="218.052" y="418.4" style="fill:#FFFFFF;" width="58.881" height="29.446"/>
<rect x="306.379" y="418.4" style="fill:#FFFFFF;" width="58.881" height="29.446"/>
<rect x="218.052" y="243.086" style="fill:#FFFFFF;" width="58.881" height="29.446"/>
<rect x="306.379" y="243.086" style="fill:#FFFFFF;" width="58.881" height="29.446"/>
<rect x="218.052" y="301.967" style="fill:#FFFFFF;" width="58.881" height="29.446"/>
<rect x="306.379" y="301.967" style="fill:#FFFFFF;" width="58.881" height="29.446"/>
<path style="fill:#FFFFFF;" d="M398.638,176.454V146.96H182.71v29.644h-59.87v111.925c-13.443-5.073-27.997-7.857-43.194-7.857
	c-67.653,0-122.692,55.04-122.692,122.692c0,27.712,18.295,73.146,55.929,138.898c26.964,47.106,54.313,87.424,54.586,87.826
	l12.175,17.907l12.175-17.907c0.219-0.324,17.993-26.526,38.985-61.309h326.718V176.654h0.001L398.638,176.454z M79.645,595.164
	C45.549,542.621-13.603,443.19-13.603,403.363c0-51.418,41.831-93.248,93.248-93.248c51.419,0,93.249,41.831,93.249,93.248
	C172.895,443.19,113.743,542.621,79.645,595.164z M428.081,539.335L428.081,539.335H306.382v-60.854H276.94v60.854H148.072
	c36.501-64.168,54.266-108.675,54.266-135.973c0-40.49-19.72-76.456-50.056-98.815v-98.501h59.87v-29.644h157.043v29.394
	l58.885,0.201V539.335z"/>
</svg>
