<?xml version="1.0" encoding="utf-8"?>
<!-- Generator: Adobe Illustrator 17.0.0, SVG Export Plug-In . SVG Version: 6.00 Build 0)  -->
<!DOCTYPE svg PUBLIC "-//W3C//DTD SVG 1.1//EN" "http://www.w3.org/Graphics/SVG/1.1/DTD/svg11.dtd">
<svg version="1.1" id="Layer_1" xmlns="http://www.w3.org/2000/svg" xmlns:xlink="http://www.w3.org/1999/xlink" x="0px" y="0px"
	 width="25px" height="25px" viewBox="0 0 25 25" enable-background="new 0 0 25 25" xml:space="preserve">
<path fill="#FFFFFF" d="M19.781,21.455c-0.009,0.529-0.196,0.96-0.596,1.285c-0.298,0.242-0.642,0.357-1.026,0.352
	c-0.854-0.012-1.388-0.56-1.575-1.626c-2.197,0-4.396,0-6.608,0C9.968,22,9.77,22.441,9.347,22.768
	c-0.304,0.234-0.652,0.338-1.036,0.324c-0.836-0.031-1.376-0.601-1.53-1.636c-0.197,0-0.398,0.009-0.598-0.004
	c-0.105-0.007-0.224-0.026-0.309-0.081c-0.577-0.375-1-0.862-1.078-1.579c-0.061-0.563,0.082-1.06,0.531-1.426
	c0.276-0.225,0.337-0.487,0.261-0.817C4.771,14.022,3.958,10.496,3.14,6.97C3.122,6.893,3.067,6.808,3.004,6.76
	C2.587,6.44,2.163,6.13,1.743,5.814c-0.068-0.052-0.119-0.07-0.207-0.025C1.11,6.005,0.624,5.923,0.301,5.593
	C-0.016,5.267-0.091,4.78,0.115,4.379c0.214-0.417,0.649-0.635,1.12-0.561C1.677,3.887,2.018,4.245,2.099,4.71
	c0.012,0.067,0.063,0.142,0.118,0.183c0.56,0.424,1.127,0.84,1.686,1.265C3.97,6.209,4.027,6.298,4.048,6.38
	c0.1,0.393,0.193,0.788,0.274,1.185c0.026,0.129,0.075,0.164,0.204,0.163c1.452-0.005,2.905-0.003,4.357-0.003
	c1.551,0,3.103,0,4.654,0c0.056,0,0.113,0,0.183,0c-0.024-0.183-0.05-0.351-0.067-0.519c-0.273-2.674,1.561-5.221,4.188-5.819
	c3.035-0.69,5.999,1.232,6.602,4.282c0.55,2.781-1.2,5.574-3.951,6.295c-0.144,0.038-0.195,0.099-0.215,0.243
	c-0.197,1.459-0.401,2.917-0.604,4.375c-0.016,0.118-0.029,0.238-0.052,0.355c-0.066,0.338-0.326,0.553-0.672,0.559
	c-0.094,0.002-0.187,0-0.281,0c-3.93,0-7.861,0-11.791,0.001c-0.08,0-0.16,0.014-0.223,0.019c-0.017,0.231-0.016,0.44-0.051,0.642
	c-0.065,0.372-0.237,0.704-0.553,0.911c-0.442,0.29-0.259,1.101,0.262,1.328c0.036,0.016,0.082,0.014,0.123,0.014
	c0.125,0.002,0.25-0.007,0.375,0.002c0.25,0.018,0.454-0.04,0.667-0.203c0.601-0.457,1.434-0.381,1.995,0.132
	c0.054,0.049,0.143,0.086,0.215,0.086c2.4,0.005,4.8,0.004,7.199,0.001c0.068,0,0.152-0.033,0.203-0.08
	c0.64-0.583,1.554-0.582,2.196,0.002c0.051,0.046,0.134,0.075,0.204,0.078c0.234,0.009,0.468,0.001,0.703,0.004
	c0.303,0.004,0.506,0.202,0.512,0.493c0.005,0.305-0.188,0.513-0.495,0.526C20.071,21.46,19.932,21.455,19.781,21.455z
	 M19.071,11.069c2.397,0.013,4.371-1.94,4.385-4.341c0.014-2.41-1.937-4.389-4.341-4.402c-2.409-0.013-4.388,1.939-4.403,4.343
	C14.697,9.082,16.652,11.056,19.071,11.069z M8.492,15.344c-0.05-0.477-0.102-0.984-0.155-1.491c-0.136-1.324-0.27-2.649-0.41-3.973
	C7.899,9.615,7.76,9.411,7.518,9.29c-0.295-0.147-0.619-0.01-0.711,0.307C6.777,9.704,6.77,9.825,6.784,9.935
	c0.224,1.79,0.454,3.58,0.681,5.37c0.032,0.248,0.15,0.431,0.385,0.524C8.193,15.963,8.507,15.738,8.492,15.344z M10.597,12.582
	c-0.001,0-0.001,0-0.002,0c0.046,0.925,0.091,1.85,0.14,2.774c0.016,0.299,0.259,0.522,0.542,0.511
	c0.286-0.011,0.477-0.232,0.469-0.549c-0.043-1.805-0.085-3.609-0.13-5.414C11.608,9.521,11.329,9.22,11,9.233
	c-0.323,0.012-0.551,0.305-0.533,0.699C10.508,10.815,10.554,11.698,10.597,12.582z M14.266,9.334
	c-0.209,0.142-0.292,0.362-0.298,0.62c-0.008,0.343-0.015,0.687-0.024,1.03c-0.037,1.451-0.076,2.903-0.112,4.354
	c-0.007,0.29,0.175,0.501,0.444,0.527c0.262,0.026,0.513-0.167,0.561-0.437c0.014-0.082,0.018-0.165,0.022-0.248
	c0.029-0.556,0.056-1.112,0.084-1.668c0.049-0.998,0.099-1.996,0.146-2.994c0.002-0.048-0.008-0.107-0.036-0.144
	C14.798,10.029,14.536,9.688,14.266,9.334z M17.385,11.902c-0.007,0.05-0.015,0.101-0.02,0.151c-0.05,0.475-0.099,0.951-0.148,1.427
	c-0.064,0.62-0.129,1.24-0.192,1.861c-0.019,0.184,0.034,0.341,0.193,0.448c0.156,0.105,0.324,0.103,0.489,0.023
	c0.203-0.098,0.313-0.263,0.342-0.487c0.091-0.717,0.184-1.433,0.275-2.149c0.044-0.349,0.087-0.698,0.129-1.04
	C18.094,12.057,17.75,11.981,17.385,11.902z M8.936,21.459c-0.003-0.317-0.261-0.571-0.578-0.57
	c-0.314,0.001-0.576,0.262-0.577,0.575c-0.001,0.319,0.27,0.584,0.59,0.577C8.689,22.036,8.939,21.778,8.936,21.459z M18.775,21.464
	c-0.001-0.318-0.254-0.572-0.573-0.575c-0.314-0.002-0.577,0.256-0.582,0.57c-0.005,0.318,0.265,0.587,0.585,0.583
	C18.523,22.038,18.776,21.783,18.775,21.464z"/>
<path fill="#FFFFFF" d="M19.713,8.106c0.426-0.347,0.818-0.664,1.208-0.983c0.192-0.157,0.407-0.206,0.642-0.128
	c0.237,0.078,0.382,0.247,0.429,0.491c0.05,0.259-0.037,0.472-0.239,0.637c-0.628,0.513-1.258,1.025-1.888,1.537
	c-0.117,0.095-0.232,0.193-0.351,0.285c-0.256,0.197-0.57,0.202-0.82,0c-0.768-0.622-1.534-1.247-2.296-1.876
	c-0.281-0.232-0.313-0.634-0.089-0.909c0.224-0.276,0.62-0.324,0.907-0.097c0.347,0.274,0.686,0.558,1.029,0.837
	c0.047,0.038,0.095,0.076,0.173,0.139c0-0.088,0-0.142,0-0.197c0-1.301-0.001-2.601,0-3.902c0.001-0.48,0.415-0.794,0.852-0.651
	c0.274,0.09,0.441,0.331,0.442,0.647c0.001,1.322,0.001,2.643,0.001,3.965C19.713,7.955,19.713,8.01,19.713,8.106z"/>
</svg>
