<?xml version="1.0" encoding="utf-8"?>
<!-- Generator: Adobe Illustrator 17.0.0, SVG Export Plug-In . SVG Version: 6.00 Build 0)  -->
<!DOCTYPE svg PUBLIC "-//W3C//DTD SVG 1.1//EN" "http://www.w3.org/Graphics/SVG/1.1/DTD/svg11.dtd">
<svg version="1.1" id="Layer_1" xmlns="http://www.w3.org/2000/svg" xmlns:xlink="http://www.w3.org/1999/xlink" x="0px" y="0px"
	 width="20px" height="20px" viewBox="0 0 20 20" enable-background="new 0 0 20 20" xml:space="preserve">
<path fill="#FFFFFF" d="M9.082,13.996c-0.314,0-0.629-0.001-0.943-0.001C8.453,13.995,8.767,13.996,9.082,13.996
	c0.214,0,0.428,0,0.642,0C9.51,13.996,9.296,13.996,9.082,13.996z"/>
<path fill="#8E8E8E" d="M12.994,19.311c-0.016,0.002-0.031,0.017-0.047,0.025H5.216c-0.294-0.107-0.614-0.173-0.878-0.33
	c-0.718-0.425-1.089-1.08-1.09-1.917C3.243,12.368,3.244,7.646,3.246,2.924c0-1.116,0.753-2.014,1.853-2.227
	c0.028-0.005,0.054-0.022,0.081-0.033h7.768c0.355,0.085,0.702,0.187,1.002,0.407c0.608,0.446,0.932,1.047,0.951,1.8
	c0.014,0.547,0.007,1.094,0.002,1.641c-0.002,0.27-0.229,0.429-0.413,0.284c-0.075-0.059-0.126-0.194-0.128-0.295
	c-0.013-0.51-0.002-1.021-0.007-1.532c-0.008-0.835-0.477-1.48-1.237-1.689c-0.167-0.046-0.347-0.065-0.521-0.066
	c-2.352-0.004-4.704-0.005-7.057-0.002c-1.019,0.001-1.747,0.73-1.747,1.747c-0.001,4.692-0.001,9.385,0,14.077
	c0,1.027,0.728,1.751,1.761,1.752c2.34,0.002,4.68,0.002,7.02,0c1.055-0.001,1.776-0.716,1.78-1.772
	c0.005-1.367,0.001-2.735,0.002-4.103c0-0.067-0.001-0.134,0.004-0.2c0.013-0.158,0.108-0.247,0.26-0.251
	c0.153-0.005,0.25,0.083,0.275,0.237c0.011,0.065,0.008,0.133,0.008,0.2c0.001,1.355-0.015,2.711,0.005,4.066
	C14.929,18.326,13.951,19.191,12.994,19.311z"/>
<path fill="#8E8E8E" d="M18.856,9.595c-0.005,1.308-1.001,2.307-2.31,2.31c-2.036,0.004-4.072,0.003-6.108-0.003
	c-0.161,0-0.27,0.046-0.373,0.167c-0.239,0.283-0.493,0.553-0.738,0.832c-0.097,0.11-0.207,0.176-0.352,0.122
	c-0.147-0.055-0.18-0.181-0.18-0.326c0.001-1.677-0.008-3.355,0.004-5.032c0.009-1.272,1.026-2.264,2.3-2.266
	c1.197-0.002,2.395-0.001,3.592,0c0.066,0,0.155-0.016,0.195,0.019c0.075,0.066,0.166,0.163,0.167,0.248
	c0.001,0.084-0.088,0.187-0.164,0.247c-0.052,0.041-0.151,0.031-0.229,0.031c-1.161,0.002-2.322,0-3.482,0.001
	c-1.093,0.002-1.831,0.737-1.833,1.829c-0.002,1.355,0,2.711,0,4.066v0.158c0.013,0.004,0.027,0.008,0.041,0.012
	c0.138-0.153,0.284-0.299,0.411-0.46c0.117-0.149,0.258-0.196,0.443-0.195c2.085,0.004,4.169,0.002,6.254,0.003
	c0.76,0,1.325-0.327,1.65-1.015c0.098-0.208,0.151-0.453,0.159-0.684c0.021-0.668,0.015-1.337,0.006-2.005
	c-0.012-0.939-0.753-1.682-1.692-1.707c-0.194-0.005-0.389,0-0.583-0.003c-0.212-0.003-0.34-0.108-0.343-0.273
	c-0.003-0.166,0.125-0.277,0.336-0.272c0.327,0.007,0.66-0.01,0.98,0.044c1.045,0.177,1.837,1.122,1.849,2.181
	C18.862,8.282,18.859,8.938,18.856,9.595z"/>
<path fill="#8E8E8E" d="M13.807,16.987c-0.001,0.79-0.469,1.253-1.262,1.254c-2.316,0-4.632,0-6.947,0
	c-0.792,0-1.257-0.465-1.257-1.257c0-1.726,0-3.452,0-5.179c0-1.75,0-3.501,0-5.251c0-0.067-0.007-0.136,0.008-0.2
	c0.034-0.14,0.129-0.222,0.275-0.217C4.77,6.143,4.859,6.231,4.883,6.373c0.011,0.065,0.005,0.133,0.005,0.2
	c0,3.465,0,6.929,0,10.394c0,0.515,0.214,0.727,0.734,0.727c2.297,0,4.595,0,6.892,0c0.538,0,0.745-0.209,0.745-0.753
	c0-1.355,0-2.711,0-4.066c0-0.282,0.086-0.412,0.269-0.415c0.186-0.003,0.279,0.132,0.279,0.407
	C13.808,14.24,13.809,15.613,13.807,16.987z"/>
<path fill="#8E8E8E" d="M13.802,4.568c-0.001,0.169-0.13,0.282-0.278,0.277c-0.149-0.005-0.261-0.118-0.262-0.292
	c-0.005-0.504-0.002-1.008-0.003-1.513c-0.001-0.52-0.213-0.734-0.726-0.734c-0.121,0-0.246,0.016-0.364-0.003
	c-0.327-0.053-0.561,0.068-0.734,0.341c-0.048,0.076-0.12,0.137-0.177,0.208c-0.12,0.148-0.275,0.211-0.463,0.21
	c-1.148-0.001-2.296-0.001-3.445,0c-0.188,0-0.362-0.051-0.459-0.213C6.609,2.374,6.198,2.213,5.668,2.305
	c-0.053,0.009-0.109,0-0.164,0.002C5.135,2.316,4.89,2.56,4.889,2.931c-0.003,0.705-0.001,1.41-0.001,2.114
	c0,0.049,0.001,0.097,0,0.146c-0.005,0.198-0.108,0.32-0.271,0.322C4.454,5.515,4.343,5.391,4.341,5.197
	c-0.003-0.395-0.001-0.79-0.001-1.185c0-0.365-0.003-0.729,0.001-1.094C4.347,2.259,4.837,1.768,5.493,1.76
	c0.273-0.003,0.547,0.001,0.82-0.001c0.233-0.002,0.425,0.084,0.577,0.26C6.895,2.024,6.9,2.028,6.903,2.033
	c0.244,0.425,0.61,0.514,1.083,0.493c0.891-0.039,1.786-0.013,2.679-0.009c0.113,0,0.19-0.031,0.265-0.118
	c0.587-0.691,0.499-0.644,1.405-0.638c0.194,0.001,0.391-0.002,0.58,0.034c0.475,0.091,0.85,0.489,0.874,0.971
	C13.817,3.365,13.805,3.967,13.802,4.568z"/>
<path fill="#8E8E8E" d="M12.131,15.876c-0.007,0.541-0.342,0.874-0.88,0.875c-0.839,0.002-1.677,0.002-2.516-0.001
	c-0.183-0.001-0.303-0.111-0.306-0.267c-0.002-0.155,0.118-0.268,0.299-0.278c0.042-0.002,0.085-0.001,0.128-0.001
	c0.772,0,1.543,0,2.315,0c0.342,0,0.412-0.071,0.412-0.42c0-0.298,0.002-0.596-0.001-0.893c-0.003-0.253-0.091-0.347-0.339-0.347
	c-1.446-0.002-2.892-0.002-4.338,0c-0.248,0-0.339,0.098-0.34,0.344c-0.002,0.328-0.002,0.656,0,0.984
	c0.001,0.235,0.096,0.328,0.333,0.331c0.2,0.002,0.401-0.003,0.601,0.002c0.195,0.005,0.312,0.118,0.306,0.285
	c-0.006,0.159-0.12,0.257-0.31,0.26c-0.231,0.003-0.462,0.005-0.693-0.002c-0.427-0.013-0.774-0.354-0.784-0.782
	c-0.009-0.395-0.009-0.79,0-1.185c0.011-0.454,0.367-0.781,0.856-0.785c0.421-0.003,0.842-0.003,1.262-0.003
	c0.314,0,0.629,0.001,0.943,0.001c0.214,0,0.428,0,0.642,0c0.497,0,0.994-0.001,1.49,0.001c0.588,0.002,0.914,0.327,0.917,0.913
	C12.134,15.232,12.136,15.554,12.131,15.876z"/>
<path fill="#8E8E8E" d="M14.813,9.835c-0.001,0.191-0.101,0.304-0.259,0.311c-0.166,0.007-0.284-0.111-0.286-0.306
	c-0.005-0.358-0.002-0.716-0.002-1.129c-0.165,0.222-0.229,0.482-0.515,0.481c-0.287-0.002-0.349-0.263-0.513-0.487v0.817
	c0,0.115,0.004,0.231-0.002,0.346c-0.01,0.17-0.123,0.28-0.275,0.279c-0.153-0.001-0.268-0.113-0.269-0.283
	c-0.003-0.723-0.001-1.445-0.002-2.168c0-0.138,0.059-0.239,0.189-0.279c0.137-0.042,0.252,0.006,0.327,0.132
	c0.176,0.297,0.351,0.594,0.538,0.912c0.035-0.049,0.064-0.083,0.086-0.12c0.155-0.261,0.31-0.522,0.463-0.783
	c0.074-0.126,0.183-0.18,0.322-0.143c0.142,0.038,0.198,0.146,0.198,0.29C14.813,8.414,14.815,9.125,14.813,9.835z"/>
<path fill="#8E8E8E" d="M11.942,9.645c-0.014,0.319-0.206,0.499-0.527,0.501c-0.353,0.002-0.705,0.002-1.058,0
	c-0.196-0.001-0.321-0.11-0.32-0.272c0.001-0.161,0.126-0.271,0.322-0.273C10.698,9.598,11.037,9.6,11.386,9.6V9.05
	c-0.248,0-0.495,0.001-0.742,0c-0.428-0.001-0.608-0.182-0.609-0.611c0-0.176-0.005-0.353,0.002-0.529
	c0.011-0.309,0.199-0.501,0.504-0.507c0.365-0.007,0.729-0.005,1.094-0.001c0.193,0.002,0.301,0.102,0.304,0.265
	c0.003,0.166-0.114,0.279-0.312,0.281c-0.34,0.005-0.679,0.001-1.032,0.001v0.551c0.266,0,0.526-0.001,0.786,0
	c0.374,0.002,0.557,0.183,0.562,0.56C11.947,9.256,11.951,9.451,11.942,9.645z"/>
<path fill="#8E8E8E" d="M17.539,9.642c-0.01,0.304-0.207,0.501-0.508,0.504c-0.364,0.004-0.729,0.003-1.094,0
	c-0.187-0.002-0.299-0.107-0.3-0.269c-0.001-0.162,0.111-0.273,0.296-0.275c0.345-0.004,0.691-0.001,1.05-0.001V9.05
	c-0.263,0-0.516,0.001-0.77,0c-0.395-0.002-0.576-0.184-0.579-0.581c-0.001-0.2-0.005-0.401,0.004-0.601
	c0.013-0.27,0.196-0.455,0.467-0.461c0.376-0.009,0.754-0.007,1.13-0.003c0.184,0.002,0.302,0.115,0.302,0.271
	c-0.001,0.155-0.119,0.271-0.303,0.274c-0.34,0.006-0.68,0.002-1.036,0.002v0.552c0.249,0,0.502-0.001,0.755,0
	c0.404,0.001,0.584,0.184,0.586,0.593C17.541,9.277,17.545,9.46,17.539,9.642z"/>
</svg>
