<?xml version="1.0" encoding="utf-8"?>
<!-- Generator: Adobe Illustrator 17.0.0, SVG Export Plug-In . SVG Version: 6.00 Build 0)  -->
<!DOCTYPE svg PUBLIC "-//W3C//DTD SVG 1.1//EN" "http://www.w3.org/Graphics/SVG/1.1/DTD/svg11.dtd">
<svg version="1.1" id="Layer_1" xmlns="http://www.w3.org/2000/svg" xmlns:xlink="http://www.w3.org/1999/xlink" x="0px" y="0px"
	 width="55px" height="55px" viewBox="0 0 55 55" enable-background="new 0 0 55 55" xml:space="preserve">
<g>
	<path fill="#06141E" d="M46.546,52.685c0.472,0,0.787-0.315,0.787-0.787c0-0.236-0.157-0.472-0.315-0.63
		c-1.495-1.417-2.204-2.833-2.204-4.171c0-1.417,0.787-2.833,2.282-4.25l0,0l0,0c0.079-0.079,0.079-0.157,0.157-0.236v-0.079
		c0-0.079,0.079-0.157,0.079-0.236l0,0V3.102c0-0.472-0.315-0.787-0.787-0.787H13.333c-3.148,0-5.667,2.518-5.667,5.588v39.115
		c0,3.148,2.518,5.667,5.667,5.667H46.546L46.546,52.685z M45.759,41.43H16.324V3.889h29.435V41.43z M9.241,7.903
		c0-2.204,1.81-4.014,4.093-4.014h1.417V41.43h-1.417l0,0c-1.574,0-2.991,0.63-4.014,1.731L9.241,7.903z M44.736,51.111H13.333
		c-2.204,0-4.014-1.81-4.014-4.014c0-2.204,1.81-4.014,4.014-4.014l0,0c9.208,0,17.393,0,31.403,0
		c-1.023,1.338-1.574,2.676-1.574,4.014S43.713,49.773,44.736,51.111z"/>
	<path fill="#145DA1" d="M37.338,46.31H15.065c-0.472,0-0.787,0.315-0.787,0.787s0.315,0.787,0.787,0.787h22.273
		c0.472,0,0.787-0.315,0.787-0.787S37.81,46.31,37.338,46.31z"/>
	<g>
		<path fill="#00C551" d="M31.727,27.874c-0.042-0.042-0.097-0.064-0.163-0.064h-1.214c-0.081-0.393-0.232-0.734-0.455-1.023h1.654
			c0.066,0,0.121-0.021,0.163-0.064c0.043-0.043,0.064-0.097,0.064-0.163v-0.724c0-0.066-0.021-0.121-0.064-0.163
			c-0.042-0.042-0.097-0.064-0.163-0.064H25.64c-0.066,0-0.121,0.021-0.163,0.064c-0.043,0.043-0.064,0.097-0.064,0.163v0.944
			c0,0.062,0.023,0.115,0.068,0.16c0.045,0.045,0.098,0.067,0.16,0.067h1.03c0.999,0,1.634,0.267,1.903,0.802H25.64
			c-0.066,0-0.121,0.021-0.163,0.064c-0.043,0.043-0.064,0.097-0.064,0.163v0.724c0,0.066,0.021,0.121,0.064,0.163
			c0.043,0.042,0.097,0.064,0.163,0.064h3.033c-0.104,0.389-0.347,0.684-0.728,0.888c-0.381,0.203-0.884,0.306-1.509,0.306H25.64
			c-0.062,0-0.115,0.022-0.16,0.067c-0.045,0.045-0.068,0.098-0.068,0.16v0.902c0,0.062,0.021,0.114,0.064,0.156
			c0.909,0.966,2.088,2.318,3.537,4.055c0.043,0.057,0.102,0.085,0.177,0.085h1.385c0.099,0,0.168-0.043,0.205-0.128
			c0.048-0.085,0.038-0.166-0.028-0.241c-1.382-1.695-2.469-2.964-3.26-3.807c0.805-0.095,1.458-0.355,1.96-0.781
			c0.502-0.426,0.807-0.98,0.916-1.662h1.193c0.066,0,0.121-0.021,0.163-0.064c0.043-0.043,0.064-0.097,0.064-0.163v-0.724
			C31.791,27.972,31.769,27.917,31.727,27.874L31.727,27.874z M31.727,27.874"/>
	</g>
	<path fill="#00C551" d="M41.086,7.514H20.919c-0.552,0-1,0.448-1,1v10.583c0,0.552,0.448,1,1,1h20.167c0.553,0,1-0.448,1-1V8.514
		C42.086,7.962,41.639,7.514,41.086,7.514z"/>
	<path fill="#FFFFFF" d="M37.417,14.671H24.588c-0.472,0-0.787,0.315-0.787,0.787c0,0.472,0.315,0.787,0.787,0.787h12.829
		c0.472,0,0.787-0.315,0.787-0.787C38.204,14.986,37.889,14.671,37.417,14.671z"/>
	<path fill="#FFFFFF" d="M37.417,11.445h-6.375c-0.472,0-0.787,0.315-0.787,0.787s0.315,0.787,0.787,0.787h6.375
		c0.472,0,0.787-0.315,0.787-0.787S37.889,11.445,37.417,11.445z"/>
</g>
</svg>
