<?xml version="1.0" encoding="utf-8"?>
<!-- Generator: Adobe Illustrator 17.0.0, SVG Export Plug-In . SVG Version: 6.00 Build 0)  -->
<!DOCTYPE svg PUBLIC "-//W3C//DTD SVG 1.1//EN" "http://www.w3.org/Graphics/SVG/1.1/DTD/svg11.dtd">
<svg version="1.1" id="Layer_1" xmlns="http://www.w3.org/2000/svg" xmlns:xlink="http://www.w3.org/1999/xlink" x="0px" y="0px"
	 width="55px" height="55px" viewBox="0 0 55 55" enable-background="new 0 0 55 55" xml:space="preserve">
<g>
	<path fill="#145DA1" d="M27.536,28.449h-0.493c-1.657-1.594-4.057-2.167-4.057-2.167l-4.424-0.511
		c-3.976-1.155-4.093,0.233-4.093,0.233c-0.009,0.054-0.009,0.099-0.009,0.152c0,1.836,3.627,2.158,3.627,2.158
		s1.37,0.663,1.8,1.254h-9.672l1.352,1.46c0.501,0.869,4.066,4.075,4.299,4.379c0.6,0.761,1.603,0.725,2.149,0.627
		c0.17-0.018,0.322-0.081,0.484-0.143c0.967-0.421,7.37-1.137,9.09-1.316c0.242-0.027,0.43-0.233,0.43-0.475v-5.176
		C28.019,28.655,27.796,28.449,27.536,28.449z"/>
	<path fill="#00C551" d="M20.201,20.604v3.806l-1.334-0.161c-0.045-0.045-0.072-0.081-0.116-0.134V22.44
		c-0.224,0.054-0.475,0.072-0.725,0.027c-0.698-0.116-1.263-0.672-1.388-1.37c-0.054-0.26-0.036-0.51,0.018-0.743H4.064
		c0.018,0.107,0.027,0.206,0.027,0.313c0,0.949-0.77,1.719-1.71,1.719c-0.098,0-0.206-0.009-0.305-0.027v5.212
		c0.099-0.018,0.206-0.036,0.305-0.036c0.949,0,1.71,0.77,1.71,1.719c0,0.107-0.009,0.215-0.027,0.313h6.152l1.352,1.46H2.326
		c-0.94,0-1.693-0.761-1.693-1.693v-8.731c0-0.931,0.761-1.692,1.693-1.692H18.5C19.44,18.911,20.201,19.672,20.201,20.604z"/>
	<path fill="#06141E" d="M4.54,26.186c-0.568,0-1.028-0.46-1.028-1.028s0.46-1.028,1.028-1.028c0.568,0,1.029,0.46,1.029,1.028
		S5.108,26.186,4.54,26.186L4.54,26.186z M4.54,26.186"/>
	<path fill="#00C551" d="M9.951,21.256c-2.051,0-3.717,1.66-3.717,3.712c0,2.051,1.666,3.717,3.717,3.717
		c1.068,0,2.035-0.453,2.711-1.174c-0.268-0.503-0.335-0.989-0.335-1.347c0-0.101,0.006-0.201,0.017-0.302
		c0.022-0.252,0.168-0.995,0.967-1.543c0.089-0.061,0.173-0.112,0.268-0.162C13.204,22.497,11.723,21.256,9.951,21.256L9.951,21.256
		z M9.621,22.743"/>
	<path fill="#00C551" d="M38.963,30.186c-0.376,0-0.698-0.26-0.797-0.618v-0.009c0.322-0.6,1.71-1.298,1.925-1.406
		c0.018-0.009,0.036-0.018,0.054-0.018c0.349-0.036,3.761-0.439,3.761-2.257v-0.143c0,0-0.125-1.46-4.272-0.26
		c-0.009,0-0.018,0.009-0.027,0.009l-4.585,0.528c-0.009,0-0.009,0-0.027,0.009c-0.17,0.045-2.516,0.645-4.173,2.212
		c-0.036,0.027-0.072,0.045-0.116,0.045h-0.394c-0.018,0-0.018-0.009-0.018-0.018v-0.143c0-0.34-0.278-0.618-0.627-0.618h-1.612
		c-0.34,0-0.618,0.278-0.618,0.618V34.7c0,0.34,0.278,0.618,0.618,0.618h1.603c0.34,0,0.618-0.278,0.618-0.618
		c0-0.018,0.009-0.018,0.018-0.018c2.024,0.215,8.946,1.003,9.493,1.415c0.009,0.018,0.027,0.027,0.054,0.027
		c0.251,0.081,1.791,0.439,2.588-0.582c0.197-0.251,2.543-2.391,3.788-3.725l0.161-0.17l1.308-1.46H38.963z"/>
	<path fill="#145DA1" d="M52.065,18.75H39.16c-1.361,0-2.472,1.111-2.472,2.472v2.964c0,0.099,0.09,0.179,0.188,0.17l1.093-0.125
		c0.09-0.018,0.152-0.09,0.152-0.179v-0.349c0-0.098,0.081-0.17,0.179-0.17h14.651c0.099,0,0.17,0.072,0.17,0.17v5.481
		c0,0.546-0.448,1.003-1.003,1.003h-4.433l-1.308,1.46c0.009-0.009,0.009-0.009,0.009-0.009h5.499c1.37,0,2.481-1.11,2.481-2.472
		v-8.114C54.366,19.78,53.327,18.75,52.065,18.75z M52.969,21.338H38.282c-0.09,0-0.152-0.072-0.152-0.161
		c0-0.546,0.448-0.994,0.994-0.994h13.003c0.555,0,0.994,0.448,0.994,0.994C53.121,21.267,53.05,21.338,52.969,21.338z"/>
	<g>
		<path fill="#FFFFFF" d="M10.998,24.015c-0.015-0.015-0.034-0.022-0.057-0.022h-0.424c-0.028-0.137-0.081-0.256-0.159-0.357h0.578
			c0.023,0,0.042-0.007,0.057-0.022c0.015-0.015,0.022-0.034,0.022-0.057v-0.253c0-0.023-0.007-0.042-0.022-0.057
			c-0.015-0.015-0.034-0.022-0.057-0.022H8.872c-0.023,0-0.042,0.007-0.057,0.022C8.8,23.261,8.792,23.28,8.792,23.303v0.33
			c0,0.022,0.008,0.04,0.024,0.056c0.016,0.016,0.034,0.023,0.056,0.023h0.36c0.349,0,0.571,0.093,0.665,0.28H8.872
			c-0.023,0-0.042,0.007-0.057,0.022C8.8,24.03,8.792,24.049,8.792,24.072v0.253c0,0.023,0.007,0.042,0.022,0.057
			c0.015,0.015,0.034,0.022,0.057,0.022h1.059c-0.036,0.136-0.121,0.239-0.254,0.31c-0.133,0.071-0.309,0.107-0.527,0.107H8.872
			c-0.022,0-0.04,0.008-0.056,0.023C8.8,24.861,8.792,24.88,8.792,24.901v0.315c0,0.022,0.007,0.04,0.022,0.055
			c0.318,0.337,0.729,0.81,1.236,1.417c0.015,0.02,0.036,0.03,0.062,0.03h0.484c0.035,0,0.059-0.015,0.072-0.045
			c0.017-0.03,0.013-0.058-0.01-0.084c-0.483-0.592-0.863-1.036-1.139-1.33c0.281-0.033,0.509-0.124,0.685-0.273
			c0.175-0.149,0.282-0.342,0.32-0.581h0.417c0.023,0,0.042-0.007,0.057-0.022c0.015-0.015,0.022-0.034,0.022-0.057v-0.253
			C11.02,24.049,11.013,24.03,10.998,24.015L10.998,24.015z M10.998,24.015"/>
	</g>
	<rect x="38.128" y="21.337" fill="#06141E" width="14.997" height="2.191"/>
	<line fill="#145DA1" x1="46.217" y1="31.816" x2="46.378" y2="31.646"/>
</g>
</svg>
