<?xml version="1.0" encoding="utf-8"?>
<!-- Generator: Adobe Illustrator 17.0.0, SVG Export Plug-In . SVG Version: 6.00 Build 0)  -->
<!DOCTYPE svg PUBLIC "-//W3C//DTD SVG 1.1//EN" "http://www.w3.org/Graphics/SVG/1.1/DTD/svg11.dtd">
<svg version="1.1" id="Layer_1" xmlns="http://www.w3.org/2000/svg" xmlns:xlink="http://www.w3.org/1999/xlink" x="0px" y="0px"
	 width="55px" height="55px" viewBox="0 0 55 55" enable-background="new 0 0 55 55" xml:space="preserve">
<g>
	<g>
		<path fill="#00C551" d="M23.134,3.511c2.863,0,5.346,1.887,6.147,4.576h7.458V7.13c-2.486-0.362-4.452-2.329-4.815-4.815h-17.58
			C13.982,4.801,12.015,6.767,9.53,7.13v5.6c2.486,0.362,4.456,2.329,4.818,4.815h0.953c0-1.225,0-7.416,0-8.633
			c0-0.455,0.369-0.825,0.825-0.825h0.857C17.784,5.399,20.267,3.511,23.134,3.511z"/>
		<path fill="#06141E" d="M16.95,21.817v3.148h3.148C19.772,23.388,18.527,22.144,16.95,21.817z"/>
		<path fill="#06141E" d="M16.95,12.884c1.577-0.327,2.821-1.571,3.148-3.148c0.114,0-2.554,0-3.148,0V12.884z"/>
		<path fill="#06141E" d="M41.012,24.965h3.148v-3.148C42.583,22.144,41.338,23.388,41.012,24.965z"/>
		<path fill="#06141E" d="M36.739,5.463V2.315h-3.148C33.917,3.892,35.162,5.136,36.739,5.463z"/>
		<path fill="#06141E" d="M12.677,2.315H9.53v3.148C11.106,5.136,12.351,3.892,12.677,2.315z"/>
		<path fill="#06141E" d="M9.53,14.396v3.148h3.148C12.351,15.967,11.106,14.723,9.53,14.396z"/>
		<path fill="#00C551" d="M23.134,5.16c-1.96,0-3.681,1.184-4.408,2.927c2.095,0,6.683,0,8.808,0
			C26.808,6.344,25.09,5.16,23.134,5.16z"/>
		<path fill="#00C551" d="M39.345,9.736c-5.191,0-9.689,0-17.58,0c-0.362,2.486-2.329,4.452-4.815,4.815c0-0.222,0,5.4,0,5.6
			c2.486,0.362,4.456,2.329,4.818,4.815h17.576c0.362-2.486,2.329-4.452,4.815-4.815v-5.6C41.674,14.188,39.707,12.221,39.345,9.736
			z M30.555,23.772c-3.544,0-6.427-2.878-6.427-6.416c0-3.544,2.883-6.427,6.427-6.427s6.427,2.883,6.427,6.427
			C36.982,20.894,34.099,23.772,30.555,23.772z"/>
		<path fill="#06141E" d="M41.012,9.736c0.326,1.577,1.571,2.821,3.148,3.148V9.736H41.012z"/>
		<path fill="#00C551" d="M30.555,12.578c-2.635,0-4.778,2.143-4.778,4.778c0,2.629,2.143,4.767,4.778,4.767
			s4.778-2.139,4.778-4.767C35.333,14.721,33.189,12.578,30.555,12.578z"/>
		<g>
			<path fill="#FFFFFF" d="M32.117,15.983c-0.021-0.021-0.048-0.032-0.082-0.032h-0.607c-0.04-0.196-0.116-0.367-0.227-0.511h0.827
				c0.033,0,0.06-0.011,0.082-0.032c0.021-0.021,0.032-0.049,0.032-0.082v-0.362c0-0.033-0.011-0.06-0.032-0.082
				c-0.021-0.021-0.048-0.032-0.082-0.032h-2.954c-0.033,0-0.06,0.011-0.082,0.032c-0.021,0.021-0.032,0.049-0.032,0.082v0.472
				c0,0.031,0.011,0.057,0.034,0.08c0.022,0.022,0.049,0.034,0.08,0.034h0.515c0.499,0,0.817,0.134,0.952,0.401h-1.467
				c-0.033,0-0.06,0.011-0.082,0.032c-0.021,0.021-0.032,0.048-0.032,0.082v0.362c0,0.033,0.011,0.06,0.032,0.082
				c0.021,0.021,0.049,0.032,0.082,0.032h1.516c-0.052,0.194-0.173,0.342-0.364,0.444c-0.19,0.102-0.442,0.153-0.754,0.153h-0.398
				c-0.031,0-0.057,0.011-0.08,0.034c-0.023,0.023-0.034,0.049-0.034,0.08v0.451c0,0.031,0.011,0.057,0.032,0.078
				c0.455,0.483,1.044,1.159,1.769,2.028c0.021,0.028,0.051,0.043,0.089,0.043h0.693c0.05,0,0.084-0.021,0.103-0.064
				c0.024-0.043,0.019-0.083-0.014-0.121c-0.691-0.847-1.235-1.482-1.63-1.904c0.402-0.047,0.729-0.178,0.98-0.391
				c0.251-0.213,0.404-0.49,0.458-0.831h0.597c0.033,0,0.06-0.011,0.082-0.032c0.021-0.021,0.032-0.049,0.032-0.082v-0.362
				C32.149,16.032,32.139,16.004,32.117,15.983L32.117,15.983z M32.117,15.983"/>
		</g>
	</g>
	<g>
		<path fill="#145DA1" d="M10.898,30.761v17.101c0,0.453-0.371,0.825-0.825,0.825h-8.13c-0.453,0-0.825-0.371-0.825-0.825V30.761
			c0-0.462,0.371-0.825,0.825-0.825h8.13C10.527,29.936,10.898,30.299,10.898,30.761z"/>
	</g>
	<path fill="#145DA1" d="M53.88,37.299c0,1.204-0.643,2.325-1.699,2.935c-1.072,0.75-17.257,12.063-24.125,12.442
		c-0.082,0.008-0.173,0.008-0.264,0.008c-3.9,0-12.112-4.452-15.245-6.233V31.561c1.369,0.008,4.279,0.033,7.503,0.107
		c3.29,0.074,6.909,1.575,9.746,4.015h5.739c4.832,0,2.696,5.244-0.932,5.244h-5.656c-0.453,0-0.825,0.371-0.825,0.825
		c0,0.453,0.371,0.825,0.825,0.825h5.656c2.498,0,4.609-1.674,5.277-3.966l9.111-4.37c1.064-0.511,2.3-0.437,3.306,0.19
		C53.287,35.057,53.88,36.129,53.88,37.299z"/>
</g>
</svg>
