<?xml version="1.0" encoding="utf-8"?>
<!-- Generator: Adobe Illustrator 17.0.0, SVG Export Plug-In . SVG Version: 6.00 Build 0)  -->
<!DOCTYPE svg PUBLIC "-//W3C//DTD SVG 1.1//EN" "http://www.w3.org/Graphics/SVG/1.1/DTD/svg11.dtd">
<svg version="1.1" id="Layer_1" xmlns="http://www.w3.org/2000/svg" xmlns:xlink="http://www.w3.org/1999/xlink" x="0px" y="0px"
	 width="22px" height="22px" viewBox="0 0 22 22" enable-background="new 0 0 22 22" xml:space="preserve">
<path fill="#395897" d="M16.478,0.049l-2.842-0.004c-3.192,0-5.256,2.117-5.256,5.392v2.487H5.523c-0.246,0-0.446,0.199-0.446,0.446
	v3.603c0,0.246,0.2,0.446,0.446,0.446h2.857v9.09c0,0.246,0.2,0.446,0.447,0.446h3.726c0.247,0,0.447-0.2,0.447-0.446v-9.09h3.34
	c0.247,0,0.447-0.2,0.447-0.446L16.79,8.37c0-0.118-0.048-0.231-0.131-0.316c-0.083-0.083-0.197-0.13-0.316-0.13h-3.341V5.816
	c0-1.013,0.242-1.527,1.561-1.527l1.914-0.001c0.247,0,0.446-0.2,0.446-0.446V0.496C16.923,0.249,16.724,0.05,16.478,0.049
	L16.478,0.049z M16.478,0.049"/>
</svg>
