<?xml version="1.0" encoding="utf-8"?>
<!-- Generator: Adobe Illustrator 17.0.0, SVG Export Plug-In . SVG Version: 6.00 Build 0)  -->
<!DOCTYPE svg PUBLIC "-//W3C//DTD SVG 1.1//EN" "http://www.w3.org/Graphics/SVG/1.1/DTD/svg11.dtd">
<svg version="1.1" id="Layer_1" xmlns="http://www.w3.org/2000/svg" xmlns:xlink="http://www.w3.org/1999/xlink" x="0px" y="0px"
	 width="22px" height="22px" viewBox="0 0 22 22" enable-background="new 0 0 22 22" xml:space="preserve">
<g>
	<path fill="#E94335" d="M18.413,2.825c-1.01,1.003-2.016,2.01-3.02,3.02c-0.079,0.079-0.122,0.067-0.201,0.006
		c-1.308-1.011-2.79-1.494-4.437-1.336C7.991,4.78,6.121,6.255,5.107,8.831C5.094,8.864,5.078,8.896,5.063,8.928
		C4.845,8.764,4.627,8.602,4.41,8.436C3.398,7.666,2.387,6.895,1.375,6.124C1.577,5.648,1.852,5.213,2.14,4.787
		c0.945-1.39,2.147-2.506,3.604-3.345c1.228-0.707,2.544-1.159,3.948-1.351c0.185-0.025,0.37-0.043,0.555-0.062
		c0,0,0.267-0.019,0.686-0.026c0.023,0.005,0.047,0.002,0.071-0.001h0C11.093,0.001,11.187,0,11.286,0h0.001
		c0.054,0.002,0.108,0.004,0.161,0.001c0.183,0.002,0.379,0.006,0.584,0.015c0,0,0,0,0.001,0c0.026,0.002,0.052,0.003,0.078,0.003
		c0.071,0.003,0.142,0.007,0.215,0.012c2.295,0.237,4.312,1.124,6.075,2.611C18.478,2.707,18.497,2.742,18.413,2.825z"/>
	<path fill="#34A853" d="M18.411,19.254c-0.703,0.671-1.5,1.208-2.37,1.638c-1.772,0.875-3.654,1.235-5.613,1.069
		c-3.465-0.293-6.219-1.872-8.241-4.709c-0.314-0.441-0.594-0.903-0.813-1.401c0.107-0.081,0.213-0.161,0.32-0.242
		c1.123-0.859,2.246-1.718,3.368-2.577c0.274,0.768,0.647,1.481,1.175,2.107c1.067,1.267,2.419,2.048,4.058,2.278
		c1.495,0.21,2.94,0.007,4.293-0.7c0.114-0.06,0.224-0.126,0.336-0.19c0.021,0.022,0.039,0.048,0.063,0.067
		c0.614,0.476,1.229,0.95,1.843,1.426C17.358,18.43,17.884,18.842,18.411,19.254z"/>
	<path fill="#4285F3" d="M18.411,19.254c-0.527-0.411-1.053-0.824-1.581-1.234c-0.614-0.476-1.229-0.95-1.843-1.426
		c-0.024-0.018-0.042-0.044-0.063-0.067c0.44-0.308,0.853-0.646,1.192-1.068c0.493-0.614,0.82-1.304,0.998-2.07
		c0.029-0.125,0.001-0.147-0.118-0.146c-1.088,0.004-2.176,0.002-3.265,0.002c-0.779,0-1.558-0.002-2.336,0.002
		c-0.111,0.001-0.15-0.022-0.149-0.143c0.005-1.331,0.004-2.661,0-3.992c0-0.112,0.036-0.136,0.141-0.136
		c3.327,0.003,6.653,0.003,9.98,0c0.11,0,0.15,0.034,0.173,0.139c0.203,0.938,0.263,1.882,0.184,2.84
		c-0.061,0.751-0.165,1.492-0.349,2.223c-0.266,1.057-0.675,2.053-1.242,2.984c-0.437,0.717-0.96,1.365-1.559,1.952
		C18.524,19.165,18.466,19.208,18.411,19.254z"/>
	<path fill="#FABB06" d="M5.062,13.032c-1.123,0.859-2.245,1.718-3.368,2.577c-0.106,0.081-0.213,0.161-0.32,0.242
		c-0.234-0.425-0.403-0.877-0.558-1.335c-0.383-1.132-0.569-2.296-0.573-3.49C0.238,9.858,0.41,8.717,0.766,7.604
		C0.92,7.123,1.105,6.654,1.326,6.2C1.34,6.173,1.359,6.149,1.375,6.124C2.387,6.895,3.398,7.666,4.41,8.437
		c0.217,0.165,0.436,0.328,0.653,0.492c-0.101,0.393-0.211,0.784-0.261,1.189c-0.119,0.954-0.047,1.89,0.234,2.81
		C5.046,12.962,5.053,12.997,5.062,13.032z"/>
</g>
</svg>
