<?xml version="1.0" encoding="utf-8"?>
<!-- Generator: Adobe Illustrator 17.0.0, SVG Export Plug-In . SVG Version: 6.00 Build 0)  -->
<!DOCTYPE svg PUBLIC "-//W3C//DTD SVG 1.1//EN" "http://www.w3.org/Graphics/SVG/1.1/DTD/svg11.dtd">
<svg version="1.1" id="Layer_1" xmlns="http://www.w3.org/2000/svg" xmlns:xlink="http://www.w3.org/1999/xlink" x="0px" y="0px"
	 width="22px" height="22px" viewBox="0 0 22 22" enable-background="new 0 0 22 22" xml:space="preserve">
<g>
	<path fill="#0271AE" d="M20.338,0.045H1.663c-0.894,0-1.619,0.703-1.619,1.57v18.77c0,0.867,0.725,1.57,1.619,1.57h18.674
		c0.894,0,1.618-0.704,1.618-1.57V1.615C21.955,0.747,21.232,0.045,20.338,0.045L20.338,0.045z M6.687,18.386H3.377V8.493h3.311
		V18.386z M5.033,7.141H5.01c-1.11,0-1.829-0.76-1.829-1.709c0-0.97,0.74-1.708,1.872-1.708c1.133,0,1.83,0.738,1.851,1.708
		C6.904,6.383,6.186,7.141,5.033,7.141L5.033,7.141z M18.621,18.386h-3.309v-5.294c0-1.33-0.48-2.237-1.676-2.237
		c-0.917,0-1.46,0.612-1.699,1.203c-0.088,0.211-0.109,0.506-0.109,0.801v5.527H8.518c0,0,0.044-8.966,0-9.893h3.309v1.403
		c0.44-0.674,1.224-1.636,2.983-1.636c2.178,0,3.811,1.414,3.811,4.453V18.386z M11.806,9.927c0.006-0.01,0.013-0.02,0.022-0.031
		v0.031H11.806z M11.806,9.927"/>
</g>
</svg>
