<?xml version="1.0" encoding="utf-8"?>
<!-- Generator: Adobe Illustrator 17.0.0, SVG Export Plug-In . SVG Version: 6.00 Build 0)  -->
<!DOCTYPE svg PUBLIC "-//W3C//DTD SVG 1.1//EN" "http://www.w3.org/Graphics/SVG/1.1/DTD/svg11.dtd">
<svg version="1.1" id="Layer_1" xmlns="http://www.w3.org/2000/svg" xmlns:xlink="http://www.w3.org/1999/xlink" x="0px" y="0px"
	 width="175px" height="175px" viewBox="0 0 175 175" enable-background="new 0 0 175 175" xml:space="preserve">
<g>
	<circle opacity="0.05" fill="#00BD51" cx="87.5" cy="87.5" r="87.5"/>
	<circle opacity="0.1" fill="#00BD51" cx="87.5" cy="87.5" r="61.25"/>
	<g>
		<g>
			<defs>
				<rect id="SVGID_1_" x="61.844" y="57.5" width="51.311" height="60"/>
			</defs>
			<clipPath id="SVGID_2_">
				<use xlink:href="#SVGID_1_"  overflow="visible"/>
			</clipPath>
			<path clip-path="url(#SVGID_2_)" fill="#00BD51" d="M110.349,97.568c-1.613,4.371-4.052,8.171-7.25,11.295
				c-3.64,3.555-8.408,6.38-14.169,8.395c-0.189,0.066-0.386,0.12-0.584,0.16c-0.262,0.052-0.528,0.08-0.793,0.083H87.5
				c-0.281,0-0.564-0.028-0.845-0.083c-0.198-0.039-0.393-0.094-0.581-0.158c-5.769-2.012-10.541-4.835-14.186-8.39
				c-3.2-3.123-5.638-6.922-7.249-11.292c-2.928-7.947-2.762-16.701-2.628-23.736l0.002-0.108c0.027-0.581,0.045-1.191,0.054-1.865
				c0.049-3.308,2.679-6.045,5.988-6.23c6.899-0.385,12.235-2.635,16.795-7.079l0.04-0.036c0.757-0.694,1.711-1.035,2.66-1.021
				c0.916,0.012,1.827,0.352,2.558,1.021l0.039,0.036c4.561,4.445,9.897,6.695,16.796,7.079c3.308,0.185,5.939,2.922,5.988,6.23
				c0.01,0.678,0.027,1.287,0.054,1.865l0.001,0.046C113.122,80.826,113.288,89.597,110.349,97.568L110.349,97.568z M110.349,97.568
				"/>
		</g>
		<path fill="#FFFFFF" d="M102.453,87.5c0,8.227-6.68,14.924-14.901,14.954H87.5c-8.245,0-14.954-6.708-14.954-14.954
			c0-8.245,6.709-14.953,14.954-14.953h0.052C95.773,72.576,102.453,79.273,102.453,87.5L102.453,87.5z M102.453,87.5"/>
		<path fill="#B3D1D7" d="M94.287,85.347l-6.735,6.736l-1.455,1.455c-0.344,0.344-0.794,0.516-1.245,0.516
			c-0.451,0-0.901-0.172-1.246-0.516l-3.129-3.13c-0.687-0.688-0.687-1.802,0-2.49c0.687-0.688,1.802-0.688,2.49,0l1.885,1.885
			l6.946-6.945c0.687-0.688,1.802-0.688,2.49,0C94.975,83.545,94.975,84.66,94.287,85.347L94.287,85.347z M94.287,85.347"/>
	</g>
	<path fill="#6EA3A8" d="M94.287,84.649"/>
	<circle id="XMLID_1_" fill="#00BD51" cx="87.5" cy="13.125" r="2"/>
	<circle id="XMLID_2_" fill="#00BD51" cx="140.091" cy="34.909" r="2"/>
	<circle id="XMLID_3_" fill="#00BD51" cx="161.875" cy="87.5" r="2"/>
	<circle id="XMLID_4_" fill="#00BD51" cx="140.091" cy="140.091" r="2"/>
	<circle id="XMLID_5_" fill="#00BD51" cx="87.5" cy="161.875" r="2"/>
	<circle id="XMLID_6_" fill="#00BD51" cx="34.909" cy="140.091" r="2"/>
	<circle id="XMLID_7_" fill="#00BD51" cx="13.125" cy="87.5" r="2"/>
	<circle id="XMLID_8_" fill="#00BD51" cx="34.909" cy="34.909" r="2"/>
	<g opacity="0.3">
		
			<rect x="57.403" y="13.786" transform="matrix(0.9239 -0.3827 0.3827 0.9239 -2.6953 24.0229)" fill="#00BD51" width="3.27" height="10"/>
		
			<rect x="57.403" y="13.786" transform="matrix(-0.3827 -0.9239 0.9239 -0.3827 64.2744 80.5197)" fill="#00BD51" width="3.27" height="10"/>
	</g>
	<g opacity="0.3">
		
			<rect x="17.151" y="54.038" transform="matrix(0.3827 -0.9239 0.9239 0.3827 -42.9467 53.8015)" fill="#00BD51" width="3.27" height="10"/>
		
			<rect x="17.151" y="54.038" transform="matrix(-0.9239 -0.3827 0.3827 -0.9239 13.5501 120.7711)" fill="#00BD51" width="3.27" height="10"/>
	</g>
	<g opacity="0.3">
		
			<rect x="17.151" y="110.962" transform="matrix(-0.3827 -0.9239 0.9239 -0.3827 -81.1593 177.6952)" fill="#00BD51" width="3.27" height="10"/>
		
			<rect x="17.151" y="110.962" transform="matrix(-0.9239 0.3827 -0.3827 -0.9239 80.5196 215.9077)" fill="#00BD51" width="3.27" height="10"/>
	</g>
	<g opacity="0.3">
		
			<rect x="57.403" y="151.214" transform="matrix(-0.9239 -0.3827 0.3827 -0.9239 53.8015 323.1288)" fill="#00BD51" width="3.27" height="10"/>
		
			<rect x="57.403" y="151.214" transform="matrix(-0.3827 0.9239 -0.9239 -0.3827 225.9532 161.45)" fill="#00BD51" width="3.27" height="10"/>
	</g>
	<g opacity="0.3">
		
			<rect x="114.327" y="151.214" transform="matrix(-0.9239 0.3827 -0.3827 -0.9239 282.8773 256.1593)" fill="#00BD51" width="3.27" height="10"/>
		
			<rect x="114.327" y="151.214" transform="matrix(0.3827 0.9239 -0.9239 0.3827 215.9078 -10.7018)" fill="#00BD51" width="3.27" height="10"/>
	</g>
	<g opacity="0.3">
		
			<rect x="154.578" y="110.962" transform="matrix(-0.3827 0.9239 -0.9239 -0.3827 323.1289 16.0164)" fill="#00BD51" width="3.27" height="10"/>
		
			<rect x="154.578" y="110.962" transform="matrix(0.9239 0.3827 -0.3827 0.9239 56.2678 -50.9532)" fill="#00BD51" width="3.27" height="10"/>
	</g>
	<g opacity="0.3">
		
			<rect x="154.578" y="54.038" transform="matrix(0.3827 0.9239 -0.9239 0.3827 150.9772 -107.8774)" fill="#00BD51" width="3.27" height="10"/>
		
			<rect x="154.578" y="54.038" transform="matrix(0.9239 -0.3827 0.3827 0.9239 -10.7018 64.2743)" fill="#00BD51" width="3.27" height="10"/>
	</g>
	<g opacity="0.3">
		
			<rect x="114.327" y="13.786" transform="matrix(0.9239 0.3827 -0.3827 0.9239 16.0164 -42.9467)" fill="#00BD51" width="3.27" height="10"/>
		
			<rect x="114.327" y="13.786" transform="matrix(0.3827 -0.9239 0.9239 0.3827 54.2289 118.7322)" fill="#00BD51" width="3.27" height="10"/>
	</g>
</g>
</svg>
