<?xml version="1.0" encoding="utf-8"?>
<!-- Generator: Adobe Illustrator 17.0.0, SVG Export Plug-In . SVG Version: 6.00 Build 0)  -->
<!DOCTYPE svg PUBLIC "-//W3C//DTD SVG 1.1//EN" "http://www.w3.org/Graphics/SVG/1.1/DTD/svg11.dtd">
<svg version="1.1" id="Layer_1" xmlns="http://www.w3.org/2000/svg" xmlns:xlink="http://www.w3.org/1999/xlink" x="0px" y="0px"
	 width="20px" height="20px" viewBox="0 0 20 20" enable-background="new 0 0 20 20" xml:space="preserve">
<g>
	<g>
		<g>
			<g>
				<path fill="#BCBEC0" d="M10,4.264c-3.821,0-7.286,2.089-9.843,5.484c-0.209,0.278-0.209,0.666,0,0.945
					C2.713,14.09,6.179,16.18,10,16.18c3.821,0,7.287-2.09,9.844-5.484c0.209-0.278,0.209-0.666,0-0.945
					C17.286,6.354,13.821,4.264,10,4.264L10,4.264z M10.274,14.418c-2.536,0.16-4.631-1.93-4.472-4.469
					c0.131-2.094,1.829-3.791,3.923-3.921c2.537-0.16,4.631,1.93,4.472,4.469C14.063,12.586,12.365,14.283,10.274,14.418
					L10.274,14.418z M10.147,12.479c-1.367,0.086-2.496-1.039-2.406-2.404c0.069-1.128,0.986-2.04,2.115-2.114
					c1.367-0.086,2.496,1.039,2.406,2.404C12.189,11.498,11.272,12.41,10.147,12.479L10.147,12.479z M10.147,12.479"/>
			</g>
		</g>
	</g>
	<line fill="none" stroke="#BCBEC0" stroke-width="1.5" stroke-miterlimit="10" x1="0.783" y1="2.194" x2="16.742" y2="18.152"/>
	<line fill="none" stroke="#FFFFFF" stroke-width="1.5" stroke-miterlimit="10" x1="1.187" y1="0.531" x2="18.462" y2="17.806"/>
</g>
</svg>
