<?xml version="1.0" encoding="utf-8"?>
<!-- Generator: Adobe Illustrator 17.0.0, SVG Export Plug-In . SVG Version: 6.00 Build 0)  -->
<!DOCTYPE svg PUBLIC "-//W3C//DTD SVG 1.1//EN" "http://www.w3.org/Graphics/SVG/1.1/DTD/svg11.dtd">
<svg version="1.1" id="Layer_1" xmlns="http://www.w3.org/2000/svg" xmlns:xlink="http://www.w3.org/1999/xlink" x="0px" y="0px"
	 width="55px" height="55px" viewBox="0 0 55 55" enable-background="new 0 0 55 55" xml:space="preserve">
<g>
	<path fill="#00C551" d="M46.98,22.122h0.053L37.825,6.173l-9.208,15.949h0.053c-0.746,1.428-1.17,3.051-1.17,4.773
		c0,5.702,4.623,10.325,10.325,10.325S48.15,32.597,48.15,26.895C48.15,25.173,47.726,23.55,46.98,22.122"/>
	<path fill="#00C551" d="M26.33,22.122h0.053L17.175,6.173L7.967,22.122h0.053c-0.746,1.428-1.17,3.051-1.17,4.773
		c0,5.702,4.623,10.325,10.325,10.325S27.5,32.597,27.5,26.895C27.5,25.173,27.076,23.55,26.33,22.122"/>
	<path fill="#145DA1" d="M42.354,28.191h0.087L27.501,2.315l-14.94,25.876h0.087c-1.21,2.316-1.899,4.949-1.899,7.743
		c0,9.251,7.501,16.751,16.752,16.751s16.751-7.499,16.751-16.751C44.251,33.14,43.563,30.507,42.354,28.191"/>
	<path fill="#FFFFFF" d="M26.536,47.46c-0.044,0-0.089-0.004-0.134-0.012c-9.036-1.635-10.396-8.505-10.45-8.796
		c-0.075-0.408,0.195-0.799,0.603-0.873c0.408-0.078,0.797,0.194,0.873,0.6l0,0c0.048,0.25,1.262,6.149,9.242,7.593
		c0.408,0.074,0.678,0.464,0.604,0.872C27.208,47.206,26.892,47.46,26.536,47.46z"/>
	<path fill="#FFFFFF" d="M26.65,43.202c-0.044,0-0.089-0.004-0.134-0.012c-5.954-1.077-6.857-5.642-6.893-5.835
		c-0.075-0.408,0.195-0.799,0.603-0.873c0.408-0.076,0.796,0.192,0.872,0.599c0.032,0.16,0.792,3.748,5.685,4.633
		c0.408,0.074,0.678,0.464,0.604,0.872C27.321,42.948,27.005,43.202,26.65,43.202z"/>
</g>
</svg>
