<?xml version="1.0" encoding="utf-8"?>
<!-- Generator: Adobe Illustrator 17.0.0, SVG Export Plug-In . SVG Version: 6.00 Build 0)  -->
<!DOCTYPE svg PUBLIC "-//W3C//DTD SVG 1.1//EN" "http://www.w3.org/Graphics/SVG/1.1/DTD/svg11.dtd">
<svg version="1.1" id="Layer_1" xmlns="http://www.w3.org/2000/svg" xmlns:xlink="http://www.w3.org/1999/xlink" x="0px" y="0px"
	 width="55px" height="55px" viewBox="0 0 55 55" enable-background="new 0 0 55 55" xml:space="preserve">
<g>
	<path fill="#00C551" d="M50.453,20.842c-2.783-3.778-6.586-2.799-8.733-2.185c0.192-1.489,0.803-3.705,2.701-5.852
		c0.576-0.652,0.513-1.646-0.139-2.223c-0.649-0.573-1.64-0.523-2.223,0.135c-0.963,1.089-1.65,2.201-2.166,3.271
		c-0.749-3.592-4.14-6.951-9.246-6.951c0,5.761,4.266,9.353,8.33,9.397c-0.224,0.831-0.365,1.599-0.428,2.245
		c-2.131-0.611-6.003-1.662-8.818,2.163c-2.616,3.548-2.953,8.094-0.9,12.152c2.179,4.313,6.598,7.099,11.261,7.099
		c4.659,0,9.082-2.786,11.261-7.096C53.406,28.936,53.069,24.39,50.453,20.842z"/>
	<path fill="#145DA1" d="M25.926,8.611h-9.444c-0.869,0-1.574,0.705-1.574,1.574c0,0.869,0.705,1.574,1.574,1.574h9.444
		c0.869,0,1.574-0.705,1.574-1.574C27.5,9.316,26.795,8.611,25.926,8.611z"/>
	<path fill="#145DA1" d="M27.5,16.482c0-0.869-0.705-1.574-1.574-1.574h-9.444c-0.869,0-1.574,0.705-1.574,1.574
		c0,0.869,0.705,1.574,1.574,1.574h9.444C26.795,18.056,27.5,17.35,27.5,16.482z"/>
	<path fill="#145DA1" d="M16.482,21.204c-0.869,0-1.574,0.705-1.574,1.574c0,0.869,0.705,1.574,1.574,1.574h6.296
		c0.869,0,1.574-0.705,1.574-1.574c0-0.869-0.705-1.574-1.574-1.574H16.482z"/>
	<path fill="#06141E" d="M40.093,44.815c0,2.604-2.119,4.722-4.722,4.722c-2.604,0-4.722-2.119-4.722-4.722
		c0-0.869-0.705-1.574-1.574-1.574H11.76V5.463h28.333v3.148h3.148V5.463c0-1.738-1.41-3.148-3.148-3.148H11.76
		c-1.738,0-3.148,1.41-3.148,3.148v37.777H3.889c-0.878,0-1.577,0.734-1.574,1.612c0.022,4.326,3.542,7.833,7.87,7.833h25.185
		c4.348,0,7.87-3.523,7.87-7.87v-1.574h-3.148V44.815z"/>
</g>
</svg>
