<?xml version="1.0" encoding="utf-8"?>
<!-- Generator: Adobe Illustrator 17.0.0, SVG Export Plug-In . SVG Version: 6.00 Build 0)  -->
<!DOCTYPE svg PUBLIC "-//W3C//DTD SVG 1.1//EN" "http://www.w3.org/Graphics/SVG/1.1/DTD/svg11.dtd">
<svg version="1.1" id="Layer_1" xmlns="http://www.w3.org/2000/svg" xmlns:xlink="http://www.w3.org/1999/xlink" x="0px" y="0px"
	 width="55px" height="55px" viewBox="0 0 55 55" enable-background="new 0 0 55 55" xml:space="preserve">
<g>
	<g>
		<path fill="#00C551" d="M32.104,45.917H6.29V7.746h25.815v5.824h3.384v-9.68c0-0.866-0.708-1.574-1.574-1.574H4.479
			c-0.866,0-1.574,0.708-1.574,1.574v47.222c0,0.866,0.708,1.574,1.574,1.574h29.435c0.866,0,1.574-0.708,1.574-1.574v-9.68h-3.384
			V45.917z M17.151,4.833h3.935c0.236,0,0.394,0.157,0.394,0.394c0,0.236-0.157,0.394-0.394,0.394h-3.935
			c-0.236,0-0.394-0.157-0.394-0.394S16.914,4.833,17.151,4.833z M15.104,4.755c0.315,0,0.472,0.236,0.472,0.472
			s-0.236,0.472-0.472,0.472c-0.236,0-0.551-0.236-0.551-0.472C14.553,4.912,14.789,4.755,15.104,4.755z M19.197,51.111
			c-1.023,0-1.889-0.866-1.889-1.889c0-1.023,0.866-1.889,1.889-1.889s1.889,0.866,1.889,1.889
			C21.086,50.324,20.22,51.111,19.197,51.111z"/>
	</g>
	<g>
		<path fill="#06141E" d="M10.461,40.486c-0.472,0-0.866,0.394-0.866,0.866v2.204c0,0.472,0.394,0.866,0.866,0.866h2.204
			c0.472,0,0.866-0.394,0.866-0.866v-2.204c0-0.472-0.394-0.866-0.866-0.866H10.461z"/>
	</g>
	<g>
		<path fill="#06141E" d="M15.498,40.486c-0.472,0-0.866,0.394-0.866,0.866v2.204c0,0.472,0.394,0.866,0.866,0.866h2.204
			c0.472,0,0.866-0.394,0.866-0.866v-2.204c0-0.472-0.394-0.866-0.866-0.866H15.498z"/>
	</g>
	<g>
		<path fill="#06141E" d="M19.748,43.555c0,0.472,0.394,0.866,0.866,0.866h2.204c0.472,0,0.866-0.394,0.866-0.866v-2.204
			c0-0.472-0.394-0.866-0.866-0.866h-2.204c-0.472,0-0.866,0.394-0.866,0.866V43.555z"/>
	</g>
	<g>
		<path fill="#06141E" d="M27.854,44.421c0.472,0,0.866-0.394,0.866-0.866v-2.204c0-0.472-0.394-0.866-0.866-0.866H25.65
			c-0.472,0-0.866,0.394-0.866,0.866v2.204c0,0.472,0.394,0.866,0.866,0.866H27.854z"/>
	</g>
	<g>
		<path fill="#145DA1" d="M49.34,16.718H25.178c-1.495,0-2.755,1.181-2.755,2.755v16.055c0,0.63,0.236,1.259,0.63,1.731
			c0,0.079,0.079,0.157,0.157,0.157c0,0,0,0,0.079,0.079c0.472,0.472,1.181,0.787,1.889,0.787H49.34
			c0.787,0,1.495-0.315,1.968-0.866l0,0l0,0c0.472-0.472,0.787-1.181,0.787-1.889V19.472C52.095,17.977,50.835,16.718,49.34,16.718z
			 M24.863,34.111V20.495l7.319,6.296L24.863,34.111z M26.359,35.921l7.555-7.556l2.519,2.125c0.236,0.157,0.472,0.315,0.787,0.315
			c0.315,0,0.551-0.079,0.787-0.315l2.519-2.125l7.556,7.555L26.359,35.921L26.359,35.921z M49.734,34.111l-7.319-7.319l7.319-6.296
			V34.111z"/>
	</g>
</g>
</svg>
