<?xml version="1.0" encoding="utf-8"?>
<!-- Generator: Adobe Illustrator 17.0.0, SVG Export Plug-In . SVG Version: 6.00 Build 0)  -->
<!DOCTYPE svg PUBLIC "-//W3C//DTD SVG 1.1//EN" "http://www.w3.org/Graphics/SVG/1.1/DTD/svg11.dtd">
<svg version="1.1" id="Layer_1" xmlns="http://www.w3.org/2000/svg" xmlns:xlink="http://www.w3.org/1999/xlink" x="0px" y="0px"
	 width="55px" height="55px" viewBox="0 0 55 55" enable-background="new 0 0 55 55" xml:space="preserve">
<g>
	<path fill="#00C551" d="M40.952,41.63c0,0.478-0.388,0.866-0.866,0.866h-8.775c-0.478,0-0.866-0.388-0.866-0.866V10.455
		c0-0.478,0.388-0.866,0.866-0.866h8.775c0.478,0,0.866,0.388,0.866,0.866V41.63z"/>
	<rect x="34.313" y="2.315" fill="#06141E" width="2.771" height="7.274"/>
	<path fill="#06141E" d="M40.952,3.325c0,0.478-0.388,0.866-0.866,0.866h-8.775c-0.478,0-0.866-0.388-0.866-0.866V3.181
		c0-0.478,0.388-0.866,0.866-0.866h8.775c0.478,0,0.866,0.388,0.866,0.866V3.325z"/>
	<polygon fill="#06141E" points="36.759,52.685 34.638,52.685 33.252,42.496 38.145,42.496 	"/>
	<path fill="#145DA1" d="M22.767,42.979V12.075c1.692-1.007,2.83-2.848,2.83-4.96c0-1.912-0.932-3.606-2.366-4.655v5.279
		l-3.388,2.206L16.3,7.738V2.546c-1.368,1.053-2.251,2.709-2.251,4.569c0,2.112,1.138,3.954,2.83,4.96v30.904
		c-1.692,1.007-2.83,2.848-2.83,4.96c0,1.912,0.932,3.606,2.366,4.655v-5.279l3.388-2.206l3.544,2.206v5.192
		c1.368-1.053,2.251-2.709,2.251-4.569C25.597,45.827,24.458,43.986,22.767,42.979z"/>
</g>
</svg>
