<?xml version="1.0" encoding="utf-8"?>
<!-- Generator: Adobe Illustrator 17.0.0, SVG Export Plug-In . SVG Version: 6.00 Build 0)  -->
<!DOCTYPE svg PUBLIC "-//W3C//DTD SVG 1.1//EN" "http://www.w3.org/Graphics/SVG/1.1/DTD/svg11.dtd">
<svg version="1.1" id="Layer_1" xmlns="http://www.w3.org/2000/svg" xmlns:xlink="http://www.w3.org/1999/xlink" x="0px" y="0px"
	 width="55px" height="55px" viewBox="0 0 55 55" enable-background="new 0 0 55 55" xml:space="preserve">
<g>
	<g>
		<path fill="#00C551" d="M34.904,45.917H9.089V7.746h25.815v5.824h3.384v-9.68c0-0.866-0.708-1.574-1.574-1.574H7.279
			c-0.866,0-1.574,0.708-1.574,1.574v47.222c0,0.866,0.708,1.574,1.574,1.574h29.435c0.866,0,1.574-0.708,1.574-1.574v-9.68h-3.384
			V45.917z M19.95,4.833h3.935c0.236,0,0.394,0.157,0.394,0.394c0,0.236-0.157,0.394-0.394,0.394H19.95
			c-0.236,0-0.394-0.157-0.394-0.394S19.714,4.833,19.95,4.833z M17.904,4.755c0.315,0,0.472,0.236,0.472,0.472
			s-0.236,0.472-0.472,0.472s-0.551-0.236-0.551-0.472C17.353,4.912,17.589,4.755,17.904,4.755z M21.997,51.111
			c-1.023,0-1.889-0.866-1.889-1.889c0-1.023,0.866-1.889,1.889-1.889s1.889,0.866,1.889,1.889
			C23.885,50.324,23.02,51.111,21.997,51.111z"/>
	</g>
	<g>
		<path fill="#06141E" d="M13.261,40.486c-0.472,0-0.866,0.394-0.866,0.866v2.204c0,0.472,0.394,0.866,0.866,0.866h2.204
			c0.472,0,0.866-0.394,0.866-0.866v-2.204c0-0.472-0.394-0.866-0.866-0.866H13.261z"/>
	</g>
	<g>
		<path fill="#06141E" d="M18.298,40.486c-0.472,0-0.866,0.394-0.866,0.866v2.204c0,0.472,0.394,0.866,0.866,0.866h2.204
			c0.472,0,0.866-0.394,0.866-0.866v-2.204c0-0.472-0.394-0.866-0.866-0.866H18.298z"/>
	</g>
	<g>
		<path fill="#06141E" d="M22.548,43.555c0,0.472,0.394,0.866,0.866,0.866h2.204c0.472,0,0.866-0.394,0.866-0.866v-2.204
			c0-0.472-0.394-0.866-0.866-0.866h-2.204c-0.472,0-0.866,0.394-0.866,0.866V43.555z"/>
	</g>
	<g>
		<path fill="#06141E" d="M30.654,44.421c0.472,0,0.866-0.394,0.866-0.866v-2.204c0-0.472-0.394-0.866-0.866-0.866H28.45
			c-0.472,0-0.866,0.394-0.866,0.866v2.204c0,0.472,0.394,0.866,0.866,0.866H30.654z"/>
	</g>
	<path fill="#145DA1" d="M35.47,33.267h11.542c1.261,0,2.283-1.022,2.283-2.284V20.397c0-1.262-1.022-2.284-2.283-2.284H25.705
		c-1.261,0-2.283,1.022-2.283,2.284v10.586c0,1.262,1.022,2.284,2.283,2.284h3.261v5.984c0,0.176,0.107,0.334,0.271,0.398
		c0.05,0.019,0.102,0.029,0.154,0.029c0.117,0,0.232-0.048,0.314-0.138L35.47,33.267z M44.726,22.959
		c0.46,0,0.833,0.374,0.834,0.834c0,0.46-0.374,0.834-0.834,0.834h-5.291c-0.46,0-0.833-0.373-0.833-0.834
		c0-0.46,0.374-0.834,0.833-0.834H44.726L44.726,22.959z M45.559,27.452c0,0.46-0.373,0.834-0.834,0.834H34.234
		c-0.46,0-0.833-0.373-0.833-0.834c0-0.46,0.373-0.833,0.833-0.833h10.492C45.186,26.619,45.559,26.992,45.559,27.452L45.559,27.452
		z M45.559,27.452"/>
</g>
</svg>
