<?xml version="1.0" encoding="utf-8"?>
<!-- Generator: Adobe Illustrator 17.0.0, SVG Export Plug-In . SVG Version: 6.00 Build 0)  -->
<!DOCTYPE svg PUBLIC "-//W3C//DTD SVG 1.1//EN" "http://www.w3.org/Graphics/SVG/1.1/DTD/svg11.dtd">
<svg version="1.1" id="Layer_1" xmlns="http://www.w3.org/2000/svg" xmlns:xlink="http://www.w3.org/1999/xlink" x="0px" y="0px"
	 width="55px" height="55px" viewBox="0 0 55 55" enable-background="new 0 0 55 55" xml:space="preserve">
<g>
	<path fill="#00C551" d="M53.738,29.458c-0.28-0.392-0.783-0.615-1.287-0.615H32.034l-0.783-3.076
		c-0.168-0.727-0.839-1.231-1.566-1.231h-3.524c0.28,0.615,0.447,1.342,0.28,2.014c-0.056,0.447-0.224,0.839-0.447,1.175h2.461
		l3.971,15.886c0.168,0.727,0.839,1.231,1.566,1.231h15.382c0.727,0,1.398-0.503,1.566-1.231l3.076-12.753
		C54.129,30.353,54.017,29.849,53.738,29.458z"/>
	<circle fill="#06141E" cx="36.23" cy="49.147" r="2.853"/>
	<circle fill="#06141E" cx="46.354" cy="49.147" r="2.853"/>
	<path fill="#145DA1" d="M23.644,23.752l-4.755-1.398c0,0-3.076-6.153-3.3-6.712c-0.112-0.224-0.224-0.392-0.336-0.503
		c-0.503-0.671-1.119-1.231-1.902-1.51c-2.07-0.727-4.083,0.056-5.09,1.734L8.15,15.586c-0.727,1.231-2.741,4.475-3.971,8.838
		L0.99,35.667c-0.224,0.671,0.336,1.398,1.063,1.398h3.58l0.336,12.306c0.056,1.51,1.342,2.685,2.853,2.517
		c1.342-0.112,2.293-1.342,2.349-2.685l0.336-12.138h3.636c0.727,0,1.287-0.727,1.007-1.454l-2.573-7.384
		c-0.112-0.336-0.112-0.727-0.056-1.119l0.951-3.524l0.839,1.678c0.28,0.559,0.783,1.007,1.398,1.175l5.817,1.678
		c0.224,0.056,0.447,0.112,0.615,0.112c1.063,0,2.014-0.727,2.237-1.846C25.602,25.207,24.819,24.088,23.644,23.752z"/>
	<circle fill="#145DA1" cx="14.862" cy="7.811" r="4.811"/>
	<path fill="#06141E" d="M41.432,24.759c0.28,0.28,0.671,0.28,0.951,0l6.433-6.433c0.28-0.28,0.28-0.671,0-0.951l-1.566-1.566
		c-0.28-0.28-0.671-0.28-0.951,0l-2.573,2.573V8.034c0-0.392-0.28-0.671-0.671-0.671h-2.237c-0.392,0-0.671,0.28-0.671,0.671v10.292
		l-2.573-2.573c-0.28-0.28-0.671-0.28-0.951,0l-1.566,1.566c-0.28,0.28-0.28,0.671,0,0.951L41.432,24.759z"/>
</g>
</svg>
