<?xml version="1.0" encoding="utf-8"?>
<!-- Generator: Adobe Illustrator 17.0.0, SVG Export Plug-In . SVG Version: 6.00 Build 0)  -->
<!DOCTYPE svg PUBLIC "-//W3C//DTD SVG 1.1//EN" "http://www.w3.org/Graphics/SVG/1.1/DTD/svg11.dtd">
<svg version="1.1" id="Layer_1" xmlns="http://www.w3.org/2000/svg" xmlns:xlink="http://www.w3.org/1999/xlink" x="0px" y="0px"
	 width="55px" height="55px" viewBox="0 0 55 55" enable-background="new 0 0 55 55" xml:space="preserve">
<g>
	<path fill="#00C551" d="M41.33,36.607v3.603c0,0.383-0.311,0.694-0.694,0.694h-3.032v3.032c0,0.383-0.311,0.694-0.694,0.694h-3.603
		c-0.383,0-0.694-0.311-0.694-0.694v-3.032H29.52c-0.383,0-0.694-0.311-0.694-0.694v-3.603c0-0.383,0.311-0.694,0.694-0.694h3.093
		V32.82c0-0.383,0.311-0.694,0.694-0.694h3.603c0.383,0,0.694,0.311,0.694,0.694v3.093h3.032
		C41.02,35.913,41.33,36.224,41.33,36.607z"/>
	<path d="M52.87,15.005l-4.7-11.49c-0.3-0.73-1.01-1.2-1.8-1.2H8.63c-0.79,0-1.5,0.47-1.8,1.2l-4.69,11.47
		c-0.11,0.23-0.16,0.48-0.17,0.76v2.68h51.06v-2.7C53.02,15.465,52.97,15.215,52.87,15.005z M5.03,15.765H3.64
		c0-0.04,4.73-11.62,4.73-11.62c0.05-0.1,0.15-0.17,0.26-0.17h0.99L5.03,15.765z M15.72,15.765H12.9l2.75-11.79h2.3L15.72,15.765z
		 M25.84,15.765l0.51-11.79h2.3l0.52,11.79H25.84z M39.28,15.765l-2.23-11.79h2.3l2.75,11.79H39.28z M51.36,15.765h-1.39
		l-4.59-11.79h0.99c0.11,0,0.21,0.07,0.26,0.17l4.71,11.51c0.02,0.03,0.02,0.07,0.02,0.09V15.765z"/>
	<path fill="#145DA1" d="M51.36,18.425v5.66l-3.18,0.01c-0.68,0-1.24-0.5-1.24-1.11v-2.6h-3.37v2.6c0,0.61-0.56,1.11-1.24,1.11
		h-5.99c-0.68,0-1.23-0.5-1.23-1.11v-2.6h-3.38v2.6c0,0.61-0.55,1.11-1.24,1.11h-5.98c-0.69,0-1.24-0.5-1.24-1.11v-2.6h-3.38v2.6
		c0,0.61-0.55,1.11-1.23,1.11h-5.99c-0.68,0-1.24-0.5-1.24-1.11v-2.6H8.06v2.6c0,0.61-0.56,1.11-1.24,1.11l-3.2-0.01l0.01-5.66H1.97
		v6.05c0,0,0,0.43,0.12,0.64c0.21,0.38,0.42,0.53,0.75,0.67c0.07,0.03,0.46,0.09,0.46,0.09h1.66v24.86c0,1.07,0.87,1.95,1.94,1.95
		h41.2c1.07,0,1.94-0.88,1.94-1.95v-24.86h1.52c0,0,0.43-0.02,0.56-0.04c0.62-0.14,0.73-0.34,0.87-0.77
		c0.03-0.11,0.04-0.59,0.04-0.59v-6.05H51.36z M20.43,50.605H9.94v-20.6c0-0.61,0.55-1.11,1.24-1.11h8.01c0.69,0,1.24,0.5,1.24,1.11
		V50.605z M44.81,46.745c0,0.61-0.5,1.11-1.11,1.11H26.46c-0.61,0-1.11-0.5-1.11-1.11v-16.74c0-0.61,0.5-1.11,1.11-1.11H43.7
		c0.61,0,1.11,0.5,1.11,1.11V46.745z"/>
	<path fill="#00C551" d="M45.376,4l4.591,11.785h1.397v-0.018c-0.001-0.018-0.008-0.053-0.022-0.085l-4.716-11.51
		C46.583,4.068,46.482,4,46.369,4L45.376,4z"/>
	<polygon fill="#00C551" points="37.047,4 39.278,15.785 42.095,15.785 39.346,4 	"/>
	<polygon fill="#00C551" points="26.354,4 25.836,15.785 29.165,15.785 28.648,4 	"/>
	<polygon fill="#00C551" points="15.654,4 12.904,15.785 15.722,15.785 17.953,4 	"/>
	<path fill="#00C551" d="M3.636,15.785h1.397L9.624,4H8.631C8.517,4,8.417,4.068,8.374,4.172C8.374,4.172,3.637,15.748,3.636,15.785
		z"/>
</g>
</svg>
