<?xml version="1.0" encoding="utf-8"?>
<!-- Generator: Adobe Illustrator 17.0.0, SVG Export Plug-In . SVG Version: 6.00 Build 0)  -->
<!DOCTYPE svg PUBLIC "-//W3C//DTD SVG 1.1//EN" "http://www.w3.org/Graphics/SVG/1.1/DTD/svg11.dtd">
<svg version="1.1" id="Layer_1" xmlns="http://www.w3.org/2000/svg" xmlns:xlink="http://www.w3.org/1999/xlink" x="0px" y="0px"
	 width="55px" height="55px" viewBox="0 0 55 55" enable-background="new 0 0 55 55" xml:space="preserve">
<g>
	<rect x="33.56" y="27.736" fill="#00C551" width="13.458" height="4.329"/>
	<path fill="#145DA1" d="M50.639,22.227H29.861c-1.102,0-1.968,0.944-1.968,1.968v26.444c0,1.102,0.866,1.968,1.968,1.968h20.778
		c1.102,0,2.046-0.944,2.046-1.968V24.273C52.685,23.171,51.741,22.227,50.639,22.227z M37.495,47.333
		c0.315,0.315,0.315,0.787,0,1.102c-0.315,0.315-0.787,0.315-1.102,0l-0.787-0.787l-0.787,0.787c-0.315,0.315-0.787,0.315-1.102,0
		c-0.315-0.315-0.315-0.787,0-1.102l0.787-0.787l-0.787-0.787c-0.315-0.315-0.315-0.787,0-1.102c0.315-0.315,0.787-0.315,1.102,0
		l0.787,0.787l0.787-0.787c0.315-0.315,0.787-0.315,1.102,0c0.315,0.315,0.315,0.787,0,1.102l-0.787,0.787L37.495,47.333z
		 M37.417,39.384h-1.102v1.102c0,0.472-0.315,0.787-0.787,0.787s-0.787-0.315-0.787-0.787v-1.102h-1.102
		c-0.472,0-0.787-0.315-0.787-0.787s0.315-0.787,0.787-0.787h1.102v-1.102c0-0.472,0.315-0.787,0.787-0.787s0.787,0.315,0.787,0.787
		v1.102h1.102c0.472,0,0.787,0.315,0.787,0.787S37.889,39.384,37.417,39.384z M46.782,48.75h-3.699
		c-0.472,0-0.787-0.315-0.787-0.787s0.315-0.787,0.787-0.787h3.699c0.472,0,0.787,0.315,0.787,0.787S47.254,48.75,46.782,48.75z
		 M46.782,45.444h-3.699c-0.472,0-0.787-0.315-0.787-0.787s0.315-0.787,0.787-0.787h3.699c0.472,0,0.787,0.315,0.787,0.787
		S47.254,45.444,46.782,45.444z M46.782,39.384h-3.699c-0.472,0-0.787-0.315-0.787-0.787s0.315-0.787,0.787-0.787h3.699
		c0.472,0,0.787,0.315,0.787,0.787S47.254,39.384,46.782,39.384z M48.592,32.852c0,0.472-0.315,0.787-0.787,0.787H32.773
		c-0.472,0-0.787-0.315-0.787-0.787v-5.903c0-0.472,0.315-0.787,0.787-0.787h15.032c0.472,0,0.787,0.315,0.787,0.787L48.592,32.852
		L48.592,32.852z"/>
	<path fill="#00C551" d="M31.829,10.107h7.87c0.472,0,0.787,0.315,0.787,0.787c0,0.472-0.315,0.787-0.787,0.787h-7.87
		c-0.472,0-0.787-0.315-0.787-0.787C31.042,10.421,31.356,10.107,31.829,10.107z"/>
	<path fill="#00C551" d="M31.829,14.75h7.87c0.472,0,0.787,0.315,0.787,0.787s-0.315,0.787-0.787,0.787h-7.87
		c-0.472,0-0.787-0.315-0.787-0.787S31.356,14.75,31.829,14.75z"/>
	<g>
		<path fill="#06141E" d="M42.926,4.315c0.392,0,0.676,0.284,0.676,0.676v13.662H29.861c-3.026,0-5.494,2.434-5.619,5.54
			l-0.002,0.04v0.04v26.412H4.991c-0.392,0-0.676-0.284-0.676-0.676V4.676c0-0.213,0.116-0.361,0.282-0.361h10.704H42.926
			 M42.926,2.315c-26.68,0-26.995,0-27.625,0H4.597c-1.259,0-2.282,1.023-2.282,2.361v45.333c0,1.495,1.181,2.676,2.676,2.676H26.87
			c-0.394-0.551-0.63-1.259-0.63-1.968V24.273c0.079-1.968,1.653-3.62,3.62-3.62h15.741V4.991
			C45.602,3.496,44.421,2.315,42.926,2.315L42.926,2.315z"/>
	</g>
	<path fill="#00C551" d="M15.616,6.565c-4.565,0-8.264,3.699-8.264,8.264s3.699,8.264,8.264,8.264c4.565,0,8.264-3.699,8.264-8.264
		S20.181,6.565,15.616,6.565z M16.403,8.139c3.069,0.393,5.509,2.833,5.903,5.903h-5.903V8.139z M15.616,21.519
		c-3.699,0-6.69-2.991-6.69-6.69c0-3.463,2.597-6.296,5.903-6.69v6.69c0,0.472,0.393,0.787,0.787,0.787h6.69
		C21.912,18.921,19.079,21.519,15.616,21.519z"/>
	<g>
		<path fill="#00C551" d="M19.561,35.043c-0.055-0.055-0.126-0.083-0.212-0.083H17.77c-0.105-0.511-0.302-0.954-0.591-1.33h2.151
			c0.086,0,0.157-0.028,0.212-0.083c0.055-0.055,0.083-0.126,0.083-0.212v-0.942c0-0.086-0.028-0.157-0.083-0.212
			c-0.055-0.055-0.126-0.083-0.212-0.083h-7.681c-0.086,0-0.157,0.028-0.212,0.083c-0.055,0.055-0.083,0.126-0.083,0.212v1.228
			c0,0.08,0.029,0.149,0.088,0.208c0.058,0.058,0.127,0.087,0.208,0.087h1.338c1.299,0,2.124,0.347,2.474,1.043h-3.813
			c-0.086,0-0.157,0.028-0.212,0.084c-0.055,0.055-0.083,0.126-0.083,0.212v0.942c0,0.086,0.028,0.157,0.083,0.212
			c0.055,0.055,0.126,0.083,0.212,0.083h3.942c-0.136,0.505-0.451,0.89-0.947,1.154c-0.495,0.264-1.149,0.397-1.961,0.397h-1.034
			c-0.08,0-0.149,0.029-0.208,0.087c-0.059,0.059-0.088,0.128-0.088,0.208v1.172c0,0.08,0.028,0.148,0.083,0.203
			c1.182,1.255,2.715,3.013,4.598,5.272c0.055,0.074,0.132,0.111,0.231,0.111h1.8c0.129,0,0.219-0.055,0.267-0.167
			c0.062-0.111,0.05-0.215-0.036-0.314c-1.797-2.203-3.21-3.853-4.238-4.949c1.046-0.123,1.896-0.462,2.548-1.015
			c0.652-0.554,1.05-1.274,1.191-2.16h1.551c0.086,0,0.157-0.028,0.212-0.084c0.055-0.055,0.083-0.126,0.083-0.212v-0.942
			C19.644,35.169,19.617,35.098,19.561,35.043L19.561,35.043z M19.561,35.043"/>
	</g>
</g>
</svg>
