<?xml version="1.0" encoding="utf-8"?>
<!-- Generator: Adobe Illustrator 17.0.0, SVG Export Plug-In . SVG Version: 6.00 Build 0)  -->
<!DOCTYPE svg PUBLIC "-//W3C//DTD SVG 1.1//EN" "http://www.w3.org/Graphics/SVG/1.1/DTD/svg11.dtd">
<svg version="1.1" id="Layer_1" xmlns="http://www.w3.org/2000/svg" xmlns:xlink="http://www.w3.org/1999/xlink" x="0px" y="0px"
	 width="55px" height="55px" viewBox="0 0 55 55" enable-background="new 0 0 55 55" xml:space="preserve">
<g>
	<path fill="#06141E" d="M44.035,11.581v11.665c0,0.596-0.483,1.079-1.079,1.079c-0.596,0-1.079-0.484-1.079-1.079V11.581
		c0-1.684-1.373-3.048-3.057-3.048H5.898c-1.684,0-3.048,1.364-3.048,3.048V44.65c0,1.684,1.364,3.057,3.048,3.057h21.827
		c0.596,0,1.079,0.484,1.079,1.079s-0.484,1.079-1.079,1.079H5.898c-2.875,0-5.206-2.34-5.206-5.215V11.581
		c0-2.867,2.331-5.206,5.206-5.206H38.82C41.696,6.374,44.035,8.714,44.035,11.581z"/>
	<path fill="#145DA1" d="M11.628,12.157c-0.69,0-1.25-0.56-1.25-1.25V4c0-0.69,0.56-1.25,1.25-1.25s1.25,0.56,1.25,1.25v6.907
		C12.878,11.598,12.319,12.157,11.628,12.157z"/>
	<path fill="#145DA1" d="M22.363,12.157c-0.69,0-1.25-0.56-1.25-1.25V4c0-0.69,0.56-1.25,1.25-1.25s1.25,0.56,1.25,1.25v6.907
		C23.613,11.598,23.054,12.157,22.363,12.157z"/>
	<path fill="#145DA1" d="M33.214,12.157c-0.69,0-1.25-0.56-1.25-1.25V4c0-0.69,0.56-1.25,1.25-1.25s1.25,0.56,1.25,1.25v6.907
		C34.464,11.598,33.904,12.157,33.214,12.157z"/>
	<path fill="#145DA1" d="M13.327,21.191c0,0.938-0.761,1.699-1.699,1.699c-0.938,0-1.699-0.761-1.699-1.699l0,0
		c0-0.938,0.761-1.699,1.699-1.699C12.566,19.492,13.327,20.252,13.327,21.191L13.327,21.191z"/>
	<path fill="#145DA1" d="M27.988,21.191L27.988,21.191c0-0.938-0.761-1.699-1.699-1.699c-0.938,0-1.699,0.761-1.699,1.699l0,0
		c0,0.938,0.761,1.699,1.699,1.699C27.228,22.889,27.988,22.129,27.988,21.191z"/>
	<path fill="#145DA1" d="M35.378,21.191L35.378,21.191c0-0.938-0.761-1.699-1.699-1.699s-1.699,0.761-1.699,1.699l0,0
		c0,0.938,0.761,1.699,1.699,1.699S35.378,22.129,35.378,21.191z"/>
	<path fill="#145DA1" d="M13.327,28.581c0-0.938-0.761-1.699-1.699-1.699c-0.938,0-1.699,0.761-1.699,1.699l0,0
		c0,0.938,0.761,1.699,1.699,1.699C12.566,30.279,13.327,29.519,13.327,28.581L13.327,28.581z"/>
	<path fill="#145DA1" d="M11.628,34.272c-0.938,0-1.699,0.761-1.699,1.699l0,0c0,0.938,0.761,1.699,1.699,1.699
		c0.938,0,1.699-0.761,1.699-1.699l0,0C13.327,35.032,12.566,34.272,11.628,34.272z"/>
	<path fill="#145DA1" d="M20.598,21.191c0-0.938-0.761-1.699-1.699-1.699c-0.938,0-1.699,0.761-1.699,1.699l0,0
		c0,0.938,0.761,1.699,1.699,1.699C19.838,22.889,20.598,22.129,20.598,21.191L20.598,21.191z"/>
	<path fill="#145DA1" d="M20.598,28.581c0-0.938-0.761-1.699-1.699-1.699c-0.938,0-1.699,0.761-1.699,1.699l0,0
		c0,0.938,0.761,1.699,1.699,1.699C19.838,30.279,20.598,29.519,20.598,28.581L20.598,28.581z"/>
	<path fill="#145DA1" d="M27.988,28.581c0-0.938-0.761-1.699-1.699-1.699s-1.699,0.761-1.699,1.699l0,0
		c0,0.938,0.761,1.699,1.699,1.699S27.988,29.519,27.988,28.581L27.988,28.581z"/>
	<path fill="#145DA1" d="M18.899,34.272c-0.938,0-1.699,0.761-1.699,1.699l0,0c0,0.938,0.761,1.699,1.699,1.699
		c0.938,0,1.699-0.761,1.699-1.699l0,0C20.598,35.032,19.838,34.272,18.899,34.272z"/>
	<path fill="#00C551" d="M42.896,28.174c-6.293,0-11.413,5.12-11.413,11.413S36.603,51,42.896,51c6.293,0,11.413-5.12,11.413-11.413
		S49.189,28.174,42.896,28.174z"/>
	<path fill="#FFFFFF" d="M42.896,42.922c-0.69,0-1.25-0.56-1.25-1.25v-6.811c0-0.69,0.56-1.25,1.25-1.25s1.25,0.56,1.25,1.25v6.811
		C44.146,42.362,43.586,42.922,42.896,42.922z"/>
	<path fill="#FFFFFF" d="M47.197,42.922h-4.302c-0.69,0-1.25-0.56-1.25-1.25s0.56-1.25,1.25-1.25h4.302c0.69,0,1.25,0.56,1.25,1.25
		S47.888,42.922,47.197,42.922z"/>
</g>
</svg>
