<?xml version="1.0" encoding="utf-8"?>
<!-- Generator: Adobe Illustrator 17.0.0, SVG Export Plug-In . SVG Version: 6.00 Build 0)  -->
<!DOCTYPE svg PUBLIC "-//W3C//DTD SVG 1.1//EN" "http://www.w3.org/Graphics/SVG/1.1/DTD/svg11.dtd">
<svg version="1.1" id="Layer_1" xmlns="http://www.w3.org/2000/svg" xmlns:xlink="http://www.w3.org/1999/xlink" x="0px" y="0px"
	 width="55px" height="55px" viewBox="0 0 55 55" enable-background="new 0 0 55 55" xml:space="preserve">
<g>
	<path fill="#145DA1" d="M54.024,37.533l-6.591-19.599H30.057v2.046h14.969l-5.902,17.553h-0.729c0,3.892,3.663,7.045,8.182,7.045
		c4.515,0,8.177-3.153,8.177-7.045H54.024z M41.037,37.533l5.54-16.466l5.535,16.466H41.037z"/>
	<path fill="#145DA1" d="M19.953,17.934H7.566L0.976,37.533H0.246c0,3.892,3.663,7.045,8.177,7.045c4.52,0,8.182-3.153,8.182-7.045
		h-0.729L9.974,19.98h9.979V17.934z M13.963,37.533H2.888l5.535-16.466L13.963,37.533z"/>
	<path fill="#06141E" d="M31.268,30.539v14.803l4.203,1.418V49c-3.902,0-7.8,0-11.702,0v-2.239l4.203-1.418V30.539H31.268z"/>
	<g>
		<path fill="#00C551" d="M33.134,10.296c-0.081-0.081-0.184-0.121-0.31-0.121h-2.302c-0.153-0.745-0.44-1.392-0.862-1.939h3.137
			c0.126,0,0.229-0.04,0.31-0.121c0.081-0.081,0.121-0.184,0.121-0.31V6.431c0-0.126-0.04-0.229-0.121-0.31
			C33.026,6.04,32.923,6,32.797,6H21.594c-0.126,0-0.229,0.04-0.31,0.121c-0.081,0.081-0.121,0.184-0.121,0.31v1.791
			c0,0.117,0.043,0.218,0.128,0.304c0.085,0.085,0.186,0.127,0.303,0.127h1.952c1.894,0,3.097,0.507,3.609,1.521h-5.561
			c-0.126,0-0.229,0.04-0.31,0.122c-0.081,0.081-0.121,0.183-0.121,0.309v1.374c0,0.126,0.04,0.229,0.121,0.31
			c0.081,0.081,0.184,0.121,0.31,0.121h5.75c-0.198,0.737-0.658,1.298-1.381,1.683c-0.722,0.386-1.676,0.58-2.861,0.58h-1.508
			c-0.117,0-0.218,0.042-0.303,0.127c-0.086,0.086-0.128,0.186-0.128,0.304v1.71c0,0.117,0.04,0.215,0.121,0.296
			c1.724,1.831,3.959,4.394,6.706,7.689c0.081,0.107,0.193,0.162,0.337,0.162h2.626c0.188,0,0.319-0.081,0.39-0.243
			c0.09-0.161,0.073-0.314-0.053-0.458c-2.621-3.214-4.682-5.62-6.181-7.218c1.526-0.179,2.765-0.673,3.716-1.481
			c0.951-0.808,1.531-1.859,1.737-3.151h2.262c0.126,0,0.229-0.041,0.31-0.122c0.081-0.081,0.121-0.184,0.121-0.309v-1.374
			C33.255,10.48,33.215,10.377,33.134,10.296L33.134,10.296z M33.134,10.296"/>
	</g>
	<circle fill="#06141E" cx="29.621" cy="28.953" r="3.992"/>
</g>
</svg>
