<?xml version="1.0" encoding="utf-8"?>
<!-- Generator: Adobe Illustrator 17.0.0, SVG Export Plug-In . SVG Version: 6.00 Build 0)  -->
<!DOCTYPE svg PUBLIC "-//W3C//DTD SVG 1.1//EN" "http://www.w3.org/Graphics/SVG/1.1/DTD/svg11.dtd">
<svg version="1.1" id="Layer_1" xmlns="http://www.w3.org/2000/svg" xmlns:xlink="http://www.w3.org/1999/xlink" x="0px" y="0px"
	 width="55px" height="55px" viewBox="0 0 55 55" enable-background="new 0 0 55 55" xml:space="preserve">
<g>
	<g>
		<path fill="#145DA1" d="M31.457,7.347c2.731,0.533,5.268,1.608,7.495,3.107l2.429-2.43c0.622-0.622,1.637-0.622,2.26,0
			l3.335,3.335c0.622,0.622,0.622,1.638,0,2.26l-2.43,2.43c1.499,2.227,2.574,4.764,3.108,7.495h3.433
			c0.88,0,1.598,0.718,1.598,1.598v4.717c0,0.88-0.718,1.598-1.598,1.598h-3.432c-0.533,2.731-1.608,5.269-3.107,7.496l2.429,2.429
			c0.622,0.622,0.622,1.637,0,2.26l-2.158,2.158c-0.096-0.459-0.203-0.909-0.322-1.347c-0.569-2.091-1.457-3.727-3.262-4.97
			c-0.511-0.351-1.13-0.626-1.759-0.857c2.712-2.918,4.371-6.827,4.371-11.125c0-9.028-7.319-16.346-16.346-16.346
			S11.154,18.472,11.154,27.5c0,4.298,1.66,8.207,4.371,11.125c-0.629,0.23-1.248,0.505-1.759,0.857
			c-1.805,1.242-2.694,2.879-3.262,4.97c-0.119,0.438-0.226,0.889-0.322,1.347l-2.158-2.158c-0.622-0.622-0.622-1.638,0-2.26
			l2.43-2.43c-1.499-2.227-2.574-4.764-3.107-7.495H3.913c-0.88,0-1.598-0.718-1.598-1.598v-4.717c0-0.88,0.718-1.598,1.598-1.598
			h3.432c0.533-2.731,1.608-5.269,3.108-7.496l-2.429-2.429c-0.622-0.622-0.622-1.637,0-2.26l3.335-3.335
			c0.622-0.622,1.638-0.622,2.26,0l2.43,2.43c2.227-1.499,4.764-2.574,7.495-3.107V3.913c0-0.88,0.718-1.598,1.598-1.598h4.717
			c0.88,0,1.598,0.718,1.598,1.598V7.347z"/>
	</g>
	<path fill="#00C551" d="M30.893,36.399v0.781c0,0.364-0.154,0.677-0.443,0.898l-3.226,2.476l-3.226-2.476
		c-0.289-0.221-0.443-0.534-0.443-0.898v-2.047L23.3,34.868c-0.468-0.489-0.717-1.056-0.761-1.731l-0.075-1.148l-0.016-0.005
		c-0.229-0.07-0.42-0.149-0.564-0.266c-0.143-0.117-0.239-0.271-0.348-0.577c-0.109-0.306-0.231-0.763-0.319-1.173
		c-0.088-0.409-0.141-0.771-0.165-1.086c-0.024-0.315-0.019-0.584,0.056-0.793c0.074-0.209,0.274-0.377,0.412-0.42
		c0.138-0.043,0.212-0.016,0.274-0.032c0.061-0.016-0.031-0.051-0.033-0.082l-0.003-0.042c-0.013-0.016-0.027-0.033-0.04-0.051v0
		c-0.52-0.682-0.911-2.018-1.019-3.212c-0.108-1.195,0.067-2.248,0.243-3.3c0.324,0.203,0.648,0.405,1.242,0.088
		c0.594-0.317,1.458-1.154,2.443-1.734c0.985-0.58,2.092-0.904,3.232-0.85c1.14,0.054,2.315,0.486,2.983,1.056
		c0.668,0.57,0.83,1.279,0.992,1.988c0.52-0.014,1.04-0.027,1.414,0.58c0.375,0.608,0.604,1.836,0.516,2.912
		c-0.088,1.076-0.493,2.001-0.901,2.483c-0.036,0.043-0.073,0.082-0.11,0.118l-0.005,0.035c0.103,0.006,0.201,0.028,0.294,0.064
		c0.198,0.074,0.379,0.207,0.464,0.456c0.085,0.249,0.074,0.613,0.043,0.976c-0.032,0.363-0.085,0.725-0.173,1.089
		c-0.088,0.364-0.209,0.731-0.318,0.992c-0.109,0.261-0.205,0.415-0.348,0.532c-0.143,0.117-0.335,0.197-0.564,0.266
		c-0.043,0.013-0.087,0.026-0.132,0.037l-0.072,1.108c-0.042,0.636-0.265,1.176-0.683,1.646l-1.581,0.284
		c-0.258-0.262-0.61-0.412-0.984-0.412c-0.763,0-1.382,0.619-1.382,1.382c0,0.763,0.619,1.382,1.382,1.382
		c0.569,0,1.073-0.348,1.281-0.863L30.893,36.399z"/>
	<path fill="#00C551" d="M22.572,37.613c0.268,1.327,0.537,2.654,0.701,3.794c0.164,1.14,0.223,2.095,0.283,3.049
		c0.268-0.567,0.537-1.133,0.835-1.558c0.298-0.425,0.626-0.708,0.954-0.992c0.417,0.656,0.835,1.312,0.95,1.707
		c0.116,0.395-0.071,0.529-0.294,1.998c-0.224,1.468-0.485,4.271-0.745,7.074c-4.175,0-9.69,0-13.865,0
		c0.328-2.862,0.656-5.725,1.185-7.67c0.529-1.946,1.259-2.974,2.408-3.764c1.148-0.79,4.055-1.342,5.166-1.908
		C21.26,38.775,21.916,38.194,22.572,37.613L22.572,37.613z"/>
	<path fill="#00C551" d="M32.428,37.613c-0.268,1.327-0.536,2.654-0.701,3.794c-0.164,1.14-0.223,2.095-0.283,3.049
		c-0.268-0.567-0.536-1.133-0.835-1.558c-0.298-0.425-0.626-0.708-0.954-0.992c-0.417,0.656-0.835,1.312-0.95,1.707
		c-0.115,0.395,0.071,0.529,0.294,1.998c0.224,1.468,0.485,4.271,0.745,7.074c4.174,0,9.691,0,13.865,0
		c-0.328-2.862-0.656-5.725-1.185-7.67c-0.529-1.946-1.26-2.974-2.408-3.764c-1.148-0.79-4.055-1.342-5.166-1.908
		C33.74,38.775,33.084,38.194,32.428,37.613L32.428,37.613z"/>
	<path fill="#06141E" d="M18.052,26.822c-0.396-4.64,1.529-7.788,4.27-9.434c1.487-0.893,3.212-1.34,4.933-1.34
		c1.721,0,3.446,0.447,4.933,1.34c2.741,1.646,4.665,4.794,4.27,9.434c-0.18-0.075-0.375-0.116-0.577-0.116h-0.319
		c0.346-4.221-1.38-7.066-3.837-8.543c-1.342-0.806-2.905-1.209-4.47-1.209c-1.565,0-3.128,0.403-4.47,1.209
		c-2.458,1.476-4.183,4.322-3.838,8.543h-0.318C18.427,26.706,18.232,26.747,18.052,26.822z"/>
	<path fill="#06141E" d="M28.694,34.972c0.355,0,0.67,0.172,0.866,0.438l4.147-0.746h0l0,0c0,0-0.001,0,0-0.001l0.001,0l0.813-1.324
		h-0.334v-5.974h1.693c0.931,0,1.693,0.868,1.693,1.928v2.118c0,1.061-0.762,1.928-1.693,1.928h-0.299l-1.103,1.796v0.002
		c-0.068,0.11-0.156,0.203-0.261,0.275c-0.103,0.07-0.221,0.118-0.351,0.141l-4.127,0.742c-0.112,0.473-0.538,0.825-1.045,0.825
		c-0.593,0-1.074-0.481-1.074-1.074C27.621,35.453,28.101,34.972,28.694,34.972z"/>
	<path fill="#06141E" d="M18.629,27.364h1.693v5.974h-1.693c-0.931,0-1.693-0.868-1.693-1.928v-2.118
		C16.936,28.232,17.698,27.364,18.629,27.364z"/>
</g>
</svg>
