<?xml version="1.0" encoding="utf-8"?>
<!-- Generator: Adobe Illustrator 17.0.0, SVG Export Plug-In . SVG Version: 6.00 Build 0)  -->
<!DOCTYPE svg PUBLIC "-//W3C//DTD SVG 1.1//EN" "http://www.w3.org/Graphics/SVG/1.1/DTD/svg11.dtd">
<svg version="1.1" id="Layer_1" xmlns="http://www.w3.org/2000/svg" xmlns:xlink="http://www.w3.org/1999/xlink" x="0px" y="0px"
	 width="55px" height="55px" viewBox="0 0 55 55" enable-background="new 0 0 55 55" xml:space="preserve">
<g>
	<path fill="#145DA1" d="M25.731,52.685c-0.54-0.038-1.08-0.075-1.619-0.114c-3.392-0.249-6.726-0.793-9.927-1.993
		c-1.477-0.553-2.876-1.252-4.119-2.242c-1.353-1.078-2.079-2.435-2.223-4.194c-0.318-3.888-0.741-7.767-1.117-11.65
		c-0.19-1.97-0.369-3.941-0.552-5.912c-0.004-0.046-0.001-0.093-0.001-0.163c0.056,0.018,0.102,0.024,0.138,0.046
		c1.717,1.067,3.573,1.822,5.491,2.432c0.222,0.071,0.306,0.165,0.285,0.397c-0.022,0.245-0.011,0.495-0.005,0.742
		c0.015,0.619,0.452,1.06,1.04,1.057c0.563-0.003,0.991-0.45,1.01-1.059c0.005-0.141,0.001-0.283,0.001-0.471
		c4.065,0.993,8.167,1.44,12.343,1.521c0,0.258-0.006,0.485,0.001,0.711c0.02,0.612,0.443,1.042,1.022,1.042
		c0.579,0,1.004-0.428,1.025-1.039c0.008-0.227,0.001-0.455,0.001-0.728c4.16-0.082,8.265-0.504,12.344-1.502
		c0,0.196-0.007,0.355,0.001,0.513c0.03,0.586,0.469,1.017,1.025,1.013c0.565-0.004,0.999-0.431,1.021-1.016
		c0.011-0.276,0.016-0.553-0.003-0.828c-0.014-0.2,0.062-0.279,0.248-0.337c1.492-0.467,2.942-1.038,4.329-1.763
		c0.436-0.228,0.859-0.479,1.335-0.746c-0.032,0.396-0.058,0.752-0.091,1.106c-0.241,2.606-0.474,5.212-0.727,7.816
		c-0.271,2.794-0.561,5.586-0.842,8.378c-0.029,0.284-0.066,0.568-0.08,0.852c-0.078,1.52-0.789,2.72-1.895,3.709
		c-1.417,1.268-3.105,2.044-4.884,2.647c-2.722,0.922-5.535,1.367-8.389,1.6c-0.843,0.069-1.688,0.117-2.531,0.175
		C28.168,52.685,26.949,52.685,25.731,52.685z"/>
	<path fill="#00C551" d="M13.483,5.042c-0.113,0.582-0.256,1.125-0.319,1.677c-0.417,3.625,2.108,7.057,5.688,7.767
		c0.505,0.1,0.414-0.021,0.426,0.509c0.005,0.219-0.003,0.438,0.004,0.657c0.02,0.61,0.446,1.046,1.019,1.048
		c0.569,0.003,1.008-0.439,1.028-1.041c0.009-0.266,0.019-0.534,0-0.799c-0.016-0.223,0.055-0.306,0.282-0.35
		c1.782-0.34,3.236-1.23,4.367-2.649c1.83-2.294,2.022-5.648,0.466-8.141c-0.065-0.104-0.128-0.208-0.208-0.337
		c0.068-0.016,0.109-0.033,0.151-0.034c4.583-0.062,9.129,0.267,13.605,1.304c2.202,0.51,4.35,1.189,6.368,2.227
		c1.389,0.714,2.691,1.555,3.672,2.799c1.033,1.309,1.435,2.759,0.838,4.381c-0.375,1.019-1.068,1.812-1.887,2.501
		c-1.387,1.168-2.992,1.948-4.67,2.591c-2.922,1.12-5.961,1.76-9.052,2.178c-4.128,0.558-8.269,0.661-12.42,0.332
		c-3.566-0.283-7.084-0.848-10.503-1.931c-2.039-0.646-4.011-1.449-5.754-2.72c-0.971-0.708-1.819-1.536-2.33-2.651
		c-0.651-1.424-0.499-2.8,0.298-4.116c0.64-1.057,1.568-1.831,2.59-2.495c1.82-1.182,3.824-1.951,5.89-2.574
		C13.179,5.133,13.324,5.09,13.483,5.042z"/>
	<path fill="#06141E" d="M51.131,17.356c0,0.966,0.051,1.891-0.012,2.809c-0.096,1.382-0.861,2.435-1.849,3.337
		c-1.406,1.286-3.083,2.114-4.839,2.799c-0.485,0.189-0.978,0.358-1.494,0.546c-0.01-0.135-0.016-0.227-0.023-0.32
		c-0.043-0.56-0.464-0.969-1.002-0.975c-0.553-0.006-1.002,0.403-1.039,0.968c-0.019,0.293-0.003,0.589-0.003,0.92
		c-4.043,1.041-8.148,1.495-12.341,1.585c0-0.211,0.005-0.398-0.001-0.584c-0.021-0.601-0.459-1.043-1.029-1.043
		c-0.567,0-1.004,0.445-1.024,1.048c-0.006,0.18-0.001,0.36-0.001,0.582c-0.116,0-0.216,0.002-0.316,0
		c-3.489-0.093-6.948-0.453-10.363-1.189c-0.483-0.104-0.961-0.235-1.445-0.337c-0.18-0.038-0.225-0.128-0.215-0.296
		c0.011-0.209,0.009-0.419,0-0.628c-0.024-0.586-0.455-1.018-1.016-1.026c-0.562-0.008-0.994,0.412-1.033,1.003
		c-0.005,0.083-0.012,0.165-0.02,0.28c-0.546-0.183-1.069-0.354-1.588-0.534c-1.422-0.493-2.83-1.018-4.126-1.797
		c-0.916-0.551-1.755-1.201-2.18-2.224c-0.165-0.396-0.28-0.84-0.295-1.267c-0.042-1.179-0.018-2.36-0.02-3.54
		c0-0.026,0.012-0.052,0.021-0.088c0.031,0.01,0.062,0.011,0.079,0.028c1.575,1.581,3.494,2.616,5.53,3.455
		c2.742,1.13,5.606,1.813,8.525,2.285c4.415,0.714,8.857,0.898,13.317,0.625c3.866-0.237,7.681-0.802,11.4-1.923
		c2.287-0.69,4.495-1.568,6.472-2.933c0.639-0.441,1.208-0.982,1.809-1.478C51.038,17.423,51.068,17.403,51.131,17.356z"/>
	<path fill="#06141E" d="M20.29,2.315c2.833-0.01,5.145,2.287,5.156,5.124c0.011,2.828-2.292,5.145-5.126,5.155
		c-2.83,0.011-5.141-2.288-5.153-5.126C15.155,4.638,17.455,2.325,20.29,2.315z M20.435,9.512c0.127-0.068,0.428-0.147,0.604-0.339
		c0.635-0.695,1.241-1.418,1.834-2.15c0.34-0.42,0.256-1.007-0.146-1.363c-0.4-0.355-1.005-0.372-1.369,0.029
		c-0.652,0.718-1.278,1.461-1.888,2.216c-0.252,0.311-0.255,0.693-0.064,1.052C19.589,9.303,19.887,9.486,20.435,9.512z"/>
	<path fill="#FFFFFF" d="M20.435,9.512c-0.548-0.026-0.846-0.209-1.03-0.555c-0.19-0.359-0.188-0.74,0.064-1.052
		c0.61-0.754,1.236-1.498,1.888-2.216c0.364-0.401,0.969-0.384,1.369-0.029c0.402,0.356,0.486,0.943,0.146,1.363
		c-0.593,0.732-1.198,1.455-1.834,2.15C20.863,9.365,20.562,9.444,20.435,9.512z"/>
</g>
</svg>
