<?xml version="1.0" encoding="utf-8"?>
<!-- Generator: Adobe Illustrator 17.0.0, SVG Export Plug-In . SVG Version: 6.00 Build 0)  -->
<!DOCTYPE svg PUBLIC "-//W3C//DTD SVG 1.1//EN" "http://www.w3.org/Graphics/SVG/1.1/DTD/svg11.dtd">
<svg version="1.1" id="Layer_1" xmlns="http://www.w3.org/2000/svg" xmlns:xlink="http://www.w3.org/1999/xlink" x="0px" y="0px"
	 width="55px" height="55px" viewBox="0 0 55 55" enable-background="new 0 0 55 55" xml:space="preserve">
<g>
	<path fill="#145DA1" d="M50.682,40.692c-3.061,3.127-5.041,3.176-5.041,3.176s-4.711,0.8-7.095-1.592
		c-2.384-2.384-2.186-6.427-2.186-6.427s0-1.452,0.998-2.978c0.99-1.526,2.384-2.524,2.384-2.524s-0.165-0.231-0.33-0.8h-4.579
		c-1.947,0-3.614,1.147-4.414,2.789v-3.308c1.213-0.982,2.739-1.601,4.414-1.601h4.241c-0.066-1.279,0.074-2.054,0.206-2.475h-8.201
		c-0.041,0-0.091-0.017-0.132-0.017v-2.12c0.041,0,0.091,0.017,0.132,0.017h2.887c-0.677-0.891-1.221-2.368-0.924-4.876
		c0.272-2.228,1.304-3.977,2.855-5.165c2.269-1.749,5.701-1.79,5.701-1.79s10.931,0.198,12.787,15.832
		C55.22,33.869,53.182,38.126,50.682,40.692z"/>
	<path fill="#00C551" d="M27.277,29.026v3.308c-0.272-0.561-0.677-1.031-1.122-1.444c-0.297-0.272-0.619-0.511-0.973-0.71
		c-0.017-0.008-0.041-0.016-0.058-0.025c-0.338-0.19-0.701-0.338-1.089-0.437c-0.379-0.091-0.767-0.165-1.171-0.165h-7.277
		c-0.165,0.561-0.33,0.792-0.33,0.792s1.394,0.998,2.384,2.524c0.998,1.518,0.998,2.978,0.998,2.978s0.198,4.042-2.186,6.427
		s-7.095,1.592-7.095,1.592s-1.988-0.049-5.041-3.176c-2.5-2.566-4.537-6.823-3.704-13.852C2.469,11.198,13.401,11,13.401,11
		s3.432,0.041,5.701,1.79c1.543,1.188,2.582,2.937,2.855,5.165c0.239,1.996-0.058,3.341-0.528,4.265
		c1.543-0.833,2.607-2.45,2.607-4.323V12.98h2.12v4.917c0,0.833,0.223,1.609,0.594,2.302v3.209
		c-0.206-0.157-0.412-0.305-0.594-0.479v4.76c-0.677-0.338-1.386-0.569-2.12-0.693V22.93c-1.279,1.246-3.011,2.021-4.933,2.021
		h-3.383c0.132,0.421,0.272,1.196,0.206,2.475h6.938c0.784,0,1.526,0.148,2.219,0.388c0.017,0.008,0.033,0.008,0.049,0.017
		C25.916,28.102,26.642,28.515,27.277,29.026z"/>
	<path fill="#06141E" d="M24.031,43.997h2.12V31.615c-0.565-0.658-1.292-1.143-2.12-1.373V43.997z"/>
	<rect x="27.277" y="12.98" fill="#06141E" width="3.143" height="31.02"/>
</g>
</svg>
