<?xml version="1.0" encoding="utf-8"?>
<!-- Generator: Adobe Illustrator 17.0.0, SVG Export Plug-In . SVG Version: 6.00 Build 0)  -->
<!DOCTYPE svg PUBLIC "-//W3C//DTD SVG 1.1//EN" "http://www.w3.org/Graphics/SVG/1.1/DTD/svg11.dtd">
<svg version="1.1" id="Layer_1" xmlns="http://www.w3.org/2000/svg" xmlns:xlink="http://www.w3.org/1999/xlink" x="0px" y="0px"
	 width="55px" height="55px" viewBox="0 0 55 55" enable-background="new 0 0 55 55" xml:space="preserve">
<g>
	<path fill="#00C551" d="M40.926,38.905V25.935c0-7.384-6.042-13.426-13.426-13.426s-13.426,6.042-13.426,13.426v12.971L27.5,40.92
		L40.926,38.905z M40.926,38.905"/>
	<path fill="#02AF48" d="M19.971,33.559l5.676-0.806V26.02l-5.676-0.806c-0.558-0.079-1.058,0.354-1.058,0.918v6.509
		C18.913,33.205,19.413,33.638,19.971,33.559L19.971,33.559z M19.971,33.559"/>
	<path fill="#02AF48" d="M35.029,33.559l-5.676-0.806V26.02l5.676-0.806c0.559-0.079,1.058,0.354,1.058,0.918v6.509
		C36.087,33.205,35.588,33.638,35.029,33.559L35.029,33.559z M35.029,33.559"/>
	<path fill="#06141E" d="M27.5,6.286c-0.417,0-0.756-0.338-0.756-0.756V3.071c0-0.418,0.339-0.756,0.756-0.756
		c0.418,0,0.756,0.338,0.756,0.756V5.53C28.256,5.947,27.918,6.286,27.5,6.286L27.5,6.286z M27.5,6.286"/>
	<path fill="#06141E" d="M40.808,11.697c-0.194,0-0.387-0.074-0.534-0.221c-0.295-0.295-0.295-0.774,0-1.069l1.739-1.738
		c0.295-0.295,0.774-0.295,1.068,0c0.295,0.295,0.295,0.773,0,1.068l-1.739,1.739C41.195,11.624,41.002,11.697,40.808,11.697
		L40.808,11.697z M40.808,11.697"/>
	<path fill="#06141E" d="M48.78,25.006h-2.459c-0.417,0-0.756-0.339-0.756-0.756c0-0.418,0.339-0.756,0.756-0.756h2.459
		c0.417,0,0.756,0.338,0.756,0.756C49.536,24.667,49.197,25.006,48.78,25.006L48.78,25.006z M48.78,25.006"/>
	<path fill="#06141E" d="M14.192,11.697c-0.193,0-0.387-0.074-0.534-0.221l-1.739-1.739c-0.295-0.295-0.295-0.774,0-1.068
		c0.295-0.295,0.773-0.295,1.068,0l1.739,1.738c0.295,0.295,0.295,0.774,0,1.069C14.579,11.624,14.385,11.697,14.192,11.697
		L14.192,11.697z M14.192,11.697"/>
	<path fill="#06141E" d="M8.679,25.006H6.22c-0.417,0-0.756-0.339-0.756-0.756c0-0.418,0.339-0.756,0.756-0.756h2.459
		c0.417,0,0.756,0.338,0.756,0.756C9.435,24.667,9.096,25.006,8.679,25.006L8.679,25.006z M8.679,25.006"/>
	<path fill="#049B41" d="M26.654,30.142h-3.039c-0.417,0-0.755-0.338-0.755-0.755c0-0.418,0.338-0.756,0.755-0.756h3.039
		c0.418,0,0.756,0.338,0.756,0.756C27.41,29.804,27.072,30.142,26.654,30.142L26.654,30.142z M26.654,30.142"/>
	<path fill="#049B41" d="M31.712,30.142h-3.039c-0.418,0-0.756-0.338-0.756-0.755c0-0.418,0.338-0.756,0.756-0.756h3.039
		c0.418,0,0.756,0.338,0.756,0.756C32.468,29.804,32.13,30.142,31.712,30.142L31.712,30.142z M31.712,30.142"/>
	<path fill="#FFF3EF" d="M29.353,38.905l-1.944,1.007l-1.763-1.007v-16.29c0-1.024,0.83-1.853,1.853-1.853
		c1.024,0,1.853,0.83,1.853,1.853V38.905z M29.353,38.905"/>
	<path fill="#06141E" d="M43.759,47.366L27.5,49.382l-16.259-2.015V40.76c0-1.037,0.84-1.878,1.877-1.878h28.763
		c1.037,0,1.878,0.841,1.878,1.878V47.366z M43.759,47.366"/>
	<path fill="#145DA1" d="M47.126,52.685H7.874c-0.982,0-1.778-0.796-1.778-1.778v-1.762c0-0.982,0.796-1.779,1.778-1.779h39.251
		c0.982,0,1.778,0.796,1.778,1.779v1.762C48.904,51.889,48.107,52.685,47.126,52.685L47.126,52.685z M47.126,52.685"/>
</g>
</svg>
