<?xml version="1.0" encoding="utf-8"?>
<!-- Generator: Adobe Illustrator 17.0.0, SVG Export Plug-In . SVG Version: 6.00 Build 0)  -->
<!DOCTYPE svg PUBLIC "-//W3C//DTD SVG 1.1//EN" "http://www.w3.org/Graphics/SVG/1.1/DTD/svg11.dtd">
<svg version="1.1" id="Layer_1" xmlns="http://www.w3.org/2000/svg" xmlns:xlink="http://www.w3.org/1999/xlink" x="0px" y="0px"
	 width="55px" height="55px" viewBox="0 0 55 55" enable-background="new 0 0 55 55" xml:space="preserve">
<g>
	<path fill="#145DA1" d="M16.951,24.54c-1.513,0-2.744,1.192-2.744,2.656c0,1.465,1.23,2.656,2.744,2.656
		c1.513,0,2.744-1.191,2.744-2.656C19.695,25.732,18.464,24.54,16.951,24.54L16.951,24.54z M16.951,28.139
		c-0.568,0-1.03-0.423-1.03-0.942c0-0.52,0.462-0.942,1.03-0.942c0.567,0,1.03,0.422,1.03,0.942
		C17.981,27.716,17.518,28.139,16.951,28.139L16.951,28.139z M16.951,28.139"/>
	<path fill="#145DA1" d="M16.951,17.089c-1.513,0-2.744,1.192-2.744,2.657c0,1.465,1.23,2.656,2.744,2.656
		c1.513,0,2.744-1.191,2.744-2.656C19.695,18.281,18.464,17.089,16.951,17.089L16.951,17.089z M16.951,20.688
		c-0.568,0-1.03-0.423-1.03-0.942c0-0.519,0.462-0.942,1.03-0.942c0.567,0,1.03,0.423,1.03,0.942
		C17.981,20.265,17.518,20.689,16.951,20.688L16.951,20.688z M16.951,20.688"/>
	<path fill="#145DA1" d="M16.951,31.99c-1.513,0-2.744,1.192-2.744,2.656c0,1.465,1.23,2.656,2.744,2.656
		c1.513,0,2.744-1.191,2.744-2.656C19.695,33.182,18.464,31.99,16.951,31.99L16.951,31.99z M16.951,35.589
		c-0.568,0-1.03-0.422-1.03-0.942c0-0.519,0.462-0.942,1.03-0.942c0.567,0,1.03,0.422,1.03,0.942S17.518,35.589,16.951,35.589
		L16.951,35.589z M16.951,35.589"/>
	<g>
		<path fill="#00C551" d="M45.728,10.433c-0.056-0.056-0.127-0.084-0.214-0.084h-1.59c-0.105-0.514-0.304-0.962-0.595-1.339h2.167
			c0.087,0,0.158-0.028,0.214-0.084c0.056-0.056,0.084-0.127,0.084-0.214V7.764c0-0.087-0.028-0.158-0.084-0.214
			c-0.056-0.056-0.127-0.084-0.214-0.084h-7.738c-0.087,0-0.158,0.028-0.214,0.084c-0.056,0.056-0.084,0.127-0.084,0.214v1.237
			c0,0.081,0.03,0.151,0.089,0.21c0.059,0.059,0.128,0.088,0.209,0.088h1.348c1.308,0,2.139,0.35,2.493,1.051h-3.841
			c-0.087,0-0.158,0.028-0.214,0.084c-0.056,0.056-0.084,0.127-0.084,0.213v0.949c0,0.087,0.028,0.158,0.084,0.214
			c0.056,0.056,0.127,0.084,0.214,0.084h3.972c-0.137,0.509-0.454,0.896-0.954,1.163c-0.499,0.266-1.158,0.4-1.976,0.4h-1.042
			c-0.081,0-0.151,0.029-0.209,0.088c-0.059,0.059-0.089,0.129-0.089,0.21v1.181c0,0.081,0.028,0.149,0.084,0.205
			c1.191,1.265,2.735,3.035,4.632,5.311c0.056,0.074,0.133,0.112,0.232,0.112h1.814c0.13,0,0.22-0.056,0.269-0.168
			c0.063-0.111,0.05-0.217-0.037-0.316c-1.811-2.22-3.234-3.882-4.269-4.986c1.054-0.124,1.91-0.465,2.567-1.023
			c0.657-0.558,1.057-1.284,1.2-2.176h1.562c0.087,0,0.158-0.028,0.214-0.084c0.056-0.056,0.084-0.127,0.084-0.213v-0.949
			C45.812,10.56,45.784,10.489,45.728,10.433L45.728,10.433z M45.728,10.433"/>
	</g>
	<g>
		<path fill="#06141E" d="M22.453,28.3h11.428c0.61,0,1.106-0.497,1.106-1.107c0-0.611-0.496-1.107-1.106-1.107H22.453
			c-0.611,0-1.107,0.497-1.107,1.107C21.346,27.803,21.842,28.3,22.453,28.3z"/>
		<path fill="#06141E" d="M34.987,34.693c0-0.61-0.496-1.107-1.106-1.107H22.453c-0.611,0-1.107,0.497-1.107,1.107
			s0.497,1.106,1.107,1.106h11.428C34.491,35.8,34.987,35.304,34.987,34.693z"/>
		<path fill="#06141E" d="M41.684,1.538c-5.139,0-9.791,3.227-11.633,8.048h-21.1c-0.596,0-1.103,0.524-1.107,1.144L7.643,40.55
			H1.827c-0.634,0-1.13,0.469-1.13,1.067v3.816c0.011,3.651,2.815,6.655,6.429,6.94v0.033h26.715l0.156-0.016
			c0.021,0.001,0.041,0.003,0.06,0.005c0.078,0.006,0.143,0.011,0.222,0.011h0.019c3.845-0.006,6.973-3.139,6.973-6.982V26.394
			c0.137,0.004,0.275,0.007,0.412,0.007c6.849,0,12.421-5.577,12.421-12.432C54.103,7.114,48.531,1.538,41.684,1.538z
			 M29.171,50.193H7.697c-2.627-0.004-4.774-2.144-4.786-4.77v-2.659h24.357v2.647C27.271,47.206,27.944,48.896,29.171,50.193z
			 M29.179,40.855c-0.193-0.194-0.463-0.306-0.738-0.306H9.856l0.194-28.75H29.45c-0.12,0.706-0.182,1.42-0.186,2.13
			c-0.002,1.608,0.303,3.172,0.906,4.656h-7.718c-0.611,0-1.107,0.497-1.107,1.106c0,0.611,0.497,1.107,1.107,1.107h8.89
			c1.763,2.705,4.558,4.632,7.712,5.321v19.303c0.001,2.624-2.134,4.764-4.774,4.77c-2.632-0.006-4.784-2.15-4.797-4.78v-3.788
			C29.492,41.336,29.381,41.055,29.179,40.855z M28.44,40.805l0-0.005L28.44,40.805C28.44,40.805,28.44,40.805,28.44,40.805z
			 M51.89,13.98c-0.006,5.622-4.584,10.2-10.206,10.206c-2.726,0-5.288-1.062-7.216-2.989s-2.988-4.49-2.988-7.216
			c0-5.627,4.578-10.205,10.205-10.205S51.89,8.354,51.89,13.98z"/>
	</g>
</g>
</svg>
