<?xml version="1.0" encoding="utf-8"?>
<!-- Generator: Adobe Illustrator 17.0.0, SVG Export Plug-In . SVG Version: 6.00 Build 0)  -->
<!DOCTYPE svg PUBLIC "-//W3C//DTD SVG 1.1//EN" "http://www.w3.org/Graphics/SVG/1.1/DTD/svg11.dtd">
<svg version="1.1" id="Layer_1" xmlns="http://www.w3.org/2000/svg" xmlns:xlink="http://www.w3.org/1999/xlink" x="0px" y="0px"
	 width="55px" height="55px" viewBox="0 0 55 55" enable-background="new 0 0 55 55" xml:space="preserve">
<g>
	<path fill="#00C551" d="M45.737,38.79h-8.684v-3.474h-6.948v17.369h22.58V35.316h-6.948V38.79z M44.001,50.948h-1.737v-1.737h1.737
		V50.948z M47.474,50.948h-1.737v-1.737h1.737V50.948z M50.948,50.948h-1.737v-1.737h1.737V50.948z M50.948,47.474h-8.684v-1.737
		h8.684V47.474z M50.948,47.474"/>
	<rect x="38.79" y="35.316" fill="#06141E" width="5.211" height="1.737"/>
	<path fill="#00C551" d="M35.316,14.473h8.684v3.474h5.211V2.315h-5.211v3.474h-8.684V2.315h-5.211v15.632h5.211V14.473z
		 M35.316,14.473"/>
	<rect x="12.736" y="2.315" fill="#06141E" width="5.211" height="1.737"/>
	<rect x="37.053" y="2.315" fill="#06141E" width="5.211" height="1.737"/>
	<path fill="#00C551" d="M10.999,14.473h8.684v3.474h5.211V2.315h-5.211v3.474h-8.684V2.315H5.789v15.632h5.211V14.473z
		 M10.999,14.473"/>
	<path fill="#145DA1" d="M18.816,24.895c0,2.878-2.333,5.211-5.211,5.211s-5.211-2.333-5.211-5.211s2.333-5.211,5.211-5.211
		c1.382,0,2.707,0.549,3.685,1.526C18.267,22.188,18.816,23.513,18.816,24.895L18.816,24.895z M18.816,24.895"/>
	<rect x="37.053" y="16.21" fill="#06141E" width="5.211" height="1.737"/>
	<rect x="12.736" y="16.21" fill="#06141E" width="5.211" height="1.737"/>
	<path fill="#145DA1" d="M13.605,31.842c-6.225,0-11.29,5.065-11.29,11.29c0,1.437,1.169,2.605,2.605,2.605h8.25
		c0.718,0,1.303-0.585,1.303-1.303s-0.585-1.303-1.303-1.303H5.789v-1.737h2.605v-6.079h9.044l4.851,4.851v12.518h2.605v-9.553
		C24.895,36.907,19.83,31.842,13.605,31.842L13.605,31.842z M13.605,31.842"/>
	<path fill="#06141E" d="M9.024,19.684H2.315v1.737h5.282C7.977,20.767,8.46,20.181,9.024,19.684L9.024,19.684z M9.024,19.684"/>
	<path fill="#145DA1" d="M17.947,39.658h1.377l-1.377-1.377V39.658z M17.947,39.658"/>
	<path fill="#06141E" d="M18.185,19.684c0.564,0.497,1.047,1.083,1.428,1.737h33.072v-1.737H18.185z M18.185,19.684"/>
	<rect x="4.92" y="47.474" fill="#145DA1" width="3.474" height="5.211"/>
	<path fill="#145DA1" d="M16.21,37.053h-6.079v4.342h3.04c1.676,0,3.04,1.364,3.04,3.04s-1.364,3.04-3.04,3.04h-3.04v5.211h10.421
		v-11.29H16.21V37.053z M16.21,37.053"/>
</g>
</svg>
