<?xml version="1.0" encoding="utf-8"?>
<!-- Generator: Adobe Illustrator 17.0.0, SVG Export Plug-In . SVG Version: 6.00 Build 0)  -->
<!DOCTYPE svg PUBLIC "-//W3C//DTD SVG 1.1//EN" "http://www.w3.org/Graphics/SVG/1.1/DTD/svg11.dtd">
<svg version="1.1" id="Layer_1" xmlns="http://www.w3.org/2000/svg" xmlns:xlink="http://www.w3.org/1999/xlink" x="0px" y="0px"
	 width="55px" height="55px" viewBox="0 0 55 55" enable-background="new 0 0 55 55" xml:space="preserve">
<g>
	<path fill="#06141E" d="M6.5,38.82c0.168-1.267,0.363-2.532,0.5-3.803c0.6-5.592,1.184-11.186,1.771-16.78
		c0.177-1.682,0.345-3.365,0.522-5.093c2.557,0,5.059,0,7.617,0c0,0.807,0,1.609,0,2.49c-1.747,0-3.485,0-5.328,0
		c-0.787,7.464-1.567,14.862-2.355,22.333c12.183,0,24.3,0,36.547,0c-0.781-7.416-1.56-14.812-2.347-22.279
		c-1.788,0-3.528,0-5.331,0c0-0.878,0-1.68,0-2.539c2.496,0,4.996,0,7.592,0c0.16,1.424,0.328,2.851,0.479,4.281
		c0.483,4.561,0.963,9.122,1.44,13.684c0.241,2.308,0.469,4.618,0.713,6.926c0.028,0.264,0.119,0.52,0.181,0.78
		c0,3.227,0,6.453,0,9.68c-14,0-28,0-42,0C6.5,45.273,6.5,42.047,6.5,38.82z M45.873,40.647c-12.3,0-24.506,0-36.733,0
		c0,1.764,0,3.471,0,5.189c12.274,0,24.499,0,36.733,0C45.873,44.076,45.873,42.388,45.873,40.647z"/>
	<path fill="#145DA1" d="M36.688,6.5c0,4.341,0,8.682,0,13.124c0.836,0,1.665,0,2.542,0c0,0.902,0,1.704,0,2.551
		c-7.83,0-15.628,0-23.468,0c0-0.826,0-1.608,0-2.492c0.827,0,1.656,0,2.551,0c0-4.461,0-8.822,0-13.182c0.547,0,1.094,0,1.641,0
		c1.097,0.393,2.191,0.793,3.292,1.172c0.169,0.058,0.389,0.074,0.554,0.017c1.129-0.383,2.249-0.79,3.372-1.19
		c0.219,0,0.438,0,0.656,0c1.096,0.393,2.19,0.792,3.291,1.171c0.169,0.058,0.389,0.072,0.555,0.016
		c1.129-0.382,2.249-0.789,3.372-1.187C35.594,6.5,36.141,6.5,36.688,6.5z M20.939,19.604c4.424,0,8.755,0,13.099,0
		c0-3.342,0-6.628,0-10.135c-1.825,1.229-3.568,0.902-5.284,0.096c-0.85-0.399-1.656-0.394-2.505,0.003
		c-1.635,0.765-3.298,1.065-4.992,0.145c-0.078-0.042-0.192-0.017-0.318-0.025C20.939,13.006,20.939,16.277,20.939,19.604z"/>
	<path fill="#FFFFFF" d="M27.172,6.5c-1.123,0.399-2.244,0.807-3.372,1.19c-0.165,0.056-0.385,0.041-0.554-0.017
		C22.144,7.293,21.05,6.893,19.953,6.5C22.359,6.5,24.766,6.5,27.172,6.5z"/>
	<path fill="#FFFFFF" d="M35.047,6.5c-1.123,0.399-2.244,0.805-3.372,1.187c-0.166,0.056-0.386,0.042-0.555-0.016
		c-1.101-0.379-2.195-0.778-3.291-1.171C30.234,6.5,32.641,6.5,35.047,6.5z"/>
	<path fill="#00C551" d="M28.89,24.945c4.33,0,8.612,0,12.955,0c0,3.001,0,5.989,0,9.033c-4.306,0-8.607,0-12.955,0
		C28.89,30.983,28.89,28.013,28.89,24.945z M39.309,27.541c-2.616,0-5.235,0-7.843,0c0,1.335,0,2.605,0,3.877
		c2.643,0,5.225,0,7.843,0C39.309,30.115,39.309,28.865,39.309,27.541z"/>
	<path fill="#00C551" d="M15.622,24.977c0,0.816,0,1.598,0,2.436c-0.827,0-1.629,0-2.48,0c0-0.8,0-1.582,0-2.436
		C13.925,24.977,14.727,24.977,15.622,24.977z"/>
	<path fill="#00C551" d="M20.864,24.957c0,0.818,0,1.601,0,2.447c-0.803,0-1.605,0-2.463,0c0-0.794,0-1.596,0-2.447
		C19.22,24.957,20.021,24.957,20.864,24.957z"/>
	<path fill="#00C551" d="M26.119,24.951c0,0.835,0,1.617,0,2.459c-0.817,0-1.619,0-2.473,0c0-0.811,0-1.612,0-2.459
		C24.458,24.951,25.24,24.951,26.119,24.951z"/>
	<path fill="#00C551" d="M13.134,31.346c0-0.848,0-1.63,0-2.458c0.822,0,1.604,0,2.455,0c0,0.792,0,1.594,0,2.458
		C14.803,31.346,14.002,31.346,13.134,31.346z"/>
	<path fill="#00C551" d="M18.362,31.352c0-0.845,0-1.608,0-2.44c0.817,0,1.619,0,2.483,0c0,0.783,0,1.584,0,2.44
		C20.041,31.352,19.239,31.352,18.362,31.352z"/>
	<path fill="#00C551" d="M23.661,28.879c0.826,0,1.608,0,2.443,0c0,0.834,0,1.635,0,2.483c-0.812,0-1.595,0-2.443,0
		C23.661,30.568,23.661,29.765,23.661,28.879z"/>
	<path fill="#00C551" d="M13.132,35.299c0-0.834,0-1.617,0-2.457c0.814,0,1.616,0,2.472,0c0,0.809,0,1.61,0,2.457
		C14.792,35.299,14.01,35.299,13.132,35.299z"/>
	<path fill="#00C551" d="M18.406,32.819c0.84,0,1.622,0,2.452,0c0,0.819,0,1.602,0,2.455c-0.784,0-1.586,0-2.452,0
		C18.406,34.496,18.406,33.695,18.406,32.819z"/>
	<path fill="#00C551" d="M23.615,35.272c0-0.832,0-1.595,0-2.423c0.818,0,1.62,0,2.481,0c0,0.787,0,1.588,0,2.423
		C25.265,35.272,24.445,35.272,23.615,35.272z"/>
	<path fill="#FFFFFF" d="M20.939,19.604c0-3.327,0-6.597,0-9.916c0.126,0.008,0.24-0.017,0.318,0.025
		c1.693,0.92,3.357,0.621,4.992-0.145c0.849-0.397,1.655-0.402,2.505-0.003c1.717,0.805,3.46,1.133,5.284-0.096
		c0,3.507,0,6.794,0,10.135C29.694,19.604,25.363,19.604,20.939,19.604z M22.321,18.236c3.068,0,6.037,0,9.032,0
		c0-0.849,0-1.65,0-2.457c-3.043,0-6.032,0-9.032,0C22.321,16.623,22.321,17.405,22.321,18.236z M28.742,11.828
		c-2.193,0-4.287,0-6.406,0c0,0.849,0,1.651,0,2.456c2.169,0,4.283,0,6.406,0C28.742,13.439,28.742,12.657,28.742,11.828z"/>
	<path fill="#FFFFFF" d="M39.309,27.541c0,1.325,0,2.575,0,3.877c-2.618,0-5.2,0-7.843,0c0-1.272,0-2.542,0-3.877
		C34.074,27.541,36.693,27.541,39.309,27.541z"/>
	<path fill="#145DA1" d="M22.321,18.236c0-0.83,0-1.613,0-2.457c3,0,5.989,0,9.032,0c0,0.806,0,1.608,0,2.457
		C28.357,18.236,25.388,18.236,22.321,18.236z"/>
	<path fill="#145DA1" d="M28.742,11.828c0,0.829,0,1.612,0,2.456c-2.124,0-4.238,0-6.406,0c0-0.805,0-1.606,0-2.456
		C24.455,11.828,26.549,11.828,28.742,11.828z"/>
</g>
</svg>
