<?xml version="1.0" encoding="utf-8"?>
<!-- Generator: Adobe Illustrator 17.0.0, SVG Export Plug-In . SVG Version: 6.00 Build 0)  -->
<!DOCTYPE svg PUBLIC "-//W3C//DTD SVG 1.1//EN" "http://www.w3.org/Graphics/SVG/1.1/DTD/svg11.dtd">
<svg version="1.1" id="Layer_1" xmlns="http://www.w3.org/2000/svg" xmlns:xlink="http://www.w3.org/1999/xlink" x="0px" y="0px"
	 width="55px" height="55px" viewBox="0 0 55 55" enable-background="new 0 0 55 55" xml:space="preserve">
<g>
	<g>
		<path fill="#145DA1" d="M27.516,12.132c-2.315,0.001-4.629,0.003-6.944-0.002c-0.396-0.001-0.801,0.008-1.185-0.069
			c-0.782-0.157-1.238-0.662-1.177-1.471c0.058-0.754,0.533-1.22,1.298-1.25c1.288-0.05,2.577-0.052,3.866-0.055
			c3.768-0.008,7.535-0.006,11.303-0.006c0.231,0,0.462,0.021,0.693,0.036c0.848,0.054,1.366,0.491,1.434,1.346
			c0.06,0.761-0.553,1.399-1.454,1.441c-1.254,0.058-2.512,0.027-3.768,0.029C30.227,12.134,28.872,12.132,27.516,12.132z"/>
		<path fill="#00C551" d="M47.31,27.463l-4.81,20.12H12.75l-2.57-10.45c1.25-0.01,2.5,0.03,3.75-0.03c0.9-0.04,1.52-0.68,1.46-1.44
			c-0.07-0.86-0.59-1.29-1.44-1.35c-0.23-0.01-0.46-0.03-0.69-0.03H9.48l-0.45-1.84h3.14c1.25,0,2.51,0.03,3.76-0.03
			c0.9-0.04,1.52-0.68,1.46-1.44c-0.07-0.86-0.59-1.29-1.44-1.35c-0.23-0.01-0.46-0.03-0.69-0.03H8.33l-0.52-2.13H47.31z"/>
		<path fill="#145DA1" d="M27.501,18.228c-2.447,0-4.893,0.002-7.34-0.003c-0.264,0-0.53-0.016-0.79-0.06
			c-0.717-0.119-1.129-0.57-1.164-1.277c-0.038-0.759,0.374-1.291,1.118-1.415c0.646-0.108,1.317-0.09,1.977-0.091
			c4.333-0.007,8.666-0.004,12.999-0.003c0.265,0,0.529,0.003,0.794,0.015c1.107,0.054,1.769,0.633,1.717,1.497
			c-0.05,0.837-0.712,1.329-1.77,1.325c-2.513-0.009-5.026-0.014-7.539-0.021C27.501,18.207,27.501,18.218,27.501,18.228z"/>
		<path fill="#FFFFFF" d="M24.085,39.01c-0.397,0-0.795,0.023-1.19-0.005c-0.848-0.059-1.35-0.507-1.391-1.375
			c-0.039-0.829,0.514-1.405,1.414-1.453c0.759-0.041,1.524-0.063,2.281-0.015c0.721,0.046,0.926-0.258,0.891-0.928
			c-0.039-0.758-0.032-1.522,0.012-2.281c0.049-0.848,0.51-1.362,1.39-1.357c0.86,0.005,1.368,0.479,1.418,1.337
			c0.048,0.824,0.04,1.654,0.015,2.479c-0.016,0.558,0.207,0.77,0.758,0.752c0.76-0.025,1.522-0.021,2.282,0.007
			c0.987,0.035,1.544,0.573,1.536,1.438c-0.008,0.862-0.561,1.364-1.576,1.394c-0.727,0.021-1.456,0.031-2.182,0
			c-0.586-0.025-0.843,0.17-0.811,0.792c0.039,0.758,0.021,1.522-0.009,2.281c-0.039,0.974-0.598,1.533-1.464,1.511
			c-0.817-0.02-1.334-0.574-1.369-1.502c-0.023-0.628-0.077-1.265,0-1.883c0.121-0.981-0.262-1.336-1.21-1.199
			C24.619,39.042,24.349,39.01,24.085,39.01z"/>
		<g>
			<path fill="#06141E" d="M42.25,52.417H27.439v-2H42.25c1.983,0,2.492-0.492,3.202-3.097c0.413-1.516,1.529-6.304,2.609-10.934
				c0.855-3.669,1.663-7.134,2.053-8.673c0.188-0.742,0.314-1.751-0.149-2.347c-0.462-0.594-1.411-0.658-1.798-0.658h-8.542V7.083
				c0-1.974-1.77-2.5-2.815-2.5H27.5v-2h9.309c2.393,0,4.815,1.546,4.815,4.5v15.625h6.542c1.46,0,2.659,0.508,3.376,1.429
				c0.771,0.99,0.942,2.358,0.511,4.066c-0.385,1.521-1.191,4.978-2.044,8.637c-1.084,4.648-2.205,9.454-2.628,11.005
				C46.555,50.878,45.534,52.417,42.25,52.417z"/>
			<path fill="#06141E" d="M48.311,23.708h-2v-8.042c0-0.407-0.438-1.155-1.155-1.155h-4.53v-2h4.53
				c1.859,0,3.155,1.663,3.155,3.155V23.708z"/>
		</g>
		<g>
			<path fill="#06141E" d="M27.439,52.417H12.75c-3.284,0-4.305-1.539-5.131-4.571c-0.423-1.55-1.543-6.355-2.627-11.003
				c-0.853-3.66-1.659-7.117-2.044-8.639c-0.433-1.708-0.261-3.077,0.51-4.066c0.718-0.922,1.917-1.429,3.376-1.429h6.542V7.083
				c0-2.954,2.423-4.5,4.816-4.5H27.5v2H18.19c-1.046,0-2.816,0.526-2.816,2.5v17.625H6.833c-0.387,0-1.335,0.064-1.798,0.658
				c-0.463,0.595-0.337,1.605-0.149,2.347c0.39,1.54,1.198,5.005,2.053,8.675c1.08,4.63,2.196,9.416,2.609,10.932
				c0.71,2.604,1.219,3.097,3.202,3.097h14.69V52.417z"/>
			<path fill="#06141E" d="M8.689,23.708h-2v-8.042c0-1.492,1.296-3.155,3.155-3.155h4.53v2h-4.53c-0.717,0-1.155,0.748-1.155,1.155
				V23.708z"/>
		</g>
	</g>
	<rect x="14.375" y="22.708" fill="#06141E" width="26.25" height="2"/>
</g>
</svg>
