<?xml version="1.0" encoding="utf-8"?>
<!-- Generator: Adobe Illustrator 17.0.0, SVG Export Plug-In . SVG Version: 6.00 Build 0)  -->
<!DOCTYPE svg PUBLIC "-//W3C//DTD SVG 1.1//EN" "http://www.w3.org/Graphics/SVG/1.1/DTD/svg11.dtd">
<svg version="1.1" id="Layer_1" xmlns="http://www.w3.org/2000/svg" xmlns:xlink="http://www.w3.org/1999/xlink" x="0px" y="0px"
	 width="55px" height="55px" viewBox="0 0 55 55" enable-background="new 0 0 55 55" xml:space="preserve">
<g>
	<path fill="#06141E" d="M52.505,2.315H2.495c-0.541,0-0.979,0.438-0.979,0.979v38.109c0,0.541,0.438,0.979,0.979,0.979h19.391
		v6.816H11.752c-0.206,0-0.372,0.167-0.372,0.372c0,0.002,0,0.004,0,0.007v2.736c0,0.206,0.167,0.372,0.372,0.372h31.495
		c0.206,0,0.372-0.167,0.372-0.372v-2.742c0.004-0.206-0.16-0.375-0.366-0.379c-0.002,0-0.004,0-0.007,0H33.115v-6.81h19.391
		c0.541,0,0.979-0.438,0.979-0.979V3.294C53.485,2.753,53.046,2.315,52.505,2.315z M51.526,40.424H3.474V4.274h48.052V40.424z"/>
	<path fill="#145DA1" d="M5.517,6.389v14.233h14.618V6.389H5.517z M12.823,7.545c1.507,0,2.729,1.222,2.729,2.729
		c0,1.507-1.222,2.729-2.729,2.729c-1.507,0-2.729-1.222-2.729-2.729C10.098,8.768,11.317,7.548,12.823,7.545z M7.039,19.466
		c0,0,0.359-4.074,0.385-4.146c0.227-1.183,1.276-2.029,2.481-1.998h5.843c1.205-0.031,2.254,0.814,2.481,1.998
		c0.033,0.072,0.385,4.146,0.385,4.146H7.039z"/>
	<polygon fill="#00C551" points="29.237,25.192 5.557,25.192 5.557,23.005 29.243,23.005 	"/>
	<rect x="5.557" y="27.066" fill="#00C551" width="19.658" height="2.187"/>
	<polygon fill="#00C551" points="21.298,37.368 5.557,37.368 5.557,35.181 21.271,35.181 	"/>
	<polygon fill="#00C551" points="28.022,33.307 5.557,33.307 5.557,31.127 27.996,31.127 	"/>
	<path fill="#145DA1" d="M43.946,7.075c-0.002,0-0.004,0-0.006,0c-3.216,0.004-5.821,2.614-5.817,5.83s2.614,5.821,5.83,5.817
		c3.214-0.004,5.817-2.61,5.817-5.824C49.77,9.682,47.162,7.075,43.946,7.075z M47.909,14.198h-2.664v2.664h-2.612v-2.664h-2.657
		v-2.612h2.664V8.935h2.612v2.664h2.664L47.909,14.198z"/>
	<path fill="#145DA1" d="M30.431,19.799L30.431,19.799c-0.249-0.002-0.457-0.19-0.483-0.437l-0.888-8.246l-0.875,7.933
		c-0.026,0.243-0.226,0.429-0.47,0.437c-0.246,0.009-0.46-0.168-0.496-0.411l-0.96-5.83l-0.81,3.63
		c-0.048,0.216-0.236,0.372-0.457,0.379c-0.222,0.02-0.427-0.124-0.483-0.34l-1.254-3.865h-0.979c-0.27,0-0.49-0.219-0.49-0.49
		c0-0.27,0.219-0.49,0.49-0.49h1.306c0.212-0.001,0.4,0.137,0.464,0.339l0.842,2.501l0.973-4.381
		c0.043-0.233,0.254-0.396,0.49-0.379c0.235,0.006,0.433,0.179,0.47,0.411l0.783,4.792L28.577,6.5
		c0.027-0.25,0.238-0.439,0.49-0.437l0,0c0.249,0.002,0.457,0.19,0.483,0.437l0.927,8.664l0.829-6.366
		c0.033-0.242,0.239-0.423,0.483-0.424c0.246-0.006,0.457,0.174,0.49,0.418l0.992,6.999l0.757-3.343
		c0.052-0.222,0.249-0.379,0.477-0.379h1.365c0.27,0,0.49,0.219,0.49,0.49c0,0.27-0.219,0.49-0.49,0.49h-0.96l-1.306,5.523
		c-0.048,0.232-0.26,0.393-0.496,0.379c-0.236-0.007-0.432-0.184-0.464-0.418l-0.829-6.046l-0.901,6.888
		C30.882,19.617,30.676,19.798,30.431,19.799z"/>
	<rect x="32.162" y="22.933" fill="#00C551" width="4.844" height="6.614"/>
	<rect x="38.442" y="22.933" fill="#00C551" width="10.72" height="6.614"/>
	<rect x="32.162" y="30.768" fill="#00C551" width="8.736" height="6.614"/>
	<rect x="42.249" y="30.768" fill="#00C551" width="6.908" height="6.614"/>
</g>
</svg>
