<?xml version="1.0" encoding="utf-8"?>
<!-- Generator: Adobe Illustrator 17.0.0, SVG Export Plug-In . SVG Version: 6.00 Build 0)  -->
<!DOCTYPE svg PUBLIC "-//W3C//DTD SVG 1.1//EN" "http://www.w3.org/Graphics/SVG/1.1/DTD/svg11.dtd">
<svg version="1.1" id="Layer_1" xmlns="http://www.w3.org/2000/svg" xmlns:xlink="http://www.w3.org/1999/xlink" x="0px" y="0px"
	 width="55px" height="55px" viewBox="0 0 55 55" enable-background="new 0 0 55 55" xml:space="preserve">
<g>
	<path fill="#06141E" d="M32.074,46.698c0.408,0,0.771,0,1.213,0c-2.037,1.095-2.521,1.719-2.778,3.552c-2.768,0-5.544,0-8.338,0
		c-0.146-1.758-1.057-2.901-2.692-3.531c0.353,0,0.706,0,1.153,0c-0.087-0.305-0.142-0.54-0.221-0.767
		c-1.354-3.882-4.919-6.426-9.063-6.462c-1.151-0.01-2.303,0.006-3.454-0.004c-1.428-0.013-2.463-0.933-2.527-2.228
		c-0.068-1.367,0.89-2.412,2.346-2.551c0.194-0.018,0.39-0.015,0.585-0.015c12.061-0.001,24.123-0.002,36.184,0.005
		c0.405,0,0.829,0.021,1.212,0.138c1.113,0.338,1.754,1.412,1.613,2.604c-0.124,1.05-1.052,1.959-2.188,2.016
		c-1.246,0.062-2.498,0.004-3.746,0.039c-3.86,0.107-6.729,1.858-8.573,5.255c-0.24,0.442-0.4,0.929-0.585,1.401
		C32.153,46.306,32.128,46.48,32.074,46.698z"/>
	<path fill="#00C551" d="M44.877,21.052c-1.665-0.064-3.217-0.555-4.704-1.273c-3.47-1.676-6.408-3.997-8.611-7.19
		c-0.692-1.002-1.22-2.082-1.421-3.302c-0.277-1.687,0.643-2.905,2.351-3.116c1.435-0.178,2.806,0.119,4.122,0.629
		c4.126,1.596,7.538,4.15,10.037,7.82c0.601,0.883,1.068,1.922,1.331,2.957c0.522,2.049-0.583,3.382-2.696,3.476
		C45.151,21.057,45.014,21.052,44.877,21.052z M40.177,16.948c-0.02-0.087-0.047-0.281-0.109-0.463
		c-0.499-1.451-2.329-2.714-3.867-2.677c-0.873,0.021-1.306,0.653-0.895,1.425c0.845,1.587,2.324,2.298,3.994,2.649
		C39.847,17.996,40.17,17.619,40.177,16.948z M36.023,12.295c0.702,0.005,1.015-0.491,0.796-1.262
		c-0.423-1.49-2.377-2.887-3.945-2.82c-0.848,0.036-1.22,0.619-0.892,1.401C32.478,10.8,34.718,12.286,36.023,12.295z M45.717,19.09
		c0.701-0.005,0.997-0.536,0.752-1.344c-0.434-1.429-2.432-2.817-3.939-2.735c-0.823,0.045-1.181,0.602-0.877,1.365
		C42.136,17.591,44.395,19.1,45.717,19.09z M41.845,13.583c0.839,0.011,1.152-0.284,1.122-0.852
		c-0.013-0.246-0.071-0.507-0.177-0.728c-0.752-1.572-2.081-2.324-3.751-2.485c-0.891-0.086-1.338,0.626-0.921,1.429
		C38.955,12.556,40.505,13.127,41.845,13.583z"/>
	<path fill="#145DA1" d="M24.581,33.148c-0.017-0.375-0.032-0.699-0.05-1.095c-0.239,0-0.447,0-0.654,0
		c-2.497,0-4.994,0.002-7.491-0.002c-0.809-0.001-1.325-0.385-1.412-1.025c-0.111-0.814,0.454-1.388,1.399-1.39
		c2.478-0.006,4.955-0.002,7.433-0.002c0.229,0,0.457,0,0.715,0c0.025-0.332,0.045-0.599,0.063-0.835
		c0.646-0.143,1.275-0.282,2.022-0.447c-0.3-0.443-0.504-0.744-0.704-1.038c-2.557,0.687-4.773-0.903-4.706-3.351
		c0.058-2.131,2.202-3.924,4.343-3.633c0.591,0.08,1.025,0.568,1.033,1.159c0.008,0.606-0.436,1.09-1.056,1.211
		c-0.434,0.084-0.885,0.167-1.277,0.358c-0.464,0.226-0.741,0.647-0.631,1.202c0.114,0.571,0.551,0.815,1.072,0.81
		c0.941-0.009,1.558,0.259,1.719,1.316c0.06,0.395,0.47,0.737,0.771,1.178c0.151-0.306,0.265-0.537,0.385-0.779
		c0.108,0.242,0.185,0.48,0.313,0.687c0.376,0.606,0.835,1.016,1.646,0.986c1.5-0.054,3.004-0.02,4.506-0.014
		c1.523,0.006,2.507,0.956,2.505,2.407c-0.003,1.446-0.99,2.395-2.518,2.389c-2.984-0.013-5.967-0.039-8.951-0.061
		C24.92,33.175,24.785,33.16,24.581,33.148z"/>
	<path fill="#00C551" d="M48.82,19.118c0.182-1.794-0.578-3.291-1.57-4.663c-2.783-3.851-6.424-6.603-10.905-8.198
		c-1.631-0.581-3.312-0.891-5.084-0.122c0.424-1.074,1.226-1.47,2.197-1.592c1.45-0.181,2.86,0.091,4.17,0.667
		c1.723,0.757,3.386,1.649,5.19,2.539c0.323-0.15,0.846-0.355,1.334-0.624c1.428-0.788,2.269-1.925,2.127-3.647
		c-0.055-0.665,0.392-1.131,1.035-1.163c0.639-0.032,1.111,0.388,1.162,1.048c0.187,2.408-0.945,4.104-2.905,5.342
		c-0.328,0.207-0.683,0.372-1.056,0.573c0.844,0.85,1.713,1.658,2.503,2.536c1.048,1.165,1.974,2.44,2.412,3.964
		c0.203,0.707,0.237,1.491,0.186,2.23c-0.028,0.408-0.39,0.794-0.601,1.189C48.95,19.172,48.885,19.145,48.82,19.118z"/>
	<path fill="#145DA1" d="M30.125,27.5c-0.057-0.006-0.276-0.004-0.48-0.058c-0.592-0.156-0.935-0.668-0.879-1.278
		c0.052-0.576,0.467-1,1.062-1.066c0.232-0.026,0.468-0.008,0.699-0.035c0.462-0.054,0.829-0.269,0.95-0.74
		c0.119-0.461-0.037-0.895-0.431-1.127c-0.39-0.23-0.844-0.401-1.291-0.478c-0.826-0.142-1.284-0.601-1.213-1.348
		c0.065-0.692,0.613-1.095,1.429-1.042c1.152,0.074,2.189,0.444,2.969,1.32c0.996,1.118,1.238,2.411,0.673,3.808
		C33.089,26.748,31.843,27.49,30.125,27.5z"/>
	<path fill="#145DA1" d="M42.526,30.86c-0.008,1.345-1.071,2.387-2.428,2.379c-1.38-0.008-2.349-1.026-2.327-2.444
		c0.022-1.382,1.005-2.362,2.363-2.354C41.481,28.449,42.534,29.514,42.526,30.86z"/>
	<path fill="#00C551" d="M36.535,50.318c-0.011,1.315-1.075,2.367-2.393,2.367c-1.331,0-2.425-1.103-2.405-2.425
		c0.019-1.303,1.103-2.372,2.405-2.373C35.474,47.885,36.546,48.975,36.535,50.318z"/>
	<path fill="#145DA1" d="M27.523,19.106c-1.352-0.015-2.388-1.085-2.366-2.442c0.021-1.31,1.103-2.36,2.415-2.345
		c1.331,0.016,2.416,1.132,2.381,2.452C29.919,18.083,28.84,19.12,27.523,19.106z"/>
	<path fill="#00C551" d="M18.527,52.684c-1.309-0.01-2.373-1.079-2.376-2.389c-0.004-1.327,1.098-2.422,2.423-2.408
		c1.329,0.014,2.399,1.12,2.375,2.455C20.924,51.648,19.844,52.693,18.527,52.684z"/>
	<path fill="#00C551" d="M35.198,46.705c0.62,0,1.359-0.025,2.096,0.006c0.846,0.036,1.508,0.695,1.628,1.559
		c0.113,0.81-0.314,1.52-1.021,1.798c-0.329-0.69-0.548-1.459-1.01-2.032C36.44,47.476,35.74,47.116,35.198,46.705z"/>
	<path fill="#00C551" d="M14.795,50.058c-0.668-0.186-1.114-0.901-1.016-1.794c0.093-0.842,0.772-1.517,1.623-1.553
		c0.736-0.031,1.474-0.006,2.098-0.006c-0.54,0.41-1.244,0.778-1.707,1.344C15.337,48.607,15.125,49.366,14.795,50.058z"/>
	<path fill="#145DA1" d="M25.896,23.992c0.559-0.412,1.138-0.838,1.66-1.223c0.507,0.377,1.092,0.812,1.636,1.217
		c-0.8,0.272-1.393,0.885-1.628,1.952C27.27,24.913,26.728,24.228,25.896,23.992z"/>
</g>
</svg>
