<?xml version="1.0" encoding="utf-8"?>
<!-- Generator: Adobe Illustrator 17.0.0, SVG Export Plug-In . SVG Version: 6.00 Build 0)  -->
<!DOCTYPE svg PUBLIC "-//W3C//DTD SVG 1.1//EN" "http://www.w3.org/Graphics/SVG/1.1/DTD/svg11.dtd">
<svg version="1.1" id="Layer_1" xmlns="http://www.w3.org/2000/svg" xmlns:xlink="http://www.w3.org/1999/xlink" x="0px" y="0px"
	 width="55px" height="55px" viewBox="0 0 55 55" enable-background="new 0 0 55 55" xml:space="preserve">
<g>
	<g>
		<g>
			<g>
				<path fill="#00C551" d="M38.071,39.671c-2.346,0-4.258-1.909-4.258-4.259c0-2.354,1.911-4.264,4.258-4.264
					c2.359,0,4.266,1.908,4.266,4.264C42.337,37.761,40.429,39.671,38.071,39.671z"/>
			</g>
			<path fill="#00C551" d="M37.137,51.133l0.138-0.09h0.007l5.254-5.417c0.218-0.224,0.575-0.229,0.798-0.014
				c0.224,0.217,0.231,0.577,0.014,0.799l-4.879,5.032h11.439c0,0-1.252-5.655-5.07-9.789c-1.016-1.229-3.743-2.403-5.622-0.631
				c-1.543,1.45-2.444,3.777-2.969,5.827l-4.791-4.848c-0.77-0.779-2.022-0.786-2.799-0.017c-0.777,0.769-0.784,2.021-0.017,2.8
				l6.009,6.077c0.384,0.387,0.893,0.587,1.408,0.587C36.431,51.451,36.806,51.348,37.137,51.133z"/>
		</g>
		<g>
			<g>
				<path fill="#145DA1" d="M12.598,39.671c2.346,0,4.258-1.909,4.258-4.259c0-2.354-1.913-4.264-4.258-4.264
					c-2.358,0-4.264,1.908-4.264,4.264C8.332,37.761,10.239,39.671,12.598,39.671z"/>
			</g>
			<path fill="#145DA1" d="M13.532,51.133l-0.137-0.09h-0.006l-5.255-5.417c-0.217-0.224-0.575-0.229-0.797-0.014
				c-0.226,0.217-0.232,0.577-0.015,0.799l4.88,5.032H0.761c0,0,1.252-5.655,5.071-9.789c1.015-1.229,3.742-2.403,5.622-0.631
				c1.539,1.45,2.443,3.777,2.968,5.827l4.793-4.848c0.769-0.779,2.021-0.786,2.798-0.017c0.776,0.769,0.782,2.021,0.017,2.8
				l-6.009,6.077c-0.385,0.387-0.894,0.587-1.408,0.587C14.239,51.451,13.864,51.348,13.532,51.133z"/>
		</g>
		<g>
			<polygon fill="#06141E" points="23.444,23.166 23.444,34.059 27.29,34.059 27.29,26.993 50.394,26.993 50.394,51.5 54.239,51.5 
				54.239,23.166 			"/>
			<rect x="23.444" y="37.345" fill="#06141E" width="3.846" height="14.155"/>
		</g>
		<g>
			<path fill="#00C551" d="M37.873,20.324c0.498-0.175,1.001-0.297,1.452-0.523c0.719-0.361,1.207-0.959,1.455-1.731
				c0.053-0.165,0.131-0.195,0.285-0.194c1.122,0.006,2.244,0.003,3.366,0.003c0.134,0,0.268,0,0.421,0c0-1.674,0-3.336,0-5.019
				c-1.985,0-3.978,0-5.999,0c0,0.327,0,0.661,0,1.068c-0.398-0.375-0.747-0.699-1.088-1.032c-0.041-0.04-0.047-0.13-0.047-0.197
				c-0.002-1.477-0.005-2.955,0-4.432c0.002-0.584,0.405-1.031,0.988-1.073c0.425-0.03,0.853-0.02,1.279-0.014
				c0.165,0.002,0.246-0.038,0.254-0.217c0.007-0.164,0.048-0.327,0.079-0.519c-0.299,0-0.586,0-0.885,0c0-0.995,0-1.962,0-2.944
				c1.699,0,3.385,0,5.086,0c0,0.974,0,1.935,0,2.927c-0.285,0-0.572,0-0.884,0c0.039,0.257,0.072,0.481,0.109,0.727
				c0.078,0.004,0.154,0.012,0.23,0.013c0.371,0.002,0.743-0.006,1.114,0.003c0.709,0.018,1.145,0.465,1.146,1.171
				c0.002,1.699,0.001,3.397,0.001,5.096c0,2.062,0,4.124-0.001,6.186c0,0.771-0.43,1.214-1.196,1.216
				c-2.046,0.004-4.092,0.003-6.139,0.002C38.452,20.84,38.089,20.682,37.873,20.324z"/>
			<path fill="#00C551" d="M32.261,9.183c0.918,0.011,1.594,0.328,2.143,0.938c1.29,1.433,2.585,2.86,3.878,4.29
				c0.35,0.387,0.698,0.775,1.05,1.16c0.666,0.73,0.891,1.567,0.508,2.492c-0.398,0.962-1.181,1.439-2.2,1.505
				c-0.825,0.053-1.539-0.235-2.1-0.852c-1.695-1.865-3.391-3.729-5.071-5.608c-0.652-0.729-0.822-1.584-0.408-2.486
				C30.505,9.657,31.322,9.231,32.261,9.183z M36.176,13.32c-0.85-0.925-1.654-1.869-2.534-2.734
				c-0.634-0.623-1.733-0.517-2.335,0.12c-0.589,0.623-0.555,1.477,0.088,2.187c0.296,0.328,0.593,0.656,0.889,0.983
				c0.443,0.489,0.887,0.978,1.341,1.479C34.476,14.675,35.313,14.008,36.176,13.32z"/>
		</g>
	</g>
</g>
</svg>
