<?xml version="1.0" encoding="utf-8"?>
<!-- Generator: Adobe Illustrator 17.0.0, SVG Export Plug-In . SVG Version: 6.00 Build 0)  -->
<!DOCTYPE svg PUBLIC "-//W3C//DTD SVG 1.1//EN" "http://www.w3.org/Graphics/SVG/1.1/DTD/svg11.dtd">
<svg version="1.1" id="Layer_1" xmlns="http://www.w3.org/2000/svg" xmlns:xlink="http://www.w3.org/1999/xlink" x="0px" y="0px"
	 width="55px" height="55px" viewBox="0 0 55 55" enable-background="new 0 0 55 55" xml:space="preserve">
<g>
	<path fill="#00C551" d="M23.575,48.977c0,1.394,1.13,2.523,2.523,2.523c1.394,0,2.524-1.13,2.524-2.523v-4.198h-5.047
		L23.575,48.977L23.575,48.977z"/>
	<path fill="#00C551" d="M25.878,38.131l-0.015-0.002l-0.015-0.002c-0.914-0.17-1.673-0.476-2.273-0.913v1.033h3.539
		C26.718,38.215,26.309,38.178,25.878,38.131z"/>
	<path fill="#00C551" d="M29.568,48.977c0,1.394,1.13,2.523,2.523,2.523c1.394,0,2.524-1.13,2.524-2.523v-4.198h-5.047
		L29.568,48.977L29.568,48.977z"/>
	<path fill="#00C551" d="M34.616,38.247v-0.552c-1.078,0.274-2.08,0.452-3.087,0.552H34.616z"/>
	<path fill="#00C551" d="M27.936,24.674L27.936,24.674h-0.001c-0.064,0-0.13,0-0.195-0.001l0.691,5.412
		c2.161-0.144,4.38-0.613,6.186-0.996v-0.116v-3.866v-0.98C32.949,24.494,30.812,24.665,27.936,24.674z"/>
	<path fill="#00C551" d="M12.27,23.063c-0.01-0.013-0.017-0.027-0.027-0.04c-0.364,0.299-0.596,0.753-0.596,1.261
		c0,0.902,0.731,1.633,1.633,1.633c0.004,0,0.007,0,0.011,0c1.839,0,3.497-0.436,4.934-1.117l-4.008-0.58
		C13.434,24.108,12.743,23.697,12.27,23.063z"/>
	<path fill="#00C551" d="M24.93,19.791c0.62,0.09,1.177,0.374,1.611,0.786h0.014c0.461,0.009,0.905,0.014,1.328,0.014h0.051h0.182
		c3.284,0,5.416-0.327,6.499-0.684v-1.624c0.336,0.319,0.634,0.649,0.833,0.934c0.086,0.122,0.151,0.232,0.198,0.326
		c0.022,0.043,0.041,0.083,0.054,0.118c0.022,0.055,0.033,0.095,0.038,0.121c-0.049,0.052-0.179,0.164-0.461,0.299h0
		c-0.916,0.461-3.265,0.932-7.344,0.918c-0.442,0-0.905-0.005-1.388-0.014c-0.902-0.018-1.647,0.698-1.666,1.599
		c-0.018,0.902,0.698,1.647,1.6,1.666c0.503,0.01,0.988,0.015,1.454,0.015c4.311-0.014,6.944-0.397,8.749-1.237
		c0.002-0.001,0.004-0.001,0.006-0.002c0.458-0.22,0.87-0.483,1.223-0.806c0.161-0.148,0.311-0.307,0.446-0.482
		c0.432-0.553,0.662-1.268,0.654-1.918c-0.016-1.092-0.485-1.915-0.985-2.611c-0.772-1.038-1.764-1.865-2.581-2.489
		c-0.817-0.617-1.457-1.005-1.49-1.025c-0.134-0.081-0.275-0.139-0.419-0.178c-0.157-0.052-0.325-0.082-0.499-0.082h-7.886
		c-0.098,0-0.194,0.01-0.287,0.027c-0.685-0.037-1.347,0.364-1.609,1.038h0c0,0,0,0-0.003,0.008
		c-0.066,0.172-0.969,2.331-2.677,4.339c-0.079,0.093-0.161,0.185-0.242,0.277L24.93,19.791z"/>
	<circle fill="#00C551" cx="28.656" cy="8.093" r="4.593"/>
	<ellipse fill="#145DA1" cx="45.479" cy="28.576" rx="4.592" ry="4.592"/>
	<path fill="#145DA1" d="M37.244,36.468c2.98-1.053,3.904-3.587,3.455-5.326c-0.449-1.739-2.887-2.484-4.913-1.88
		c-2.132,0.437-4.955,1.12-7.712,1.254l-0.746-5.844c-0.277-0.002-0.563-0.006-0.855-0.012c-1.125-0.023-2.022-0.957-2-2.082
		c0.019-0.924,0.665-1.701,1.521-1.93c-0.325-0.233-0.706-0.392-1.122-0.453l-9.866-1.429c-1.394-0.202-2.689,0.765-2.89,2.159
		c-0.202,1.394,0.764,2.689,2.159,2.891l7.945,1.151l0.692,5.417c2.432,0.782,4.961,1.182,7.523,1.182
		c3.694,0,6.126-0.828,6.15-0.837c0.22-0.077,0.447-0.115,0.675-0.115c0.865,0,1.639,0.549,1.926,1.365
		c0.181,0.514,0.151,1.068-0.086,1.56c-0.236,0.492-0.649,0.862-1.163,1.042c-0.532,0.181-3.339,1.066-7.502,1.068
		c-3.125,0-6.209-0.506-9.166-1.503c-0.516-0.174-0.934-0.539-1.176-1.028c-0.242-0.489-0.28-1.042-0.105-1.559
		c0.153-0.453,0.454-0.824,0.838-1.069c-0.936-0.075-1.969-0.122-3.102-0.122c-3.647,0-8.279,0.483-13.66,2.047
		c-1.353,0.393-2.132,1.809-1.738,3.162c0.324,1.115,1.343,1.84,2.449,1.84c0.236,0,0.475-0.033,0.713-0.102h0
		c4.898-1.423,9.036-1.843,12.236-1.844c2.181,0,3.924,0.196,5.169,0.407c0.505,0.852,1.413,1.547,3.03,1.847
		C30.461,38.214,33.139,37.892,37.244,36.468z"/>
	<path fill="#145DA1" d="M20.373,31.69c-0.288,0.854,0.171,1.781,1.025,2.069c3.342,1.127,6.451,1.482,9.036,1.482
		c4.367-0.002,7.244-1.003,7.366-1.044c0.851-0.299,1.298-1.231,0.999-2.082c-0.298-0.849-1.228-1.297-2.078-1.001l0,0l-0.004,0.001
		l0,0c-0.119,0.041-2.602,0.861-6.284,0.86c-2.288,0-5.036-0.314-7.992-1.311C21.588,30.376,20.661,30.835,20.373,31.69z"/>
	<path fill="#145DA1" d="M42.876,33.811c-0.676,0-1.225,0.548-1.225,1.225v1.361c0,0.676,0.548,1.225,1.225,1.225h7.144
		c0.676,0,1.225-0.548,1.225-1.225v-1.361c0-0.676-0.548-1.225-1.225-1.225H42.876z"/>
	<path fill="#06141E" d="M1.918,44.37h1.755v7.13h2.239v-7.13h43.176v7.13h2.239v-7.13h1.755c0.676,0,1.225-0.549,1.225-1.225
		v-3.266c0-0.676-0.548-1.225-1.225-1.225H1.918c-0.676,0-1.225,0.548-1.225,1.225v3.266C0.693,43.821,1.242,44.37,1.918,44.37z"/>
</g>
</svg>
