<?xml version="1.0" encoding="utf-8"?>
<!-- Generator: Adobe Illustrator 17.0.0, SVG Export Plug-In . SVG Version: 6.00 Build 0)  -->
<!DOCTYPE svg PUBLIC "-//W3C//DTD SVG 1.1//EN" "http://www.w3.org/Graphics/SVG/1.1/DTD/svg11.dtd">
<svg version="1.1" id="Layer_1" xmlns="http://www.w3.org/2000/svg" xmlns:xlink="http://www.w3.org/1999/xlink" x="0px" y="0px"
	 width="55px" height="55px" viewBox="0 0 55 55" enable-background="new 0 0 55 55" xml:space="preserve">
<g>
	<g>
		<path fill="#145DA1" d="M36.672,42.636v-0.998c0-2.804-1.568-5.274-3.944-6.747v2.993c0,0.808-0.618,1.426-1.426,1.426
			s-1.426-0.618-1.426-1.426v-5.131h-1.331H27.5h-0.998h-1.284v5.131c0,0.808-0.618,1.426-1.426,1.426
			c-0.808,0-1.426-0.618-1.426-1.426v-2.993c-2.423,1.473-3.991,3.944-3.991,6.747v0.998c0,0.38-0.285,0.666-0.665,0.808
			l-0.665,0.142v2.566h20.908v-2.566l-0.618-0.142C36.956,43.301,36.672,43.016,36.672,42.636z"/>
		<path fill="#145DA1" d="M41.993,2.315H13.007c-3.421,0-6.177,2.756-6.177,6.177v38.015c0,3.421,2.756,6.177,6.177,6.177h28.987
			c3.421,0,6.177-2.756,6.177-6.177V8.492C48.171,5.071,45.415,2.315,41.993,2.315z M45.32,46.508c0,1.853-1.473,3.326-3.326,3.326
			H13.007c-1.853,0-3.326-1.473-3.326-3.326V8.492c0-1.853,1.473-3.326,3.326-3.326h28.987c1.853,0,3.326,1.473,3.326,3.326V46.508z
			"/>
		<rect x="13.007" y="12.659" fill="#06141E" width="28.987" height="2.028"/>
		<rect x="13.007" y="8.492" fill="#06141E" width="28.987" height="2.028"/>
	</g>
	<path fill="#00C551" d="M35.461,22.959h-3.055l-2.028-5.535c-0.142-0.39-0.503-0.642-0.919-0.642c-0.457,0-0.839,0.296-0.95,0.737
		l-1.976,7.777l-1.803-5.244c-0.137-0.401-0.503-0.661-0.929-0.661c-0.358,0-0.678,0.186-0.853,0.5l-1.721,3.067h-1.687
		c-0.54,0-0.98,0.44-0.98,0.98c0,0.54,0.44,0.981,0.98,0.981h2.262c0.356,0,0.683-0.193,0.854-0.501l0.93-1.658l2.16,6.282
		c0.138,0.401,0.501,0.661,0.926,0.661c0.457,0,0.839-0.296,0.951-0.737l2.004-7.889l1.172,3.2c0.14,0.385,0.51,0.643,0.919,0.643
		h3.742c0.54,0,0.98-0.44,0.98-0.981C36.441,23.399,36.001,22.959,35.461,22.959z"/>
</g>
</svg>
