<?xml version="1.0" encoding="utf-8"?>
<!-- Generator: Adobe Illustrator 17.0.0, SVG Export Plug-In . SVG Version: 6.00 Build 0)  -->
<!DOCTYPE svg PUBLIC "-//W3C//DTD SVG 1.1//EN" "http://www.w3.org/Graphics/SVG/1.1/DTD/svg11.dtd">
<svg version="1.1" id="Layer_1" xmlns="http://www.w3.org/2000/svg" xmlns:xlink="http://www.w3.org/1999/xlink" x="0px" y="0px"
	 width="55px" height="55px" viewBox="0 0 55 55" enable-background="new 0 0 55 55" xml:space="preserve">
<g>
	<path fill="#00C551" d="M48.099,25.742l-4.285,1.208l0,0c0.11,0.439,0.055,0.879-0.165,1.263c-0.22,0.439-0.604,0.714-1.044,0.824
		c-0.439,0.11-0.934,0.055-1.373-0.165L38.761,27.5l0.22-0.439l2.472,1.373c0.33,0.165,0.659,0.22,0.989,0.11
		c0.33-0.11,0.604-0.33,0.769-0.604c0.11-0.165,0.165-0.33,0.165-0.494c0.055-0.439-0.11-0.879-0.494-1.099l-5.987-3.241
		c0,0-0.604-0.439-1.483-0.165l0,0c-0.165,0.055-6.592,1.868-6.866,1.923l0,0l1.318,4.614l4.285-1.208
		c0.439,0.275,3.735,2.307,4.12,2.527c0.714,0.439,1.648,0.22,1.813,0.165l8.789-2.472c0.604-0.165,1.099-0.989,0.879-1.813
		C49.527,25.962,48.813,25.577,48.099,25.742z"/>
	<path fill="#00C551" d="M48.483,18.656h-0.769c-0.11-0.439-0.275-0.879-0.549-1.263l0.659-0.659
		c0.055-0.055,0.055-0.11,0.055-0.165c0-0.055,0-0.11-0.055-0.165l-0.879-0.879c-0.11-0.11-0.275-0.11-0.33,0l-0.659,0.659
		c-0.33-0.22-0.769-0.385-1.154-0.494v-0.824c0-0.11-0.11-0.22-0.22-0.22h-1.208c-0.11,0-0.22,0.11-0.22,0.22v0.824
		c-0.439,0.11-0.824,0.275-1.208,0.494l-0.714-0.714c-0.11-0.11-0.275-0.11-0.33,0l-0.879,0.879
		c-0.055,0.055-0.055,0.11-0.055,0.165c0,0.055,0,0.11,0.055,0.165l0.659,0.659c-0.275,0.385-0.439,0.824-0.549,1.318h-0.769
		c-0.11,0-0.22,0.11-0.22,0.22v1.208c0,0.11,0.11,0.22,0.22,0.22h0.769c0.11,0.439,0.275,0.824,0.494,1.208l-0.604,0.604
		c-0.055,0.055-0.055,0.11-0.055,0.165c0,0.055,0,0.11,0.055,0.165l0.879,0.879c0.055,0.055,0.11,0.055,0.165,0.055
		c0.055,0,0.11,0,0.165-0.055l0.604-0.604c0.385,0.275,0.824,0.439,1.318,0.549v0.714c0,0.11,0.11,0.22,0.22,0.22h1.154
		c0.11,0,0.22-0.11,0.22-0.22V23.27c0.439-0.11,0.879-0.275,1.263-0.549l0.494,0.494c0.055,0.055,0.11,0.055,0.165,0.055
		c0.055,0,0.11,0,0.165-0.055l0.879-0.879c0.055-0.055,0.055-0.11,0.055-0.165c0-0.055,0-0.11-0.055-0.165l-0.549-0.549
		c0.22-0.385,0.385-0.769,0.494-1.208h0.769c0.11,0,0.22-0.11,0.22-0.22v-1.208C48.703,18.766,48.593,18.656,48.483,18.656z
		 M43.924,21.897c-1.318,0-2.417-1.099-2.417-2.417c0-1.318,1.099-2.417,2.417-2.417s2.417,1.099,2.417,2.417
		C46.341,20.799,45.242,21.897,43.924,21.897z"/>
	<path fill="#06141E" d="M52.987,8H2.013C1.299,8,0.749,8.549,0.749,9.263v32.463c0,0.714,0.549,1.263,1.263,1.263h2.801v-2.527
		H3.276V10.472h48.503v29.992H33.542v2.527h19.445c0.714,0,1.263-0.549,1.263-1.263V9.208C54.251,8.549,53.701,8,52.987,8z"/>
	<path fill="#06141E" d="M18.382,40.408l-0.769,3.241l2.527-1.813l-0.33-1.428l1.044-1.208c0.055-0.055,0.055-0.11,0-0.165
		l-0.659-1.593c0-0.055-0.055-0.055-0.11-0.055h-2.032c-0.055,0-0.11,0.055-0.11,0.055l-0.604,1.593c0,0.055,0,0.11,0,0.165
		L18.382,40.408z"/>
	<path fill="#145DA1" d="M19.096,20.139c-4.065,0-7.306,3.296-7.306,7.306c0,4.065,3.296,7.306,7.306,7.306
		c4.065,0,7.306-3.296,7.306-7.306C26.456,23.435,23.161,20.139,19.096,20.139z M19.096,33.158c-3.131,0-5.658-2.527-5.658-5.658
		c0-0.494,0.055-0.934,0.165-1.373c0.659,0.33,1.868,0.824,3.241,0.824c0.989,0,2.087-0.22,3.076-0.989
		c0.11-0.055,2.582-1.868,4.614-0.055c0.165,0.494,0.22,1.044,0.22,1.648C24.808,30.576,22.227,33.158,19.096,33.158z"/>
	<polygon fill="#06141E" points="21.403,47 21.018,45.462 18.821,47 	"/>
	<polygon fill="#06141E" points="17.283,47 20.799,44.528 20.414,42.77 17.283,44.968 16.789,47 	"/>
	<path fill="#145DA1" d="M32.279,47v-3.296c0-3.515-2.856-6.372-6.372-6.372h-0.22L22.776,47H32.279z"/>
	<path fill="#145DA1" d="M15.415,47l-2.801-9.668h-0.275c-3.515,0-6.372,2.856-6.372,6.372V47H15.415z"/>
</g>
</svg>
