<?xml version="1.0" encoding="utf-8"?>
<!-- Generator: Adobe Illustrator 17.0.0, SVG Export Plug-In . SVG Version: 6.00 Build 0)  -->
<!DOCTYPE svg PUBLIC "-//W3C//DTD SVG 1.1//EN" "http://www.w3.org/Graphics/SVG/1.1/DTD/svg11.dtd">
<svg version="1.1" id="Layer_1" xmlns="http://www.w3.org/2000/svg" xmlns:xlink="http://www.w3.org/1999/xlink" x="0px" y="0px"
	 width="55px" height="55px" viewBox="0 0 55 55" enable-background="new 0 0 55 55" xml:space="preserve">
<g>
	<path fill="#00C551" d="M41.052,17.111H5.478c-1.863,0-3.388,1.525-3.388,3.388c0,1.863,1.525,3.388,3.388,3.388h35.574
		c1.863,0,3.388-1.525,3.388-3.388C44.44,18.635,42.916,17.111,41.052,17.111z"/>
	<path fill="#06141E" d="M32.751,15.417h4.489L26.484,2.881c-0.593-0.678-1.694-0.762-2.372-0.169l0,0
		c-0.678,0.593-0.762,1.694-0.169,2.372L32.751,15.417z"/>
	<path fill="#06141E" d="M13.778,15.417l8.809-10.334c0.593-0.678,0.508-1.779-0.169-2.372l0,0
		c-0.678-0.593-1.779-0.508-2.372,0.169L9.289,15.417H13.778z"/>
	<path fill="#00C551" d="M29.194,41.674c0-2.88,0.932-5.506,2.541-7.623v-3.388c0-0.932,0.762-1.694,1.694-1.694
		c0.932,0,1.694,0.762,1.694,1.694v0.254c1.863-1.186,4.066-1.863,6.437-1.948l0.508-3.473c-0.339,0.085-0.678,0.085-1.016,0.085
		H5.478c-0.339,0-0.678,0-1.016-0.085l2.287,15.839c0.254,1.694,1.694,2.88,3.388,2.88h19.312
		C29.279,43.368,29.194,42.521,29.194,41.674z M14.795,39.133c0,0.932-0.762,1.694-1.694,1.694c-0.932,0-1.694-0.762-1.694-1.694
		v-8.47c0-0.932,0.762-1.694,1.694-1.694c0.932,0,1.694,0.762,1.694,1.694V39.133z M24.959,39.133c0,0.932-0.762,1.694-1.694,1.694
		s-1.694-0.762-1.694-1.694v-8.47c0-0.932,0.762-1.694,1.694-1.694s1.694,0.762,1.694,1.694V39.133z"/>
	<g>
		<circle fill="#145DA1" cx="41.899" cy="41.674" r="3.388"/>
		<path fill="#145DA1" d="M41.899,30.663c-6.098,0-11.011,4.913-11.011,11.011s4.913,11.011,11.011,11.011
			S52.91,47.772,52.91,41.674S47.998,30.663,41.899,30.663z M48.506,43.199c-0.169,0.762-0.424,1.44-0.847,2.033l1.44,2.372
			l-1.186,1.186l-2.372-1.44c-0.593,0.424-1.355,0.678-2.033,0.847l-0.762,2.795h-1.694l-0.678-2.71
			c-0.762-0.169-1.44-0.424-2.033-0.847l-2.372,1.44l-1.186-1.186l1.44-2.372c-0.424-0.593-0.678-1.355-0.847-2.033l-2.795-0.762
			v-1.694l2.71-0.678c0.169-0.762,0.424-1.44,0.847-2.033l-1.44-2.372l1.186-1.186l2.372,1.44c0.593-0.424,1.355-0.678,2.033-0.847
			l0.762-2.795h1.694l0.678,2.71c0.762,0.169,1.44,0.424,2.033,0.847l2.372-1.44l1.186,1.186l-1.44,2.372
			c0.424,0.593,0.678,1.355,0.847,2.033l2.795,0.762v1.694L48.506,43.199z"/>
	</g>
</g>
</svg>
