<?xml version="1.0" encoding="utf-8"?>
<!-- Generator: Adobe Illustrator 17.0.0, SVG Export Plug-In . SVG Version: 6.00 Build 0)  -->
<!DOCTYPE svg PUBLIC "-//W3C//DTD SVG 1.1//EN" "http://www.w3.org/Graphics/SVG/1.1/DTD/svg11.dtd">
<svg version="1.1" id="Layer_1" xmlns="http://www.w3.org/2000/svg" xmlns:xlink="http://www.w3.org/1999/xlink" x="0px" y="0px"
	 width="25px" height="25px" viewBox="0 0 25 25" enable-background="new 0 0 25 25" xml:space="preserve">
<g>
	<path fill="#00BD51" d="M23.25,19.503c-0.739,0.005-1.48,0.01-2.221,0.013l-0.896,0.001v-8.287h0.124
		c0.19,0,0.381-0.001,0.571-0.003c0.437-0.003,0.875-0.008,1.313,0.009l0.079,0.001c0.588,0,0.964-0.265,1.151-0.811l0.007-5.04
		l-0.008-0.044c-0.201-0.531-0.593-0.79-1.197-0.79c-0.031,0-0.063,0.001-0.094,0.002c-0.426,0.019-0.854,0.015-1.281,0.009
		c-0.187-0.001-0.374-0.003-0.561-0.003h-0.112c-0.005-0.037-0.01-0.072-0.015-0.108c-0.021-0.146-0.04-0.285-0.079-0.422
		c-0.275-0.989-1.175-1.654-2.238-1.654l-11.166,0c-0.883,0-1.766,0-2.649,0.001C2.891,2.378,2.052,2.954,1.734,3.917
		C1.704,4.008,1.679,4.1,1.655,4.192l-0.03,0.11L1.62,5.461l0.182,0.012C1.86,5.478,1.917,5.482,1.974,5.482l3.254,0.001
		c0.041,0,0.083,0.002,0.125,0.005l0,5.261c0,3.185,0,6.37-0.002,9.554c-0.001,0.815,0.33,1.465,0.983,1.928
		c0.373,0.265,0.809,0.394,1.333,0.394h0.006c1.313-0.002,2.625-0.002,3.937-0.002l3.5,0.001l6.188-0.001
		c1.074-0.001,1.817-0.604,2.04-1.655c0.001-0.01,0.008-0.024,0.015-0.04l0.016-0.035l0.009-1.265l-0.004-0.126L23.25,19.503z
		 M9.091,19.653c0,0.004,0.027,0.36-0.025,0.918c-0.072,0.773-0.727,1.32-1.559,1.293c-0.764-0.034-1.39-0.677-1.395-1.433
		c-0.007-1.039-0.006-2.078-0.004-3.118L6.108,4.701c0-0.612-0.2-1.149-0.595-1.599l8.49,0l3.753,0c0.779,0,1.366,0.438,1.532,1.142
		c0.021,0.09,0.03,0.184,0.041,0.284c0.001,0.009,0.002,0.019,0.003,0.027c-0.038,0.002-0.073,0.004-0.108,0.004l-5.251,0
		c-0.128,0-0.264,0.001-0.395,0.021c-0.499,0.076-0.862,0.485-0.864,0.973c-0.007,1.695-0.007,3.228,0,4.685
		c0.003,0.563,0.462,0.988,1.068,0.989c1.208,0.001,2.417,0.001,3.626,0.001h1.91v8.285h-3.298c-2.115,0-4.231,0-6.346,0.003H9.08
		L9.091,19.653z M21.756,21.783c-0.125,0.036-0.267,0.055-0.421,0.056c-2.03,0.001-4.06,0.002-6.09,0.002L9.247,21.84
		c0.426-0.514,0.512-0.786,0.569-1.615h12.803C22.735,20.932,22.369,21.605,21.756,21.783z M5.353,4.717H2.376
		c-0.013-0.592,0.206-1.028,0.667-1.33C3.554,3.051,4.092,3.039,4.611,3.35C5.105,3.648,5.349,4.095,5.353,4.717z M7.668,22.499
		L7.668,22.499L7.668,22.499L7.668,22.499z"/>
	<g>
		<rect x="7.135" y="16.037" fill="#00BD51" width="10.275" height="0.726"/>
		<rect x="7.141" y="12.378" fill="#00BD51" width="9.303" height="0.725"/>
		<rect x="7.136" y="14.188" fill="#00BD51" width="6.386" height="0.724"/>
		<rect x="7.141" y="8.681" fill="#00BD51" width="4.767" height="0.725"/>
		<rect x="7.144" y="5.022" fill="#00BD51" width="4.257" height="0.725"/>
		<rect x="7.14" y="6.867" fill="#00BD51" width="3.994" height="0.729"/>
		<rect x="7.142" y="10.53" fill="#00BD51" width="3.386" height="0.723"/>
	</g>
	<path fill="#FFFFFF" d="M17.361,7.67c-1.049,0-2.087,0-3.134,0c0-0.612,0-1.21,0-1.822c1.047,0,2.084,0,3.134,0
		C17.361,6.45,17.361,7.048,17.361,7.67z M14.731,7.164c0.725,0,1.44,0,2.161,0c0-0.29,0-0.565,0-0.841c-0.729,0-1.443,0-2.161,0
		C14.731,6.609,14.731,6.88,14.731,7.164z"/>
	<path fill="#FFFFFF" d="M21.905,6.118c0,0.16,0,0.307,0,0.47c-1.068,0-2.133,0-3.212,0c0-0.15,0-0.301,0-0.47
		C19.755,6.118,20.82,6.118,21.905,6.118z"/>
	<path fill="#FFFFFF" d="M20.142,7.599c0-0.159,0-0.31,0-0.476c0.579,0,1.157,0,1.751,0c0,0.149,0,0.305,0,0.476
		C21.317,7.599,20.735,7.599,20.142,7.599z"/>
	<path fill="#FFFFFF" d="M21.053,9.686c-0.152,0-0.302,0-0.47,0c0-0.155,0-0.31,0-0.478c0.152,0,0.303,0,0.47,0
		C21.053,9.361,21.053,9.517,21.053,9.686z"/>
	<path fill="#FFFFFF" d="M14.371,9.687c-0.162,0-0.312,0-0.476,0c0-0.157,0-0.306,0-0.474c0.151,0,0.306,0,0.476,0
		C14.371,9.362,14.371,9.512,14.371,9.687z"/>
	<path fill="#FFFFFF" d="M22.152,9.687c-0.162,0-0.312,0-0.476,0c0-0.157,0-0.306,0-0.474c0.151,0,0.306,0,0.476,0
		C22.152,9.362,22.152,9.512,22.152,9.687z"/>
	<path fill="#FFFFFF" d="M19.951,9.687c-0.162,0-0.312,0-0.476,0c0-0.157,0-0.306,0-0.474c0.151,0,0.306,0,0.476,0
		C19.951,9.362,19.951,9.512,19.951,9.687z"/>
	<path fill="#FFFFFF" d="M16.557,9.687c-0.162,0-0.312,0-0.476,0c0-0.157,0-0.306,0-0.474c0.151,0,0.306,0,0.476,0
		C16.557,9.362,16.557,9.512,16.557,9.687z"/>
	<path fill="#FFFFFF" d="M15.465,9.687c-0.162,0-0.312,0-0.476,0c0-0.157,0-0.306,0-0.474c0.151,0,0.306,0,0.476,0
		C15.465,9.362,15.465,9.512,15.465,9.687z"/>
	<path fill="#FFFFFF" d="M17.254,9.206c0.167,0,0.317,0,0.48,0c0,0.161,0,0.31,0,0.477c-0.157,0-0.312,0-0.48,0
		C17.254,9.527,17.254,9.377,17.254,9.206z"/>
	<path fill="#FFFFFF" d="M18.841,9.212c0,0.164,0,0.308,0,0.47c-0.161,0-0.315,0-0.484,0c0-0.154,0-0.303,0-0.47
		C18.514,9.212,18.668,9.212,18.841,9.212z"/>
</g>
</svg>
