<?xml version="1.0" encoding="utf-8"?>
<!-- Generator: Adobe Illustrator 17.0.0, SVG Export Plug-In . SVG Version: 6.00 Build 0)  -->
<!DOCTYPE svg PUBLIC "-//W3C//DTD SVG 1.1//EN" "http://www.w3.org/Graphics/SVG/1.1/DTD/svg11.dtd">
<svg version="1.1" id="Layer_1" xmlns="http://www.w3.org/2000/svg" xmlns:xlink="http://www.w3.org/1999/xlink" x="0px" y="0px"
	 width="25px" height="25px" viewBox="0 0 25 25" enable-background="new 0 0 25 25" xml:space="preserve">
<g opacity="0.5">
	<g>
		<rect x="7.136" y="16.036" fill="#2C2F33" width="10.275" height="0.726"/>
		<rect x="7.142" y="12.377" fill="#2C2F33" width="9.303" height="0.725"/>
		<rect x="7.137" y="14.188" fill="#2C2F33" width="6.386" height="0.724"/>
		<rect x="7.142" y="8.68" fill="#2C2F33" width="4.767" height="0.725"/>
		<rect x="7.145" y="5.021" fill="#2C2F33" width="4.257" height="0.725"/>
		<rect x="7.141" y="6.866" fill="#2C2F33" width="3.994" height="0.729"/>
		<rect x="7.143" y="10.529" fill="#2C2F33" width="3.386" height="0.723"/>
	</g>
	<g>
		<path fill="#2C2F33" d="M14.732,7.164c0.725,0,1.44,0,2.161,0c0-0.29,0-0.565,0-0.841c-0.729,0-1.443,0-2.161,0
			C14.732,6.608,14.732,6.879,14.732,7.164z"/>
		<path fill="#2C2F33" d="M23.375,19.501l-0.124,0.001c-0.739,0.005-1.48,0.01-2.221,0.013l-0.896,0.001v-8.287h0.124
			c0.19,0,0.381-0.001,0.571-0.003c0.437-0.003,0.875-0.008,1.313,0.009l0.079,0.001c0.588,0,0.964-0.265,1.151-0.811l0.007-5.04
			l-0.008-0.044c-0.201-0.531-0.593-0.79-1.197-0.79c-0.031,0-0.063,0.001-0.094,0.002c-0.426,0.019-0.854,0.015-1.281,0.009
			c-0.187-0.001-0.374-0.003-0.561-0.003h-0.112c-0.005-0.037-0.01-0.072-0.015-0.108c-0.021-0.146-0.04-0.285-0.079-0.422
			c-0.275-0.989-1.175-1.654-2.238-1.654H6.628c-0.883,0-1.766,0-2.649,0.001c-1.087,0.001-1.926,0.577-2.244,1.54
			C1.705,4.008,1.68,4.099,1.656,4.191l-0.03,0.11L1.621,5.461l0.182,0.012c0.058,0.005,0.115,0.009,0.172,0.009l3.254,0.001
			c0.041,0,0.083,0.002,0.125,0.005v5.261c0,3.185,0,6.37-0.002,9.554c-0.001,0.815,0.33,1.465,0.983,1.928
			c0.373,0.265,0.809,0.394,1.333,0.394h0.006c1.313-0.002,2.625-0.002,3.937-0.002l3.5,0.001l6.188-0.001
			c1.074-0.001,1.817-0.604,2.04-1.655c0.001-0.01,0.008-0.024,0.015-0.04l0.016-0.035l0.009-1.265L23.375,19.501z M20.143,7.599
			c0-0.159,0-0.31,0-0.476c0.579,0,1.157,0,1.751,0c0,0.149,0,0.305,0,0.476C21.318,7.599,20.736,7.599,20.143,7.599z M21.054,9.685
			c-0.152,0-0.302,0-0.47,0c0-0.155,0-0.31,0-0.478c0.152,0,0.303,0,0.47,0C21.054,9.36,21.054,9.516,21.054,9.685z M22.153,9.212
			c0,0.149,0,0.299,0,0.474c-0.162,0-0.312,0-0.476,0c0-0.157,0-0.306,0-0.474C21.828,9.212,21.983,9.212,22.153,9.212z
			 M21.906,6.117c0,0.16,0,0.307,0,0.47c-1.068,0-2.133,0-3.212,0c0-0.15,0-0.301,0-0.47C19.756,6.117,20.821,6.117,21.906,6.117z
			 M19.952,9.212c0,0.149,0,0.299,0,0.474c-0.162,0-0.312,0-0.476,0c0-0.157,0-0.306,0-0.474
			C19.627,9.212,19.782,9.212,19.952,9.212z M18.842,9.211c0,0.164,0,0.308,0,0.47c-0.161,0-0.315,0-0.484,0c0-0.154,0-0.303,0-0.47
			C18.515,9.211,18.669,9.211,18.842,9.211z M2.377,4.716c-0.013-0.592,0.206-1.028,0.667-1.33C3.555,3.05,4.093,3.039,4.612,3.349
			C5.106,3.647,5.35,4.094,5.354,4.716H2.377z M9.067,20.57c-0.072,0.773-0.727,1.32-1.559,1.293
			c-0.764-0.034-1.39-0.677-1.395-1.433c-0.007-1.039-0.006-2.078-0.004-3.118V4.701c0-0.612-0.2-1.149-0.595-1.599h8.49h3.753
			c0.779,0,1.366,0.438,1.532,1.142c0.021,0.09,0.03,0.184,0.041,0.284c0.001,0.009,0.002,0.019,0.003,0.027
			c-0.038,0.002-0.073,0.004-0.108,0.004h-5.251c-0.128,0-0.264,0.001-0.395,0.021c-0.499,0.076-0.862,0.485-0.864,0.973
			c-0.007,1.695-0.007,3.228,0,4.685c0.003,0.563,0.462,0.988,1.068,0.989c1.208,0.001,2.417,0.001,3.626,0.001h1.91v8.285h-3.298
			c-2.115,0-4.231,0-6.346,0.003H9.081l0.011,0.137C9.092,19.656,9.119,20.013,9.067,20.57z M14.228,7.669c0-0.612,0-1.21,0-1.822
			c1.047,0,2.084,0,3.134,0c0,0.602,0,1.2,0,1.822C16.313,7.669,15.275,7.669,14.228,7.669z M16.558,9.212c0,0.149,0,0.299,0,0.474
			c-0.162,0-0.312,0-0.476,0c0-0.157,0-0.306,0-0.474C16.233,9.212,16.388,9.212,16.558,9.212z M15.466,9.212
			c0,0.149,0,0.299,0,0.474c-0.162,0-0.312,0-0.476,0c0-0.157,0-0.306,0-0.474C15.141,9.212,15.296,9.212,15.466,9.212z
			 M14.372,9.212c0,0.149,0,0.299,0,0.474c-0.162,0-0.312,0-0.476,0c0-0.157,0-0.306,0-0.474
			C14.047,9.212,14.202,9.212,14.372,9.212z M17.255,9.206c0.167,0,0.317,0,0.48,0c0,0.161,0,0.31,0,0.477c-0.157,0-0.312,0-0.48,0
			C17.255,9.526,17.255,9.376,17.255,9.206z M21.757,21.782c-0.125,0.036-0.267,0.055-0.421,0.056
			c-2.03,0.001-4.06,0.002-6.09,0.002l-5.998-0.001c0.426-0.514,0.512-0.786,0.569-1.615H22.62
			C22.736,20.931,22.37,21.604,21.757,21.782z"/>
	</g>
</g>
</svg>
