<?xml version="1.0" encoding="utf-8"?>
<!-- Generator: Adobe Illustrator 17.0.0, SVG Export Plug-In . SVG Version: 6.00 Build 0)  -->
<!DOCTYPE svg PUBLIC "-//W3C//DTD SVG 1.1//EN" "http://www.w3.org/Graphics/SVG/1.1/DTD/svg11.dtd">
<svg version="1.1" id="Layer_1" xmlns="http://www.w3.org/2000/svg" xmlns:xlink="http://www.w3.org/1999/xlink" x="0px" y="0px"
	 width="22px" height="22px" viewBox="0 0 22 22" enable-background="new 0 0 22 22" xml:space="preserve">
<g opacity="0.5">
	<path fill="#2C2F33" d="M17.973,2.201C17.886,2.048,17.733,2,17.561,2c-0.777,0.01-1.554,0.01-2.331,0.01h-1.084L7.105,2
		C6.233,2,5.36,2,4.487,2.01c-0.374,0-0.528,0.154-0.528,0.528V19.15h0.854V2.863h12.373V19.15h0.854V2.537
		C18.04,2.422,18.021,2.297,17.973,2.201z M12.496,14.009H9.484c-0.336,0-0.499,0.163-0.499,0.499v4.642h0.854v-4.288h2.321v4.288
		h0.854v-4.614C13.014,14.162,12.86,14.009,12.496,14.009z"/>
	<path fill="#2C2F33" d="M1.422,19.151c0.23,0,19.626-0.001,19.856,0c0.254,0.002,0.436,0.178,0.438,0.42
		c0.001,0.243-0.179,0.426-0.431,0.427c-0.468,0.003-20.102,0.003-20.57,0c-0.252-0.001-0.433-0.184-0.432-0.426
		s0.184-0.419,0.437-0.421C0.954,19.149,1.188,19.151,1.422,19.151z"/>
	<path fill="#2C2F33" d="M7.314,10.449c-0.226,0-0.453,0.001-0.679,0c-0.261-0.001-0.449-0.177-0.45-0.42
		c-0.001-0.25,0.187-0.428,0.456-0.428c0.453-0.001,0.905-0.001,1.358,0c0.268,0.001,0.46,0.182,0.458,0.427
		c-0.002,0.246-0.194,0.42-0.463,0.421C7.767,10.449,7.541,10.449,7.314,10.449z"/>
	<path fill="#2C2F33" d="M14.68,10.449c-0.23,0-0.46,0.001-0.691,0c-0.259-0.002-0.448-0.184-0.446-0.426
		c0.003-0.243,0.192-0.421,0.452-0.421c0.457-0.001,0.913-0.001,1.37,0c0.261,0.001,0.448,0.178,0.449,0.422
		c0.001,0.245-0.183,0.424-0.444,0.426C15.14,10.45,14.91,10.449,14.68,10.449z"/>
	<path fill="#2C2F33" d="M7.329,11.527c0.223,0,0.445-0.001,0.668,0c0.27,0.002,0.46,0.179,0.46,0.424s-0.192,0.423-0.461,0.423
		c-0.453,0.001-0.905,0.001-1.358,0c-0.264-0.001-0.45-0.174-0.453-0.418c-0.003-0.247,0.185-0.426,0.454-0.429
		C6.869,11.525,7.099,11.527,7.329,11.527z"/>
	<path fill="#2C2F33" d="M10.995,12.375c-0.226,0-0.453,0.001-0.679,0c-0.264-0.001-0.447-0.174-0.449-0.42
		c-0.002-0.247,0.179-0.425,0.442-0.427c0.46-0.003,0.921-0.003,1.381,0c0.264,0.002,0.445,0.178,0.444,0.426
		c-0.001,0.246-0.185,0.42-0.448,0.421C11.455,12.376,11.225,12.375,10.995,12.375z"/>
	<path fill="#2C2F33" d="M14.68,12.375c-0.23,0-0.46,0.001-0.691,0c-0.259-0.002-0.449-0.185-0.446-0.427
		c0.002-0.238,0.188-0.418,0.441-0.42c0.464-0.003,0.928-0.003,1.393,0c0.255,0.002,0.438,0.181,0.438,0.42
		c0.001,0.246-0.184,0.424-0.444,0.426C15.14,12.376,14.91,12.375,14.68,12.375z"/>
	<path fill="#2C2F33" d="M10.996,10.449c-0.23,0-0.46,0.001-0.69,0c-0.255-0.002-0.437-0.177-0.439-0.418
		c-0.002-0.247,0.181-0.428,0.441-0.429c0.464-0.002,0.928-0.002,1.392,0c0.252,0.001,0.434,0.183,0.434,0.425
		c0,0.241-0.183,0.42-0.435,0.422C11.464,10.45,11.23,10.449,10.996,10.449z"/>
	<path fill="#2C2F33" d="M14.682,8.521c-0.234,0-0.468,0.001-0.702,0c-0.252-0.002-0.437-0.182-0.436-0.422
		c0.001-0.233,0.181-0.418,0.428-0.42c0.472-0.005,0.944-0.005,1.415,0c0.254,0.003,0.432,0.187,0.428,0.429
		c-0.003,0.241-0.185,0.413-0.443,0.414C15.142,8.522,14.912,8.521,14.682,8.521z"/>
	<path fill="#2C2F33" d="M7.32,8.521c-0.234,0-0.468,0.002-0.702,0C6.37,8.518,6.188,8.344,6.185,8.109
		C6.182,7.868,6.36,7.68,6.612,7.678c0.472-0.005,0.944-0.004,1.415,0c0.25,0.002,0.436,0.195,0.43,0.43
		C8.451,8.345,8.27,8.518,8.022,8.521C7.788,8.523,7.554,8.521,7.32,8.521z"/>
	<path fill="#2C2F33" d="M10.992,8.521c-0.23,0-0.46,0.001-0.69,0c-0.25-0.002-0.431-0.172-0.435-0.409
		c-0.005-0.246,0.168-0.431,0.422-0.434c0.475-0.005,0.951-0.005,1.427,0.001c0.248,0.003,0.42,0.186,0.418,0.426
		c-0.002,0.239-0.179,0.413-0.428,0.416C11.468,8.523,11.23,8.521,10.992,8.521z"/>
	<path fill="#2C2F33" d="M11.425,4.792c0.233,0,0.455-0.004,0.676,0.001c0.238,0.005,0.421,0.199,0.416,0.432
		c-0.004,0.229-0.187,0.41-0.422,0.415c-0.173,0.003-0.345,0.001-0.518,0.001c-0.046,0-0.091,0-0.153,0c0,0.099,0.001,0.189,0,0.28
		c-0.002,0.149,0.005,0.3-0.009,0.448c-0.02,0.213-0.204,0.367-0.418,0.366c-0.213-0.001-0.398-0.158-0.413-0.371
		c-0.014-0.191-0.007-0.383-0.009-0.575c0-0.045,0-0.09,0-0.149c-0.234,0-0.455,0.003-0.677-0.001
		C9.73,5.636,9.604,5.555,9.528,5.407C9.452,5.258,9.466,5.108,9.561,4.971c0.085-0.122,0.207-0.179,0.355-0.18
		c0.214-0.001,0.429,0,0.659,0c0-0.125,0-0.243,0-0.36c0-0.096-0.002-0.192,0.001-0.288c0.009-0.265,0.185-0.447,0.427-0.445
		s0.415,0.185,0.421,0.451c0.004,0.173,0.001,0.345,0.001,0.518C11.425,4.704,11.425,4.742,11.425,4.792z"/>
</g>
</svg>
