<?xml version="1.0" encoding="utf-8"?>
<!-- Generator: Adobe Illustrator 17.0.0, SVG Export Plug-In . SVG Version: 6.00 Build 0)  -->
<!DOCTYPE svg PUBLIC "-//W3C//DTD SVG 1.1//EN" "http://www.w3.org/Graphics/SVG/1.1/DTD/svg11.dtd">
<svg version="1.1" id="Layer_1" xmlns="http://www.w3.org/2000/svg" xmlns:xlink="http://www.w3.org/1999/xlink" x="0px" y="0px"
	 width="25px" height="25px" viewBox="0 0 25 25" enable-background="new 0 0 25 25" xml:space="preserve">
<g>
	<path opacity="0.5" fill="#2C2F33" d="M12.3,13.839c-0.925-0.019-1.781-0.57-2.48-1.413c-0.405-0.488-0.687-1.045-0.9-1.641
		c-0.03-0.085-0.093-0.178-0.168-0.225c-0.265-0.168-0.451-0.397-0.553-0.687C8.058,9.474,8.067,9.06,8.137,8.648
		c0.036-0.211,0.17-0.347,0.357-0.452c0.075-0.042,0.145-0.147,0.16-0.233c0.163-0.932,0.578-1.66,1.526-1.994
		c0.271-0.096,0.523-0.052,0.768,0.044c0.244,0.096,0.491,0.202,0.709,0.345c0.577,0.378,1.124,0.382,1.677-0.045
		c0.15-0.116,0.331-0.195,0.505-0.276c0.313-0.144,0.631-0.146,0.955-0.024c0.878,0.331,1.348,0.989,1.522,1.885
		c0.029,0.15,0.066,0.256,0.226,0.343c0.138,0.075,0.271,0.252,0.304,0.406c0.088,0.406,0.103,0.833-0.064,1.22
		c-0.1,0.232-0.277,0.447-0.464,0.621c-0.123,0.115-0.22,0.217-0.277,0.378c-0.341,0.955-0.881,1.772-1.718,2.367
		C13.782,13.618,13.182,13.839,12.3,13.839z M8.766,8.823c0.02,0.289,0.016,0.576,0.07,0.852C8.859,9.787,8.996,9.941,9.1,9.959
		c0.259,0.044,0.356,0.188,0.418,0.416c0.147,0.54,0.377,1.044,0.704,1.501c1.222,1.705,3.308,1.713,4.541,0.019
		c0.348-0.479,0.569-1.015,0.746-1.576c0.039-0.125,0.152-0.275,0.267-0.32c0.34-0.134,0.408-0.196,0.42-0.562
		c0.005-0.143,0.009-0.285,0.019-0.427c0.009-0.13-0.007-0.218-0.175-0.219c-0.211-0.002-0.321-0.132-0.342-0.338
		c-0.009-0.085-0.013-0.171-0.023-0.256c-0.079-0.705-0.346-1.274-1.076-1.526c-0.192-0.066-0.358-0.06-0.529,0.043
		c-0.225,0.136-0.45,0.275-0.682,0.399c-0.552,0.297-1.117,0.312-1.684,0.045c-0.245-0.115-0.482-0.246-0.721-0.373
		c-0.459-0.244-0.762-0.224-1.139,0.138C9.686,7.075,9.547,7.278,9.478,7.485C9.38,7.778,9.345,8.095,9.304,8.404
		C9.271,8.658,9.189,8.763,8.941,8.795C8.893,8.801,8.845,8.81,8.766,8.823z"/>
	<path opacity="0.5" fill="#2C2F33" d="M16.923,5.402c0,0.414,0.002,0.827-0.001,1.241c-0.001,0.254-0.129,0.409-0.333,0.414
		c-0.21,0.005-0.351-0.16-0.35-0.421c0.002-0.735,0-1.469,0.014-2.204c0.004-0.187-0.06-0.304-0.206-0.409
		c-0.498-0.359-1.07-0.528-1.658-0.651c-1.488-0.31-2.963-0.281-4.404,0.232c-0.338,0.121-0.649,0.32-0.971,0.486
		C8.874,4.161,8.821,4.267,8.824,4.434c0.011,0.727,0.005,1.455,0.005,2.182c0,0.277-0.138,0.448-0.353,0.441
		C8.267,7.05,8.143,6.889,8.143,6.619c-0.001-0.82,0.004-1.64-0.002-2.461c-0.001-0.182,0.063-0.31,0.201-0.422
		c0.664-0.539,1.438-0.836,2.262-1.009c1.672-0.352,3.328-0.315,4.95,0.271c0.446,0.161,0.849,0.399,1.195,0.731
		c0.133,0.128,0.195,0.267,0.191,0.453c-0.009,0.406-0.003,0.813-0.003,1.22C16.932,5.402,16.927,5.402,16.923,5.402z"/>
	<path opacity="0.5" fill="#2C2F33" d="M12.887,5.179c0,0.202,0.003,0.401-0.001,0.6c-0.005,0.254-0.136,0.398-0.35,0.396
		c-0.212-0.002-0.332-0.146-0.334-0.406c-0.002-0.198,0-0.396,0-0.624c-0.218,0-0.415,0.001-0.612,0
		c-0.274-0.002-0.42-0.124-0.417-0.344c0.003-0.219,0.151-0.337,0.427-0.34c0.178-0.002,0.356-0.003,0.535-0.005
		c0.013,0,0.026-0.009,0.068-0.025c0-0.193-0.002-0.398,0.001-0.602c0.003-0.241,0.127-0.389,0.326-0.397
		c0.202-0.008,0.349,0.153,0.357,0.394c0.003,0.1,0.001,0.2,0.001,0.299c0,0.099,0,0.199,0,0.335c0.206,0,0.403-0.001,0.599,0
		c0.264,0.002,0.428,0.135,0.43,0.344c0.002,0.212-0.155,0.338-0.426,0.341c-0.178,0.002-0.356,0.003-0.534,0.006
		C12.942,5.151,12.929,5.161,12.887,5.179z"/>
	<path opacity="0.5" fill="#2C2F33" d="M19.9,15.758c-0.93-0.91-2.01-1.56-3.23-1.98c-0.03-0.01-0.05-0.02-0.08-0.03
		c-0.1-0.03-0.2-0.06-0.3-0.09c-0.26-0.08-0.53-0.15-0.81-0.22h-0.01c-0.2-0.05-0.4-0.09-0.6-0.12c-0.04-0.01-0.08-0.01-0.11-0.01
		h-0.04c-0.02,0.01-0.03,0.01-0.04,0.01c-0.01,0.01-0.02,0.01-0.03,0.01c0,0.01-0.01,0.01-0.02,0.01c-0.01,0.01-0.01,0.01-0.02,0.02
		c-0.01,0-0.02,0.01-0.02,0.01c-0.01,0.01-0.02,0.02-0.02,0.02c-0.01,0.01-0.02,0.02-0.02,0.02c-0.01,0.01-0.01,0.02-0.02,0.03
		c-0.03,0.05-0.05,0.12-0.07,0.19v0.01c0,0.03-0.01,0.07-0.01,0.11c-0.04,0.47-0.08,0.93-0.12,1.4c-0.04,0.3-0.07,0.59-0.11,0.89
		c-0.04,0.31-0.08,0.62-0.14,0.93c-0.02,0.15-0.05,0.3-0.08,0.45c-0.02,0.1-0.05,0.21-0.07,0.31c-0.02,0.15-0.06,0.29-0.09,0.44
		c-0.17,0.71-0.35,1.42-0.79,2.02c-0.09,0.12-0.18,0.23-0.26,0.3c-0.07,0.07-0.14,0.12-0.22,0.14c-0.02,0-0.04,0.01-0.07,0.01
		c-0.03,0-0.06-0.01-0.09-0.02c-0.06-0.02-0.13-0.06-0.2-0.13c-0.08-0.07-0.17-0.18-0.26-0.3c-0.44-0.6-0.62-1.31-0.79-2.02
		c-0.03-0.15-0.07-0.29-0.09-0.44c-0.03-0.1-0.05-0.21-0.07-0.31c-0.03-0.15-0.06-0.3-0.08-0.45c-0.05-0.31-0.1-0.62-0.14-0.93
		c-0.04-0.3-0.07-0.59-0.11-0.89c-0.04-0.41-0.08-0.83-0.11-1.25c-0.01-0.09-0.01-0.18-0.02-0.26v-0.01
		c-0.02-0.07-0.04-0.14-0.07-0.19c-0.01-0.01-0.01-0.02-0.02-0.03c0,0-0.01-0.01-0.02-0.02c0,0-0.01-0.01-0.02-0.02
		c0,0-0.01-0.01-0.02-0.01c-0.01-0.01-0.01-0.01-0.02-0.02c-0.01,0-0.02,0-0.02-0.01c-0.01,0-0.02,0-0.03-0.01
		c-0.01,0-0.02,0-0.04-0.01h-0.04c-0.03,0-0.07,0-0.11,0.01c-0.2,0.03-0.4,0.07-0.6,0.12H9.52c-0.28,0.07-0.55,0.14-0.81,0.22
		c-0.1,0.03-0.2,0.06-0.3,0.09c-0.02,0.01-0.05,0.02-0.08,0.03c-1.22,0.42-2.3,1.07-3.23,1.98c-0.13,0.13-0.2,0.27-0.2,0.45
		c0.03,0.64,0.04,1.28,0.09,1.92c0.12,1.69,1,2.85,2.53,3.54c0.26,0.12,0.53,0.22,0.8,0.3c0.04,0.02,0.09,0.04,0.14,0.05
		c0,0,0,0,0.01,0c0.28,0.09,0.58,0.16,0.87,0.22c0.48,0.09,0.97,0.14,1.45,0.18c0.03,0,0.06,0.01,0.09,0.01
		c0.54,0.05,1.08,0.07,1.62,0.07c0.57,0,1.14-0.03,1.71-0.08c0.24-0.02,0.48-0.04,0.72-0.07c0.25-0.03,0.49-0.07,0.73-0.11
		c0.29-0.06,0.59-0.13,0.87-0.22c0.01,0,0.01,0,0.01,0c0.05-0.01,0.1-0.03,0.14-0.05c0.27-0.08,0.54-0.18,0.8-0.3
		c1.53-0.69,2.41-1.85,2.53-3.54c0.05-0.64,0.06-1.28,0.09-1.92C20.1,16.029,20.03,15.888,19.9,15.758z M8.06,17.888H8.04v3.25
		c-0.13-0.05-0.26-0.11-0.38-0.17c-1.18-0.55-1.88-1.48-1.99-2.8c-0.05-0.56-0.06-1.13-0.09-1.69c-0.01-0.17,0.05-0.29,0.18-0.41
		c0.68-0.62,1.45-1.1,2.3-1.45V17.888z M19.33,18.169c-0.11,1.32-0.81,2.25-1.99,2.8c-0.12,0.06-0.25,0.12-0.38,0.17v-3.25h-0.02
		v-3.27c0.85,0.35,1.62,0.83,2.3,1.45c0.13,0.12,0.19,0.24,0.18,0.41C19.39,17.039,19.38,17.609,19.33,18.169z"/>
</g>
</svg>
