<?xml version="1.0" encoding="utf-8"?>
<!-- Generator: Adobe Illustrator 17.0.0, SVG Export Plug-In . SVG Version: 6.00 Build 0)  -->
<!DOCTYPE svg PUBLIC "-//W3C//DTD SVG 1.1//EN" "http://www.w3.org/Graphics/SVG/1.1/DTD/svg11.dtd">
<svg version="1.1" id="Layer_1" xmlns="http://www.w3.org/2000/svg" xmlns:xlink="http://www.w3.org/1999/xlink" x="0px" y="0px"
	 width="12px" height="8px" viewBox="0 0 12 8" enable-background="new 0 0 12 8" xml:space="preserve">
<path fill="#FFFFFF" d="M0.821,1.187C0.706,1.312,0.64,1.48,0.64,1.638c0,0.156,0.065,0.323,0.18,0.44l4.735,4.734
	C5.67,6.937,5.837,7,5.995,7c0.167,0,0.324-0.063,0.45-0.188l4.733-4.734c0.242-0.242,0.242-0.64,0-0.891
	c-0.251-0.249-0.649-0.249-0.891,0L5.995,5.472L1.712,1.187C1.47,0.947,1.063,0.947,0.821,1.187L0.821,1.187z M0.821,1.187"/>
</svg>
