<?xml version="1.0" encoding="utf-8"?>
<!-- Generator: Adobe Illustrator 17.0.0, SVG Export Plug-In . SVG Version: 6.00 Build 0)  -->
<!DOCTYPE svg PUBLIC "-//W3C//DTD SVG 1.1//EN" "http://www.w3.org/Graphics/SVG/1.1/DTD/svg11.dtd">
<svg version="1.1" id="Layer_1" xmlns="http://www.w3.org/2000/svg" xmlns:xlink="http://www.w3.org/1999/xlink" x="0px" y="0px"
	 width="25px" height="25px" viewBox="0 0 25 25" enable-background="new 0 0 25 25" xml:space="preserve">
<g>
	<path opacity="0.5" fill="#2C2F33" d="M12.486,17.155c0,1.296,0.002,2.591-0.001,3.887c-0.002,0.982-0.485,1.457-1.471,1.457
		c-2.377,0-4.753,0.001-7.13,0c-0.851,0-1.377-0.511-1.379-1.362c-0.007-2.653-0.009-5.307-0.006-7.96
		c0.001-0.869,0.515-1.387,1.384-1.389c2.429-0.004,4.859-0.002,7.288,0.004c0.781,0.002,1.31,0.529,1.316,1.317
		c0.009,1.349,0.003,2.698,0.003,4.047L12.486,17.155z M3.2,17.143c0,0-0.004,0-0.006,0c0,1.322,0,2.644,0,3.966
		c0,0.485,0.212,0.697,0.707,0.697c2.394,0.001,4.788,0,7.182,0c0.505,0,0.71-0.209,0.71-0.72c0-2.599-0.001-5.198,0-7.797
		c0-0.633-0.171-0.806-0.812-0.805c-2.366,0.002-4.732,0.004-7.098,0.006c-0.471,0-0.682,0.211-0.682,0.688
		C3.2,14.499,3.2,15.821,3.2,17.143z"/>
	<path opacity="0.5" fill="#2C2F33" d="M18.948,6.046c-0.787,0-1.527,0-2.268,0c-0.535,0-0.595-0.06-0.595-0.603
		c0-0.643,0-1.287,0-1.93c0-0.096,0-0.192,0-0.305c-3.35,0-6.67,0-10.033,0c0,0.108,0,0.212,0,0.316c0,2.162,0,4.325,0,6.487
		c0,0.071,0.001,0.143,0,0.214c-0.004,0.317-0.119,0.472-0.347,0.47c-0.226-0.002-0.346-0.163-0.346-0.475
		c-0.001-2.413-0.001-4.825,0-7.238c0-0.372,0.108-0.482,0.475-0.483C9.327,2.5,12.821,2.498,16.315,2.508
		c0.15,0,0.337,0.075,0.444,0.179c0.914,0.893,1.816,1.798,2.711,2.71c0.095,0.097,0.167,0.261,0.169,0.396
		c0.015,0.893,0.011,1.787,0.008,2.681c-0.001,0.27-0.132,0.428-0.338,0.435c-0.216,0.008-0.355-0.151-0.357-0.439
		c-0.006-0.688-0.002-1.376-0.003-2.064C18.948,6.3,18.948,6.195,18.948,6.046z"/>
	<path opacity="0.5" fill="#2C2F33" d="M14.661,13.563c0.019-2.194,1.781-3.94,3.952-3.917c2.167,0.023,3.904,1.791,3.888,3.958
		c-0.016,2.16-1.797,3.914-3.955,3.893C16.394,17.476,14.642,15.703,14.661,13.563z M18.569,16.797
		c1.642,0.022,3.283-1.304,3.236-3.344c-0.036-1.591-1.355-3.095-3.201-3.113c-1.768-0.017-3.236,1.428-3.25,3.199
		C15.34,15.336,16.763,16.78,18.569,16.797z"/>
	<path opacity="0.5" fill="#2C2F33" d="M18.932,21.806c0.006-0.131,0.015-0.236,0.015-0.341c0.001-0.893,0-1.787,0.002-2.68
		c0-0.098-0.022-0.218,0.024-0.289c0.071-0.107,0.194-0.251,0.294-0.25c0.117,0.001,0.251,0.123,0.344,0.224
		c0.048,0.052,0.033,0.17,0.033,0.258c0.002,1.081,0.003,2.162,0.002,3.243c-0.001,0.435-0.097,0.527-0.542,0.527
		c-1.787,0-3.573,0-5.36,0c-0.08,0-0.164,0.008-0.24-0.011c-0.174-0.045-0.279-0.159-0.271-0.347
		c0.008-0.186,0.111-0.298,0.294-0.325c0.088-0.013,0.178-0.008,0.267-0.008c1.599,0,3.198,0,4.797,0
		C18.698,21.806,18.803,21.806,18.932,21.806z"/>
	<path opacity="0.5" fill="#2C2F33" d="M12.14,8.194c-1.358,0-2.716,0-4.074-0.001c-0.089,0-0.18,0.004-0.267-0.009
		C7.612,8.157,7.489,8.027,7.52,7.856c0.023-0.124,0.142-0.248,0.25-0.332c0.064-0.049,0.189-0.023,0.287-0.023
		c2.734-0.001,5.468-0.001,8.201,0c0.089,0,0.182-0.005,0.265,0.02c0.174,0.052,0.293,0.189,0.237,0.361
		c-0.039,0.119-0.169,0.226-0.284,0.297c-0.072,0.045-0.192,0.015-0.29,0.015C14.838,8.195,13.489,8.194,12.14,8.194z"/>
	<path opacity="0.5" fill="#2C2F33" d="M11.436,10.339c-1.125,0-2.249,0-3.374,0c-0.089,0-0.18,0.004-0.267-0.01
		c-0.186-0.029-0.308-0.16-0.275-0.331c0.024-0.124,0.146-0.243,0.252-0.33c0.055-0.045,0.172-0.02,0.261-0.02
		c2.267-0.001,4.534-0.001,6.802,0c0.08,0,0.189-0.026,0.235,0.015c0.109,0.097,0.243,0.217,0.267,0.347
		c0.031,0.168-0.098,0.298-0.285,0.323c-0.079,0.011-0.16,0.008-0.241,0.008C13.685,10.339,12.561,10.339,11.436,10.339z"/>
	<path opacity="0.5" fill="#2C2F33" d="M11.086,6.046c-1.009,0-2.019,0-3.028,0c-0.08,0-0.161,0.002-0.241-0.006
		C7.629,6.02,7.523,5.904,7.511,5.724C7.498,5.529,7.608,5.404,7.798,5.363c0.077-0.017,0.16-0.01,0.24-0.01
		c2.019,0,4.038,0,6.057,0c0.08,0,0.163-0.006,0.241,0.009c0.193,0.037,0.297,0.158,0.29,0.357c-0.007,0.188-0.114,0.295-0.297,0.32
		c-0.079,0.011-0.16,0.007-0.241,0.007C13.087,6.047,12.087,6.046,11.086,6.046z"/>
	<path opacity="0.5" fill="#2C2F33" d="M15.696,18.208c-0.445,0-0.891,0.002-1.336-0.001c-0.26-0.002-0.418-0.138-0.418-0.346
		c0-0.209,0.156-0.342,0.421-0.342c0.909-0.003,1.817-0.003,2.726,0c0.258,0.001,0.427,0.149,0.404,0.358
		c-0.026,0.234-0.178,0.333-0.407,0.332C16.623,18.206,16.16,18.208,15.696,18.208z"/>
	<path opacity="0.5" fill="#2C2F33" d="M15.698,20.353c-0.445,0-0.891,0.003-1.336-0.001c-0.26-0.002-0.419-0.138-0.419-0.345
		c0-0.211,0.153-0.342,0.419-0.343c0.909-0.003,1.817-0.003,2.726,0c0.258,0.001,0.428,0.148,0.406,0.356
		c-0.024,0.235-0.177,0.334-0.406,0.333C16.625,20.352,16.162,20.353,15.698,20.353z"/>
	<path opacity="0.5" fill="#2C2F33" d="M7.506,16.063c-1.027,0-2.053,0.001-3.08,0c-0.39,0-0.493-0.101-0.496-0.488
		c-0.004-0.625-0.008-1.25-0.007-1.874c0.001-0.37,0.11-0.478,0.48-0.478c2.07,0,4.141,0.002,6.211,0.005
		c0.332,0,0.448,0.117,0.45,0.454c0.004,0.634,0.003,1.267,0,1.901c-0.002,0.373-0.11,0.481-0.478,0.481
		C9.559,16.064,8.532,16.063,7.506,16.063z"/>
	<path opacity="0.5" fill="#2C2F33" d="M5.351,18.914c-0.125,0-0.25,0.007-0.375-0.002c-0.198-0.014-0.312-0.126-0.322-0.325
		c-0.01-0.202,0.106-0.336,0.294-0.351c0.275-0.022,0.554-0.02,0.829,0.005c0.18,0.017,0.275,0.159,0.269,0.344
		c-0.006,0.186-0.109,0.303-0.293,0.323c-0.132,0.014-0.267,0.003-0.401,0.003C5.351,18.913,5.351,18.913,5.351,18.914z"/>
	<path opacity="0.5" fill="#2C2F33" d="M7.474,18.915c-0.116,0-0.232,0.006-0.348-0.001c-0.199-0.012-0.315-0.122-0.327-0.32
		c-0.012-0.2,0.1-0.339,0.289-0.356c0.274-0.023,0.554-0.021,0.829,0.003c0.179,0.016,0.278,0.153,0.274,0.34
		c-0.004,0.187-0.104,0.306-0.289,0.327c-0.141,0.016-0.285,0.003-0.428,0.003C7.474,18.912,7.474,18.913,7.474,18.915z"/>
	<path opacity="0.5" fill="#2C2F33" d="M9.659,18.231c0.125,0,0.252-0.013,0.375,0.003c0.195,0.025,0.304,0.147,0.302,0.346
		c-0.002,0.201-0.115,0.322-0.313,0.331c-0.258,0.012-0.518,0.012-0.776-0.002c-0.185-0.009-0.29-0.127-0.302-0.314
		c-0.012-0.202,0.099-0.327,0.287-0.359C9.371,18.213,9.517,18.232,9.659,18.231z"/>
	<path opacity="0.5" fill="#2C2F33" d="M5.343,20.352c-0.116,0-0.233,0.007-0.348-0.001c-0.206-0.015-0.336-0.124-0.341-0.337
		c-0.005-0.215,0.12-0.337,0.327-0.347c0.249-0.013,0.5-0.01,0.75,0.002C5.93,19.678,6.042,19.802,6.045,20
		c0.003,0.212-0.12,0.331-0.327,0.35C5.594,20.361,5.468,20.352,5.343,20.352z"/>
	<path opacity="0.5" fill="#2C2F33" d="M7.502,19.666c0.125,0,0.251-0.008,0.375,0.002C8.075,19.684,8.186,19.802,8.191,20
		c0.005,0.2-0.108,0.331-0.301,0.345c-0.266,0.019-0.537,0.021-0.802-0.002c-0.19-0.017-0.297-0.154-0.288-0.355
		c0.009-0.189,0.121-0.296,0.301-0.318C7.232,19.653,7.368,19.666,7.502,19.666z"/>
	<path opacity="0.5" fill="#2C2F33" d="M9.622,20.35c-0.125,0-0.252,0.014-0.374-0.003c-0.192-0.027-0.306-0.144-0.303-0.345
		c0.003-0.201,0.119-0.322,0.313-0.333c0.258-0.015,0.518-0.013,0.776,0.002c0.198,0.012,0.305,0.143,0.303,0.341
		c-0.002,0.2-0.12,0.315-0.313,0.336C9.891,20.362,9.756,20.351,9.622,20.35C9.622,20.35,9.622,20.35,9.622,20.35z"/>
	<path opacity="0.5" fill="#2C2F33" d="M5.352,17.492c-0.125,0-0.251,0.012-0.374-0.003c-0.202-0.025-0.328-0.139-0.323-0.355
		c0.004-0.204,0.127-0.317,0.32-0.327c0.258-0.013,0.518-0.012,0.775,0.004c0.184,0.011,0.289,0.134,0.297,0.32
		c0.008,0.201-0.103,0.324-0.293,0.354c-0.13,0.021-0.267,0.004-0.401,0.004C5.352,17.49,5.352,17.491,5.352,17.492z"/>
	<path opacity="0.5" fill="#2C2F33" d="M7.498,17.492c-0.125,0-0.251,0.012-0.374-0.003c-0.203-0.024-0.328-0.139-0.325-0.354
		c0.003-0.204,0.126-0.317,0.319-0.327c0.258-0.013,0.518-0.012,0.775,0.003c0.184,0.011,0.29,0.133,0.297,0.319
		c0.008,0.2-0.101,0.325-0.292,0.355c-0.131,0.02-0.267,0.004-0.401,0.004C7.498,17.49,7.498,17.491,7.498,17.492z"/>
	<path opacity="0.5" fill="#2C2F33" d="M9.628,17.489c-0.125,0-0.252,0.014-0.374-0.003c-0.189-0.026-0.31-0.137-0.309-0.34
		c0-0.202,0.114-0.324,0.309-0.336c0.258-0.016,0.517-0.015,0.775,0c0.197,0.011,0.307,0.137,0.308,0.336
		c0.001,0.202-0.119,0.316-0.308,0.342c-0.131,0.018-0.267,0.004-0.401,0.004C9.628,17.491,9.628,17.49,9.628,17.489z"/>
	<g opacity="0.5">
		<g>
			<path fill="#2C2F33" d="M19.839,12.472c-0.017-0.017-0.039-0.026-0.066-0.026h-0.488c-0.032-0.158-0.093-0.295-0.183-0.411h0.665
				c0.027,0,0.049-0.009,0.066-0.026c0.017-0.017,0.026-0.039,0.026-0.066v-0.291c0-0.027-0.009-0.049-0.026-0.066
				c-0.017-0.017-0.039-0.026-0.066-0.026H17.39c-0.027,0-0.049,0.009-0.066,0.026c-0.017,0.017-0.026,0.039-0.026,0.066v0.38
				c0,0.025,0.009,0.046,0.027,0.064c0.018,0.018,0.039,0.027,0.064,0.027h0.414c0.402,0,0.657,0.108,0.766,0.323h-1.18
				c-0.027,0-0.049,0.009-0.066,0.026c-0.017,0.017-0.026,0.039-0.026,0.066v0.291c0,0.027,0.009,0.049,0.026,0.066
				c0.017,0.017,0.039,0.026,0.066,0.026h1.22c-0.042,0.156-0.14,0.275-0.293,0.357c-0.153,0.082-0.356,0.123-0.607,0.123h-0.32
				c-0.025,0-0.046,0.009-0.064,0.027c-0.018,0.018-0.027,0.04-0.027,0.064v0.363c0,0.025,0.009,0.046,0.026,0.063
				c0.366,0.388,0.84,0.932,1.423,1.631c0.017,0.023,0.041,0.034,0.071,0.034h0.557c0.04,0,0.068-0.017,0.083-0.052
				c0.019-0.034,0.015-0.067-0.011-0.097c-0.556-0.682-0.993-1.192-1.311-1.531c0.324-0.038,0.587-0.143,0.788-0.314
				c0.202-0.171,0.325-0.394,0.369-0.668h0.48c0.027,0,0.049-0.009,0.066-0.026c0.017-0.017,0.026-0.039,0.026-0.066v-0.291
				C19.864,12.511,19.856,12.489,19.839,12.472L19.839,12.472z M19.839,12.472"/>
		</g>
	</g>
</g>
</svg>
