<?xml version="1.0" encoding="utf-8"?>
<!-- Generator: Adobe Illustrator 17.0.0, SVG Export Plug-In . SVG Version: 6.00 Build 0)  -->
<!DOCTYPE svg PUBLIC "-//W3C//DTD SVG 1.1//EN" "http://www.w3.org/Graphics/SVG/1.1/DTD/svg11.dtd">
<svg version="1.1" id="Layer_1" xmlns="http://www.w3.org/2000/svg" xmlns:xlink="http://www.w3.org/1999/xlink" x="0px" y="0px"
	 width="16px" height="16px" viewBox="0 0 16 16" enable-background="new 0 0 16 16" xml:space="preserve">
<g>
	<path fill="#ECEEF3" d="M8,0C3.589,0,0,3.589,0,8s3.589,8,8,8s8-3.589,8-8S12.411,0,8,0L8,0z M8.52,12.747
		C8.14,12.81,7.384,12.968,7,13c-0.325,0.027-0.632-0.159-0.819-0.426c-0.188-0.267-0.232-0.609-0.121-0.916L7.572,7.5H6
		C5.999,6.634,6.649,5.996,7.48,5.752C7.876,5.635,8.616,5.476,9,5.5c0.23,0.015,0.632,0.159,0.819,0.426
		c0.188,0.267,0.232,0.609,0.121,0.916L8.428,11H10C10,11.866,9.374,12.604,8.52,12.747L8.52,12.747z M9,5C8.448,5,8,4.552,8,4
		c0-0.552,0.448-1,1-1c0.552,0,1,0.448,1,1C10,4.552,9.552,5,9,5L9,5z M9,5"/>
</g>
</svg>
