<?xml version="1.0" encoding="utf-8"?>
<!-- Generator: Adobe Illustrator 17.0.0, SVG Export Plug-In . SVG Version: 6.00 Build 0)  -->
<!DOCTYPE svg PUBLIC "-//W3C//DTD SVG 1.1//EN" "http://www.w3.org/Graphics/SVG/1.1/DTD/svg11.dtd">
<svg version="1.1" id="Layer_1" xmlns="http://www.w3.org/2000/svg" xmlns:xlink="http://www.w3.org/1999/xlink" x="0px" y="0px"
	 width="25px" height="25px" viewBox="0 0 25 25" enable-background="new 0 0 25 25" xml:space="preserve">
<g opacity="0.5">
	<path fill="#2C2F33" d="M12.5,14.591c-0.935,0-1.652,0.748-1.652,1.652s0.748,1.652,1.652,1.652s1.652-0.748,1.652-1.652
		S13.435,14.591,12.5,14.591z"/>
	<path fill="#2C2F33" d="M19.449,3.684c0-0.654-0.53-1.184-1.184-1.184H5.115c0.28,0.312,0.436,0.748,0.436,1.184v17.544
		c0,0.654,0.53,1.184,1.184,1.184h13.15c-0.28-0.312-0.436-0.748-0.436-1.184V3.684z M16.52,17.177l-0.592,0.156
		c-0.062,0.218-0.156,0.405-0.249,0.592l0.312,0.53c0.062,0.125,0.031,0.249-0.062,0.343l-0.904,0.873
		c-0.093,0.093-0.218,0.093-0.343,0.062l-0.53-0.312c-0.187,0.093-0.374,0.187-0.592,0.249l-0.156,0.592
		c-0.031,0.125-0.156,0.187-0.28,0.187h-1.246c-0.125,0-0.249-0.093-0.28-0.218l-0.156-0.592c-0.187-0.062-0.405-0.156-0.592-0.249
		l-0.53,0.312c-0.125,0.062-0.249,0.031-0.343-0.062l-0.904-0.841c-0.093-0.093-0.093-0.218-0.062-0.343l0.312-0.53
		c-0.093-0.187-0.187-0.405-0.249-0.592L8.48,17.177c-0.125-0.031-0.218-0.156-0.218-0.28V15.65c0-0.125,0.093-0.249,0.218-0.28
		l0.592-0.156c0.062-0.218,0.156-0.405,0.249-0.592l-0.312-0.53c-0.062-0.125-0.031-0.249,0.062-0.343l0.904-0.904
		c0.093-0.093,0.218-0.093,0.343-0.062l0.53,0.312c0.187-0.093,0.405-0.187,0.592-0.249l0.156-0.592
		c0.031-0.125,0.156-0.218,0.28-0.218h1.246c0.125,0,0.249,0.093,0.28,0.218l0.156,0.592c0.187,0.062,0.405,0.156,0.592,0.249
		l0.53-0.312c0.125-0.062,0.249-0.031,0.343,0.062l0.904,0.873c0.093,0.093,0.125,0.218,0.062,0.343l-0.312,0.53
		c0.093,0.187,0.187,0.374,0.249,0.592c0.187,0.031,0.467,0.093,0.561,0.125c0.125,0.031,0.249,0.156,0.249,0.28v1.309
		C16.738,17.022,16.645,17.115,16.52,17.177z M17.05,10.072H7.95c-0.187,0-0.312-0.125-0.312-0.312c0-0.187,0.125-0.312,0.312-0.312
		h9.099c0.156,0,0.312,0.125,0.312,0.312C17.361,9.948,17.205,10.072,17.05,10.072z M17.05,8.016H7.95
		c-0.187,0-0.312-0.125-0.312-0.312c0-0.156,0.125-0.312,0.312-0.312h9.099c0.156,0,0.312,0.156,0.312,0.312
		C17.361,7.86,17.205,8.016,17.05,8.016z M17.05,5.928H7.95c-0.187,0-0.312-0.125-0.312-0.312c0-0.156,0.125-0.312,0.312-0.312
		h9.099c0.156,0,0.312,0.156,0.312,0.312S17.205,5.928,17.05,5.928z"/>
	<path fill="#2C2F33" d="M3.463,2.531C2.902,2.656,2.528,3.154,2.528,3.746v1.932c0,0.125,0.093,0.249,0.249,0.249h1.932
		c0.125,0,0.249-0.093,0.249-0.249V3.684C4.928,2.936,4.242,2.375,3.463,2.531z"/>
	<path fill="#2C2F33" d="M22.254,17.458h-1.901c-0.125,0-0.249,0.093-0.249,0.249v3.584c0,0.748,0.686,1.34,1.433,1.184
		c0.561-0.125,0.935-0.623,0.935-1.215v-3.584C22.472,17.551,22.378,17.458,22.254,17.458z M21.319,20.699
		c0,0.156-0.125,0.312-0.312,0.312c-0.156,0-0.312-0.156-0.312-0.312v-2.431c0-0.156,0.156-0.312,0.312-0.312
		c0.187,0,0.312,0.156,0.312,0.312V20.699z"/>
</g>
</svg>
