<?xml version="1.0" encoding="utf-8"?>
<!-- Generator: Adobe Illustrator 17.0.0, SVG Export Plug-In . SVG Version: 6.00 Build 0)  -->
<!DOCTYPE svg PUBLIC "-//W3C//DTD SVG 1.1//EN" "http://www.w3.org/Graphics/SVG/1.1/DTD/svg11.dtd">
<svg version="1.1" id="Layer_1" xmlns="http://www.w3.org/2000/svg" xmlns:xlink="http://www.w3.org/1999/xlink" x="0px" y="0px"
	 width="25px" height="25px" viewBox="0 0 25 25" enable-background="new 0 0 25 25" xml:space="preserve">
<g>
	<path fill="#00BD51" d="M12.5,15.091c-0.935,0-1.652,0.748-1.652,1.652s0.748,1.652,1.652,1.652s1.652-0.748,1.652-1.652
		S13.435,15.091,12.5,15.091z"/>
	<path fill="#00BD51" d="M19.449,4.184C19.449,3.53,18.919,3,18.265,3H5.115c0.28,0.312,0.436,0.748,0.436,1.184v17.544
		c0,0.654,0.53,1.184,1.184,1.184h13.15c-0.28-0.312-0.436-0.748-0.436-1.184V4.184z M16.52,17.677l-0.592,0.156
		c-0.062,0.218-0.156,0.405-0.249,0.592l0.312,0.53c0.062,0.125,0.031,0.249-0.062,0.343l-0.904,0.873
		c-0.093,0.093-0.218,0.093-0.343,0.062l-0.53-0.312c-0.187,0.093-0.374,0.187-0.592,0.249l-0.156,0.592
		c-0.031,0.125-0.156,0.187-0.28,0.187h-1.246c-0.125,0-0.249-0.093-0.28-0.218l-0.156-0.592c-0.187-0.062-0.405-0.156-0.592-0.249
		l-0.53,0.312c-0.125,0.062-0.249,0.031-0.343-0.062l-0.904-0.841c-0.093-0.093-0.093-0.218-0.062-0.343l0.312-0.53
		c-0.093-0.187-0.187-0.405-0.249-0.592L8.48,17.677c-0.125-0.031-0.218-0.156-0.218-0.28V16.15c0-0.125,0.093-0.249,0.218-0.28
		l0.592-0.156c0.062-0.218,0.156-0.405,0.249-0.592l-0.312-0.53c-0.062-0.125-0.031-0.249,0.062-0.343l0.904-0.904
		c0.093-0.093,0.218-0.093,0.343-0.062l0.53,0.312c0.187-0.093,0.405-0.187,0.592-0.249l0.156-0.592
		c0.031-0.125,0.156-0.218,0.28-0.218h1.246c0.125,0,0.249,0.093,0.28,0.218l0.156,0.592c0.187,0.062,0.405,0.156,0.592,0.249
		l0.53-0.312c0.125-0.062,0.249-0.031,0.343,0.062l0.904,0.873c0.093,0.093,0.125,0.218,0.062,0.343l-0.312,0.53
		c0.093,0.187,0.187,0.374,0.249,0.592c0.187,0.031,0.467,0.093,0.561,0.125c0.125,0.031,0.249,0.156,0.249,0.28v1.309
		C16.738,17.522,16.645,17.615,16.52,17.677z M17.05,10.572H7.95c-0.187,0-0.312-0.125-0.312-0.312c0-0.187,0.125-0.312,0.312-0.312
		h9.099c0.156,0,0.312,0.125,0.312,0.312C17.361,10.448,17.205,10.572,17.05,10.572z M17.05,8.516H7.95
		c-0.187,0-0.312-0.125-0.312-0.312c0-0.156,0.125-0.312,0.312-0.312h9.099c0.156,0,0.312,0.156,0.312,0.312
		C17.361,8.36,17.205,8.516,17.05,8.516z M17.05,6.428H7.95c-0.187,0-0.312-0.125-0.312-0.312c0-0.156,0.125-0.312,0.312-0.312
		h9.099c0.156,0,0.312,0.156,0.312,0.312S17.205,6.428,17.05,6.428z"/>
	<path fill="#00BD51" d="M3.463,3.031C2.902,3.156,2.528,3.654,2.528,4.246v1.932c0,0.125,0.093,0.249,0.249,0.249h1.932
		c0.125,0,0.249-0.093,0.249-0.249V4.184C4.928,3.436,4.242,2.875,3.463,3.031z"/>
	<path fill="#00BD51" d="M22.254,17.958h-1.901c-0.125,0-0.249,0.093-0.249,0.249v3.584c0,0.748,0.686,1.34,1.433,1.184
		c0.561-0.125,0.935-0.623,0.935-1.215v-3.584C22.472,18.051,22.378,17.958,22.254,17.958z M21.319,21.199
		c0,0.156-0.125,0.312-0.312,0.312c-0.156,0-0.312-0.156-0.312-0.312v-2.431c0-0.156,0.156-0.312,0.312-0.312
		c0.187,0,0.312,0.156,0.312,0.312V21.199z"/>
</g>
</svg>
