<?xml version="1.0" encoding="utf-8"?>
<!-- Generator: Adobe Illustrator 17.0.0, SVG Export Plug-In . SVG Version: 6.00 Build 0)  -->
<!DOCTYPE svg PUBLIC "-//W3C//DTD SVG 1.1//EN" "http://www.w3.org/Graphics/SVG/1.1/DTD/svg11.dtd">
<svg version="1.1" id="Layer_1" xmlns="http://www.w3.org/2000/svg" xmlns:xlink="http://www.w3.org/1999/xlink" x="0px" y="0px"
	 width="25px" height="25px" viewBox="0 0 25 25" enable-background="new 0 0 25 25" xml:space="preserve">
<g>
	<path opacity="0.5" fill="#2C2F33" d="M22.5,12.891c-0.064,0.417-0.112,0.837-0.195,1.25c-0.364,1.805-1.19,3.373-2.459,4.706
		c-0.158,0.166-0.322,0.182-0.459,0.052c-0.134-0.127-0.132-0.3,0.023-0.464c0.866-0.915,1.53-1.959,1.938-3.15
		c0.94-2.746,0.669-5.376-0.815-7.875c-0.03-0.05-0.064-0.098-0.097-0.146c-0.007-0.01-0.019-0.016-0.059-0.047
		c-0.036,0.277-0.069,0.535-0.102,0.793c-0.007,0.052-0.007,0.104-0.018,0.155c-0.043,0.194-0.177,0.299-0.342,0.272
		c-0.18-0.03-0.284-0.17-0.262-0.369c0.039-0.356,0.085-0.71,0.127-1.066c0.024-0.2,0.045-0.401,0.071-0.601
		c0.036-0.283,0.187-0.387,0.457-0.31c0.525,0.15,1.049,0.303,1.572,0.457c0.218,0.064,0.31,0.21,0.254,0.386
		c-0.057,0.18-0.205,0.243-0.424,0.182c-0.243-0.068-0.486-0.136-0.775-0.217c0.059,0.101,0.098,0.169,0.139,0.236
		c0.788,1.293,1.254,2.692,1.39,4.201c0.006,0.063,0.024,0.125,0.036,0.187C22.5,11.979,22.5,12.435,22.5,12.891z"/>
	<path opacity="0.5" fill="#2C2F33" d="M2.5,11.445c0.061-0.404,0.107-0.811,0.185-1.211c0.333-1.71,1.085-3.217,2.228-4.531
		c0.165-0.189,0.339-0.222,0.485-0.09c0.153,0.138,0.152,0.308-0.013,0.493c-1.098,1.233-1.82,2.657-2.121,4.279
		c-0.441,2.375,0.007,4.587,1.284,6.634c0.01,0.016,0.022,0.031,0.068,0.094c0.026-0.279,0.047-0.505,0.069-0.731
		c0.011-0.117,0.014-0.234,0.035-0.349c0.034-0.185,0.162-0.28,0.329-0.257c0.169,0.023,0.283,0.149,0.265,0.324
		c-0.063,0.621-0.131,1.242-0.206,1.861c-0.026,0.217-0.204,0.323-0.414,0.257c-0.545-0.171-1.089-0.347-1.633-0.525
		c-0.189-0.062-0.286-0.232-0.234-0.389c0.057-0.172,0.232-0.253,0.43-0.19c0.246,0.077,0.489,0.162,0.746,0.247
		c-0.222-0.431-0.448-0.832-0.641-1.248c-0.466-1.006-0.736-2.066-0.829-3.171C2.529,12.887,2.512,12.83,2.5,12.773
		C2.5,12.331,2.5,11.888,2.5,11.445z"/>
	<path opacity="0.5" fill="#2C2F33" d="M18.83,2.89c0-0.18-0.04-0.31-0.2-0.39H6.37C6.23,2.6,6.2,2.74,6.2,2.91v10.78
		c0,0.34,0.07,0.41,0.43,0.41h1.58c0.13,0,0.54,0.44,0.54,0.57c0,0.03-0.03,0.06-0.04,0.09c-0.13,0.33-0.28,0.66-0.4,0.99
		c-0.04,0.11-0.09,0.15-0.2,0.17c-0.29,0.03-0.58,0.07-0.87,0.12c-0.23,0.04-0.32,0.15-0.32,0.38v1.01c0,0.28,0.1,0.39,0.38,0.42
		c0.27,0.03,0.53,0.06,0.8,0.08c0.12,0.01,0.17,0.07,0.21,0.18c0.12,0.33,0.27,0.65,0.39,0.97c0.03,0.07,0.02,0.17-0.01,0.22
		c-0.17,0.25-0.36,0.48-0.54,0.73c-0.12,0.16-0.1,0.29,0.04,0.43c0.25,0.26,0.51,0.52,0.77,0.77c0.19,0.19,0.3,0.2,0.52,0.03
		c0.23-0.16,0.45-0.34,0.68-0.5c0.05-0.03,0.14-0.04,0.2-0.02c0.34,0.14,0.68,0.27,1.01,0.42c0.06,0.03,0.13,0.12,0.15,0.19
		c0.04,0.21,0.05,0.42,0.09,0.63c0.05,0.18,0.12,0.35,0.19,0.52h1.48c0.05-0.15,0.12-0.3,0.15-0.45c0.05-0.23,0.08-0.47,0.11-0.71
		c0.01-0.11,0.06-0.15,0.16-0.19c0.33-0.12,0.66-0.27,0.99-0.4c0.06-0.02,0.16-0.02,0.22,0.02c0.23,0.16,0.44,0.34,0.66,0.51
		c0.2,0.14,0.38,0.13,0.55-0.03c0.25-0.25,0.49-0.5,0.74-0.75c0.16-0.16,0.17-0.28,0.04-0.46c-0.18-0.24-0.36-0.47-0.53-0.71
		c-0.03-0.05-0.05-0.14-0.02-0.2c0.13-0.34,0.27-0.68,0.42-1.02c0.03-0.06,0.1-0.13,0.17-0.14c0.27-0.05,0.55-0.08,0.83-0.12
		c0.27-0.04,0.36-0.14,0.36-0.41c0.01-0.33,0.01-0.66,0-0.99c0-0.28-0.08-0.37-0.35-0.42c-0.26-0.04-0.52-0.08-0.78-0.1
		c-0.15-0.02-0.22-0.08-0.26-0.23c-0.06-0.22-0.12-0.46-0.25-0.65c-0.22-0.31-0.16-0.55,0.1-0.8c0.1-0.1,0.18-0.15,0.33-0.15
		c0.5,0.01,1.01,0,1.52,0c0.35,0,0.43-0.07,0.42-0.42C18.85,10.08,18.84,6.49,18.83,2.89z M14.61,3.11h3.47
		c0.09,0,0.15,0.01,0.15,0.12c0,0.68,0,1.36-0.01,2.03c0,0.01-0.01,0.02-0.02,0.05h-3.59V3.11z M11.03,3.12h2.95v4.85
		c-0.22-0.22-0.4-0.41-0.59-0.61c-0.2-0.21-0.41-0.43-0.62-0.65c-0.2-0.2-0.34-0.2-0.54,0c-0.39,0.41-0.78,0.82-1.2,1.25V3.12z
		 M6.78,3.12h3.61V5.3H6.78V3.12z M12.51,18.98c-1.15,0.01-2.09-0.92-2.1-2.07c-0.02-1.14,0.92-2.1,2.07-2.11
		c1.16,0,2.1,0.92,2.11,2.08C14.6,18.05,13.68,18.98,12.51,18.98z M18.24,13.47h-1.25c-0.03,0-0.08-0.04-0.11-0.06
		c-0.26-0.27-0.53-0.54-0.79-0.81c-0.18-0.17-0.28-0.18-0.48-0.04c-0.24,0.18-0.47,0.36-0.71,0.53c-0.05,0.03-0.14,0.04-0.2,0.02
		c-0.34-0.13-0.67-0.28-1.01-0.41c-0.1-0.04-0.14-0.09-0.15-0.19c-0.03-0.28-0.07-0.56-0.12-0.83c-0.04-0.28-0.13-0.36-0.41-0.36
		h-1.02c-0.24,0-0.35,0.1-0.38,0.35c-0.04,0.28-0.08,0.57-0.13,0.85c-0.01,0.06-0.08,0.14-0.14,0.17c-0.33,0.14-0.67,0.27-1,0.42
		c-0.09,0.04-0.15,0.03-0.22-0.03c-0.22-0.18-0.45-0.35-0.68-0.53c-0.21-0.16-0.32-0.16-0.5,0.03c-0.28,0.27-0.55,0.54-0.82,0.81
		c-0.04,0.04-0.09,0.08-0.14,0.08H6.96c-0.04,0-0.09,0-0.15-0.01V5.91h3.63v0.23c0,0.84-0.01,1.67,0,2.51
		c0,0.12,0.05,0.25,0.13,0.33c0.12,0.12,0.27,0.09,0.42-0.07c0.47-0.47,0.93-0.95,1.39-1.43c0.04-0.05,0.09-0.09,0.2-0.21
		c0.04,0.08,0.06,0.15,0.1,0.2c0.46,0.48,0.92,0.96,1.38,1.44c0.17,0.18,0.39,0.18,0.5,0c0.04-0.07,0.05-0.17,0.06-0.26V5.91h3.62
		V13.47z"/>
</g>
</svg>
