<?xml version="1.0" encoding="utf-8"?>
<!-- Generator: Adobe Illustrator 17.0.0, SVG Export Plug-In . SVG Version: 6.00 Build 0)  -->
<!DOCTYPE svg PUBLIC "-//W3C//DTD SVG 1.1//EN" "http://www.w3.org/Graphics/SVG/1.1/DTD/svg11.dtd">
<svg version="1.1" id="Layer_1" xmlns="http://www.w3.org/2000/svg" xmlns:xlink="http://www.w3.org/1999/xlink" x="0px" y="0px"
	 width="22px" height="22px" viewBox="0 0 22 22" enable-background="new 0 0 22 22" xml:space="preserve">
<g opacity="0.5">
	<path fill="#2C2F33" d="M3.999,2c4.667,0,9.334,0,14.002,0c0,6,0,12,0,18c-4.679,0-9.335,0-14.002,0
		C3.999,13.992,3.999,7.996,3.999,2z M16.935,18.95c0-3.301,0-6.586,0-9.887c-0.09,0-0.171,0-0.252,0
		c-3.019,0-6.037-0.002-9.056,0.001c-0.797,0-1.525-0.211-2.173-0.683C5.324,8.287,5.203,8.18,5.065,8.07c0,3.637,0,7.255,0,10.88
		C9.024,18.95,12.972,18.95,16.935,18.95z M16.933,7.998c0-1.658,0-3.296,0-4.928c-2.292,0-4.571,0-6.836,0
		c1.298,1.648,1.297,3.283-0.008,4.928C12.37,7.998,14.646,7.998,16.933,7.998z M5.055,3.086c0,0.044,0,0.096,0,0.148
		c0,0.756-0.002,1.511,0,2.267c0.004,1.505,1.242,2.627,2.738,2.485c1.227-0.117,2.18-1.16,2.21-2.418
		C10.032,4.35,9.11,3.207,7.902,3.103C6.967,3.022,6.02,3.086,5.055,3.086z"/>
	<path fill="#2C2F33" d="M14.746,13.49c0,0.344,0,0.681,0,1.031c-2.498,0-4.99,0-7.491,0c0-0.344,0-0.68,0-1.031
		C9.753,13.49,12.244,13.49,14.746,13.49z"/>
	<path fill="#2C2F33" d="M13.247,15.741c0,0.348,0,0.681,0,1.03c-1.997,0-3.989,0-5.992,0c0-0.344,0-0.68,0-1.03
		C9.252,15.741,11.24,15.741,13.247,15.741z"/>
	<path fill="#2C2F33" d="M7.254,12.269c0-0.348,0-0.685,0-1.033c0.874,0,1.737,0,2.611,0c0,0.345,0,0.682,0,1.033
		C9.001,12.269,8.138,12.269,7.254,12.269z"/>
	<path fill="#2C2F33" d="M13.643,5.008c0.619,0,1.23,0,1.851,0c0,0.347,0,0.684,0,1.034c-0.614,0-1.226,0-1.851,0
		C13.643,5.701,13.643,5.36,13.643,5.008z"/>
	<path fill="#2C2F33" d="M8.051,6.055c0,0.277,0,0.522,0,0.779c-0.35,0-0.687,0-1.045,0c0-0.251,0-0.5,0-0.768
		c-0.268,0-0.517,0-0.778,0c0-0.361,0-0.703,0-1.065c0.251,0,0.5,0,0.768,0c0-0.268,0-0.517,0-0.775c0.357,0,0.695,0,1.052,0
		c0,0.25,0,0.498,0,0.766c0.268,0,0.517,0,0.781,0c0,0.361,0,0.702,0,1.063C8.575,6.055,8.326,6.055,8.051,6.055z"/>
</g>
</svg>
