<?xml version="1.0" encoding="utf-8"?>
<!-- Generator: Adobe Illustrator 17.0.0, SVG Export Plug-In . SVG Version: 6.00 Build 0)  -->
<!DOCTYPE svg PUBLIC "-//W3C//DTD SVG 1.1//EN" "http://www.w3.org/Graphics/SVG/1.1/DTD/svg11.dtd">
<svg version="1.1" id="Layer_1" xmlns="http://www.w3.org/2000/svg" xmlns:xlink="http://www.w3.org/1999/xlink" x="0px" y="0px"
	 width="22px" height="22px" viewBox="0 0 22 22" enable-background="new 0 0 22 22" xml:space="preserve">
<g>
	<path fill="#FFFFFF" d="M2.511,17.979h6.117v0.649C8.628,19.926,9.702,21,11,21s2.372-1.074,2.372-2.372v-0.649h6.117
		c0.275,0,0.499-0.225,0.499-0.499c0-1.448-0.949-2.672-2.247-3.096v-4.02c0-3.046-1.998-5.643-4.744-6.517V2.998
		C12.998,1.899,12.099,1,11,1S9.002,1.899,9.002,2.998v0.849C6.256,4.72,4.258,7.292,4.258,10.363v4.045
		c-1.298,0.424-2.247,1.648-2.247,3.096C2.011,17.754,2.236,17.979,2.511,17.979z M12.373,18.653c0,0.749-0.624,1.373-1.373,1.373
		s-1.373-0.624-1.373-1.373v-0.649h2.747V18.653z M10.001,2.998c0-0.549,0.449-0.999,0.999-0.999s0.999,0.449,0.999,0.999v0.599
		C11.674,3.547,11.35,3.522,11,3.522s-0.674,0.025-0.999,0.075V2.998z M5.257,10.363c0-3.196,2.572-5.818,5.743-5.818
		s5.743,2.622,5.743,5.818v3.895H5.257V10.363z M5.257,15.232h11.486c1.074,0,1.973,0.749,2.197,1.748H3.06
		C3.285,15.981,4.184,15.232,5.257,15.232z"/>
</g>
</svg>
