<?xml version="1.0" encoding="utf-8"?>
<!-- Generator: Adobe Illustrator 17.0.0, SVG Export Plug-In . SVG Version: 6.00 Build 0)  -->
<!DOCTYPE svg PUBLIC "-//W3C//DTD SVG 1.1//EN" "http://www.w3.org/Graphics/SVG/1.1/DTD/svg11.dtd">
<svg version="1.1" id="Layer_1" xmlns="http://www.w3.org/2000/svg" xmlns:xlink="http://www.w3.org/1999/xlink" x="0px" y="0px"
	 width="25px" height="25px" viewBox="0 0 25 25" enable-background="new 0 0 25 25" xml:space="preserve">
<g transform="translate(0,-952.36218)">
	<path fill="#00BD51" d="M11.116,954.862v1.994c0.001,0.074-0.053,0.138-0.127,0.149c-0.876,0.17-1.701,0.487-2.448,0.923
		c-0.061,0.036-0.139,0.023-0.186-0.03l-1.317-1.533l-2.098,1.808l1.332,1.555c0.05,0.054,0.053,0.136,0.007,0.193
		c-0.759,0.983-1.286,2.148-1.51,3.423c-0.011,0.073-0.075,0.127-0.149,0.126H2.5v2.783h2.173c0.07-0.002,0.131,0.044,0.149,0.111
		c0.263,1.229,0.806,2.362,1.57,3.304c0.043,0.054,0.043,0.132,0,0.186l-1.451,1.696l2.098,1.8l1.481-1.719
		c0.046-0.049,0.119-0.062,0.179-0.03c0.704,0.39,1.477,0.675,2.292,0.833c0.071,0.011,0.124,0.07,0.127,0.141v2.284h2.768v-2.284
		c0.002-0.069,0.051-0.128,0.119-0.141c0.815-0.158,1.588-0.444,2.292-0.833c0.061-0.036,0.139-0.023,0.186,0.03l1.481,1.719
		l2.105-1.8l-1.458-1.704c-0.05-0.054-0.053-0.136-0.007-0.194c0.762-0.94,1.315-2.062,1.577-3.289
		c0.017-0.065,0.075-0.11,0.141-0.111h2.18v-2.783h-2.128c-0.071-0.003-0.131-0.056-0.141-0.126
		c-0.225-1.273-0.746-2.441-1.503-3.423c-0.048-0.056-0.048-0.138,0-0.193l1.339-1.555l-2.105-1.808l-1.325,1.533
		c-0.047,0.053-0.125,0.065-0.186,0.03c-0.747-0.436-1.572-0.753-2.448-0.923c-0.07-0.014-0.12-0.077-0.119-0.149v-1.994H11.116
		L11.116,954.862z M12.493,958.419c3.513,0,6.369,2.849,6.369,6.361c0,3.077-2.191,5.638-5.097,6.228
		c-0.002,0.003-0.005,0.005-0.007,0.008c-0.015,0.003-0.03,0.005-0.045,0.007c-0.01,0.003-0.02,0.006-0.03,0.007
		c-0.384,0.073-0.783,0.119-1.19,0.119c-0.407,0-0.799-0.046-1.183-0.119h-0.015c-0.01-0.001-0.02-0.004-0.03-0.007h-0.007
		c-0.01-0.001-0.02-0.004-0.03-0.007c-2.906-0.589-5.089-3.157-5.089-6.235C6.138,961.268,8.98,958.419,12.493,958.419
		L12.493,958.419z M12.493,958.716c-3.352,0-6.057,2.712-6.057,6.064c0,2.885,2.014,5.284,4.71,5.9v-2.664
		c-0.246-0.115-0.478-0.254-0.684-0.424c-0.234-0.192-0.44-0.42-0.61-0.67c-0.17-0.25-0.302-0.524-0.394-0.818
		c-0.092-0.294-0.141-0.607-0.141-0.93c0-0.323,0.049-0.635,0.141-0.93c0.093-0.295,0.225-0.57,0.394-0.818
		c0.169-0.249,0.375-0.476,0.61-0.67c0.235-0.193,0.493-0.349,0.774-0.469c0.075-0.033,0.163,0.001,0.196,0.077
		c0.002,0.004,0.003,0.008,0.005,0.012c0,0.003,0,0.005,0,0.008c0.005,0.014,0.007,0.029,0.007,0.044v2.694l1.049,0.588l1.049-0.588
		v-2.708c0-0.015,0.003-0.03,0.007-0.045c0-0.002,0-0.005,0-0.007c0.002-0.003,0.005-0.005,0.008-0.007c0-0.002,0-0.005,0-0.007
		c0.002-0.003,0.005-0.005,0.007-0.008c0-0.002,0-0.005,0-0.007c0.002-0.003,0.005-0.005,0.007-0.007
		c0.01-0.015,0.023-0.027,0.037-0.037c0.005-0.003,0.01-0.005,0.015-0.008c0.007-0.003,0.015-0.005,0.022-0.007
		c0.005-0.003,0.01-0.005,0.015-0.007c0.027-0.005,0.056-0.003,0.082,0.007c0.285,0.12,0.554,0.283,0.789,0.476
		c0.059,0.048,0.116,0.097,0.171,0.149c0.164,0.154,0.31,0.324,0.439,0.513c0.171,0.252,0.309,0.538,0.402,0.833
		c0.07,0.222,0.116,0.454,0.134,0.692c0.006,0.079,0.007,0.157,0.007,0.238c0,0.324-0.048,0.642-0.141,0.938
		c-0.093,0.296-0.231,0.567-0.402,0.819c-0.171,0.251-0.375,0.484-0.61,0.677c-0.052,0.043-0.108,0.089-0.164,0.126
		c-0.055,0.038-0.113,0.071-0.171,0.104c-0.117,0.067-0.235,0.123-0.357,0.179v2.664c2.702-0.612,4.725-3.011,4.725-5.901
		C18.564,961.428,15.845,958.716,12.493,958.716L12.493,958.716z"/>
</g>
</svg>
