<?xml version="1.0" encoding="utf-8"?>
<!-- Generator: Adobe Illustrator 17.0.0, SVG Export Plug-In . SVG Version: 6.00 Build 0)  -->
<!DOCTYPE svg PUBLIC "-//W3C//DTD SVG 1.1//EN" "http://www.w3.org/Graphics/SVG/1.1/DTD/svg11.dtd">
<svg version="1.1" id="Layer_1" xmlns="http://www.w3.org/2000/svg" xmlns:xlink="http://www.w3.org/1999/xlink" x="0px" y="0px"
	 width="16px" height="16px" viewBox="0 0 16 16" enable-background="new 0 0 16 16" xml:space="preserve">
<g>
	<path fill="#ECEEF3" d="M16,9.677V6.323l-1.369-0.548c-0.103-0.306-0.226-0.603-0.369-0.892l0.581-1.354l-2.372-2.373l-1.355,0.582
		c-0.288-0.144-0.585-0.267-0.891-0.369L9.677,0H6.323L5.775,1.369C5.47,1.472,5.172,1.595,4.884,1.738L3.529,1.156L1.157,3.529
		l0.581,1.354C1.595,5.172,1.471,5.47,1.369,5.775L0,6.323v3.353l1.369,0.548c0.103,0.306,0.226,0.603,0.369,0.892l-0.581,1.354
		l2.372,2.373l1.355-0.582c0.288,0.144,0.585,0.267,0.891,0.369L6.323,16h3.355l0.547-1.369c0.306-0.103,0.604-0.226,0.891-0.369
		l1.355,0.582l2.372-2.373l-0.581-1.354c0.143-0.288,0.267-0.586,0.369-0.892L16,9.677z M8,12c-2.206,0-4-1.794-4-4s1.794-4,4-4
		s4,1.794,4,4S10.206,12,8,12L8,12z M8,12"/>
</g>
</svg>
