<?xml version="1.0" encoding="utf-8"?>
<!-- Generator: Adobe Illustrator 17.0.0, SVG Export Plug-In . SVG Version: 6.00 Build 0)  -->
<!DOCTYPE svg PUBLIC "-//W3C//DTD SVG 1.1//EN" "http://www.w3.org/Graphics/SVG/1.1/DTD/svg11.dtd">
<svg version="1.1" id="Layer_1" xmlns="http://www.w3.org/2000/svg" xmlns:xlink="http://www.w3.org/1999/xlink" x="0px" y="0px"
	 width="55px" height="55px" viewBox="0 0 55 55" enable-background="new 0 0 55 55" xml:space="preserve">
<g>
	<path id="_201790512" fill="#145DA1" d="M46.729,34.335c0.028-0.105,1.157-1.212,1.315-1.411c0.153-0.193,0.359-0.508,0.483-0.709
		c0.141-0.227,0.348-0.433,0.519-0.722c0.227-0.385,0.732-1.076,1.042-1.48c0.317-0.412,0.695-0.991,1.057-1.439
		c0.363-0.45,0.643-1.062,0.186-1.415c-0.493-0.38-1.143-0.448-1.675-0.213c-0.657,0.291-1.046,0.419-1.689,0.828
		c-0.62,0.393-0.996,0.722-1.49,1.166c-0.361,0.324-0.937,0.871-1.273,1.299c-0.314,0.401-0.876,1.034-1.114,1.406
		c-0.23,0.359-0.964,1.063-1.282,1.371c-0.509,0.492-1.086,0.671-1.7,0.794c-0.226,0.045-0.702,0.037-0.943,0.068
		c-0.283,0.037-0.615,0.075-0.898,0.118c-0.406,0.063-1.628,0.243-1.935,0.38c-0.442,0.198-1.218,0.379-1.785,0.589
		c-0.439,0.163-1.285,0.642-1.605,0.938c-0.502,0.465-0.816,0.66-1.345,1.174c-0.477,0.463-0.845,0.862-1.233,1.369
		c-0.629,0.822-1.513,2.017-1.848,2.942c-0.396,1.093-0.865,2.031-0.893,3.437c-0.013,0.629,0.105,1.052,0.143,1.648
		c0.05,0.785,0.121,1.455,0.142,2.269c0.067,2.519-0.615,2.226,1.901,2.226c1.223,0,2.446,0,3.669,0
		c0.478,0,3.461,0.091,3.647-0.091c0.134-0.132,0.069-2.414,0.068-2.774c-0.003-1.435,0.207-2.004,1.103-2.969
		c0.76-0.818,2.364-1.643,3.244-2.15c0.952-0.548,2.228-1.318,3.23-1.998c0.446-0.303,1.03-0.644,1.542-0.972
		c0.579-0.37,0.954-0.69,1.493-1.054c1.014-0.684,1.465-1.847,2.04-2.875c0.284-0.508,0.501-1.034,0.736-1.545
		c0.257-0.558,0.564-1.101,0.802-1.649c0.484-1.117,0.957-2.218,1.406-3.306c0.593-1.439,0.802-2.287,0.673-4.219
		c-0.07-1.05-0.064-2.625-0.214-3.533c-0.151-0.912-0.132-2.726-0.46-3.71c-0.244-0.732-0.87-0.812-1.398-0.361
		c-0.489,0.418-0.741,1.041-0.866,1.628c-0.24,1.125-0.344,2.196-0.498,3.569c-0.054,0.487-0.084,1.3-0.168,1.705
		c-0.067,0.32-0.059,0.562-0.098,0.871c-0.042,0.331-0.211,0.687,0.043,0.849c0.216,0.137,0.399,0.071,0.751,0.327
		c0.298,0.217,0.442,0.468,0.47,0.788c0.051,0.579-0.319,1.09-0.679,1.536c-0.378,0.468-0.758,0.969-1.142,1.422
		c-0.432,0.51-0.684,1.011-1.057,1.488c-0.269,0.344-0.625,1.161-0.934,1.388C47.971,33.514,46.942,34.316,46.729,34.335
		L46.729,34.335z"/>
	<path id="_201790440" fill="#145DA1" d="M8.127,34.232c-0.178,0.031-1.449-0.928-1.539-1.038c-0.221-0.271-0.682-1.127-0.956-1.537
		c-0.665-0.996-1.483-1.924-2.229-2.906c-0.351-0.462-0.636-1.059-0.37-1.586c0.441-0.875,1.326-0.513,1.246-1.128
		c-0.154-1.196-0.276-2.393-0.409-3.598c-0.112-1.009-0.271-2.978-0.595-3.672c-0.216-0.462-0.55-1.121-1.252-1.266
		c-0.719-0.148-0.914,0.728-0.983,1.285c-0.285,2.3-0.539,4.657-0.539,6.996c0,1.293-0.056,1.876,0.325,2.891
		c0.164,0.436,0.451,1.261,0.669,1.668c0.262,0.489,0.414,1.061,0.705,1.649c0.274,0.554,0.443,1.062,0.755,1.675
		c0.256,0.501,0.514,1.097,0.772,1.59c0.444,0.848,1.136,2.479,1.748,3.109c0.723,0.744,2.139,1.643,3.039,2.196
		c1.102,0.677,2.078,1.266,3.165,1.971c1.794,1.164,5.092,2.345,5.089,5.047c-0.001,0.602,0,1.204,0,1.807
		c0,0.409-0.224,1.609,0.347,1.585c1.171-0.05,2.448-0.004,3.631-0.004c1.211,0,2.422,0,3.632,0c0.285,0,1.68,0.156,1.686-0.208
		c0.013-0.821,0.006-1.696,0.006-2.539c0-1.27,0.258-2.247,0.263-3.518c0.004-0.985-0.52-2.596-0.929-3.422
		c-0.586-1.184-1.182-2.057-1.942-3.006c-0.85-1.061-1.644-1.69-2.566-2.472c-0.69-0.584-2.624-1.354-3.459-1.457
		c-0.221-0.027-0.669-0.185-0.891-0.222c-0.354-0.06-0.551-0.068-0.932-0.142c-0.457-0.089-1.465-0.082-1.846-0.182
		c-0.356-0.094-0.524-0.049-0.887-0.297c-0.263-0.18-0.503-0.31-0.761-0.541c-0.419-0.375-0.864-0.848-1.246-1.324
		c-0.75-0.933-1.514-1.847-2.343-2.673c-0.376-0.375-0.999-0.846-1.437-1.125c-0.653-0.416-1.121-0.556-1.749-0.879
		c-0.484-0.249-1.169-0.175-1.621,0.145c-0.671,0.475-0.178,1.02,0.129,1.498c0.651,1.014,1.407,1.847,2.017,2.807
		c0.239,0.376,0.765,1.16,1.026,1.477C6.979,32.988,8.132,34.197,8.127,34.232L8.127,34.232z"/>
	<path id="_201790368" fill="#00C551" d="M29.26,27.327c0.552,0.503,0.781,1.136,0.859,1.839c0.142,1.282-0.956,2.731-2.589,2.789
		c-1.595,0.057-2.713-1.38-2.692-2.675c0.013-0.789,0.267-1.184,0.722-1.787c0.192-0.255,0.519-0.454,0.786-0.597
		C27.251,26.413,28.522,26.655,29.26,27.327L29.26,27.327z M18.346,28.7c0.061,0.089,0.035,2.246,0.035,2.62
		c0,0.479,0.004,0.961-0.002,1.44c-0.007,0.536,0.315,0.451,0.687,0.612c0.254,0.11,0.625,0.179,0.871,0.307
		c0.229,0.12,0.581,0.293,0.873,0.438c0.489,0.243,1.093,0.718,1.577,1.164c0.295,0.272,0.446,0.539,0.685,0.123
		c0.179-0.312,0.265-0.53,0.421-0.745c0.392-0.539,0.793-0.998,1.338-1.427c0.638-0.502,1.064-0.588,1.785-0.886
		c0.34-0.141,0.423,0.148,0.697,0.445c0.265,0.287,0.489-0.21,0.756-0.444c0.255-0.223,1.614,0.567,1.824,0.714
		c0.585,0.41,0.967,0.77,1.376,1.301c0.281,0.365,0.297,0.439,0.498,0.776c0.192,0.321,0.23,0.685,0.619,0.314
		c0.418-0.398,1.032-0.879,1.578-1.216c0.585-0.362,1.287-0.691,1.891-0.851c1.208-0.32,1.022-0.254,0.886-1.234
		c-0.042-0.305-0.443-2.997-0.207-3.343l0.079-0.019l0.966,4.081l0.031-0.013l3.063-0.469l-0.007-0.047
		c0.011-0.615-0.696-3.514-0.809-3.805c-0.191-0.489-0.35-1.138-0.624-1.674c-0.123-0.241-0.257-0.583-0.377-0.809
		c-0.152-0.285-0.344-0.57-0.5-0.836c-0.597-1.018-1.708-2.008-2.694-2.69c-0.53-0.366-1.088-0.731-1.62-0.923
		c-0.346-0.125-0.571-0.35-0.897,0.001c-0.145,0.157-0.564,0.621-0.734,0.72l-0.967-0.955c-0.738,0.291-1.13,0.53-1.845,0.976
		c-0.262,0.164-0.556,0.382-0.833,0.578c-0.201,0.142-0.589,0.617-0.75,0.545c-0.018,0.002-0.491-0.5-0.583-0.593
		c-0.204-0.206-0.396-0.37-0.614-0.549c-0.402-0.329-0.951-0.708-1.372-0.978c-0.274-0.175-1.233-0.671-1.541-0.743
		c-0.397-0.093-0.322-0.062-0.649,0.265c-0.146,0.146-0.519,0.483-0.615,0.629c-0.261-0.172-0.863-1.007-1.098-0.948
		c-0.414,0.104-0.941,0.447-1.29,0.641c-0.918,0.51-1.739,1.182-2.405,1.849c-1.364,1.365-2.202,3.127-2.717,4.968
		c-0.216,0.772-0.59,2.037-0.683,2.871c-0.178,1.612-0.749,1.544,1.199,1.7c0.464,0.037,1.01,0.159,1.421,0.234
		c0.374,0.068,0.439,0.047,0.474-0.373c0.022-0.275,0.098-0.462,0.139-0.766C17.746,31.184,18.246,28.858,18.346,28.7L18.346,28.7z"
		/>
	<path id="_201790296" fill="#06141E" d="M18.486,16.504c0.065,1.129,0.613,2.228,1.295,2.808c0.849,0.721,1.879,1.214,2.997,1.111
		c0.985-0.091,2.068-0.427,2.816-1.319c0.62-0.74,1.205-1.702,1.116-2.975c-0.084-1.22-0.58-2.173-1.438-2.931
		C22.544,10.79,18.287,13.037,18.486,16.504L18.486,16.504z"/>
	<path id="_201790224" fill="#06141E" d="M30.687,13.666c-0.497,0.242-0.884,0.517-1.321,0.985
		c-0.696,0.744-1.008,1.862-0.987,2.723c0.025,1.026,0.421,2.01,1.278,2.837c0.614,0.593,2.037,1.24,2.877,1.076
		c0.551-0.108,0.988-0.086,1.508-0.356c0.46-0.239,0.951-0.552,1.295-0.948c0.759-0.877,1.011-1.592,1.033-2.77
		C36.426,14.315,33.196,12.444,30.687,13.666L30.687,13.666z"/>
	<path fill="#00C551" d="M27.5,13.534c-0.505,0-0.915-0.409-0.915-0.915V4.915C26.585,4.409,26.995,4,27.5,4
		s0.915,0.409,0.915,0.915v7.704C28.415,13.124,28.005,13.534,27.5,13.534z"/>
	<path fill="#00C551" d="M31.352,9.682h-7.704c-0.505,0-0.915-0.409-0.915-0.915s0.41-0.915,0.915-0.915h7.704
		c0.505,0,0.915,0.409,0.915,0.915S31.857,9.682,31.352,9.682z"/>
</g>
</svg>
