<?xml version="1.0" encoding="utf-8"?>
<!-- Generator: Adobe Illustrator 17.0.0, SVG Export Plug-In . SVG Version: 6.00 Build 0)  -->
<!DOCTYPE svg PUBLIC "-//W3C//DTD SVG 1.1//EN" "http://www.w3.org/Graphics/SVG/1.1/DTD/svg11.dtd">
<svg version="1.1" id="Layer_1" xmlns="http://www.w3.org/2000/svg" xmlns:xlink="http://www.w3.org/1999/xlink" x="0px" y="0px"
	 width="55px" height="55px" viewBox="0 0 55 55" enable-background="new 0 0 55 55" xml:space="preserve">
<g>
	<path fill="#00C551" d="M24.397,21.962v11.204h-1.585v-9.812h-2.529v-1.393H24.397z"/>
	<path fill="#00C551" d="M34.718,31.773v1.393h-8.052v-1.088l4.563-4.402c1.185-1.152,1.408-1.856,1.408-2.561
		c0-1.152-0.816-1.857-2.385-1.857c-1.2,0-2.177,0.385-2.865,1.217l-1.089-0.944c0.865-1.072,2.354-1.696,4.098-1.696
		c2.338,0,3.842,1.2,3.842,3.121c0,1.088-0.32,2.064-1.841,3.521l-3.425,3.297H34.718z"/>
	<path fill="#00C551" d="M18.002,26.771h11.204v1.585H18.002V26.771z"/>
	<path fill="#145DA1" d="M26.8,6.917c-0.553,0-1-0.447-1-1V2.232c0-0.553,0.447-1,1-1s1,0.447,1,1v3.685
		C27.8,6.469,27.353,6.917,26.8,6.917z"/>
	<path fill="#145DA1" d="M37.685,9.458c-0.17,0-0.342-0.043-0.499-0.134c-0.479-0.276-0.643-0.888-0.366-1.366l1.843-3.191
		c0.276-0.479,0.889-0.643,1.366-0.366c0.479,0.276,0.643,0.888,0.366,1.366l-1.843,3.191C38.366,9.28,38.03,9.458,37.685,9.458z"/>
	<path fill="#145DA1" d="M45.843,17.102c-0.346,0-0.682-0.179-0.867-0.5c-0.276-0.479-0.112-1.09,0.366-1.366l3.191-1.843
		c0.477-0.276,1.089-0.113,1.366,0.366c0.276,0.479,0.112,1.09-0.366,1.366l-3.191,1.843C46.185,17.059,46.013,17.102,45.843,17.102
		z"/>
	<path fill="#145DA1" d="M52.769,27.8h-3.685c-0.553,0-1-0.447-1-1s0.447-1,1-1h3.685c0.553,0,1,0.447,1,1S53.321,27.8,52.769,27.8z
		"/>
	<path fill="#145DA1" d="M49.732,40.528c-0.17,0-0.342-0.043-0.499-0.134l-3.191-1.843c-0.479-0.276-0.643-0.888-0.366-1.366
		c0.276-0.479,0.889-0.643,1.366-0.366l3.191,1.843c0.479,0.276,0.643,0.888,0.366,1.366C50.414,40.349,50.078,40.528,49.732,40.528
		z"/>
	<path fill="#145DA1" d="M40.741,50.033c-0.346,0-0.682-0.18-0.867-0.5l-1.842-3.191c-0.276-0.479-0.112-1.09,0.366-1.366
		c0.477-0.276,1.089-0.112,1.366,0.366l1.842,3.191c0.276,0.479,0.112,1.09-0.366,1.366C41.083,49.99,40.911,50.033,40.741,50.033z"
		/>
	<path fill="#145DA1" d="M28.2,53.768c-0.553,0-1-0.447-1-1v-3.685c0-0.553,0.447-1,1-1s1,0.447,1,1v3.685
		C29.2,53.321,28.753,53.768,28.2,53.768z"/>
	<path fill="#145DA1" d="M15.472,50.733c-0.17,0-0.342-0.043-0.499-0.134c-0.479-0.276-0.643-0.888-0.366-1.366l1.842-3.191
		c0.276-0.479,0.889-0.644,1.366-0.366c0.479,0.276,0.643,0.888,0.366,1.366l-1.842,3.191
		C16.153,50.553,15.817,50.733,15.472,50.733z"/>
	<path fill="#145DA1" d="M5.968,41.74c-0.346,0-0.682-0.18-0.867-0.5c-0.276-0.479-0.112-1.09,0.366-1.366l3.191-1.842
		c0.477-0.275,1.089-0.112,1.366,0.366c0.276,0.479,0.112,1.09-0.366,1.366l-3.191,1.842C6.31,41.697,6.138,41.74,5.968,41.74z"/>
	<path fill="#145DA1" d="M5.917,29.2H2.231c-0.553,0-1-0.447-1-1s0.447-1,1-1h3.686c0.553,0,1,0.447,1,1S6.47,29.2,5.917,29.2z"/>
	<path fill="#145DA1" d="M8.457,18.314c-0.17,0-0.342-0.043-0.499-0.134l-3.19-1.842c-0.479-0.276-0.643-0.888-0.366-1.366
		s0.889-0.644,1.366-0.366l3.19,1.842c0.479,0.276,0.643,0.888,0.366,1.366C9.139,18.134,8.803,18.314,8.457,18.314z"/>
	<path fill="#145DA1" d="M16.104,10.158c-0.346,0-0.682-0.179-0.867-0.5l-1.843-3.19c-0.276-0.479-0.112-1.09,0.366-1.366
		c0.477-0.277,1.09-0.113,1.366,0.366l1.843,3.19c0.276,0.479,0.112,1.09-0.366,1.366C16.445,10.115,16.273,10.158,16.104,10.158z"
		/>
	<path fill="none" stroke="#06141E" stroke-width="2.5" stroke-linecap="round" stroke-linejoin="round" stroke-miterlimit="10" d="
		M27.5,2.315c13.909,0,25.185,11.276,25.185,25.185S41.409,52.685,27.5,52.685S2.315,41.409,2.315,27.5
		c0-8.693,4.405-16.358,11.104-20.884"/>
</g>
</svg>
