<?xml version="1.0" encoding="utf-8"?>
<!-- Generator: Adobe Illustrator 17.0.0, SVG Export Plug-In . SVG Version: 6.00 Build 0)  -->
<!DOCTYPE svg PUBLIC "-//W3C//DTD SVG 1.1//EN" "http://www.w3.org/Graphics/SVG/1.1/DTD/svg11.dtd">
<svg version="1.1" id="Layer_1" xmlns="http://www.w3.org/2000/svg" xmlns:xlink="http://www.w3.org/1999/xlink" x="0px" y="0px"
	 width="55px" height="55px" viewBox="0 0 55 55" enable-background="new 0 0 55 55" xml:space="preserve">
<g>
	<path fill="#145DA1" d="M10.537,30.603c0-1.863,1.506-3.367,3.371-3.367c1.861,0,3.372,1.504,3.372,3.367
		c0,1.861-1.511,3.37-3.372,3.37C12.043,33.973,10.537,32.463,10.537,30.603"/>
	<path fill="#145DA1" d="M43.092,28.541c1.483,0,2.68,1.162,2.692,2.634l0.006,7.108H18.737v-9.735L43.092,28.541z"/>
	<path fill="#145DA1" d="M15.622,38.278c0.914,0,1.658-0.743,1.658-1.658c0-0.914-0.743-1.658-1.658-1.658h-4.794
		c-0.918,0-1.656,0.744-1.656,1.658c0,0.915,0.738,1.658,1.656,1.658H15.622z"/>
	<path fill="#00C551" d="M33.482,2.315c1.406,0,3.705,0.589,4.985,1.991l-1.724,3.313c-0.755-0.975-1.933-1.601-3.261-1.601
		c-1.311,0-2.478,0.612-3.231,1.568l-1.759-3.208C29.972,2.897,32.019,2.315,33.482,2.315 M32.985,5.653h0.985V4.669h0.984V3.686
		H33.97V2.702h-0.985v0.984h-0.984v0.983h0.984V5.653z"/>
	<path fill="#00C551" d="M36.641,10.35c0,1.748-1.417,3.165-3.166,3.165c-1.749,0-3.164-1.417-3.164-3.165
		c0-1.75,1.415-3.166,3.164-3.166C35.223,7.183,36.641,8.6,36.641,10.35"/>
	<path fill="#00C551" d="M30.432,14.417c-2.214,0.012-3.495,1.807-3.784,2.822l-2.696,8.849h2.729l1.987-6.79h1.414l-1.982,6.788
		h10.737l-1.967-6.788h1.413l2.042,6.79h2.688l-2.707-8.849c-0.287-1.002-1.542-2.763-3.707-2.817L30.432,14.417z"/>
	<path fill="#00C551" d="M10.259,16.452c-3.884,0-7.042-3.158-7.042-7.045c0-3.885,3.159-7.046,7.042-7.046s7.046,3.161,7.046,7.046
		C17.305,13.294,14.142,16.452,10.259,16.452 M10.259,14.708c2.922,0,5.303-2.377,5.303-5.303c0-2.92-2.382-5.302-5.303-5.302
		c-2.923,0-5.3,2.381-5.3,5.302C4.958,12.331,7.335,14.708,10.259,14.708"/>
	<path fill="#00C551" d="M10.295,10.337c-0.157,0.073-0.351,0.064-0.506-0.038c-0.131-0.085-0.215-0.218-0.237-0.366L9.545,5.84
		c0-0.294,0.239-0.531,0.531-0.531c0.293,0,0.529,0.237,0.529,0.531v3.176l2.716-1.278c0.262-0.127,0.58-0.013,0.704,0.251
		c0.125,0.267,0.011,0.581-0.252,0.707L10.295,10.337z"/>
	<path fill="#06141E" d="M47.394,45.27v7.415h4.39V29.173c0-1.209-0.977-2.193-2.19-2.193c-1.216,0-2.2,0.983-2.2,2.193v10.79H7.975
		V24.738c0-1.21-1.057-2.195-2.269-2.195v0.002c-1.21,0-2.162,0.982-2.162,2.193v27.947h4.432V45.27H47.394z"/>
</g>
</svg>
