<?xml version="1.0" encoding="utf-8"?>
<!-- Generator: Adobe Illustrator 17.0.0, SVG Export Plug-In . SVG Version: 6.00 Build 0)  -->
<!DOCTYPE svg PUBLIC "-//W3C//DTD SVG 1.1//EN" "http://www.w3.org/Graphics/SVG/1.1/DTD/svg11.dtd">
<svg version="1.1" id="Layer_1" xmlns="http://www.w3.org/2000/svg" xmlns:xlink="http://www.w3.org/1999/xlink" x="0px" y="0px"
	 width="55px" height="55px" viewBox="0 0 55 55" enable-background="new 0 0 55 55" xml:space="preserve">
<g>
	<g>
		<path fill="#00C551" d="M42.238,48.003c-1.764,0-3.442,0-5.201,0c0-5.44,0-10.848,0-16.307c-0.458,0-0.836,0-1.298,0
			c0,5.802,0,11.581,0,17.412c-5.491,0-10.898,0-16.373,0c0-1.831,0-3.642,0-5.54c1.659,0,3.293,0.075,4.916-0.024
			c1.282-0.078,2.576-0.272,3.82-0.592c1.406-0.361,2.349-1.928,2.196-3.333c-0.168-1.547-1.295-2.749-2.782-2.95
			c-0.342-0.046-0.699-0.11-1.034-0.062c-0.757,0.11-1.005-0.257-1.187-0.933c-1.399-5.198-2.828-10.388-4.273-15.574
			c-0.154-0.551-0.044-0.84,0.49-1.003c0.235-0.072,0.459-0.183,0.683-0.285c0.941-0.431,1.628-0.575,2.494,0.467
			c1.598,1.923,4.621,1.618,6.124-0.43c0.331-0.451,0.594-0.51,1.096-0.349c6.154,1.971,10.31,7.548,10.35,13.996
			c0.031,4.951,0.007,9.902,0.006,14.853C42.267,47.544,42.25,47.737,42.238,48.003z"/>
		<path fill="#145DA1" d="M27.514,16.336c-3.93-0.016-7.023-3.16-7.005-7.121c0.016-3.785,3.232-6.917,7.087-6.9
			c3.808,0.016,6.949,3.211,6.934,7.053C34.515,13.208,31.35,16.352,27.514,16.336z"/>
		<path fill="#06141E" d="M18.024,21.501c0,5.214,0,10.421,0,15.69c0.451,0.03,0.836,0.055,1.289,0.085c0,1.849,0,3.689,0,5.743
			c-0.469-0.132-0.899-0.257-1.332-0.372c-0.206-0.055-0.415-0.126-0.624-0.131c-0.693-0.017-1.387,0.013-2.079-0.013
			c-1.408-0.054-2.494-1.124-2.502-2.521c-0.018-2.847-0.129-5.701,0.041-8.538c0.233-3.894,1.945-7.155,4.816-9.799
			c0.054-0.05,0.115-0.096,0.18-0.128C17.851,21.498,17.905,21.508,18.024,21.501z M17.948,37.5c-0.09-0.045-0.18-0.091-0.27-0.136
			c-0.128,0.245-0.391,0.509-0.359,0.731c0.135,0.966,0.356,1.92,0.546,2.878c0.028-0.006,0.055-0.012,0.083-0.018
			C17.948,39.804,17.948,38.652,17.948,37.5z"/>
		<path fill="#00C551" d="M19.344,52.685c0-0.945,0-1.847,0-2.803c5.457,0,10.883,0,16.352,0c0,0.946,0,1.848,0,2.803
			C30.258,52.685,24.851,52.685,19.344,52.685z"/>
		<path fill="#06141E" d="M26.05,42.15c0-1.536,0-3.026,0-4.549c1.126-0.168,2.114-0.032,2.808,0.918
			c0.574,0.786,0.637,1.653,0.149,2.503C28.359,42.153,27.301,42.322,26.05,42.15z"/>
		<path fill="#00C551" d="M41.925,48.581c0.174,1.108,0.036,2.097-0.939,2.781c-0.8,0.562-1.665,0.611-2.514,0.111
			c-1.096-0.645-1.288-1.673-1.119-2.892C38.864,48.581,40.379,48.581,41.925,48.581z"/>
		<path fill="#00C551" d="M22.559,29.029c0,0,1.357,4.962,2.068,7.563c-0.705,0-1.313,0.025-1.915-0.021
			c-0.127-0.01-0.335-0.28-0.337-0.431c-0.021-2.363-0.015-7.09-0.015-7.09l-0.001-0.844L22.559,29.029z"/>
		<path fill="#06141E" d="M23.643,42.9c-0.466,0-0.877,0-1.348,0c0-1.866,0-3.702,0-5.6c0.444,0,0.869,0,1.348,0
			C23.643,39.143,23.643,40.978,23.643,42.9z"/>
		<path fill="#06141E" d="M21.52,42.9c-0.466,0-0.877,0-1.348,0c0-1.866,0-3.702,0-5.6c0.444,0,0.869,0,1.348,0
			C21.52,39.143,21.52,40.978,21.52,42.9z"/>
		<path fill="#00C551" d="M30.237,18.115c-0.802,1.093-1.75,1.564-2.938,1.484c-1.028-0.069-1.853-0.53-2.506-1.507
			C26.651,17.749,28.37,17.736,30.237,18.115z"/>
		<path fill="#06141E" d="M24.447,37.273c0.355,0,0.644,0,1.057,0c0,0.71,0,1.391,0,2.072c0,0.89,0.004,1.78-0.001,2.67
			c-0.005,0.896-0.087,0.964-1.056,0.851C24.447,41.034,24.447,39.195,24.447,37.273z"/>
	</g>
</g>
</svg>
