<?xml version="1.0" encoding="utf-8"?>
<!-- Generator: Adobe Illustrator 17.0.0, SVG Export Plug-In . SVG Version: 6.00 Build 0)  -->
<!DOCTYPE svg PUBLIC "-//W3C//DTD SVG 1.1//EN" "http://www.w3.org/Graphics/SVG/1.1/DTD/svg11.dtd">
<svg version="1.1" id="Layer_1" xmlns="http://www.w3.org/2000/svg" xmlns:xlink="http://www.w3.org/1999/xlink" x="0px" y="0px"
	 width="55px" height="55px" viewBox="0 0 55 55" enable-background="new 0 0 55 55" xml:space="preserve">
<g>
	<path fill="#06141E" d="M41.61,8.345v13.51c0,0.69-0.56,1.25-1.25,1.25c-0.69,0-1.25-0.56-1.25-1.25V8.345
		c0-1.95-1.59-3.53-3.54-3.53H7.44c-1.95,0-3.53,1.58-3.53,3.53v38.3c0,1.95,1.58,3.54,3.53,3.54h15.28c0.69,0,1.25,0.56,1.25,1.25
		s-0.56,1.25-1.25,1.25H7.44c-3.33,0-6.03-2.71-6.03-6.04v-38.3c0-3.32,2.7-6.03,6.03-6.03h28.13
		C38.9,2.315,41.61,5.025,41.61,8.345z"/>
	<path fill="#145DA1" d="M9.056,12.231c-0.69,0-1.25,0.56-1.25,1.25s0.56,1.25,1.25,1.25h24.894c0.69,0,1.25-0.56,1.25-1.25
		s-0.56-1.25-1.25-1.25H9.056z"/>
	<path fill="#145DA1" d="M28.306,21.858c0-0.69-0.56-1.25-1.25-1.25h-18c-0.69,0-1.25,0.56-1.25,1.25s0.56,1.25,1.25,1.25h18
		C27.746,23.108,28.306,22.549,28.306,21.858z"/>
	<path fill="#145DA1" d="M21.795,29.518c0-0.69-0.56-1.25-1.25-1.25H9.056c-0.69,0-1.25,0.56-1.25,1.25s0.56,1.25,1.25,1.25h11.489
		C21.235,30.768,21.795,30.209,21.795,29.518z"/>
	<path fill="#145DA1" d="M9.056,36.406c-0.69,0-1.25,0.56-1.25,1.25s0.56,1.25,1.25,1.25H14.8c0.69,0,1.25-0.56,1.25-1.25
		s-0.56-1.25-1.25-1.25H9.056z"/>
	<path fill="#00C551" d="M53.568,51.197c-0.097-5.567-3.66-10.292-8.613-12.14c1.606-1.328,2.631-3.334,2.631-5.576
		c0-3.989-3.245-7.234-7.234-7.234c-3.989,0-7.234,3.245-7.234,7.234c0,2.242,1.025,4.249,2.632,5.577
		c-5.022,1.875-8.616,6.707-8.616,12.375c0,0.69,0.56,1.25,1.25,1.25H52.32c0.007-0.001,0.013-0.001,0.02,0
		c0.69,0,1.25-0.56,1.25-1.25C53.59,51.352,53.582,51.273,53.568,51.197z"/>
</g>
</svg>
