<?xml version="1.0" encoding="utf-8"?>
<!-- Generator: Adobe Illustrator 17.0.0, SVG Export Plug-In . SVG Version: 6.00 Build 0)  -->
<!DOCTYPE svg PUBLIC "-//W3C//DTD SVG 1.1//EN" "http://www.w3.org/Graphics/SVG/1.1/DTD/svg11.dtd">
<svg version="1.1" id="Layer_1" xmlns="http://www.w3.org/2000/svg" xmlns:xlink="http://www.w3.org/1999/xlink" x="0px" y="0px"
	 width="55px" height="55px" viewBox="0 0 55 55" enable-background="new 0 0 55 55" xml:space="preserve">
<g>
	<path fill="#06141E" d="M46.815,25.925v-0.03h-20.79v0.01h-12.01v-0.01h-2.97v0.03h-8.73v26.76h50.36v-26.76H46.815z
		 M49.705,49.705H5.285v-20.79h44.42V49.705z"/>
	<path fill="#145DA1" d="M31.805,15.605c0-0.75,0.05-1.49,0-2.21c-0.38-5.39-4.14-9.7-9.41-10.84c-0.43-0.09-0.86-0.16-1.29-0.24
		h-2.17c-0.93,0.22-1.89,0.37-2.8,0.68c-4.69,1.59-7.87,6.03-7.92,10.99c-0.01,0.52,0,1.04,0,1.59h5.94
		c0.5,0.91,0.97,1.76,1.45,2.64c-2.81,1.7-4.36,4.25-4.56,7.68h2.97c0.12-2.09,0.98-3.74,2.71-4.87c2.03-1.31,4.18-1.39,6.28-0.19
		c1.92,1.1,2.88,2.82,3.02,5.06h2.97c-0.19-3.37-1.71-5.95-4.57-7.68c0.47-0.85,0.94-1.69,1.45-2.61H31.805z M20.015,17.065
		c-1.62,0-2.94-1.32-2.95-2.94c0-1.64,1.34-2.97,2.98-2.96c1.62,0.02,2.93,1.35,2.92,2.97
		C22.955,15.745,21.625,17.065,20.015,17.065z M19.885,8.245c-2.87,0.06-4.68,1.7-5.61,4.38h-2.93c0.3-3,3.24-7.18,8.37-7.35
		c5.18-0.17,8.54,3.85,8.99,7.36h-2.93C24.785,9.845,22.885,8.185,19.885,8.245z"/>
	<path fill="#06141E" d="M37.955,11.165v11.79h5.83v2.94h3.03v-2.92h5.86v-11.81H37.955z M49.705,19.995h-8.79v-5.84h8.79V19.995z"
		/>
	<rect x="2.315" y="25.895" fill="#00C551" width="50.37" height="26.79"/>
	<path fill="#FFFFFF" d="M34.862,34.986c0,2.972,0,5.872,0,8.827c-0.968,0-1.926,0-2.919,0c0,0.998,0,1.943,0,2.929
		c-2.96,0-5.884,0-8.862,0c0-0.943,0-1.9,0-2.892c-0.998,0-1.943,0-2.928,0c0-2.959,0-5.883,0-8.859c0.942,0,1.899,0,2.908,0
		c0-1.008,0-1.965,0-2.945c2.965,0,5.877,0,8.842,0c0,0.955,0,1.912,0,2.94C32.923,34.986,33.893,34.986,34.862,34.986z
		 M23.081,40.893c1.003,0,1.959,0,2.949,0c0,1,0,1.944,0,2.905c0.991,0,1.946,0,2.956,0c0-0.986,0-1.942,0-2.934
		c0.999,0,1.943,0,2.904,0c0-0.994,0-1.949,0-2.956c-0.986,0-1.943,0-2.935,0c0-0.997,0-1.94,0-2.901c-0.994,0-1.949,0-2.955,0
		c0,0.987,0,1.943,0,2.949c-1.007,0-1.964,0-2.92,0C23.081,38.939,23.081,39.871,23.081,40.893z"/>
</g>
</svg>
