<?xml version="1.0" encoding="utf-8"?>
<!-- Generator: Adobe Illustrator 17.0.0, SVG Export Plug-In . SVG Version: 6.00 Build 0)  -->
<!DOCTYPE svg PUBLIC "-//W3C//DTD SVG 1.1//EN" "http://www.w3.org/Graphics/SVG/1.1/DTD/svg11.dtd">
<svg version="1.1" id="Layer_1" xmlns="http://www.w3.org/2000/svg" xmlns:xlink="http://www.w3.org/1999/xlink" x="0px" y="0px"
	 width="55px" height="55px" viewBox="0 0 55 55" enable-background="new 0 0 55 55" xml:space="preserve">
<g transform="translate(0,-952.36218)">
	<path fill="#145DA1" d="M28.049,956.737v-1.52c0-0.28-0.26-0.55-0.55-0.54h-0.06c-0.01,0-0.02,0.01-0.04,0.02
		c-0.24,0.04-0.43,0.28-0.42,0.52v1.52c-11.87,0.28-21.41,9.79-21.41,21.43c-0.01,0.02-0.01,0.04,0,0.06c0,0.02,0.01,0.04,0.02,0.06
		c0,0.01,0.01,0.02,0.01,0.04c0.01,0.02,0.02,0.04,0.02,0.05c0.02,0.05,0.05,0.1,0.08,0.14c0.04,0.04,0.08,0.07,0.12,0.1
		c0.03,0.01,0.06,0.03,0.1,0.04c0.02,0,0.03,0.01,0.05,0.02c0.05,0.01,0.11,0.02,0.16,0.02h0.04c0.07-0.02,0.13-0.04,0.19-0.08
		c0.02-0.01,0.04-0.01,0.06-0.02c0.02-0.01,0.03-0.03,0.04-0.04c0.02-0.02,0.04-0.05,0.06-0.08c0.02-0.03,0.04-0.06,0.06-0.1
		c0.03-0.06,0.05-0.14,0.06-0.21c0-2.7,2.88-5.08,6.59-5.08c3.72,0,6.1,2.32,6.1,5.08c0,0.04,0,0.08,0.02,0.12
		c0,0.01,0.01,0.02,0.01,0.04c0.01,0.02,0.02,0.04,0.02,0.05c0.01,0.02,0.02,0.03,0.02,0.04c0.04,0.06,0.08,0.12,0.14,0.16
		c0.04,0.03,0.09,0.06,0.14,0.08c0.03,0.01,0.06,0.03,0.09,0.04h0.16c0.05-0.02,0.11-0.04,0.15-0.06c0.1-0.04,0.18-0.11,0.24-0.2
		c0.01-0.02,0.01-0.04,0.02-0.06c0.02-0.05,0.03-0.1,0.04-0.15c0-0.01,0.01-0.03,0.02-0.04c0-0.01,0-0.01,0-0.02
		c0-1.32,0.8-2.58,2.12-3.52c1.19-0.86,2.78-1.44,4.45-1.54v11.56h1.08v-11.56c1.66,0.1,3.26,0.68,4.45,1.54
		c1.32,0.94,2.12,2.2,2.12,3.52c0,0.05,0.01,0.1,0.02,0.16c0.01,0.03,0.03,0.06,0.04,0.09c0.03,0.05,0.06,0.1,0.1,0.14
		c0.03,0.02,0.06,0.04,0.1,0.06c0.04,0.02,0.09,0.04,0.13,0.06c0.04,0.01,0.08,0.01,0.12,0.02h0.1c0.03-0.01,0.06-0.03,0.09-0.04
		c0.15-0.05,0.28-0.17,0.34-0.31c0-0.02,0.01-0.04,0.01-0.06c0.01-0.04,0.01-0.08,0-0.12c0-2.76,2.4-5.08,6.12-5.08
		c3.71,0,6.59,2.38,6.59,5.08v0.06c0.01,0.02,0.02,0.04,0.02,0.06v0.04c0.01,0.02,0.02,0.04,0.02,0.05l0.04,0.04
		c0.01,0.02,0.01,0.04,0.02,0.06c0.02,0.03,0.05,0.06,0.08,0.08c0.02,0.02,0.05,0.04,0.08,0.06c0.04,0.02,0.09,0.04,0.13,0.06
		c0.11,0.02,0.22,0.01,0.31-0.02c0.04-0.01,0.07-0.03,0.1-0.04c0.02-0.01,0.04-0.01,0.06-0.02l0.04-0.04
		c0.1-0.1,0.15-0.23,0.16-0.37c0-0.01,0-0.01,0-0.02C49.439,966.537,39.899,957.027,28.049,956.737z"/>
	<path fill="#00C551" d="M37.229,984.687h-9.18v-0.02h-1.08v0.02h-9.4c-1.25,0-2.27,1.02-2.27,2.28v15.8c0,1.26,1.02,2.28,2.27,2.28
		h19.66c1.26,0,2.26-1.02,2.26-2.28v-15.8C39.489,985.707,38.489,984.687,37.229,984.687z M34.219,996.817h-4.89v4.88h-3.87v-4.88
		h-4.89v-3.88h4.89v-4.9h3.87v4.9h4.89V996.817z"/>
</g>
</svg>
