<?xml version="1.0" encoding="utf-8"?>
<!-- Generator: Adobe Illustrator 17.0.0, SVG Export Plug-In . SVG Version: 6.00 Build 0)  -->
<!DOCTYPE svg PUBLIC "-//W3C//DTD SVG 1.1//EN" "http://www.w3.org/Graphics/SVG/1.1/DTD/svg11.dtd">
<svg version="1.1" id="Layer_1" xmlns="http://www.w3.org/2000/svg" xmlns:xlink="http://www.w3.org/1999/xlink" x="0px" y="0px"
	 width="55px" height="55px" viewBox="0 0 55 55" enable-background="new 0 0 55 55" xml:space="preserve">
<g>
	<path fill="#06141E" d="M36.65,4.537H11.514v20.467c0,0.613-0.498,1.111-1.111,1.111c-0.613,0-1.111-0.498-1.111-1.111V3.426
		c0-0.613,0.498-1.111,1.111-1.111H37.39c0.297,0,0.579,0.119,0.789,0.329l7.204,7.204c0.209,0.209,0.325,0.49,0.325,0.786l0,14.371
		c0,0.613-0.498,1.111-1.111,1.111c-0.613,0-1.111-0.498-1.111-1.111v-13.63h-2.492c-1.195,0-2.282-0.489-3.069-1.276
		c-0.787-0.787-1.276-1.873-1.276-3.069L36.65,4.537L36.65,4.537z M11.514,50.463h31.972v-5.789c0-0.613,0.498-1.111,1.111-1.111
		c0.613,0,1.111,0.498,1.111,1.111v6.9c0,0.613-0.498,1.111-1.111,1.111H10.403c-0.613,0-1.111-0.498-1.111-1.111v-6.9
		c0-0.613,0.498-1.111,1.111-1.111c0.613,0,1.111,0.498,1.111,1.111L11.514,50.463L11.514,50.463z"/>
	<polygon fill="#145DA1" points="16.746,15.076 38.254,15.076 38.254,16.928 16.746,16.928 	"/>
	<polygon fill="#145DA1" points="16.746,19.471 38.254,19.471 38.254,21.322 16.746,21.322 	"/>
	<polygon fill="#145DA1" points="16.746,10.682 31.953,10.682 31.953,12.534 16.746,12.534 	"/>
	<path fill="#00C551" d="M16.968,39.539v-9.401h1.898v9.401H16.968z M20.341,34.923c0-1.565,0.405-2.78,1.213-3.646
		c0.808-0.865,1.869-1.298,3.187-1.298c1.149,0,2.084,0.339,2.802,1.02c0.429,0.401,0.749,0.978,0.963,1.731l-1.88,0.449
		c-0.109-0.488-0.341-0.873-0.696-1.156c-0.352-0.282-0.781-0.422-1.285-0.422c-0.696,0-1.263,0.25-1.696,0.751
		c-0.433,0.499-0.65,1.309-0.65,2.43c0,1.188,0.212,2.036,0.641,2.539c0.427,0.506,0.983,0.757,1.666,0.757
		c0.506,0,0.939-0.16,1.302-0.482c0.363-0.32,0.624-0.825,0.784-1.512l1.839,0.582c-0.282,1.027-0.751,1.788-1.407,2.287
		c-0.654,0.497-1.488,0.746-2.497,0.746c-1.248,0-2.274-0.427-3.077-1.278C20.743,37.567,20.341,36.4,20.341,34.923L20.341,34.923z
		 M30.153,30.138h3.469c0.781,0,1.377,0.059,1.788,0.179c0.552,0.162,1.024,0.451,1.416,0.867c0.394,0.414,0.694,0.921,0.9,1.521
		c0.204,0.602,0.306,1.342,0.306,2.224c0,0.773-0.096,1.44-0.289,2.001c-0.234,0.683-0.569,1.237-1.007,1.659
		c-0.328,0.322-0.773,0.571-1.333,0.751c-0.418,0.134-0.978,0.199-1.681,0.199h-3.57V30.138L30.153,30.138z M11.514,45.414h31.972
		h2.222h3.719c0.409,0,0.741-0.332,0.741-0.741v-19.67c0-0.409-0.332-0.741-0.741-0.741h-3.719h-2.222H11.514H9.292H5.573
		c-0.409,0-0.741,0.332-0.741,0.741v19.67c0,0.409,0.332,0.741,0.741,0.741h3.719H11.514z"/>
	<path fill="#00C551" d="M32.05,31.73v6.225h1.416c0.53,0,0.913-0.028,1.149-0.09c0.306-0.077,0.563-0.206,0.766-0.39
		c0.204-0.184,0.368-0.488,0.497-0.908c0.127-0.42,0.193-0.996,0.193-1.723c0-0.727-0.066-1.283-0.193-1.672
		c-0.129-0.39-0.309-0.694-0.538-0.911c-0.232-0.219-0.525-0.366-0.88-0.442c-0.265-0.061-0.784-0.09-1.558-0.09L32.05,31.73
		L32.05,31.73z"/>
</g>
</svg>
