<?xml version="1.0" encoding="utf-8"?>
<!-- Generator: Adobe Illustrator 17.0.0, SVG Export Plug-In . SVG Version: 6.00 Build 0)  -->
<!DOCTYPE svg PUBLIC "-//W3C//DTD SVG 1.1//EN" "http://www.w3.org/Graphics/SVG/1.1/DTD/svg11.dtd">
<svg version="1.1" id="Layer_1" xmlns="http://www.w3.org/2000/svg" xmlns:xlink="http://www.w3.org/1999/xlink" x="0px" y="0px"
	 width="55px" height="55px" viewBox="0 0 55 55" enable-background="new 0 0 55 55" xml:space="preserve">
<g>
	<path fill="#00C551" d="M13.668,10.042c0.379,0.379,0.994,0.426,1.42,0.142l3.598,3.693v1.752c0.237-0.047,0.473-0.095,0.757-0.095
		c2.178,0,3.93,1.752,3.93,3.93s-1.752,3.93-3.93,3.93c-0.284,0-0.521-0.047-0.757-0.095v2.604c0,0.805,0.615,1.42,1.42,1.42h7.954
		c0.805,0,1.42-0.615,1.42-1.42V12.078c0-0.757-0.615-1.42-1.42-1.42h-5.729l-3.693-3.835c0.284-0.426,0.284-1.042-0.095-1.42
		l-0.047-0.047c-0.426-0.473-1.136-0.473-1.61,0l-3.172,3.077C13.242,8.858,13.242,9.616,13.668,10.042L13.668,10.042z"/>
	<path fill="#145DA1" d="M27.161,43.609l1.515-2.415h-9.279c-0.663,0-1.231,0.568-1.231,1.231v1.515h-6.013V30.447
		c0-3.503,2.272-6.486,5.397-7.528c-1.231-0.663-2.036-1.941-2.036-3.456c0-0.947,0.331-1.799,0.9-2.509
		c-5.918,1.657-10.274,7.054-10.274,13.493v16.476c0,1.657,1.326,3.03,3.03,3.03h18.464c-0.189-0.237-0.379-0.521-0.521-0.805
		C26.072,47.396,26.12,45.313,27.161,43.609z"/>
	<path fill="#06141E" d="M22.096,32.388h3.93c0.615,0,1.136-0.521,1.136-1.136v-2.415h-6.202v2.415
		C20.959,31.867,21.48,32.388,22.096,32.388z"/>
	<path fill="#06141E" d="M21.811,19.463c0-1.326-1.089-2.415-2.415-2.415s-2.415,1.089-2.415,2.415s1.089,2.415,2.415,2.415
		S21.811,20.789,21.811,19.463z"/>
	<path fill="#00C551" d="M48.324,44.698l-5.681-9.185c-0.142-0.237-0.237-0.473-0.237-0.757v-4.592h0.331
		c0.568,0,0.994-0.426,0.994-0.994s-0.426-0.994-0.994-0.994h-8.285c-0.568,0-0.994,0.426-0.994,0.994s0.426,0.994,0.994,0.994
		h0.331v4.592c0,0.284-0.095,0.521-0.237,0.757l-5.634,9.185c-0.663,1.089-0.71,2.367-0.095,3.503C29.434,49.29,30.57,50,31.848,50
		h13.588c1.278,0,2.415-0.663,3.03-1.799C49.034,47.065,48.987,45.739,48.324,44.698z M39.755,39.111
		c-1.657-0.663-3.267-0.757-4.782-0.426l1.278-2.083c0.331-0.568,0.521-1.184,0.521-1.846v-4.592h3.598v4.592
		c0,0.663,0.189,1.278,0.521,1.846l1.941,3.125C41.885,39.726,40.796,39.537,39.755,39.111z"/>
	<path fill="#06141E" d="M35.683,26.47c0.237-0.095,0.379-0.331,0.284-0.568v-0.047c-0.142-0.426-0.237-0.805-0.237-1.184
		c0-0.379,0.142-0.71,0.331-1.136c0.095-0.237,0.189-0.426,0.284-0.71c0.095-0.284,0.189-0.615,0.189-0.9
		c0-0.331-0.047-0.663-0.142-0.947c-0.047-0.142-0.142-0.284-0.189-0.426c-0.095-0.142-0.142-0.237-0.284-0.379
		c-0.095-0.095-0.284-0.189-0.426-0.142c-0.237,0.047-0.379,0.284-0.331,0.521l0.047,0.189c0,0.047,0.047,0.142,0.095,0.237
		c0,0.095,0.047,0.189,0.047,0.284c0,0.189,0,0.379,0,0.521c-0.047,0.189-0.095,0.331-0.189,0.521l-0.331,0.663
		c-0.095,0.237-0.189,0.521-0.284,0.805c-0.047,0.284-0.095,0.615-0.095,0.947c0.047,0.663,0.331,1.184,0.71,1.61
		C35.304,26.47,35.494,26.518,35.683,26.47z"/>
	<path fill="#06141E" d="M38.76,26.47c0.237-0.095,0.379-0.331,0.284-0.568v-0.047c-0.142-0.426-0.237-0.805-0.237-1.184
		c0-0.379,0.142-0.71,0.331-1.136c0.095-0.237,0.189-0.426,0.284-0.71c0.095-0.284,0.189-0.615,0.189-0.9
		c0-0.331-0.047-0.663-0.142-0.947c-0.047-0.142-0.142-0.284-0.189-0.426c-0.095-0.142-0.142-0.237-0.284-0.379
		c-0.095-0.095-0.284-0.189-0.426-0.142c-0.237,0.047-0.379,0.284-0.331,0.521l0.047,0.189c0,0.047,0.047,0.142,0.095,0.237
		c0,0.095,0.047,0.189,0.047,0.284c0,0.189,0,0.379,0,0.521c-0.047,0.189-0.095,0.331-0.189,0.521l-0.331,0.663
		c-0.095,0.237-0.189,0.521-0.284,0.805c-0.047,0.284-0.095,0.615-0.095,0.947c0.047,0.663,0.331,1.184,0.71,1.61
		C38.382,26.47,38.571,26.518,38.76,26.47z"/>
	<path fill="#06141E" d="M41.885,26.47c0.237-0.095,0.379-0.331,0.284-0.568v-0.047c-0.142-0.426-0.237-0.805-0.237-1.184
		c0-0.379,0.142-0.71,0.331-1.136c0.095-0.237,0.189-0.426,0.284-0.71c0.095-0.284,0.189-0.615,0.189-0.9
		c0-0.331-0.047-0.663-0.142-0.947c-0.047-0.142-0.142-0.284-0.189-0.426c-0.095-0.142-0.142-0.237-0.284-0.379
		c-0.095-0.095-0.284-0.189-0.426-0.142c-0.237,0.047-0.379,0.284-0.331,0.521l0.047,0.189c0,0.047,0.047,0.142,0.095,0.237
		c0,0.095,0.047,0.189,0.047,0.284c0,0.189,0,0.379,0,0.521c-0.047,0.189-0.095,0.331-0.189,0.521l-0.331,0.663
		c-0.095,0.237-0.189,0.521-0.284,0.805c-0.047,0.284-0.095,0.615-0.095,0.947c0.047,0.663,0.331,1.184,0.71,1.61
		C41.459,26.47,41.696,26.518,41.885,26.47z"/>
</g>
</svg>
