<?xml version="1.0" encoding="utf-8"?>
<!-- Generator: Adobe Illustrator 17.0.0, SVG Export Plug-In . SVG Version: 6.00 Build 0)  -->
<!DOCTYPE svg PUBLIC "-//W3C//DTD SVG 1.1//EN" "http://www.w3.org/Graphics/SVG/1.1/DTD/svg11.dtd">
<svg version="1.1" id="Layer_1" xmlns="http://www.w3.org/2000/svg" xmlns:xlink="http://www.w3.org/1999/xlink" x="0px" y="0px"
	 width="55px" height="55px" viewBox="0 0 55 55" enable-background="new 0 0 55 55" xml:space="preserve">
<g>
	<g>
		<path fill="#145DA1" d="M25.226,35H23.29v-4.092c0-1.204-0.757-2.297-1.884-2.719l-5.23-1.961l0.68-1.813l5.229,1.961
			c1.878,0.705,3.14,2.527,3.14,4.532V35z M25.226,35"/>
		<path fill="#145DA1" d="M3.935,35H2v-4.092c0-2.005,1.262-3.827,3.14-4.532l5.229-1.961l0.68,1.813l-5.23,1.961
			c-1.127,0.423-1.884,1.515-1.884,2.719V35z M3.935,35"/>
		<path fill="#145DA1" d="M13.613,29.194c-2.135,0-3.871-1.736-3.871-3.871v-1.935h1.935v1.935c0,1.067,0.868,1.935,1.935,1.935
			c1.067,0,1.935-0.868,1.935-1.935v-1.935h1.935v1.935C17.484,27.457,15.748,29.194,13.613,29.194L13.613,29.194z M13.613,29.194"
			/>
		<path fill="#145DA1" d="M13.613,25.323c-3.202,0-5.806-2.604-5.806-5.806v-4.839h1.935v4.839c0,2.135,1.736,3.871,3.871,3.871
			s3.871-1.736,3.871-3.871v-4.839h1.935v4.839C19.419,22.719,16.815,25.323,13.613,25.323L13.613,25.323z M13.613,25.323"/>
		<path fill="#145DA1" d="M18.452,21.452v-1.935c1.067,0,1.935-0.868,1.935-1.935c0-1.067-0.868-1.935-1.935-1.935
			c-1.507,0-2.924-0.586-3.988-1.652l-0.008-0.008c-1.701,1.087-3.66,1.66-5.682,1.66c-1.067,0-1.935,0.868-1.935,1.935
			c0,1.067,0.868,1.935,1.935,1.935v1.935c-2.135,0-3.871-1.736-3.871-3.871c0-2.135,1.736-3.871,3.871-3.871
			c1.708,0,3.361-0.501,4.781-1.448l1.148-0.765l1.128,1.128c0.7,0.7,1.631,1.085,2.62,1.085c2.135,0,3.871,1.736,3.871,3.871
			C22.323,19.715,20.586,21.452,18.452,21.452L18.452,21.452z M18.452,21.452"/>
		<path fill="#145DA1" d="M22.323,17.581h-1.935V13.71c0-3.734-3.039-6.774-6.774-6.774s-6.774,3.04-6.774,6.774v3.871H4.903V13.71
			c0-4.803,3.908-8.71,8.71-8.71s8.71,3.907,8.71,8.71V17.581z M22.323,17.581"/>
		<rect x="19.419" y="30.161" fill="#145DA1" width="1.935" height="4.839"/>
		<rect x="5.871" y="30.161" fill="#145DA1" width="1.935" height="4.839"/>
	</g>
	<path fill="#06141E" d="M50.241,35H28.584V16.404h21.656V35z M31.584,32h15.656V19.404H31.584V32z"/>
	<rect x="2" y="35" fill="#00C551" width="51" height="15"/>
	<path fill="#FFFFFF" d="M39.412,48.094c-0.828,0-1.5-0.672-1.5-1.5v-8.188c0-0.828,0.672-1.5,1.5-1.5s1.5,0.672,1.5,1.5v8.188
		C40.912,47.422,40.24,48.094,39.412,48.094z"/>
	<path fill="#FFFFFF" d="M43.506,44h-8.188c-0.828,0-1.5-0.672-1.5-1.5s0.672-1.5,1.5-1.5h8.188c0.828,0,1.5,0.672,1.5,1.5
		S44.334,44,43.506,44z"/>
</g>
</svg>
