<?xml version="1.0" encoding="utf-8"?>
<!-- Generator: Adobe Illustrator 17.0.0, SVG Export Plug-In . SVG Version: 6.00 Build 0)  -->
<!DOCTYPE svg PUBLIC "-//W3C//DTD SVG 1.1//EN" "http://www.w3.org/Graphics/SVG/1.1/DTD/svg11.dtd">
<svg version="1.1" id="Layer_1" xmlns="http://www.w3.org/2000/svg" xmlns:xlink="http://www.w3.org/1999/xlink" x="0px" y="0px"
	 width="55px" height="55px" viewBox="0 0 55 55" enable-background="new 0 0 55 55" xml:space="preserve">
<g>
	<g>
		<path fill="#06141E" d="M24.008,2.315H11.251c-1.911,0-3.466,1.555-3.466,3.466c0,1.682,1.204,3.087,2.796,3.401v36.454
			c0,3.887,3.162,7.049,7.049,7.049c3.887,0,7.049-3.162,7.049-7.049V9.182c1.591-0.313,2.796-1.719,2.796-3.401
			C27.474,3.87,25.919,2.315,24.008,2.315L24.008,2.315z M22.672,45.636c0,2.78-2.262,5.042-5.042,5.042
			c-2.78,0-5.042-2.261-5.042-5.042V23.353h10.084V45.636z M22.672,21.347H12.588V9.248h10.084V21.347z M24.008,7.241H11.251
			c-0.805,0-1.459-0.655-1.459-1.46c0-0.804,0.655-1.459,1.459-1.459h12.757c0.805,0,1.459,0.654,1.459,1.459
			C25.468,6.586,24.813,7.241,24.008,7.241L24.008,7.241z M24.008,7.241"/>
	</g>
	<path fill="#145DA1" d="M22.672,45.636c0,2.78-2.262,5.042-5.042,5.042c-2.78,0-5.042-2.261-5.042-5.042V23.353h10.084V45.636z"/>
	<rect x="12.588" y="9.248" fill="#145DA1" width="10.084" height="12.099"/>
	<path fill="#FFFFFF" d="M15.055,34.781c-0.554,0-1.003,0.449-1.003,1.003v1.232c0,0.554,0.449,1.003,1.003,1.003
		c0.554,0,1.003-0.449,1.003-1.003v-1.232C16.058,35.23,15.609,34.781,15.055,34.781L15.055,34.781z M15.055,34.781"/>
	<path fill="#FFFFFF" d="M15.055,25.153c-0.554,0-1.003,0.449-1.003,1.003v5.822c0,0.554,0.449,1.003,1.003,1.003
		c0.554,0,1.003-0.449,1.003-1.003v-5.822C16.058,25.602,15.609,25.153,15.055,25.153L15.055,25.153z M15.055,25.153"/>
	<path fill="#06141E" d="M46.003,2.315l-13.306,0c-0.664,0-1.202,0.538-1.202,1.202c0,0.664,0.538,1.202,1.202,1.202h1.851v8.763
		l-1.845,0c-0.664,0-1.202,0.538-1.202,1.202c0,0.664,0.538,1.202,1.202,1.202l0.645,0l0,18.036c0,0.664,0.538,1.202,1.202,1.202
		h1.201v3.607c0,0.319,0.127,0.625,0.352,0.85c0.225,0.225,0.531,0.352,0.85,0.352h1.202l0,11.548c0,0.664,0.538,1.202,1.202,1.202
		c0.332,0,0.633-0.135,0.85-0.352s0.352-0.518,0.352-0.85l0-11.548h1.202c0.319,0,0.625-0.126,0.85-0.352
		c0.226-0.226,0.352-0.531,0.352-0.85l0-3.607l1.2,0c0.319,0,0.625-0.126,0.85-0.352c0.225-0.225,0.352-0.531,0.352-0.85l0-18.036
		h0.645c0.332,0,0.633-0.135,0.85-0.352c0.218-0.218,0.352-0.518,0.352-0.85c0-0.664-0.538-1.202-1.202-1.202l-1.845,0V4.72l1.836,0
		c0.332,0,0.633-0.134,0.85-0.352c0.218-0.218,0.352-0.518,0.352-0.85C47.205,2.853,46.667,2.315,46.003,2.315L46.003,2.315z
		 M40.56,37.53h-2.405l0-2.405h2.404L40.56,37.53z M42.963,32.72h-7.21l0-2.405v-2.405V25.56l7.211-0.046V32.72z M42.963,23.109
		l-7.211,0.046l0-2.459v-2.405l0-2.405h7.211L42.963,23.109z M41.762,13.482l-4.809,0l0-8.763h4.81L41.762,13.482z M41.762,13.482"
		/>
	<rect x="37.546" y="34.516" fill="#00C551" width="3.624" height="3.623"/>
	<rect x="35.187" y="15.322" fill="#00C551" width="8.335" height="8.348"/>
	<rect x="35.187" y="24.941" fill="#00C551" width="8.335" height="8.348"/>
</g>
</svg>
