<?xml version="1.0" encoding="utf-8"?>
<!-- Generator: Adobe Illustrator 17.0.0, SVG Export Plug-In . SVG Version: 6.00 Build 0)  -->
<!DOCTYPE svg PUBLIC "-//W3C//DTD SVG 1.1//EN" "http://www.w3.org/Graphics/SVG/1.1/DTD/svg11.dtd">
<svg version="1.1" id="Layer_1" xmlns="http://www.w3.org/2000/svg" xmlns:xlink="http://www.w3.org/1999/xlink" x="0px" y="0px"
	 width="55px" height="55px" viewBox="0 0 55 55" enable-background="new 0 0 55 55" xml:space="preserve">
<g>
	<path fill="#FFFFFF" d="M33.367,36.096c-1.643,0-3.199,0-4.776,0c-0.011,0.149-0.026,0.265-0.026,0.38
		c-0.001,4.577-0.005,9.155,0.008,13.732c0.001,0.345,0.067,0.711,0.197,1.029c0.433,1.063,1.547,1.625,2.675,1.398
		c1.127-0.227,1.919-1.199,1.92-2.393c0.005-4.073,0.002-8.145,0.002-12.218C33.367,37.389,33.367,36.754,33.367,36.096z"/>
	<path fill="#FFFFFF" d="M21.655,36.084c-0.012,0.135-0.027,0.233-0.027,0.331c-0.001,4.632-0.004,9.263,0.006,13.895
		c0.001,0.295,0.064,0.607,0.171,0.883c0.415,1.065,1.522,1.658,2.651,1.451c1.149-0.211,1.947-1.147,1.95-2.357
		c0.01-4.632,0.004-9.263,0.003-13.895c0-0.096-0.021-0.191-0.035-0.307C24.8,36.084,23.256,36.084,21.655,36.084z"/>
	<path fill="#FFFFFF" d="M31.573,6.406c-0.002-2.263-1.822-4.096-4.061-4.091c-2.277,0.005-4.11,1.848-4.093,4.117
		c0.017,2.269,1.812,4.048,4.091,4.054C29.759,10.492,31.575,8.669,31.573,6.406z"/>
	<path fill="#FFFFFF" d="M35.451,13.178c-1.035-0.865-2.123-1.276-3.351-1.281c-3.064-0.012-6.127-0.007-9.191-0.001
		c-1.093,0.002-2.082,0.344-2.973,0.971c-0.113,0.08-0.209,0.184-0.35,0.311C24.883,13.178,30.107,13.178,35.451,13.178z"/>
	<path fill="#06141E" d="M33.367,36.061c0,0.658,0,1.294,0,1.929c0,4.073,0.003,8.145-0.002,12.218
		c-0.001,1.193-0.793,2.166-1.92,2.393c-1.128,0.227-2.242-0.335-2.675-1.398c-0.13-0.318-0.196-0.685-0.197-1.029
		c-0.013-4.577-0.009-9.155-0.008-13.732c0-0.115,0-0.38,0-0.38S31.724,36.061,33.367,36.061z"/>
	<path fill="#06141E" d="M21.626,36.05h4.785c0,0-0.003,0.212-0.003,0.307c0.001,4.632,0.007,9.263-0.003,13.895
		c-0.003,1.21-0.8,2.146-1.95,2.357c-1.129,0.207-2.236-0.386-2.651-1.451c-0.107-0.276-0.171-0.587-0.171-0.883
		c-0.01-4.632-0.007-9.263-0.006-13.895C21.628,36.283,21.626,36.05,21.626,36.05z"/>
	<path fill="#06141E" d="M31.573,6.436c0.002,2.262-1.814,4.086-4.063,4.08c-2.278-0.006-4.074-1.786-4.091-4.054
		c-0.017-2.268,1.816-4.112,4.093-4.117C29.752,2.34,31.571,4.173,31.573,6.436z"/>
	<path fill="#06141E" d="M35.451,13.208c-5.344,0-10.568,0-15.865,0c0.142-0.127,0.237-0.231,0.35-0.311
		c0.891-0.627,1.88-0.969,2.973-0.971c3.064-0.005,6.128-0.011,9.191,0.001C33.328,11.933,34.416,12.344,35.451,13.208z"/>
	<path fill="#00C551" d="M26.332,23.101c0-0.428,0-0.809,0-1.236c-0.124,0-0.237,0-0.349,0c-1.336,0-2.672,0.001-4.008-0.001
		c-0.477-0.001-0.718-0.161-0.708-0.458c0.01-0.288,0.242-0.431,0.702-0.432c1.304-0.001,2.608,0,3.911,0c0.137,0,0.275,0,0.438,0
		c0-0.42,0-0.817,0-1.246c-0.267,0-0.521,0-0.775,0c-0.823,0-1.646,0.001-2.469-0.002c-0.149-0.001-0.301-0.006-0.446-0.034
		c-0.227-0.044-0.359-0.193-0.35-0.429c0.009-0.234,0.154-0.37,0.381-0.406c0.115-0.018,0.234-0.015,0.352-0.015
		c0.983-0.001,1.966-0.001,2.95-0.001c0.115,0,0.23,0,0.381,0c0-0.252,0-0.471,0-0.712c0.777,0,1.519,0,2.296,0
		c0,0.228,0,0.447,0,0.71c0.138,0,0.241,0,0.344,0c1.005,0.001,2.009,0.001,3.014,0.002c0.117,0,0.237-0.005,0.351,0.017
		c0.234,0.045,0.43,0.195,0.378,0.429c-0.035,0.158-0.219,0.321-0.377,0.401c-0.139,0.071-0.334,0.037-0.505,0.037
		c-0.94,0.002-1.881,0-2.821,0c-0.114,0-0.229,0.01-0.358,0.016c0,0.409,0,0.79,0,1.231c0.121,0,0.243,0,0.365,0
		c1.347,0,2.693-0.001,4.04,0.001c0.117,0,0.271-0.03,0.343,0.031c0.142,0.119,0.307,0.282,0.33,0.446
		c0.015,0.107-0.184,0.279-0.322,0.362c-0.107,0.064-0.269,0.047-0.406,0.048c-1.325,0.003-2.65,0.002-3.976,0.002
		c-0.116,0-0.231,0-0.369,0c0,0.416,0,0.804,0,1.239c0.132,0,0.256,0,0.38,0c1.421,0,2.843-0.001,4.264,0.002
		c0.148,0,0.329-0.017,0.435,0.058c0.136,0.097,0.301,0.288,0.289,0.424c-0.012,0.139-0.206,0.286-0.351,0.383
		c-0.083,0.055-0.229,0.021-0.346,0.021c-1.443,0.001-2.885,0.001-4.328,0.002c-0.105,0-0.211,0-0.341,0c0,0.413,0,0.801,0,1.225
		c0.113,0.006,0.225,0.017,0.338,0.018c1.218,0.002,2.437,0.001,3.655,0.003c0.149,0,0.301,0.003,0.446,0.032
		c0.249,0.049,0.415,0.206,0.388,0.467c-0.025,0.241-0.201,0.375-0.445,0.378c-0.641,0.008-1.282,0.007-1.924,0.008
		c-0.811,0.001-1.621,0-2.458,0c0,0.423,0,0.82,0,1.258c0.123,0,0.237,0,0.351,0c1.197,0,2.394-0.002,3.591,0.001
		c0.574,0.002,0.722,0.13,0.694,0.697c-0.03,0.616-0.101,1.232-0.183,1.843c-0.026,0.194-0.122,0.389-0.225,0.559
		c-0.439,0.723-1.429,0.87-2.003,0.253c-0.374-0.402-0.638-0.903-0.966-1.35c-0.195-0.265-0.397-0.532-0.636-0.756
		c-0.161-0.151-0.391-0.228-0.645-0.368c0,0.895,0,1.704,0,2.54c-0.774,0-1.524,0-2.3,0c0-0.826,0-1.635,0-2.569
		c-0.308,0.18-0.59,0.273-0.768,0.464c-0.31,0.333-0.556,0.726-0.828,1.094c-0.234,0.317-0.433,0.668-0.708,0.945
		c-0.658,0.662-1.732,0.469-2.051-0.406c-0.197-0.54-0.221-1.144-0.303-1.722c-0.031-0.22-0.008-0.448-0.003-0.673
		c0.009-0.395,0.141-0.535,0.545-0.546c0.481-0.013,0.962-0.006,1.443-0.007c0.855-0.002,1.71-0.004,2.565-0.007
		c0.019,0,0.038-0.014,0.08-0.03c0-0.39,0-0.788,0-1.221c-0.131,0-0.246,0-0.361,0c-1.218,0-2.437,0-3.655-0.001
		c-0.139,0-0.28,0.006-0.415-0.019c-0.223-0.04-0.404-0.187-0.36-0.411c0.03-0.154,0.185-0.327,0.33-0.401
		c0.149-0.076,0.355-0.053,0.535-0.053c1.176-0.003,2.351-0.002,3.527-0.001c0.126,0,0.252,0,0.4,0c0-0.419,0-0.809,0-1.246
		c-0.129,0-0.253,0-0.377,0c-1.432,0-2.864,0.001-4.296-0.002c-0.481-0.001-0.694-0.141-0.684-0.437
		c0.009-0.301,0.229-0.448,0.69-0.448c1.443-0.003,2.885-0.002,4.328-0.003C26.088,23.101,26.193,23.101,26.332,23.101z"/>
	<path fill="#145DA1" d="M14.101,15.033v19.191l6.729,0.001l20.069-0.003V15.033H14.101z M39.127,32.465l-23.253,0.003V16.79h23.253
		V32.465z"/>
</g>
</svg>
